<svg xmlns="http://www.w3.org/2000/svg" width="480" height="302" class="">
    <defs>
        <style/>
    </defs>
    <style>@keyframes animation-gauge{0%{stroke-dasharray:0 329}}@keyframes animation-rainbow{0%,to{color:#7f00ff;fill:#7f00ff}14%{color:#a933ff;fill:#a933ff}29%{color:#007fff;fill:#007fff}43%{color:#00ff7f;fill:#00ff7f}57%{color:#ff0;fill:#ff0}71%{color:#ff7f00;fill:#ff7f00}86%{color:red;fill:red}}svg{font-family:-apple-system,BlinkMacSystemFont,Segoe UI,Helvetica,Arial,sans-serif,Apple Color Emoji,Segoe UI Emoji;font-size:14px;color:#777}h2{margin:8px 0 2px;padding:0;color:#0366d6;font-weight:400;font-size:16px}h2 svg{fill:currentColor}section&gt;.field{margin-left:5px;margin-right:5px}.field{display:flex;align-items:center;margin-bottom:2px;white-space:nowrap}.field svg{margin:0 8px;fill:#959da5;flex-shrink:0}.row{display:flex;flex-wrap:wrap}.row section{flex:1 1 0}:root{--color-calendar-graph-day-bg:#ebedf0;--color-calendar-graph-day-border:rgba(27,31,35,0.06);--color-calendar-graph-day-L1-bg:#9be9a8;--color-calendar-graph-day-L2-bg:#40c463;--color-calendar-graph-day-L3-bg:#30a14e;--color-calendar-graph-day-L4-bg:#216e39;--color-calendar-halloween-graph-day-L1-bg:#ffee4a;--color-calendar-halloween-graph-day-L2-bg:#ffc501;--color-calendar-halloween-graph-day-L3-bg:#fe9600;--color-calendar-halloween-graph-day-L4-bg:#03001c;--color-calendar-winter-graph-day-L1-bg:#0a3069;--color-calendar-winter-graph-day-L2-bg:#0969da;--color-calendar-winter-graph-day-L3-bg:#54aeff;--color-calendar-winter-graph-day-L4-bg:#b6e3ff;--color-calendar-graph-day-L4-border:rgba(27,31,35,0.06);--color-calendar-graph-day-L3-border:rgba(27,31,35,0.06);--color-calendar-graph-day-L2-border:rgba(27,31,35,0.06);--color-calendar-graph-day-L1-border:rgba(27,31,35,0.06)}#metrics-end{width:100%}</style>
    <style/>
    <foreignObject x="0" y="0" width="100%" height="100%">
        <div xmlns="http://www.w3.org/1999/xhtml" xmlns:xlink="http://www.w3.org/1999/xlink" class="items-wrapper">
            <section>
                <h2 class="field">
                    <svg xmlns="http://www.w3.org/2000/svg" viewBox="0 0 16 16" width="16" height="16">
                        <path d="M10.75 9a.75.75 0 000 1.5h1.5a.75.75 0 000-1.5h-1.5z"/>
                        <path fill-rule="evenodd" d="M0 3.75C0 2.784.784 2 1.75 2h12.5c.966 0 1.75.784 1.75 1.75v8.5A1.75 1.75 0 0114.25 14H1.75A1.75 1.75 0 010 12.25v-8.5zm14.5 0V5h-13V3.75a.25.25 0 01.25-.25h12.5a.25.25 0 01.25.25zm0 2.75h-13v5.75c0 .138.112.25.25.25h12.5a.25.25 0 00.25-.25V6.5z"/>
                    </svg>
                    Stock prices for MS
                </h2>
                <div class="row">
                    <section>
                        <div class="field">
                            <svg xmlns="http://www.w3.org/2000/svg" viewBox="0 0 16 16" width="16" height="16">
                                <path fill-rule="evenodd" d="M1.5 14.25c0 .138.112.25.25.25H4v-1.25a.75.75 0 01.75-.75h2.5a.75.75 0 01.75.75v1.25h2.25a.25.25 0 00.25-.25V1.75a.25.25 0 00-.25-.25h-8.5a.25.25 0 00-.25.25v12.5zM1.75 16A1.75 1.75 0 010 14.25V1.75C0 .784.784 0 1.75 0h8.5C11.216 0 12 .784 12 1.75v12.5c0 .085-.006.168-.018.25h2.268a.25.25 0 00.25-.25V8.285a.25.25 0 00-.111-.208l-1.055-.703a.75.75 0 11.832-1.248l1.055.703c.487.325.779.871.779 1.456v5.965A1.75 1.75 0 0114.25 16h-3.5a.75.75 0 01-.197-.026c-.099.017-.2.026-.303.026h-3a.75.75 0 01-.75-.75V14h-1v1.25a.75.75 0 01-.75.75h-3zM3 3.75A.75.75 0 013.75 3h.5a.75.75 0 010 1.5h-.5A.75.75 0 013 3.75zM3.75 6a.75.75 0 000 1.5h.5a.75.75 0 000-1.5h-.5zM3 9.75A.75.75 0 013.75 9h.5a.75.75 0 010 1.5h-.5A.75.75 0 013 9.75zM7.75 9a.75.75 0 000 1.5h.5a.75.75 0 000-1.5h-.5zM7 6.75A.75.75 0 017.75 6h.5a.75.75 0 010 1.5h-.5A.75.75 0 017 6.75zM7.75 3a.75.75 0 000 1.5h.5a.75.75 0 000-1.5h-.5z"/>
                            </svg>
                            MS
                        </div>
                        <div class="field">
                            <svg xmlns="http://www.w3.org/2000/svg" viewBox="0 0 16 16" width="16" height="16">
                                <path fill-rule="evenodd" d="M6 2a.75.75 0 01.696.471L10 10.731l1.304-3.26A.75.75 0 0112 7h3.25a.75.75 0 010 1.5h-2.742l-1.812 4.528a.75.75 0 01-1.392 0L6 4.77 4.696 8.03A.75.75 0 014 8.5H.75a.75.75 0 010-1.5h2.742l1.812-4.529A.75.75 0 016 2z"/>
                            </svg>
                            Valued at 167.58 USD
                        </div>
                    </section>
                    <section>
                        <div class="field">
                            <svg xmlns="http://www.w3.org/2000/svg" viewBox="0 0 16 16" width="16" height="16">
                                <path fill-rule="evenodd" d="M4.75 0a.75.75 0 01.75.75V2h5V.75a.75.75 0 011.5 0V2h1.25c.966 0 1.75.784 1.75 1.75v10.5A1.75 1.75 0 0113.25 16H2.75A1.75 1.75 0 011 14.25V3.75C1 2.784 1.784 2 2.75 2H4V.75A.75.75 0 014.75 0zm0 3.5h8.5a.25.25 0 01.25.25V6h-11V3.75a.25.25 0 01.25-.25h2zm-2.25 4v6.75c0 .138.112.25.25.25h10.5a.25.25 0 00.25-.25V7.5h-11z"/>
                            </svg>
                            Last five days
                        </div>
                        <div class="field">
                            <svg xmlns="http://www.w3.org/2000/svg" viewBox="0 0 16 16" width="16" height="16">
                                <path fill-rule="evenodd" d="M3.47 7.78a.75.75 0 010-1.06l4.25-4.25a.75.75 0 011.06 0l4.25 4.25a.75.75 0 01-1.06 1.06L9 4.81v7.44a.75.75 0 01-1.5 0V4.81L4.53 7.78a.75.75 0 01-1.06 0z"/>
                            </svg>
                            +1.63 USD (+0.97%)
                        </div>
                    </section>
                </div>
                <div class="stock-chart">
                    <svg xmlns="http://www.w3.org/2000/svg" width="480" height="200">
                        <g transform="translate(10,155)" fill="none" font-size="10" font-family="sans-serif" text-anchor="middle">
                            <path class="domain" stroke="rgba(127, 127, 127, .8)" d="M10.5,0.5H460.5"/>
                            <g class="tick" opacity="1" transform="translate(18.70785591695213,0)">
                                <line stroke="currentColor" y2="6" stroke-opacity="0.5"/>
                                <text fill="rgba(127, 127, 127, .8)" y="9" dy="0.71em" transform="translate(-5,5) rotate(-45)" style="text-anchor: end;">12 PM</text>
                            </g>
                            <g class="tick" opacity="1" transform="translate(52.47732026098376,0)">
                                <line stroke="currentColor" y2="6" stroke-opacity="0.5"/>
                                <text fill="rgba(127, 127, 127, .8)" y="9" dy="0.71em" transform="translate(-5,5) rotate(-45)" style="text-anchor: end;">Fri 27</text>
                            </g>
                            <g class="tick" opacity="1" transform="translate(86.24678460501539,0)">
                                <line stroke="currentColor" y2="6" stroke-opacity="0.5"/>
                                <text fill="rgba(127, 127, 127, .8)" y="9" dy="0.71em" transform="translate(-5,5) rotate(-45)" style="text-anchor: end;">12 PM</text>
                            </g>
                            <g class="tick" opacity="1" transform="translate(120.01624894904703,0)">
                                <line stroke="currentColor" y2="6" stroke-opacity="0.5"/>
                                <text fill="rgba(127, 127, 127, .8)" y="9" dy="0.71em" transform="translate(-5,5) rotate(-45)" style="text-anchor: end;">Sat 28</text>
                            </g>
                            <g class="tick" opacity="1" transform="translate(153.78571329307866,0)">
                                <line stroke="currentColor" y2="6" stroke-opacity="0.5"/>
                                <text fill="rgba(127, 127, 127, .8)" y="9" dy="0.71em" transform="translate(-5,5) rotate(-45)" style="text-anchor: end;">12 PM</text>
                            </g>
                            <g class="tick" opacity="1" transform="translate(187.55517763711026,0)">
                                <line stroke="currentColor" y2="6" stroke-opacity="0.5"/>
                                <text fill="rgba(127, 127, 127, .8)" y="9" dy="0.71em" transform="translate(-5,5) rotate(-45)" style="text-anchor: end;">March</text>
                            </g>
                            <g class="tick" opacity="1" transform="translate(221.32464198114192,0)">
                                <line stroke="currentColor" y2="6" stroke-opacity="0.5"/>
                                <text fill="rgba(127, 127, 127, .8)" y="9" dy="0.71em" transform="translate(-5,5) rotate(-45)" style="text-anchor: end;">12 PM</text>
                            </g>
                            <g class="tick" opacity="1" transform="translate(255.09410632517353,0)">
                                <line stroke="currentColor" y2="6" stroke-opacity="0.5"/>
                                <text fill="rgba(127, 127, 127, .8)" y="9" dy="0.71em" transform="translate(-5,5) rotate(-45)" style="text-anchor: end;">Mon 02</text>
                            </g>
                            <g class="tick" opacity="1" transform="translate(288.86357066920516,0)">
                                <line stroke="currentColor" y2="6" stroke-opacity="0.5"/>
                                <text fill="rgba(127, 127, 127, .8)" y="9" dy="0.71em" transform="translate(-5,5) rotate(-45)" style="text-anchor: end;">12 PM</text>
                            </g>
                            <g class="tick" opacity="1" transform="translate(322.6330350132368,0)">
                                <line stroke="currentColor" y2="6" stroke-opacity="0.5"/>
                                <text fill="rgba(127, 127, 127, .8)" y="9" dy="0.71em" transform="translate(-5,5) rotate(-45)" style="text-anchor: end;">Tue 03</text>
                            </g>
                            <g class="tick" opacity="1" transform="translate(356.4024993572684,0)">
                                <line stroke="currentColor" y2="6" stroke-opacity="0.5"/>
                                <text fill="rgba(127, 127, 127, .8)" y="9" dy="0.71em" transform="translate(-5,5) rotate(-45)" style="text-anchor: end;">12 PM</text>
                            </g>
                            <g class="tick" opacity="1" transform="translate(390.1719637013,0)">
                                <line stroke="currentColor" y2="6" stroke-opacity="0.5"/>
                                <text fill="rgba(127, 127, 127, .8)" y="9" dy="0.71em" transform="translate(-5,5) rotate(-45)" style="text-anchor: end;">Wed 04</text>
                            </g>
                            <g class="tick" opacity="1" transform="translate(423.9414280453317,0)">
                                <line stroke="currentColor" y2="6" stroke-opacity="0.5"/>
                                <text fill="rgba(127, 127, 127, .8)" y="9" dy="0.71em" transform="translate(-5,5) rotate(-45)" style="text-anchor: end;">12 PM</text>
                            </g>
                            <g class="tick" opacity="1" transform="translate(457.7108923893633,0)">
                                <line stroke="currentColor" y2="6" stroke-opacity="0.5"/>
                                <text fill="rgba(127, 127, 127, .8)" y="9" dy="0.71em" transform="translate(-5,5) rotate(-45)" style="text-anchor: end;">Thu 05</text>
                            </g>
                        </g>
                        <g transform="translate(10,10)" fill="none" font-size="10" font-family="sans-serif" text-anchor="start">
                            <g class="tick" opacity="1" transform="translate(0,28.269569491947852)">
                                <line stroke="currentColor" x2="460" stroke-opacity="0.5" stroke-dasharray="2,2"/>
                                <text fill="rgba(127, 127, 127, .8)" x="0" dy="-4">175</text>
                            </g>
                            <g class="tick" opacity="1" transform="translate(0,59.425668471412514)">
                                <line stroke="currentColor" x2="460" stroke-opacity="0.5" stroke-dasharray="2,2"/>
                                <text fill="rgba(127, 127, 127, .8)" x="0" dy="-4">170</text>
                            </g>
                            <g class="tick" opacity="1" transform="translate(0,90.5817674508772)">
                                <line stroke="currentColor" x2="460" stroke-opacity="0.5" stroke-dasharray="2,2"/>
                                <text fill="rgba(127, 127, 127, .8)" x="0" dy="-4">165</text>
                            </g>
                            <g class="tick" opacity="1" transform="translate(0,121.73786643034185)">
                                <line stroke="currentColor" x2="460" stroke-opacity="0.5" stroke-dasharray="2,2"/>
                                <text fill="rgba(127, 127, 127, .8)" x="0" dy="-4">160</text>
                            </g>
                        </g>
                        <path transform="translate(10,10)" d="M10,34.001L10.235,38.425L10.704,38.425L11.173,35.683L12.111,37.802L12.814,36.244L13.518,36.244L14.221,36.244L14.925,35.932L15.159,37.303L15.394,36.992L15.628,36.992L16.332,35.683L16.566,36.992L17.035,37.49L17.739,37.49L18.208,34.499L18.442,34.312L18.677,34.499L18.911,36.992L19.146,34.437L19.38,36.244L19.615,34.499L19.849,34.499L20.084,34.001L20.318,33.315L20.553,33.315L21.022,38.487L21.256,34.001L21.726,32.505L22.429,30.262L22.664,32.256L22.898,34.001L23.133,32.351L23.367,31.758L23.602,31.944L23.836,32.131L24.071,32.131L25.243,21.788L25.478,20.292L25.712,21.414L25.947,23.221L26.181,26.461L26.416,23.532L26.65,24.783L26.885,23.782L27.119,22.068L27.354,25.713L27.588,25.215L27.823,25.713L28.057,25.215L28.292,21.601L28.526,21.663L28.761,19.42L28.995,17.987L29.23,18.236L29.464,19.981L29.699,17.052L29.933,17.395L30.168,17.332L30.402,17.208L30.637,16.709L30.871,19.794L31.106,22.13L31.34,23.532L31.575,22.972L31.809,24.467L32.044,25.09L32.278,30.48L32.513,27.567L32.747,29.047L32.982,28.393L33.217,24.311L33.451,24.779L33.686,24.08L33.92,24.779L34.155,26.274L34.389,25.713L34.624,23.906L34.858,23.408L35.093,21.725L35.327,21.414L35.562,20.541L35.796,18.255L36.031,18.454L36.265,19.295L36.5,14.933L36.734,13.438L36.969,13.375L37.203,15.058L37.438,15.681L37.672,15.743L37.907,13.687L38.141,13.936L38.376,14.061L38.61,12.192L38.845,10.758L39.079,12.877L39.314,11.257L39.548,12.192L39.783,12.939L40.017,12.129L40.252,12.752L40.486,13.126L40.721,11.849L40.955,11.724L41.19,12.503L41.424,10.456L41.659,10.914L41.893,13.064L42.128,13.562L42.362,13.687L42.597,13.936L42.831,12.877L43.066,12.752L43.3,12.254L43.535,10L43.769,12.254L44.004,12.254L44.238,34.001L44.473,21.649L44.708,33.378L44.942,16.429L45.177,20.105L45.411,16.429L45.646,20.043L45.88,18.049L46.349,15.307L46.584,15.307L46.818,20.105L47.053,15.369L47.287,15.619L47.522,21.538L47.991,21.538L48.225,25.9L48.46,20.105L48.694,20.105L49.398,12.254L50.101,12.254L50.57,21.538L50.805,21.538L51.039,21.538L51.274,21.227L51.508,21.476L77.304,15.681L77.539,13.189L77.773,13.189L78.242,13.189L78.711,13.189L79.18,13.189L80.119,12.378L80.353,15.993L80.588,17.488L81.995,15.245L82.464,15.245L83.167,15.245L84.34,18.921L84.574,18.921L85.278,18.921L85.747,21.788L85.981,21.788L86.216,21.788L86.45,20.479L87.154,24.28L87.388,23.906L87.623,23.906L87.857,23.906L88.326,24.031L88.561,23.719L88.795,24.031L89.03,26.025L89.264,28.206L89.499,22.722L89.733,27.77L89.968,30.574L90.202,32.755L90.437,38.051L90.671,32.817L90.906,34.001L91.375,39.609L91.61,36.369L91.844,35.932L92.782,36.135L93.017,55.405L93.251,67.338L93.486,61.044L93.72,64.596L93.955,60.982L94.189,62.478L94.424,51.386L94.658,54.315L94.893,66.278L95.127,70.204L95.362,70.002L95.596,66.777L95.831,64.035L96.065,62.353L96.3,67.805L96.534,66.341L96.769,64.347L97.003,64.285L97.238,65.593L97.472,66.092L97.707,69.145L97.941,65.593L98.176,66.278L98.41,64.721L98.645,67.369L98.879,73.881L99.114,77.837L99.348,78.866L99.583,80.236L99.817,77.682L100.052,82.448L100.286,84.162L100.521,87.309L100.755,88.836L100.99,93.677L101.224,86.53L101.459,90.082L101.693,88.212L101.928,89.583L102.162,88.181L102.397,85.221L102.632,83.975L102.866,85.658L103.101,86.177L103.335,86.436L103.57,87.87L103.804,88.711L104.039,89.022L104.273,89.459L104.508,87.309L104.742,84.848L104.977,80.213L105.211,81.358L105.446,82.563L105.68,83.975L105.915,83.414L106.149,81.981L106.384,82.729L106.618,84.723L106.853,84.38L107.087,84.162L107.322,83.726L107.556,85.408L107.791,85.221L108.025,87.527L108.26,84.692L108.494,84.474L108.729,81.109L108.963,83.913L109.198,82.075L109.432,83.539L109.667,80.797L109.901,84.287L110.136,81.545L110.37,83.57L110.605,83.353L110.839,80.922L111.074,80.361L111.308,80.112L111.543,83.851L111.777,83.29L112.012,82.604L112.246,82.604L112.481,81.981L112.715,82.293L112.95,80.673L113.184,83.477L113.419,79.698L113.653,81.358L113.888,83.165L114.123,83.165L114.357,81.358L114.592,81.42L114.826,80.735L115.061,83.103L115.295,83.188L115.53,83.539L115.764,81.42L115.999,81.358L116.233,81.483L116.468,81.483L116.702,82.168L116.937,82.604L117.171,83.539L117.406,81.358L117.64,80.797L117.875,80.735L118.109,80.797L118.344,82.667L118.578,80.673L118.813,80.735L119.047,82.729L119.282,81.169L279.921,109.025L280.156,108.775L280.39,101.485L280.625,101.485L280.859,106.906L281.328,101.485L281.563,101.485L281.797,106.532L282.032,111.081L282.501,107.093L282.735,106.906L282.97,106.408L283.204,107.529L283.439,109.523L283.673,107.903L283.908,110.209L284.142,107.654L284.377,108.775L284.611,109.025L284.846,108.838L285.08,110.271L285.549,110.022L285.784,110.458L286.018,110.645L286.253,113.137L286.487,110.333L286.722,110.022L286.957,109.461L287.191,108.775L287.66,102.544L287.895,107.778L288.129,107.529L288.364,106.034L288.598,107.218L288.833,107.529L289.067,108.464L289.302,105.722L289.536,107.031L289.771,105.099L290.005,106.283L290.24,106.594L290.474,102.607L290.709,102.918L291.178,105.037L291.412,104.414L291.647,101.423L291.881,101.298L292.116,99.429L292.35,98.805L292.585,98.992L292.819,101.298L293.054,105.037L293.288,104.102L293.523,102.482L293.757,101.485L293.992,104.164L294.226,103.354L294.461,105.348L295.399,88.275L295.633,87.028L295.868,79.052L296.102,76.953L296.337,78.647L296.571,76.062L296.806,73.257L297.04,73.289L297.275,67.587L297.509,65.624L297.744,66.995L297.978,67.805L298.213,72.79L298.448,74.049L298.682,74.94L298.917,75.127L299.151,72.697L299.386,70.204L299.62,66.123L299.855,67.805L300.089,66.87L300.324,67.307L300.558,65.282L300.793,69.955L301.027,68.771L301.262,67.338L301.496,65.032L301.731,63.474L301.965,65.967L302.2,68.522L302.434,67.431L302.669,67.213L302.903,64.97L303.138,63.038L303.372,63.786L303.607,67.774L303.841,67.431L304.076,67.151L304.31,68.241L304.545,70.453L304.779,70.453L305.014,70.267L305.248,68.397L305.483,71.201L305.717,71.762L305.952,71.263L306.186,72.821L306.421,72.51L306.655,71.388L306.89,73.133L307.124,72.884L307.359,72.416L307.593,71.263L307.828,71.206L308.062,71.541L308.297,71.45L308.531,69.675L308.766,69.519L309,68.83L309.235,69.394L309.469,70.267L309.704,71.139L309.939,71.201L310.173,72.555L310.408,71.762L310.642,71.793L310.877,72.884L311.111,75.376L311.346,77.993L311.58,76.872L311.815,76.996L312.049,77.931L312.284,76.716L312.518,76.872L312.753,76.872L312.987,77.183L313.222,79.458L313.456,77.713L313.691,76.996L313.925,78.616L314.16,80.735L314.394,78.305L314.629,80.922L315.098,77.619L315.332,80.657L315.567,77.682L315.801,145L316.036,77.62L316.27,77.619L316.505,145L316.739,80.112L316.974,81.812L317.208,78.118L317.912,78.118L318.381,81.545L318.615,77.682L318.85,145L319.084,77.791L319.319,78.305L319.553,78.305L319.788,81.296L320.022,78.305L320.491,79.115L320.96,79.8L321.195,77.619L321.43,83.788L321.664,83.726L321.899,83.788L347.46,96.313L347.695,99.429L347.929,96.811L348.164,96.874L348.398,96.936L348.633,96.811L349.102,96.811L349.571,96.936L349.805,102.233L350.274,99.055L350.509,102.544L350.978,102.544L351.916,106.844L352.15,106.844L352.385,101.921L352.619,102.17L353.088,102.233L353.323,102.233L353.792,104.912L354.026,102.544L354.261,104.787L354.495,100.301L354.73,100.675L354.964,98.182L355.199,97.248L355.433,97.248L355.668,99.242L355.902,93.571L356.137,98.681L356.372,96.375L356.606,96.064L356.841,96.687L357.075,95.565L357.31,95.067L357.544,90.705L357.779,91.39L358.013,90.331L358.248,94.755L358.482,94.381L358.717,95.628L358.951,95.69L359.186,96.217L359.42,93.198L359.655,94.257L359.889,96.313L360.124,99.429L360.358,103.167L360.593,105.037L360.827,104.789L361.062,105.598L361.296,100.176L361.531,105.286L361.765,103.491L362,106.034L362.938,109.274L363.172,108.682L363.407,115.505L363.641,113.947L363.876,115.007L364.11,111.517L364.345,111.673L364.579,113.511L364.814,111.393L365.048,114.29L365.283,118.558L365.517,118.247L365.752,111.985L365.986,111.33L366.221,110.801L366.455,111.766L366.69,113.573L366.924,111.143L367.159,111.393L367.393,107.093L367.628,104.227L367.863,104.725L368.097,100.784L368.332,101.111L368.566,101.08L368.801,101.282L369.035,99.522L369.27,96.188L369.504,93.634L369.739,93.073L369.973,92.761L370.208,92.356L370.442,94.662L370.677,94.35L370.911,92.45L371.146,93.073L371.38,93.758L371.615,93.758L371.849,91.674L372.084,90.767L372.318,92.045L372.553,90.518L372.787,88.836L373.022,87.589L373.256,88.991L373.491,88.586L373.725,83.04L373.96,83.134L374.194,81.109L374.429,79.302L374.663,82.822L374.898,84.785L375.132,82.199L375.367,83.414L375.601,83.259L375.836,85.595L376.07,85.19L376.305,83.446L376.539,83.57L376.774,84.349L377.008,86.093L377.243,82.324L377.477,80.423L377.712,75.625L377.946,77.183L378.181,79.426L378.415,79.177L378.65,79.489L378.884,80.298L379.119,81.732L379.354,80.735L379.588,79.239L379.823,80.797L380.057,82.324L380.292,83.105L380.526,83.539L380.761,84.785L380.995,83.913L381.23,84.162L381.464,91.266L381.699,88.96L381.933,87.465L382.168,84.924L382.402,84.162L382.637,84.163L382.871,84.163L383.34,86.031L383.575,84.162L383.809,84.162L384.278,84.162L384.982,86.966L385.216,85.782L385.685,86.966L386.154,84.785L386.858,89.75L387.327,84.162L387.796,84.474L388.499,105.124L389.203,86.966L389.437,85.471L414.999,94.381L415.234,94.381L415.468,84.598L415.937,84.598L416.641,89.209L417.344,81.857L417.813,82.604L418.048,82.604L418.282,83.477L418.517,84.349L418.751,84.349L418.986,80.797L419.22,83.165L419.455,81.67L420.158,81.67L420.627,80.735L420.862,80.735L421.331,79.863L421.565,79.863L421.8,79.863L422.269,80.486L422.503,80.735L422.738,80.735L422.972,81.981L423.441,79.925L423.676,81.171L424.145,81.171L424.379,80.735L424.614,84.411L424.848,85.346L425.083,83.851L425.787,84.474L426.021,85.034L426.256,89.459L426.49,79.613L426.725,77.869L426.959,75.75L427.194,80.797L427.428,79.863L427.897,79.863L428.132,79.177L428.601,76.124L428.835,77.557L429.07,76.809L429.304,77.308L429.539,77.432L430.477,73.974L430.711,74.13L430.946,77.619L431.18,79.052L431.415,74.566L431.649,69.706L431.884,71.326L432.118,69.176L432.353,68.335L432.587,68.522L432.822,68.023L433.056,66.964L433.291,69.27L433.525,71.077L433.76,69.425L433.994,68.833L434.229,70.017L434.463,68.771L434.698,68.584L434.932,69.955L435.167,72.603L435.401,71.295L435.636,71.513L435.87,69.083L436.105,68.584L436.339,69.394L436.574,66.59L436.809,67.712L437.043,68.272L437.278,69.425L437.512,68.272L437.747,67.805L437.981,69.083L438.216,69.643L438.45,70.578L438.685,71.388L438.919,70.703L439.154,70.765L439.388,72.541L439.623,72.02L439.857,72.167L440.092,72.51L440.326,72.821L440.561,71.139L440.795,73.133L441.03,74.192L441.264,75.065L441.499,74.036L441.733,72.884L441.968,73.756L442.202,73.787L442.437,74.192L442.671,74.192L442.906,73.631L443.14,72.759L443.375,71.855L443.609,73.257L443.844,73.444L444.078,73.071L444.313,74.005L444.547,74.005L444.782,74.566L445.016,73.507L445.251,71.575L445.485,71.949L445.72,72.51L445.954,72.479L446.189,73.382L446.423,73.071L446.658,73.818L446.892,75.158L447.127,75.22L447.361,74.395L447.596,74.753L447.83,75.002L448.065,73.725L448.3,74.878L448.534,74.379L448.769,74.005L449.003,74.005L449.238,74.005L449.472,74.005L449.707,71.388L449.941,71.292L450.176,71.656L450.41,76.728L450.645,74.005L451.114,77.448L451.348,70.765L451.583,73.881L451.817,70.913L452.052,75.438L452.286,75.376L452.521,74.005L452.755,74.005L453.224,74.192L453.693,74.441L453.928,75.563L454.162,74.005L454.397,77.619L454.631,74.504L455.335,75.501L455.804,77.448L456.038,77.333L456.273,75.501L456.507,75.563L456.742,70.765L456.976,74.441L457.211,75.438L457.68,74.441L457.914,74.441L458.149,74.504L458.383,73.881L458.852,72.697L459.087,71.388L459.556,71.388L459.791,73.444L460,73.444" fill="transparent" stroke="#87ceeb" stroke-width="2"/>
                        <path transform="translate(10,10)" d="M10,145L10.235,145L10.704,145L11.173,145L12.111,145L12.814,145L13.518,145L14.221,145L14.925,145L15.159,145L15.394,145L15.628,145L16.332,145L16.566,145L17.035,145L17.739,145L18.208,145L18.442,145L18.677,145L18.911,145L19.146,145L19.38,145L19.615,145L19.849,145L20.084,145L20.318,145L20.553,145L21.022,145L21.256,145L21.726,145L22.429,145L22.664,145L22.898,145L23.133,145L23.367,145L23.602,145L23.836,145L24.071,145L25.243,145L25.478,145L25.712,145L25.947,145L26.181,145L26.416,145L26.65,145L26.885,145L27.119,145L27.354,145L27.588,145L27.823,145L28.057,145L28.292,145L28.526,145L28.761,145L28.995,145L29.23,145L29.464,145L29.699,145L29.933,145L30.168,145L30.402,145L30.637,145L30.871,145L31.106,145L31.34,145L31.575,145L31.809,145L32.044,145L32.278,145L32.513,145L32.747,145L32.982,145L33.217,145L33.451,145L33.686,145L33.92,145L34.155,145L34.389,145L34.624,145L34.858,145L35.093,145L35.327,145L35.562,145L35.796,145L36.031,145L36.265,145L36.5,145L36.734,145L36.969,145L37.203,145L37.438,145L37.672,145L37.907,145L38.141,145L38.376,145L38.61,145L38.845,145L39.079,145L39.314,145L39.548,145L39.783,145L40.017,145L40.252,145L40.486,145L40.721,145L40.955,145L41.19,145L41.424,145L41.659,145L41.893,145L42.128,145L42.362,145L42.597,145L42.831,145L43.066,145L43.3,145L43.535,145L43.769,145L44.004,145L44.238,145L44.473,145L44.708,145L44.942,145L45.177,145L45.411,145L45.646,145L45.88,145L46.349,145L46.584,145L46.818,145L47.053,145L47.287,145L47.522,145L47.991,145L48.225,145L48.46,145L48.694,145L49.398,145L50.101,145L50.57,145L50.805,145L51.039,145L51.274,145L51.508,145L77.304,145L77.539,145L77.773,145L78.242,145L78.711,145L79.18,145L80.119,145L80.353,145L80.588,145L81.995,145L82.464,145L83.167,145L84.34,145L84.574,145L85.278,145L85.747,145L85.981,145L86.216,145L86.45,145L87.154,145L87.388,145L87.623,145L87.857,145L88.326,145L88.561,145L88.795,145L89.03,145L89.264,145L89.499,145L89.733,145L89.968,145L90.202,145L90.437,145L90.671,145L90.906,145L91.375,145L91.61,145L91.844,145L92.782,145L93.017,145L93.251,145L93.486,145L93.72,145L93.955,145L94.189,145L94.424,145L94.658,145L94.893,145L95.127,145L95.362,145L95.596,145L95.831,145L96.065,145L96.3,145L96.534,145L96.769,145L97.003,145L97.238,145L97.472,145L97.707,145L97.941,145L98.176,145L98.41,145L98.645,145L98.879,145L99.114,145L99.348,145L99.583,145L99.817,145L100.052,145L100.286,145L100.521,145L100.755,145L100.99,145L101.224,145L101.459,145L101.693,145L101.928,145L102.162,145L102.397,145L102.632,145L102.866,145L103.101,145L103.335,145L103.57,145L103.804,145L104.039,145L104.273,145L104.508,145L104.742,145L104.977,145L105.211,145L105.446,145L105.68,145L105.915,145L106.149,145L106.384,145L106.618,145L106.853,145L107.087,145L107.322,145L107.556,145L107.791,145L108.025,145L108.26,145L108.494,145L108.729,145L108.963,145L109.198,145L109.432,145L109.667,145L109.901,145L110.136,145L110.37,145L110.605,145L110.839,145L111.074,145L111.308,145L111.543,145L111.777,145L112.012,145L112.246,145L112.481,145L112.715,145L112.95,145L113.184,145L113.419,145L113.653,145L113.888,145L114.123,145L114.357,145L114.592,145L114.826,145L115.061,145L115.295,145L115.53,145L115.764,145L115.999,145L116.233,145L116.468,145L116.702,145L116.937,145L117.171,145L117.406,145L117.64,145L117.875,145L118.109,145L118.344,145L118.578,145L118.813,145L119.047,145L119.282,145L279.921,145L280.156,145L280.39,145L280.625,145L280.859,145L281.328,145L281.563,145L281.797,145L282.032,145L282.501,145L282.735,145L282.97,145L283.204,145L283.439,145L283.673,145L283.908,145L284.142,145L284.377,145L284.611,145L284.846,145L285.08,145L285.549,145L285.784,145L286.018,145L286.253,145L286.487,145L286.722,145L286.957,145L287.191,145L287.66,145L287.895,145L288.129,145L288.364,145L288.598,145L288.833,145L289.067,145L289.302,145L289.536,145L289.771,145L290.005,145L290.24,145L290.474,145L290.709,145L291.178,145L291.412,145L291.647,145L291.881,145L292.116,145L292.35,145L292.585,145L292.819,145L293.054,145L293.288,145L293.523,145L293.757,145L293.992,145L294.226,145L294.461,145L295.399,145L295.633,145L295.868,145L296.102,145L296.337,145L296.571,145L296.806,145L297.04,145L297.275,145L297.509,145L297.744,145L297.978,145L298.213,145L298.448,145L298.682,145L298.917,145L299.151,145L299.386,145L299.62,145L299.855,145L300.089,145L300.324,145L300.558,145L300.793,145L301.027,145L301.262,145L301.496,145L301.731,145L301.965,145L302.2,145L302.434,145L302.669,145L302.903,145L303.138,145L303.372,145L303.607,145L303.841,145L304.076,145L304.31,145L304.545,145L304.779,145L305.014,145L305.248,145L305.483,145L305.717,145L305.952,145L306.186,145L306.421,145L306.655,145L306.89,145L307.124,145L307.359,145L307.593,145L307.828,145L308.062,145L308.297,145L308.531,145L308.766,145L309,145L309.235,145L309.469,145L309.704,145L309.939,145L310.173,145L310.408,145L310.642,145L310.877,145L311.111,145L311.346,145L311.58,145L311.815,145L312.049,145L312.284,145L312.518,145L312.753,145L312.987,145L313.222,145L313.456,145L313.691,145L313.925,145L314.16,145L314.394,145L314.629,145L315.098,145L315.332,145L315.567,145L315.801,145L316.036,145L316.27,145L316.505,145L316.739,145L316.974,145L317.208,145L317.912,145L318.381,145L318.615,145L318.85,145L319.084,145L319.319,145L319.553,145L319.788,145L320.022,145L320.491,145L320.96,145L321.195,145L321.43,145L321.664,145L321.899,145L347.46,145L347.695,145L347.929,145L348.164,145L348.398,145L348.633,145L349.102,145L349.571,145L349.805,145L350.274,145L350.509,145L350.978,145L351.916,145L352.15,145L352.385,145L352.619,145L353.088,145L353.323,145L353.792,145L354.026,145L354.261,145L354.495,145L354.73,145L354.964,145L355.199,145L355.433,145L355.668,145L355.902,145L356.137,145L356.372,145L356.606,145L356.841,145L357.075,145L357.31,145L357.544,145L357.779,145L358.013,145L358.248,145L358.482,145L358.717,145L358.951,145L359.186,145L359.42,145L359.655,145L359.889,145L360.124,145L360.358,145L360.593,145L360.827,145L361.062,145L361.296,145L361.531,145L361.765,145L362,145L362.938,145L363.172,145L363.407,145L363.641,145L363.876,145L364.11,145L364.345,145L364.579,145L364.814,145L365.048,145L365.283,145L365.517,145L365.752,145L365.986,145L366.221,145L366.455,145L366.69,145L366.924,145L367.159,145L367.393,145L367.628,145L367.863,145L368.097,145L368.332,145L368.566,145L368.801,145L369.035,145L369.27,145L369.504,145L369.739,145L369.973,145L370.208,145L370.442,145L370.677,145L370.911,145L371.146,145L371.38,145L371.615,145L371.849,145L372.084,145L372.318,145L372.553,145L372.787,145L373.022,145L373.256,145L373.491,145L373.725,145L373.96,145L374.194,145L374.429,145L374.663,145L374.898,145L375.132,145L375.367,145L375.601,145L375.836,145L376.07,145L376.305,145L376.539,145L376.774,145L377.008,145L377.243,145L377.477,145L377.712,145L377.946,145L378.181,145L378.415,145L378.65,145L378.884,145L379.119,145L379.354,145L379.588,145L379.823,145L380.057,145L380.292,145L380.526,145L380.761,145L380.995,145L381.23,145L381.464,145L381.699,145L381.933,145L382.168,145L382.402,145L382.637,145L382.871,145L383.34,145L383.575,145L383.809,145L384.278,145L384.982,145L385.216,145L385.685,145L386.154,145L386.858,145L387.327,145L387.796,145L388.499,145L389.203,145L389.437,145L414.999,145L415.234,145L415.468,145L415.937,145L416.641,145L417.344,145L417.813,145L418.048,145L418.282,145L418.517,145L418.751,145L418.986,145L419.22,145L419.455,145L420.158,145L420.627,145L420.862,145L421.331,145L421.565,145L421.8,145L422.269,145L422.503,145L422.738,145L422.972,145L423.441,145L423.676,145L424.145,145L424.379,145L424.614,145L424.848,145L425.083,145L425.787,145L426.021,145L426.256,145L426.49,145L426.725,145L426.959,145L427.194,145L427.428,145L427.897,145L428.132,145L428.601,145L428.835,145L429.07,145L429.304,145L429.539,145L430.477,145L430.711,145L430.946,145L431.18,145L431.415,145L431.649,145L431.884,145L432.118,145L432.353,145L432.587,145L432.822,145L433.056,145L433.291,145L433.525,145L433.76,145L433.994,145L434.229,145L434.463,145L434.698,145L434.932,145L435.167,145L435.401,145L435.636,145L435.87,145L436.105,145L436.339,145L436.574,145L436.809,145L437.043,145L437.278,145L437.512,145L437.747,145L437.981,145L438.216,145L438.45,145L438.685,145L438.919,145L439.154,145L439.388,145L439.623,145L439.857,145L440.092,145L440.326,145L440.561,145L440.795,145L441.03,145L441.264,145L441.499,145L441.733,145L441.968,145L442.202,145L442.437,145L442.671,145L442.906,145L443.14,145L443.375,145L443.609,145L443.844,145L444.078,145L444.313,145L444.547,145L444.782,145L445.016,145L445.251,145L445.485,145L445.72,145L445.954,145L446.189,145L446.423,145L446.658,145L446.892,145L447.127,145L447.361,145L447.596,145L447.83,145L448.065,145L448.3,145L448.534,145L448.769,145L449.003,145L449.238,145L449.472,145L449.707,145L449.941,145L450.176,145L450.41,145L450.645,145L451.114,145L451.348,145L451.583,145L451.817,145L452.052,145L452.286,145L452.521,145L452.755,145L453.224,145L453.693,145L453.928,145L454.162,145L454.397,145L454.631,145L455.335,145L455.804,145L456.038,145L456.273,145L456.507,145L456.742,145L456.976,145L457.211,145L457.68,145L457.914,145L458.149,145L458.383,145L458.852,145L459.087,145L459.556,145L459.791,145L460,145L460,73.444L459.791,73.444L459.556,71.388L459.087,71.388L458.852,72.697L458.383,73.881L458.149,74.504L457.914,74.441L457.68,74.441L457.211,75.438L456.976,74.441L456.742,70.765L456.507,75.563L456.273,75.501L456.038,77.333L455.804,77.448L455.335,75.501L454.631,74.504L454.397,77.619L454.162,74.005L453.928,75.563L453.693,74.441L453.224,74.192L452.755,74.005L452.521,74.005L452.286,75.376L452.052,75.438L451.817,70.913L451.583,73.881L451.348,70.765L451.114,77.448L450.645,74.005L450.41,76.728L450.176,71.656L449.941,71.292L449.707,71.388L449.472,74.005L449.238,74.005L449.003,74.005L448.769,74.005L448.534,74.379L448.3,74.878L448.065,73.725L447.83,75.002L447.596,74.753L447.361,74.395L447.127,75.22L446.892,75.158L446.658,73.818L446.423,73.071L446.189,73.382L445.954,72.479L445.72,72.51L445.485,71.949L445.251,71.575L445.016,73.507L444.782,74.566L444.547,74.005L444.313,74.005L444.078,73.071L443.844,73.444L443.609,73.257L443.375,71.855L443.14,72.759L442.906,73.631L442.671,74.192L442.437,74.192L442.202,73.787L441.968,73.756L441.733,72.884L441.499,74.036L441.264,75.065L441.03,74.192L440.795,73.133L440.561,71.139L440.326,72.821L440.092,72.51L439.857,72.167L439.623,72.02L439.388,72.541L439.154,70.765L438.919,70.703L438.685,71.388L438.45,70.578L438.216,69.643L437.981,69.083L437.747,67.805L437.512,68.272L437.278,69.425L437.043,68.272L436.809,67.712L436.574,66.59L436.339,69.394L436.105,68.584L435.87,69.083L435.636,71.513L435.401,71.295L435.167,72.603L434.932,69.955L434.698,68.584L434.463,68.771L434.229,70.017L433.994,68.833L433.76,69.425L433.525,71.077L433.291,69.27L433.056,66.964L432.822,68.023L432.587,68.522L432.353,68.335L432.118,69.176L431.884,71.326L431.649,69.706L431.415,74.566L431.18,79.052L430.946,77.619L430.711,74.13L430.477,73.974L429.539,77.432L429.304,77.308L429.07,76.809L428.835,77.557L428.601,76.124L428.132,79.177L427.897,79.863L427.428,79.863L427.194,80.797L426.959,75.75L426.725,77.869L426.49,79.613L426.256,89.459L426.021,85.034L425.787,84.474L425.083,83.851L424.848,85.346L424.614,84.411L424.379,80.735L424.145,81.171L423.676,81.171L423.441,79.925L422.972,81.981L422.738,80.735L422.503,80.735L422.269,80.486L421.8,79.863L421.565,79.863L421.331,79.863L420.862,80.735L420.627,80.735L420.158,81.67L419.455,81.67L419.22,83.165L418.986,80.797L418.751,84.349L418.517,84.349L418.282,83.477L418.048,82.604L417.813,82.604L417.344,81.857L416.641,89.209L415.937,84.598L415.468,84.598L415.234,94.381L414.999,94.381L389.437,85.471L389.203,86.966L388.499,105.124L387.796,84.474L387.327,84.162L386.858,89.75L386.154,84.785L385.685,86.966L385.216,85.782L384.982,86.966L384.278,84.162L383.809,84.162L383.575,84.162L383.34,86.031L382.871,84.163L382.637,84.163L382.402,84.162L382.168,84.924L381.933,87.465L381.699,88.96L381.464,91.266L381.23,84.162L380.995,83.913L380.761,84.785L380.526,83.539L380.292,83.105L380.057,82.324L379.823,80.797L379.588,79.239L379.354,80.735L379.119,81.732L378.884,80.298L378.65,79.489L378.415,79.177L378.181,79.426L377.946,77.183L377.712,75.625L377.477,80.423L377.243,82.324L377.008,86.093L376.774,84.349L376.539,83.57L376.305,83.446L376.07,85.19L375.836,85.595L375.601,83.259L375.367,83.414L375.132,82.199L374.898,84.785L374.663,82.822L374.429,79.302L374.194,81.109L373.96,83.134L373.725,83.04L373.491,88.586L373.256,88.991L373.022,87.589L372.787,88.836L372.553,90.518L372.318,92.045L372.084,90.767L371.849,91.674L371.615,93.758L371.38,93.758L371.146,93.073L370.911,92.45L370.677,94.35L370.442,94.662L370.208,92.356L369.973,92.761L369.739,93.073L369.504,93.634L369.27,96.188L369.035,99.522L368.801,101.282L368.566,101.08L368.332,101.111L368.097,100.784L367.863,104.725L367.628,104.227L367.393,107.093L367.159,111.393L366.924,111.143L366.69,113.573L366.455,111.766L366.221,110.801L365.986,111.33L365.752,111.985L365.517,118.247L365.283,118.558L365.048,114.29L364.814,111.393L364.579,113.511L364.345,111.673L364.11,111.517L363.876,115.007L363.641,113.947L363.407,115.505L363.172,108.682L362.938,109.274L362,106.034L361.765,103.491L361.531,105.286L361.296,100.176L361.062,105.598L360.827,104.789L360.593,105.037L360.358,103.167L360.124,99.429L359.889,96.313L359.655,94.257L359.42,93.198L359.186,96.217L358.951,95.69L358.717,95.628L358.482,94.381L358.248,94.755L358.013,90.331L357.779,91.39L357.544,90.705L357.31,95.067L357.075,95.565L356.841,96.687L356.606,96.064L356.372,96.375L356.137,98.681L355.902,93.571L355.668,99.242L355.433,97.248L355.199,97.248L354.964,98.182L354.73,100.675L354.495,100.301L354.261,104.787L354.026,102.544L353.792,104.912L353.323,102.233L353.088,102.233L352.619,102.17L352.385,101.921L352.15,106.844L351.916,106.844L350.978,102.544L350.509,102.544L350.274,99.055L349.805,102.233L349.571,96.936L349.102,96.811L348.633,96.811L348.398,96.936L348.164,96.874L347.929,96.811L347.695,99.429L347.46,96.313L321.899,83.788L321.664,83.726L321.43,83.788L321.195,77.619L320.96,79.8L320.491,79.115L320.022,78.305L319.788,81.296L319.553,78.305L319.319,78.305L319.084,77.791L318.85,145L318.615,77.682L318.381,81.545L317.912,78.118L317.208,78.118L316.974,81.812L316.739,80.112L316.505,145L316.27,77.619L316.036,77.62L315.801,145L315.567,77.682L315.332,80.657L315.098,77.619L314.629,80.922L314.394,78.305L314.16,80.735L313.925,78.616L313.691,76.996L313.456,77.713L313.222,79.458L312.987,77.183L312.753,76.872L312.518,76.872L312.284,76.716L312.049,77.931L311.815,76.996L311.58,76.872L311.346,77.993L311.111,75.376L310.877,72.884L310.642,71.793L310.408,71.762L310.173,72.555L309.939,71.201L309.704,71.139L309.469,70.267L309.235,69.394L309,68.83L308.766,69.519L308.531,69.675L308.297,71.45L308.062,71.541L307.828,71.206L307.593,71.263L307.359,72.416L307.124,72.884L306.89,73.133L306.655,71.388L306.421,72.51L306.186,72.821L305.952,71.263L305.717,71.762L305.483,71.201L305.248,68.397L305.014,70.267L304.779,70.453L304.545,70.453L304.31,68.241L304.076,67.151L303.841,67.431L303.607,67.774L303.372,63.786L303.138,63.038L302.903,64.97L302.669,67.213L302.434,67.431L302.2,68.522L301.965,65.967L301.731,63.474L301.496,65.032L301.262,67.338L301.027,68.771L300.793,69.955L300.558,65.282L300.324,67.307L300.089,66.87L299.855,67.805L299.62,66.123L299.386,70.204L299.151,72.697L298.917,75.127L298.682,74.94L298.448,74.049L298.213,72.79L297.978,67.805L297.744,66.995L297.509,65.624L297.275,67.587L297.04,73.289L296.806,73.257L296.571,76.062L296.337,78.647L296.102,76.953L295.868,79.052L295.633,87.028L295.399,88.275L294.461,105.348L294.226,103.354L293.992,104.164L293.757,101.485L293.523,102.482L293.288,104.102L293.054,105.037L292.819,101.298L292.585,98.992L292.35,98.805L292.116,99.429L291.881,101.298L291.647,101.423L291.412,104.414L291.178,105.037L290.709,102.918L290.474,102.607L290.24,106.594L290.005,106.283L289.771,105.099L289.536,107.031L289.302,105.722L289.067,108.464L288.833,107.529L288.598,107.218L288.364,106.034L288.129,107.529L287.895,107.778L287.66,102.544L287.191,108.775L286.957,109.461L286.722,110.022L286.487,110.333L286.253,113.137L286.018,110.645L285.784,110.458L285.549,110.022L285.08,110.271L284.846,108.838L284.611,109.025L284.377,108.775L284.142,107.654L283.908,110.209L283.673,107.903L283.439,109.523L283.204,107.529L282.97,106.408L282.735,106.906L282.501,107.093L282.032,111.081L281.797,106.532L281.563,101.485L281.328,101.485L280.859,106.906L280.625,101.485L280.39,101.485L280.156,108.775L279.921,109.025L119.282,81.169L119.047,82.729L118.813,80.735L118.578,80.673L118.344,82.667L118.109,80.797L117.875,80.735L117.64,80.797L117.406,81.358L117.171,83.539L116.937,82.604L116.702,82.168L116.468,81.483L116.233,81.483L115.999,81.358L115.764,81.42L115.53,83.539L115.295,83.188L115.061,83.103L114.826,80.735L114.592,81.42L114.357,81.358L114.123,83.165L113.888,83.165L113.653,81.358L113.419,79.698L113.184,83.477L112.95,80.673L112.715,82.293L112.481,81.981L112.246,82.604L112.012,82.604L111.777,83.29L111.543,83.851L111.308,80.112L111.074,80.361L110.839,80.922L110.605,83.353L110.37,83.57L110.136,81.545L109.901,84.287L109.667,80.797L109.432,83.539L109.198,82.075L108.963,83.913L108.729,81.109L108.494,84.474L108.26,84.692L108.025,87.527L107.791,85.221L107.556,85.408L107.322,83.726L107.087,84.162L106.853,84.38L106.618,84.723L106.384,82.729L106.149,81.981L105.915,83.414L105.68,83.975L105.446,82.563L105.211,81.358L104.977,80.213L104.742,84.848L104.508,87.309L104.273,89.459L104.039,89.022L103.804,88.711L103.57,87.87L103.335,86.436L103.101,86.177L102.866,85.658L102.632,83.975L102.397,85.221L102.162,88.181L101.928,89.583L101.693,88.212L101.459,90.082L101.224,86.53L100.99,93.677L100.755,88.836L100.521,87.309L100.286,84.162L100.052,82.448L99.817,77.682L99.583,80.236L99.348,78.866L99.114,77.837L98.879,73.881L98.645,67.369L98.41,64.721L98.176,66.278L97.941,65.593L97.707,69.145L97.472,66.092L97.238,65.593L97.003,64.285L96.769,64.347L96.534,66.341L96.3,67.805L96.065,62.353L95.831,64.035L95.596,66.777L95.362,70.002L95.127,70.204L94.893,66.278L94.658,54.315L94.424,51.386L94.189,62.478L93.955,60.982L93.72,64.596L93.486,61.044L93.251,67.338L93.017,55.405L92.782,36.135L91.844,35.932L91.61,36.369L91.375,39.609L90.906,34.001L90.671,32.817L90.437,38.051L90.202,32.755L89.968,30.574L89.733,27.77L89.499,22.722L89.264,28.206L89.03,26.025L88.795,24.031L88.561,23.719L88.326,24.031L87.857,23.906L87.623,23.906L87.388,23.906L87.154,24.28L86.45,20.479L86.216,21.788L85.981,21.788L85.747,21.788L85.278,18.921L84.574,18.921L84.34,18.921L83.167,15.245L82.464,15.245L81.995,15.245L80.588,17.488L80.353,15.993L80.119,12.378L79.18,13.189L78.711,13.189L78.242,13.189L77.773,13.189L77.539,13.189L77.304,15.681L51.508,21.476L51.274,21.227L51.039,21.538L50.805,21.538L50.57,21.538L50.101,12.254L49.398,12.254L48.694,20.105L48.46,20.105L48.225,25.9L47.991,21.538L47.522,21.538L47.287,15.619L47.053,15.369L46.818,20.105L46.584,15.307L46.349,15.307L45.88,18.049L45.646,20.043L45.411,16.429L45.177,20.105L44.942,16.429L44.708,33.378L44.473,21.649L44.238,34.001L44.004,12.254L43.769,12.254L43.535,10L43.3,12.254L43.066,12.752L42.831,12.877L42.597,13.936L42.362,13.687L42.128,13.562L41.893,13.064L41.659,10.914L41.424,10.456L41.19,12.503L40.955,11.724L40.721,11.849L40.486,13.126L40.252,12.752L40.017,12.129L39.783,12.939L39.548,12.192L39.314,11.257L39.079,12.877L38.845,10.758L38.61,12.192L38.376,14.061L38.141,13.936L37.907,13.687L37.672,15.743L37.438,15.681L37.203,15.058L36.969,13.375L36.734,13.438L36.5,14.933L36.265,19.295L36.031,18.454L35.796,18.255L35.562,20.541L35.327,21.414L35.093,21.725L34.858,23.408L34.624,23.906L34.389,25.713L34.155,26.274L33.92,24.779L33.686,24.08L33.451,24.779L33.217,24.311L32.982,28.393L32.747,29.047L32.513,27.567L32.278,30.48L32.044,25.09L31.809,24.467L31.575,22.972L31.34,23.532L31.106,22.13L30.871,19.794L30.637,16.709L30.402,17.208L30.168,17.332L29.933,17.395L29.699,17.052L29.464,19.981L29.23,18.236L28.995,17.987L28.761,19.42L28.526,21.663L28.292,21.601L28.057,25.215L27.823,25.713L27.588,25.215L27.354,25.713L27.119,22.068L26.885,23.782L26.65,24.783L26.416,23.532L26.181,26.461L25.947,23.221L25.712,21.414L25.478,20.292L25.243,21.788L24.071,32.131L23.836,32.131L23.602,31.944L23.367,31.758L23.133,32.351L22.898,34.001L22.664,32.256L22.429,30.262L21.726,32.505L21.256,34.001L21.022,38.487L20.553,33.315L20.318,33.315L20.084,34.001L19.849,34.499L19.615,34.499L19.38,36.244L19.146,34.437L18.911,36.992L18.677,34.499L18.442,34.312L18.208,34.499L17.739,37.49L17.035,37.49L16.566,36.992L16.332,35.683L15.628,36.992L15.394,36.992L15.159,37.303L14.925,35.932L14.221,36.244L13.518,36.244L12.814,36.244L12.111,37.802L11.173,35.683L10.704,38.425L10.235,38.425L10,34.001Z" fill="rgba(88, 166, 255, .1)"/>
                    </svg>
                </div>
            </section>
        </div>
        <div xmlns="http://www.w3.org/1999/xhtml" id="metrics-end"></div>
    </foreignObject>
</svg>