<svg xmlns="http://www.w3.org/2000/svg" width="480" height="302" class="">
    <defs>
        <style/>
    </defs>
    <style>@keyframes animation-gauge{0%{stroke-dasharray:0 329}}@keyframes animation-rainbow{0%,to{color:#7f00ff;fill:#7f00ff}14%{color:#a933ff;fill:#a933ff}29%{color:#007fff;fill:#007fff}43%{color:#00ff7f;fill:#00ff7f}57%{color:#ff0;fill:#ff0}71%{color:#ff7f00;fill:#ff7f00}86%{color:red;fill:red}}svg{font-family:-apple-system,BlinkMacSystemFont,Segoe UI,Helvetica,Arial,sans-serif,Apple Color Emoji,Segoe UI Emoji;font-size:14px;color:#777}h2{margin:8px 0 2px;padding:0;color:#0366d6;font-weight:400;font-size:16px}h2 svg{fill:currentColor}section&gt;.field{margin-left:5px;margin-right:5px}.field{display:flex;align-items:center;margin-bottom:2px;white-space:nowrap}.field svg{margin:0 8px;fill:#959da5;flex-shrink:0}.row{display:flex;flex-wrap:wrap}.row section{flex:1 1 0}:root{--color-calendar-graph-day-bg:#ebedf0;--color-calendar-graph-day-border:rgba(27,31,35,0.06);--color-calendar-graph-day-L1-bg:#9be9a8;--color-calendar-graph-day-L2-bg:#40c463;--color-calendar-graph-day-L3-bg:#30a14e;--color-calendar-graph-day-L4-bg:#216e39;--color-calendar-halloween-graph-day-L1-bg:#ffee4a;--color-calendar-halloween-graph-day-L2-bg:#ffc501;--color-calendar-halloween-graph-day-L3-bg:#fe9600;--color-calendar-halloween-graph-day-L4-bg:#03001c;--color-calendar-winter-graph-day-L1-bg:#0a3069;--color-calendar-winter-graph-day-L2-bg:#0969da;--color-calendar-winter-graph-day-L3-bg:#54aeff;--color-calendar-winter-graph-day-L4-bg:#b6e3ff;--color-calendar-graph-day-L4-border:rgba(27,31,35,0.06);--color-calendar-graph-day-L3-border:rgba(27,31,35,0.06);--color-calendar-graph-day-L2-border:rgba(27,31,35,0.06);--color-calendar-graph-day-L1-border:rgba(27,31,35,0.06)}#metrics-end{width:100%}</style>
    <style/>
    <foreignObject x="0" y="0" width="100%" height="100%">
        <div xmlns="http://www.w3.org/1999/xhtml" xmlns:xlink="http://www.w3.org/1999/xlink" class="items-wrapper">
            <section>
                <h2 class="field">
                    <svg xmlns="http://www.w3.org/2000/svg" viewBox="0 0 16 16" width="16" height="16">
                        <path d="M10.75 9a.75.75 0 000 1.5h1.5a.75.75 0 000-1.5h-1.5z"/>
                        <path fill-rule="evenodd" d="M0 3.75C0 2.784.784 2 1.75 2h12.5c.966 0 1.75.784 1.75 1.75v8.5A1.75 1.75 0 0114.25 14H1.75A1.75 1.75 0 010 12.25v-8.5zm14.5 0V5h-13V3.75a.25.25 0 01.25-.25h12.5a.25.25 0 01.25.25zm0 2.75h-13v5.75c0 .138.112.25.25.25h12.5a.25.25 0 00.25-.25V6.5z"/>
                    </svg>
                    Stock prices for MS
                </h2>
                <div class="row">
                    <section>
                        <div class="field">
                            <svg xmlns="http://www.w3.org/2000/svg" viewBox="0 0 16 16" width="16" height="16">
                                <path fill-rule="evenodd" d="M1.5 14.25c0 .138.112.25.25.25H4v-1.25a.75.75 0 01.75-.75h2.5a.75.75 0 01.75.75v1.25h2.25a.25.25 0 00.25-.25V1.75a.25.25 0 00-.25-.25h-8.5a.25.25 0 00-.25.25v12.5zM1.75 16A1.75 1.75 0 010 14.25V1.75C0 .784.784 0 1.75 0h8.5C11.216 0 12 .784 12 1.75v12.5c0 .085-.006.168-.018.25h2.268a.25.25 0 00.25-.25V8.285a.25.25 0 00-.111-.208l-1.055-.703a.75.75 0 11.832-1.248l1.055.703c.487.325.779.871.779 1.456v5.965A1.75 1.75 0 0114.25 16h-3.5a.75.75 0 01-.197-.026c-.099.017-.2.026-.303.026h-3a.75.75 0 01-.75-.75V14h-1v1.25a.75.75 0 01-.75.75h-3zM3 3.75A.75.75 0 013.75 3h.5a.75.75 0 010 1.5h-.5A.75.75 0 013 3.75zM3.75 6a.75.75 0 000 1.5h.5a.75.75 0 000-1.5h-.5zM3 9.75A.75.75 0 013.75 9h.5a.75.75 0 010 1.5h-.5A.75.75 0 013 9.75zM7.75 9a.75.75 0 000 1.5h.5a.75.75 0 000-1.5h-.5zM7 6.75A.75.75 0 017.75 6h.5a.75.75 0 010 1.5h-.5A.75.75 0 017 6.75zM7.75 3a.75.75 0 000 1.5h.5a.75.75 0 000-1.5h-.5z"/>
                            </svg>
                            MS
                        </div>
                        <div class="field">
                            <svg xmlns="http://www.w3.org/2000/svg" viewBox="0 0 16 16" width="16" height="16">
                                <path fill-rule="evenodd" d="M6 2a.75.75 0 01.696.471L10 10.731l1.304-3.26A.75.75 0 0112 7h3.25a.75.75 0 010 1.5h-2.742l-1.812 4.528a.75.75 0 01-1.392 0L6 4.77 4.696 8.03A.75.75 0 014 8.5H.75a.75.75 0 010-1.5h2.742l1.812-4.529A.75.75 0 016 2z"/>
                            </svg>
                            Valued at 189.31 USD
                        </div>
                    </section>
                    <section>
                        <div class="field">
                            <svg xmlns="http://www.w3.org/2000/svg" viewBox="0 0 16 16" width="16" height="16">
                                <path fill-rule="evenodd" d="M4.75 0a.75.75 0 01.75.75V2h5V.75a.75.75 0 011.5 0V2h1.25c.966 0 1.75.784 1.75 1.75v10.5A1.75 1.75 0 0113.25 16H2.75A1.75 1.75 0 011 14.25V3.75C1 2.784 1.784 2 2.75 2H4V.75A.75.75 0 014.75 0zm0 3.5h8.5a.25.25 0 01.25.25V6h-11V3.75a.25.25 0 01.25-.25h2zm-2.25 4v6.75c0 .138.112.25.25.25h10.5a.25.25 0 00.25-.25V7.5h-11z"/>
                            </svg>
                            Last five days
                        </div>
                        <div class="field">
                            <svg xmlns="http://www.w3.org/2000/svg" viewBox="0 0 16 16" width="16" height="16">
                                <path fill-rule="evenodd" d="M13.03 8.22a.75.75 0 010 1.06l-4.25 4.25a.75.75 0 01-1.06 0L3.47 9.28a.75.75 0 011.06-1.06l2.97 2.97V3.75a.75.75 0 011.5 0v7.44l2.97-2.97a.75.75 0 011.06 0z"/>
                            </svg>
                            -1.39 USD (-0.73%)
                        </div>
                    </section>
                </div>
                <div class="stock-chart">
                    <svg xmlns="http://www.w3.org/2000/svg" width="480" height="200">
                        <g transform="translate(10,155)" fill="none" font-size="10" font-family="sans-serif" text-anchor="middle">
                            <path class="domain" stroke="rgba(127, 127, 127, .8)" d="M10.5,0.5H460.5"/>
                            <g class="tick" opacity="1" transform="translate(21.756253474152306,0)">
                                <line stroke="currentColor" y2="6" stroke-opacity="0.5"/>
                                <text fill="rgba(127, 127, 127, .8)" y="9" dy="0.71em" transform="translate(-5,5) rotate(-45)" style="text-anchor: end;">12 PM</text>
                            </g>
                            <g class="tick" opacity="1" transform="translate(55.525013896609224,0)">
                                <line stroke="currentColor" y2="6" stroke-opacity="0.5"/>
                                <text fill="rgba(127, 127, 127, .8)" y="9" dy="0.71em" transform="translate(-5,5) rotate(-45)" style="text-anchor: end;">Thu 16</text>
                            </g>
                            <g class="tick" opacity="1" transform="translate(89.29377431906615,0)">
                                <line stroke="currentColor" y2="6" stroke-opacity="0.5"/>
                                <text fill="rgba(127, 127, 127, .8)" y="9" dy="0.71em" transform="translate(-5,5) rotate(-45)" style="text-anchor: end;">12 PM</text>
                            </g>
                            <g class="tick" opacity="1" transform="translate(123.06253474152307,0)">
                                <line stroke="currentColor" y2="6" stroke-opacity="0.5"/>
                                <text fill="rgba(127, 127, 127, .8)" y="9" dy="0.71em" transform="translate(-5,5) rotate(-45)" style="text-anchor: end;">Fri 17</text>
                            </g>
                            <g class="tick" opacity="1" transform="translate(156.83129516397997,0)">
                                <line stroke="currentColor" y2="6" stroke-opacity="0.5"/>
                                <text fill="rgba(127, 127, 127, .8)" y="9" dy="0.71em" transform="translate(-5,5) rotate(-45)" style="text-anchor: end;">12 PM</text>
                            </g>
                            <g class="tick" opacity="1" transform="translate(190.6000555864369,0)">
                                <line stroke="currentColor" y2="6" stroke-opacity="0.5"/>
                                <text fill="rgba(127, 127, 127, .8)" y="9" dy="0.71em" transform="translate(-5,5) rotate(-45)" style="text-anchor: end;">Sat 18</text>
                            </g>
                            <g class="tick" opacity="1" transform="translate(224.36881600889382,0)">
                                <line stroke="currentColor" y2="6" stroke-opacity="0.5"/>
                                <text fill="rgba(127, 127, 127, .8)" y="9" dy="0.71em" transform="translate(-5,5) rotate(-45)" style="text-anchor: end;">12 PM</text>
                            </g>
                            <g class="tick" opacity="1" transform="translate(258.13757643135074,0)">
                                <line stroke="currentColor" y2="6" stroke-opacity="0.5"/>
                                <text fill="rgba(127, 127, 127, .8)" y="9" dy="0.71em" transform="translate(-5,5) rotate(-45)" style="text-anchor: end;">Apr 19</text>
                            </g>
                            <g class="tick" opacity="1" transform="translate(291.90633685380766,0)">
                                <line stroke="currentColor" y2="6" stroke-opacity="0.5"/>
                                <text fill="rgba(127, 127, 127, .8)" y="9" dy="0.71em" transform="translate(-5,5) rotate(-45)" style="text-anchor: end;">12 PM</text>
                            </g>
                            <g class="tick" opacity="1" transform="translate(325.6750972762646,0)">
                                <line stroke="currentColor" y2="6" stroke-opacity="0.5"/>
                                <text fill="rgba(127, 127, 127, .8)" y="9" dy="0.71em" transform="translate(-5,5) rotate(-45)" style="text-anchor: end;">Mon 20</text>
                            </g>
                            <g class="tick" opacity="1" transform="translate(359.44385769872156,0)">
                                <line stroke="currentColor" y2="6" stroke-opacity="0.5"/>
                                <text fill="rgba(127, 127, 127, .8)" y="9" dy="0.71em" transform="translate(-5,5) rotate(-45)" style="text-anchor: end;">12 PM</text>
                            </g>
                            <g class="tick" opacity="1" transform="translate(393.2126181211784,0)">
                                <line stroke="currentColor" y2="6" stroke-opacity="0.5"/>
                                <text fill="rgba(127, 127, 127, .8)" y="9" dy="0.71em" transform="translate(-5,5) rotate(-45)" style="text-anchor: end;">Tue 21</text>
                            </g>
                            <g class="tick" opacity="1" transform="translate(426.9813785436354,0)">
                                <line stroke="currentColor" y2="6" stroke-opacity="0.5"/>
                                <text fill="rgba(127, 127, 127, .8)" y="9" dy="0.71em" transform="translate(-5,5) rotate(-45)" style="text-anchor: end;">12 PM</text>
                            </g>
                        </g>
                        <g transform="translate(10,10)" fill="none" font-size="10" font-family="sans-serif" text-anchor="start">
                            <g class="tick" opacity="1" transform="translate(0,52.32152331898447)">
                                <line stroke="currentColor" x2="460" stroke-opacity="0.5" stroke-dasharray="2,2"/>
                                <text fill="rgba(127, 127, 127, .8)" x="0" dy="-4">190</text>
                            </g>
                            <g class="tick" opacity="1" transform="translate(0,104.1449252550331)">
                                <line stroke="currentColor" x2="460" stroke-opacity="0.5" stroke-dasharray="2,2"/>
                                <text fill="rgba(127, 127, 127, .8)" x="0" dy="-4">185</text>
                            </g>
                        </g>
                        <path transform="translate(10,10)" d="M10,108.827L10.235,113.491L10.469,114.321L10.704,118.259L10.938,115.046L11.407,118.155L11.642,120.332L11.876,120.332L12.111,118.259L12.58,119.192L12.814,145L13.049,126.655L13.283,128.727L13.518,124.582L13.752,124.582L13.987,120.228L14.221,120.228L14.69,125.411L15.159,120.228L15.394,120.332L15.628,125.618L15.863,122.82L16.097,122.301L16.332,121.783L16.566,125.618L16.801,120.332L17.035,120.735L17.27,120.735L17.504,124.374L17.739,120.747L17.973,118.674L18.208,115.979L18.442,118.155L18.677,120.317L18.911,119.814L19.146,123.545L19.38,119.192L19.615,94.317L19.849,81.05L20.084,82.501L20.318,81.361L20.553,72.551L20.787,70.685L21.022,67.369L21.256,72.551L21.491,68.405L21.725,69.96L21.96,70.374L22.194,72.551L22.429,70.789L22.663,70.346L22.898,67.576L23.132,68.923L23.367,65.71L23.601,66.332L23.836,68.301L24.07,57.263L24.305,59.971L24.539,59.028L25.477,10L25.712,34.772L25.946,47.676L26.181,33.45L26.415,31.403L26.65,42.078L26.884,43.996L27.119,32.854L27.353,29.641L27.588,26.843L27.822,27.361L28.057,17.1L28.291,18.24L28.526,16.374L28.76,15.522L28.995,18.655L29.229,22.386L29.464,18.395L29.698,20.572L29.933,24.251L30.167,23.681L30.402,23.941L30.636,32.182L30.871,36.119L31.105,36.844L31.34,36.534L31.574,38.14L31.809,38.244L32.043,36.896L32.278,37.726L32.513,36.844L32.747,39.798L32.982,41.768L33.216,40.835L33.451,38.305L33.685,40.006L33.92,42.39L34.154,39.798L34.389,40.835L34.623,39.798L34.858,38.451L35.092,40.161L35.327,38.399L35.561,37.285L35.796,39.28L36.03,38.399L36.265,40.472L36.499,39.021L36.734,38.658L36.968,38.296L37.203,36.482L37.437,36.378L37.672,36.585L37.906,35.497L38.141,33.528L38.375,34.304L38.61,35.756L38.844,34.72L39.079,34.15L39.313,34.305L39.548,35.756L39.782,34.927L40.017,34.875L40.251,32.025L40.486,31.403L40.72,29.123L40.955,31.507L41.189,32.854L41.424,30.833L41.658,32.129L41.893,31.61L42.127,29.641L42.362,32.647L42.596,35.186L42.831,39.296L43.065,40.99L43.3,33.321L43.534,36.171L43.769,35.031L44.003,41.457L44.238,33.683L44.472,35.031L44.707,34.471L44.941,35.549L45.176,39.591L45.41,39.591L45.645,41.55L45.879,39.384L46.114,36.275L46.348,32.6L46.583,35.342L46.817,35.86L47.286,35.445L47.521,38.306L47.755,35.03L47.99,31.591L48.224,34.927L48.459,33.683L48.693,31.092L48.928,33.684L49.162,34.202L49.397,34.383L49.631,39.384L49.866,35.238L50.1,34.202L50.335,39.384L50.569,33.683L50.804,32.958L51.038,33.061L51.273,32.44L51.507,34.927L51.742,32.854L51.976,36.223L52.211,33.062L52.445,34.409L52.68,33.321L53.149,33.269L53.383,33.269L53.618,33.165L53.852,36.084L54.087,34.72L54.321,35.238L54.556,33.61L54.791,33.165L77.538,25.288L77.772,31.092L78.007,35.031L78.241,35.134L78.476,38.347L78.71,41.768L79.179,41.457L79.648,44.463L79.883,41.457L80.117,41.56L80.352,41.353L80.586,49.334L80.821,65.088L81.055,49.023L81.29,49.23L81.759,49.127L81.993,36.793L82.228,49.127L82.462,47.676L82.697,55.864L82.931,51.822L83.166,50.132L83.4,51.822L83.869,51.818L84.104,51.818L84.573,48.09L84.807,48.09L85.042,49.645L85.276,49.749L85.511,49.749L85.745,41.768L85.98,46.536L86.214,45.914L86.449,41.457L86.683,45.81L86.918,44.566L87.152,44.463L87.387,35.756L87.621,39.705L87.856,35.031L88.09,35.134L88.325,39.166L88.559,35.031L88.794,35.964L89.028,31.486L89.263,37.415L89.497,40.835L89.732,41.457L89.966,34.316L90.201,41.457L90.435,38.969L90.67,35.756L90.904,37.829L91.139,37.933L91.373,38.969L91.608,46.639L91.842,46.639L92.077,46.639L93.015,45.603L93.249,34.72L93.484,34.409L93.718,44.67L93.953,56.071L94.187,54.62L94.422,61.772L94.656,57.47L94.891,61.409L95.125,67.212L95.36,64.777L95.594,60.632L95.829,65.347L96.063,67.369L96.298,68.301L96.532,66.539L96.767,67.369L97.001,69.96L97.236,74.002L97.47,73.016L97.705,66.28L97.939,67.239L98.174,67.783L98.408,75.557L98.643,76.593L98.878,73.276L99.112,72.551L99.347,70.789L99.581,68.094L99.816,69.649L100.05,69.545L100.285,68.664L100.519,69.338L100.754,66.747L100.988,65.088L101.223,64.622L101.457,70.063L101.692,69.96L101.926,71.514L102.161,68.612L102.395,69.649L102.63,68.612L102.864,70.063L103.099,71.877L103.333,72.965L103.568,71.566L103.802,71.409L104.037,70.426L104.271,67.99L104.506,67.679L104.74,65.658L104.975,65.503L105.209,65.917L105.444,66.85L105.678,65.296L105.913,65.71L106.147,64.777L106.382,65.253L106.616,64.26L106.851,68.405L107.085,65.584L107.32,65.84L107.554,64.985L107.789,66.591L108.023,66.954L108.258,67.783L108.492,68.561L108.727,68.664L108.961,71.203L109.196,70.789L109.43,70.582L109.665,69.856L109.899,67.265L110.134,68.612L110.368,69.804L110.603,72.344L110.837,78.666L111.072,80.221L111.306,79.599L111.541,79.599L111.775,78.044L112.01,77.733L112.244,78.77L112.479,82.916L112.713,77.733L112.948,76.697L113.182,77.733L113.417,72.874L113.651,77.733L113.886,82.915L114.12,79.599L114.355,82.472L114.589,81.568L114.824,72.551L115.058,79.703L115.293,79.392L115.527,81.154L115.996,77.733L116.231,79.599L116.465,77.733L116.7,75.971L116.934,78.044L117.169,72.551L117.403,77.733L117.638,73.795L117.872,82.916L118.107,81.568L118.341,82.916L118.576,73.898L118.81,78.251L119.045,78.251L119.279,78.251L120.217,78.044L120.452,75.66L120.686,77.941L120.921,78.044L121.156,72.551L121.39,75.66L121.625,73.898L121.859,78.044L122.094,74.209L122.328,73.587L145.075,72.862L145.31,77.422L146.013,102.298L146.248,83.123L146.717,72.551L147.186,83.631L147.42,72.551L147.655,72.447L148.124,66.954L148.827,70.893L149.062,70.893L149.296,70.893L149.531,68.405L149.765,67.783L150,67.783L150.469,68.405L150.703,68.405L150.938,68.405L151.407,68.405L151.641,68.405L152.11,63.534L152.579,68.094L152.814,68.094L153.283,68.094L153.517,65.814L153.752,59.641L153.986,65.503L154.221,66.436L154.455,65.399L154.69,61.15L154.924,59.849L155.159,64.674L155.393,62.186L155.628,61.15L155.862,60.113L156.097,58.144L156.331,70.063L156.566,64.726L156.8,62.186L157.035,59.465L157.269,59.388L157.504,59.388L157.738,60.113L157.973,61.668L158.207,61.564L158.442,57.108L158.676,53.065L158.911,48.116L159.145,47.676L159.38,44.359L159.614,46.017L160.552,50.578L160.787,56.589L161.021,59.077L161.256,63.067L161.49,62.601L161.725,58.766L161.959,66.954L162.194,63.689L162.428,65.088L162.663,54.827L162.897,51.718L163.132,50.474L163.366,47.054L163.601,47.857L163.835,48.194L164.07,46.38L164.304,47.365L164.539,50.319L164.773,52.91L165.008,52.288L165.242,54.309L165.477,53.791L165.712,53.428L165.946,52.547L166.181,51.614L166.415,51.303L166.65,49.956L166.884,48.401L167.119,46.069L167.353,45.085L167.588,43.53L167.822,43.063L168.057,44.359L168.291,42.493L168.526,43.633L168.76,43.805L168.995,42.908L169.229,45.706L169.464,41.353L169.698,39.902L169.933,40.42L170.167,41.653L170.402,41.349L170.636,44.877L170.871,46.821L171.105,45.914L171.34,48.919L171.574,49.127L171.809,52.443L172.043,55.76L172.278,56.175L172.512,54.102L172.747,51.822L172.981,52.858L173.216,52.029L173.45,54.309L173.685,54.724L173.919,52.547L174.154,52.029L174.388,53.894L174.623,54.309L174.857,58.04L175.092,56.071L175.326,56.486L175.561,56.589L175.795,58.766L176.03,58.766L176.264,59.181L176.499,61.357L176.733,60.735L176.968,60.942L177.202,60.683L177.437,58.766L177.671,56.382L177.906,57.107L178.14,59.802L178.375,59.388L178.609,64.052L178.844,64.052L179.078,64.052L179.313,64.052L179.547,60.839L179.782,63.845L180.016,72.684L180.251,62.186L180.485,63.741L180.72,63.741L180.954,63.948L181.189,64.052L181.423,63.223L181.658,62.601L181.892,62.497L182.127,63.845L182.361,56.797L182.83,56.32L183.299,53.998L183.534,53.998L183.768,58.455L184.003,69.649L184.237,64.777L184.472,65.921L184.706,53.894L184.941,55.76L185.644,64.052L186.348,64.052L186.582,53.894L187.051,55.76L187.286,55.76L187.755,57.004L188.459,65.088L188.693,68.094L188.928,67.058L189.162,66.85L189.397,66.021L189.631,62.186L189.866,62.186L351.674,74.935L352.378,74.935L352.612,73.587L353.081,86.129L353.785,82.916L354.019,43.219L354.254,75.764L354.488,75.764L354.957,82.708L355.192,72.551L355.895,76.8L356.13,76.697L356.364,82.605L356.599,81.879L356.833,81.154L357.068,81.568L357.302,81.568L357.537,79.288L358.006,74.624L358.24,81.389L358.475,79.335L358.709,75.349L358.944,75.66L359.178,81.775L359.413,73.276L359.647,80.951L359.882,80.843L360.116,80.739L360.351,75.453L360.585,80.843L360.82,80.584L361.054,75.142L361.289,72.447L361.523,72.551L361.758,72.447L361.992,72.551L362.227,72.551L363.165,38.762L363.399,41.509L363.634,37.57L363.868,35.186L364.103,31.61L364.337,36.896L364.572,39.384L364.806,38.918L365.041,39.798L365.276,44.048L365.51,44.877L365.745,46.743L365.979,50.369L366.214,52.443L366.448,54.465L366.683,54.102L366.917,58.144L367.152,59.31L367.386,56.019L367.621,58.04L367.855,56.537L368.09,56.952L368.324,54.309L368.559,51.822L368.793,53.169L369.028,52.631L369.262,50.889L369.497,49.956L369.731,50.681L369.966,50.578L370.2,52.029L370.435,52.443L370.669,52.754L370.904,52.754L371.138,52.859L371.373,53.324L371.607,51.511L371.842,51.614L372.076,51.096L372.311,49.84L372.545,48.712L372.78,48.194L373.014,47.468L373.249,46.37L373.483,45.24L373.718,45.499L373.952,45.085L374.187,45.603L374.421,45.926L374.656,44.981L374.89,45.603L375.125,46.121L375.359,45.292L375.594,46.951L375.828,46.017L376.063,45.551L376.297,45.245L376.532,43.633L376.766,43.944L377.001,44.566L377.235,45.292L377.47,48.401L377.704,48.246L377.939,49.541L378.173,47.987L378.408,48.608L378.642,46.847L378.877,45.914L379.111,46.173L379.346,47.261L379.58,45.758L379.815,45.81L380.049,42.649L380.284,40.42L380.518,44.152L380.753,43.374L380.987,42.804L381.222,44.463L381.456,44.566L381.691,44.566L381.925,44.67L382.16,46.328L382.629,49.101L383.098,40.213L383.332,43.012L383.567,41.975L384.036,41.975L384.27,41.56L384.505,44.463L384.739,41.56L384.974,41.56L385.208,41.56L385.443,41.457L385.677,42.701L385.912,44.566L386.146,42.079L386.381,43.672L386.85,39.518L387.084,39.488L387.319,42.493L387.554,42.493L387.788,42.493L388.023,41.457L388.257,41.457L388.492,41.457L388.961,41.457L389.195,39.073L389.43,39.695L389.664,39.073L390.368,41.457L391.071,41.457L391.306,43.419L391.775,40.006L392.009,39.073L392.244,43.53L392.478,39.073L415.225,36.793L415.46,40.317L415.694,36.793L415.929,36.793L416.163,36.793L416.632,36.793L416.867,32.543L417.101,31.299L417.336,31.299L418.039,31.299L418.508,31.092L418.743,31.092L419.212,31.092L419.681,31.092L419.915,35.653L420.15,35.653L420.384,35.756L420.619,35.756L420.853,35.756L421.088,36.275L421.322,36.275L421.557,51.718L421.791,40.109L422.026,51.718L422.495,39.28L422.729,40.731L422.964,36.793L423.433,39.384L423.667,38.555L423.902,35.756L424.136,38.866L424.371,38.866L424.605,44.566L424.84,40.42L425.074,40.42L425.309,38.866L425.543,35.964L425.778,35.756L426.012,44.566L426.247,38.555L426.481,38.451L426.716,38.555L426.95,39.902L427.419,37.311L427.654,36.378L427.888,36.482L428.357,38.762L428.592,38.866L428.826,38.347L429.061,38.555L429.295,38.866L429.53,41.353L429.764,41.871L430.702,28.708L430.937,38.658L431.171,31.61L431.406,24.977L431.64,24.407L431.875,29.848L432.11,32.129L432.344,29.848L432.579,29.382L432.813,32.232L433.048,32.491L433.282,33.5L433.517,39.747L433.751,40.42L433.986,38.762L434.22,42.597L434.455,36.585L434.689,44.359L434.924,53.012L435.158,47.572L435.393,46.536L435.627,50.267L435.862,51.511L436.096,55.035L436.331,52.754L436.565,54.567L436.8,53.428L437.034,54.05L437.269,58.869L437.503,57.833L437.738,55.112L437.972,54.516L438.207,55.76L438.441,54.62L438.676,54.413L438.91,52.547L439.145,50.785L439.379,52.236L439.614,53.998L439.848,51.303L440.083,53.014L440.317,55.397L440.552,55.605L440.786,56.386L441.021,61.046L441.255,64.156L441.49,61.772L441.724,61.461L441.959,60.061L442.193,55.708L442.428,53.687L442.662,53.894L442.897,54.724L443.131,55.345L443.366,55.035L443.6,54.931L443.835,55.035L444.069,58.248L444.304,58.662L444.538,58.455L444.773,56.486L445.007,57.056L445.242,57.107L445.476,57.47L445.711,53.376L445.945,52.495L446.18,52.443L446.414,53.376L446.649,53.065L446.883,52.132L447.118,46.587L447.352,46.276L447.587,48.608L447.821,50.785L448.056,61.253L448.29,59.491L448.525,64.156L448.759,58.973L448.994,62.186L449.228,51.822L449.463,47.054L449.697,47.987L449.932,46.846L450.166,54.931L450.401,47.157L450.87,56.486L451.339,47.261L451.573,47.261L451.808,53.998L452.277,52.924L452.511,47.537L452.746,53.169L452.98,53.48L453.215,58.973L453.449,51.718L454.388,50.785L454.622,47.779L454.857,49.749L455.091,50.681L455.326,50.785L456.498,44.255L456.733,43.633L456.967,50.681L457.202,49.541L458.14,44.048L458.609,49.23L458.843,41.664L459.078,41.042L459.312,41.664L459.547,50.578L459.781,37L460,37" fill="transparent" stroke="#87ceeb" stroke-width="2"/>
                        <path transform="translate(10,10)" d="M10,145L10.235,145L10.469,145L10.704,145L10.938,145L11.407,145L11.642,145L11.876,145L12.111,145L12.58,145L12.814,145L13.049,145L13.283,145L13.518,145L13.752,145L13.987,145L14.221,145L14.69,145L15.159,145L15.394,145L15.628,145L15.863,145L16.097,145L16.332,145L16.566,145L16.801,145L17.035,145L17.27,145L17.504,145L17.739,145L17.973,145L18.208,145L18.442,145L18.677,145L18.911,145L19.146,145L19.38,145L19.615,145L19.849,145L20.084,145L20.318,145L20.553,145L20.787,145L21.022,145L21.256,145L21.491,145L21.725,145L21.96,145L22.194,145L22.429,145L22.663,145L22.898,145L23.132,145L23.367,145L23.601,145L23.836,145L24.07,145L24.305,145L24.539,145L25.477,145L25.712,145L25.946,145L26.181,145L26.415,145L26.65,145L26.884,145L27.119,145L27.353,145L27.588,145L27.822,145L28.057,145L28.291,145L28.526,145L28.76,145L28.995,145L29.229,145L29.464,145L29.698,145L29.933,145L30.167,145L30.402,145L30.636,145L30.871,145L31.105,145L31.34,145L31.574,145L31.809,145L32.043,145L32.278,145L32.513,145L32.747,145L32.982,145L33.216,145L33.451,145L33.685,145L33.92,145L34.154,145L34.389,145L34.623,145L34.858,145L35.092,145L35.327,145L35.561,145L35.796,145L36.03,145L36.265,145L36.499,145L36.734,145L36.968,145L37.203,145L37.437,145L37.672,145L37.906,145L38.141,145L38.375,145L38.61,145L38.844,145L39.079,145L39.313,145L39.548,145L39.782,145L40.017,145L40.251,145L40.486,145L40.72,145L40.955,145L41.189,145L41.424,145L41.658,145L41.893,145L42.127,145L42.362,145L42.596,145L42.831,145L43.065,145L43.3,145L43.534,145L43.769,145L44.003,145L44.238,145L44.472,145L44.707,145L44.941,145L45.176,145L45.41,145L45.645,145L45.879,145L46.114,145L46.348,145L46.583,145L46.817,145L47.286,145L47.521,145L47.755,145L47.99,145L48.224,145L48.459,145L48.693,145L48.928,145L49.162,145L49.397,145L49.631,145L49.866,145L50.1,145L50.335,145L50.569,145L50.804,145L51.038,145L51.273,145L51.507,145L51.742,145L51.976,145L52.211,145L52.445,145L52.68,145L53.149,145L53.383,145L53.618,145L53.852,145L54.087,145L54.321,145L54.556,145L54.791,145L77.538,145L77.772,145L78.007,145L78.241,145L78.476,145L78.71,145L79.179,145L79.648,145L79.883,145L80.117,145L80.352,145L80.586,145L80.821,145L81.055,145L81.29,145L81.759,145L81.993,145L82.228,145L82.462,145L82.697,145L82.931,145L83.166,145L83.4,145L83.869,145L84.104,145L84.573,145L84.807,145L85.042,145L85.276,145L85.511,145L85.745,145L85.98,145L86.214,145L86.449,145L86.683,145L86.918,145L87.152,145L87.387,145L87.621,145L87.856,145L88.09,145L88.325,145L88.559,145L88.794,145L89.028,145L89.263,145L89.497,145L89.732,145L89.966,145L90.201,145L90.435,145L90.67,145L90.904,145L91.139,145L91.373,145L91.608,145L91.842,145L92.077,145L93.015,145L93.249,145L93.484,145L93.718,145L93.953,145L94.187,145L94.422,145L94.656,145L94.891,145L95.125,145L95.36,145L95.594,145L95.829,145L96.063,145L96.298,145L96.532,145L96.767,145L97.001,145L97.236,145L97.47,145L97.705,145L97.939,145L98.174,145L98.408,145L98.643,145L98.878,145L99.112,145L99.347,145L99.581,145L99.816,145L100.05,145L100.285,145L100.519,145L100.754,145L100.988,145L101.223,145L101.457,145L101.692,145L101.926,145L102.161,145L102.395,145L102.63,145L102.864,145L103.099,145L103.333,145L103.568,145L103.802,145L104.037,145L104.271,145L104.506,145L104.74,145L104.975,145L105.209,145L105.444,145L105.678,145L105.913,145L106.147,145L106.382,145L106.616,145L106.851,145L107.085,145L107.32,145L107.554,145L107.789,145L108.023,145L108.258,145L108.492,145L108.727,145L108.961,145L109.196,145L109.43,145L109.665,145L109.899,145L110.134,145L110.368,145L110.603,145L110.837,145L111.072,145L111.306,145L111.541,145L111.775,145L112.01,145L112.244,145L112.479,145L112.713,145L112.948,145L113.182,145L113.417,145L113.651,145L113.886,145L114.12,145L114.355,145L114.589,145L114.824,145L115.058,145L115.293,145L115.527,145L115.996,145L116.231,145L116.465,145L116.7,145L116.934,145L117.169,145L117.403,145L117.638,145L117.872,145L118.107,145L118.341,145L118.576,145L118.81,145L119.045,145L119.279,145L120.217,145L120.452,145L120.686,145L120.921,145L121.156,145L121.39,145L121.625,145L121.859,145L122.094,145L122.328,145L145.075,145L145.31,145L146.013,145L146.248,145L146.717,145L147.186,145L147.42,145L147.655,145L148.124,145L148.827,145L149.062,145L149.296,145L149.531,145L149.765,145L150,145L150.469,145L150.703,145L150.938,145L151.407,145L151.641,145L152.11,145L152.579,145L152.814,145L153.283,145L153.517,145L153.752,145L153.986,145L154.221,145L154.455,145L154.69,145L154.924,145L155.159,145L155.393,145L155.628,145L155.862,145L156.097,145L156.331,145L156.566,145L156.8,145L157.035,145L157.269,145L157.504,145L157.738,145L157.973,145L158.207,145L158.442,145L158.676,145L158.911,145L159.145,145L159.38,145L159.614,145L160.552,145L160.787,145L161.021,145L161.256,145L161.49,145L161.725,145L161.959,145L162.194,145L162.428,145L162.663,145L162.897,145L163.132,145L163.366,145L163.601,145L163.835,145L164.07,145L164.304,145L164.539,145L164.773,145L165.008,145L165.242,145L165.477,145L165.712,145L165.946,145L166.181,145L166.415,145L166.65,145L166.884,145L167.119,145L167.353,145L167.588,145L167.822,145L168.057,145L168.291,145L168.526,145L168.76,145L168.995,145L169.229,145L169.464,145L169.698,145L169.933,145L170.167,145L170.402,145L170.636,145L170.871,145L171.105,145L171.34,145L171.574,145L171.809,145L172.043,145L172.278,145L172.512,145L172.747,145L172.981,145L173.216,145L173.45,145L173.685,145L173.919,145L174.154,145L174.388,145L174.623,145L174.857,145L175.092,145L175.326,145L175.561,145L175.795,145L176.03,145L176.264,145L176.499,145L176.733,145L176.968,145L177.202,145L177.437,145L177.671,145L177.906,145L178.14,145L178.375,145L178.609,145L178.844,145L179.078,145L179.313,145L179.547,145L179.782,145L180.016,145L180.251,145L180.485,145L180.72,145L180.954,145L181.189,145L181.423,145L181.658,145L181.892,145L182.127,145L182.361,145L182.83,145L183.299,145L183.534,145L183.768,145L184.003,145L184.237,145L184.472,145L184.706,145L184.941,145L185.644,145L186.348,145L186.582,145L187.051,145L187.286,145L187.755,145L188.459,145L188.693,145L188.928,145L189.162,145L189.397,145L189.631,145L189.866,145L351.674,145L352.378,145L352.612,145L353.081,145L353.785,145L354.019,145L354.254,145L354.488,145L354.957,145L355.192,145L355.895,145L356.13,145L356.364,145L356.599,145L356.833,145L357.068,145L357.302,145L357.537,145L358.006,145L358.24,145L358.475,145L358.709,145L358.944,145L359.178,145L359.413,145L359.647,145L359.882,145L360.116,145L360.351,145L360.585,145L360.82,145L361.054,145L361.289,145L361.523,145L361.758,145L361.992,145L362.227,145L363.165,145L363.399,145L363.634,145L363.868,145L364.103,145L364.337,145L364.572,145L364.806,145L365.041,145L365.276,145L365.51,145L365.745,145L365.979,145L366.214,145L366.448,145L366.683,145L366.917,145L367.152,145L367.386,145L367.621,145L367.855,145L368.09,145L368.324,145L368.559,145L368.793,145L369.028,145L369.262,145L369.497,145L369.731,145L369.966,145L370.2,145L370.435,145L370.669,145L370.904,145L371.138,145L371.373,145L371.607,145L371.842,145L372.076,145L372.311,145L372.545,145L372.78,145L373.014,145L373.249,145L373.483,145L373.718,145L373.952,145L374.187,145L374.421,145L374.656,145L374.89,145L375.125,145L375.359,145L375.594,145L375.828,145L376.063,145L376.297,145L376.532,145L376.766,145L377.001,145L377.235,145L377.47,145L377.704,145L377.939,145L378.173,145L378.408,145L378.642,145L378.877,145L379.111,145L379.346,145L379.58,145L379.815,145L380.049,145L380.284,145L380.518,145L380.753,145L380.987,145L381.222,145L381.456,145L381.691,145L381.925,145L382.16,145L382.629,145L383.098,145L383.332,145L383.567,145L384.036,145L384.27,145L384.505,145L384.739,145L384.974,145L385.208,145L385.443,145L385.677,145L385.912,145L386.146,145L386.381,145L386.85,145L387.084,145L387.319,145L387.554,145L387.788,145L388.023,145L388.257,145L388.492,145L388.961,145L389.195,145L389.43,145L389.664,145L390.368,145L391.071,145L391.306,145L391.775,145L392.009,145L392.244,145L392.478,145L415.225,145L415.46,145L415.694,145L415.929,145L416.163,145L416.632,145L416.867,145L417.101,145L417.336,145L418.039,145L418.508,145L418.743,145L419.212,145L419.681,145L419.915,145L420.15,145L420.384,145L420.619,145L420.853,145L421.088,145L421.322,145L421.557,145L421.791,145L422.026,145L422.495,145L422.729,145L422.964,145L423.433,145L423.667,145L423.902,145L424.136,145L424.371,145L424.605,145L424.84,145L425.074,145L425.309,145L425.543,145L425.778,145L426.012,145L426.247,145L426.481,145L426.716,145L426.95,145L427.419,145L427.654,145L427.888,145L428.357,145L428.592,145L428.826,145L429.061,145L429.295,145L429.53,145L429.764,145L430.702,145L430.937,145L431.171,145L431.406,145L431.64,145L431.875,145L432.11,145L432.344,145L432.579,145L432.813,145L433.048,145L433.282,145L433.517,145L433.751,145L433.986,145L434.22,145L434.455,145L434.689,145L434.924,145L435.158,145L435.393,145L435.627,145L435.862,145L436.096,145L436.331,145L436.565,145L436.8,145L437.034,145L437.269,145L437.503,145L437.738,145L437.972,145L438.207,145L438.441,145L438.676,145L438.91,145L439.145,145L439.379,145L439.614,145L439.848,145L440.083,145L440.317,145L440.552,145L440.786,145L441.021,145L441.255,145L441.49,145L441.724,145L441.959,145L442.193,145L442.428,145L442.662,145L442.897,145L443.131,145L443.366,145L443.6,145L443.835,145L444.069,145L444.304,145L444.538,145L444.773,145L445.007,145L445.242,145L445.476,145L445.711,145L445.945,145L446.18,145L446.414,145L446.649,145L446.883,145L447.118,145L447.352,145L447.587,145L447.821,145L448.056,145L448.29,145L448.525,145L448.759,145L448.994,145L449.228,145L449.463,145L449.697,145L449.932,145L450.166,145L450.401,145L450.87,145L451.339,145L451.573,145L451.808,145L452.277,145L452.511,145L452.746,145L452.98,145L453.215,145L453.449,145L454.388,145L454.622,145L454.857,145L455.091,145L455.326,145L456.498,145L456.733,145L456.967,145L457.202,145L458.14,145L458.609,145L458.843,145L459.078,145L459.312,145L459.547,145L459.781,145L460,145L460,37L459.781,37L459.547,50.578L459.312,41.664L459.078,41.042L458.843,41.664L458.609,49.23L458.14,44.048L457.202,49.541L456.967,50.681L456.733,43.633L456.498,44.255L455.326,50.785L455.091,50.681L454.857,49.749L454.622,47.779L454.388,50.785L453.449,51.718L453.215,58.973L452.98,53.48L452.746,53.169L452.511,47.537L452.277,52.924L451.808,53.998L451.573,47.261L451.339,47.261L450.87,56.486L450.401,47.157L450.166,54.931L449.932,46.846L449.697,47.987L449.463,47.054L449.228,51.822L448.994,62.186L448.759,58.973L448.525,64.156L448.29,59.491L448.056,61.253L447.821,50.785L447.587,48.608L447.352,46.276L447.118,46.587L446.883,52.132L446.649,53.065L446.414,53.376L446.18,52.443L445.945,52.495L445.711,53.376L445.476,57.47L445.242,57.107L445.007,57.056L444.773,56.486L444.538,58.455L444.304,58.662L444.069,58.248L443.835,55.035L443.6,54.931L443.366,55.035L443.131,55.345L442.897,54.724L442.662,53.894L442.428,53.687L442.193,55.708L441.959,60.061L441.724,61.461L441.49,61.772L441.255,64.156L441.021,61.046L440.786,56.386L440.552,55.605L440.317,55.397L440.083,53.014L439.848,51.303L439.614,53.998L439.379,52.236L439.145,50.785L438.91,52.547L438.676,54.413L438.441,54.62L438.207,55.76L437.972,54.516L437.738,55.112L437.503,57.833L437.269,58.869L437.034,54.05L436.8,53.428L436.565,54.567L436.331,52.754L436.096,55.035L435.862,51.511L435.627,50.267L435.393,46.536L435.158,47.572L434.924,53.012L434.689,44.359L434.455,36.585L434.22,42.597L433.986,38.762L433.751,40.42L433.517,39.747L433.282,33.5L433.048,32.491L432.813,32.232L432.579,29.382L432.344,29.848L432.11,32.129L431.875,29.848L431.64,24.407L431.406,24.977L431.171,31.61L430.937,38.658L430.702,28.708L429.764,41.871L429.53,41.353L429.295,38.866L429.061,38.555L428.826,38.347L428.592,38.866L428.357,38.762L427.888,36.482L427.654,36.378L427.419,37.311L426.95,39.902L426.716,38.555L426.481,38.451L426.247,38.555L426.012,44.566L425.778,35.756L425.543,35.964L425.309,38.866L425.074,40.42L424.84,40.42L424.605,44.566L424.371,38.866L424.136,38.866L423.902,35.756L423.667,38.555L423.433,39.384L422.964,36.793L422.729,40.731L422.495,39.28L422.026,51.718L421.791,40.109L421.557,51.718L421.322,36.275L421.088,36.275L420.853,35.756L420.619,35.756L420.384,35.756L420.15,35.653L419.915,35.653L419.681,31.092L419.212,31.092L418.743,31.092L418.508,31.092L418.039,31.299L417.336,31.299L417.101,31.299L416.867,32.543L416.632,36.793L416.163,36.793L415.929,36.793L415.694,36.793L415.46,40.317L415.225,36.793L392.478,39.073L392.244,43.53L392.009,39.073L391.775,40.006L391.306,43.419L391.071,41.457L390.368,41.457L389.664,39.073L389.43,39.695L389.195,39.073L388.961,41.457L388.492,41.457L388.257,41.457L388.023,41.457L387.788,42.493L387.554,42.493L387.319,42.493L387.084,39.488L386.85,39.518L386.381,43.672L386.146,42.079L385.912,44.566L385.677,42.701L385.443,41.457L385.208,41.56L384.974,41.56L384.739,41.56L384.505,44.463L384.27,41.56L384.036,41.975L383.567,41.975L383.332,43.012L383.098,40.213L382.629,49.101L382.16,46.328L381.925,44.67L381.691,44.566L381.456,44.566L381.222,44.463L380.987,42.804L380.753,43.374L380.518,44.152L380.284,40.42L380.049,42.649L379.815,45.81L379.58,45.758L379.346,47.261L379.111,46.173L378.877,45.914L378.642,46.847L378.408,48.608L378.173,47.987L377.939,49.541L377.704,48.246L377.47,48.401L377.235,45.292L377.001,44.566L376.766,43.944L376.532,43.633L376.297,45.245L376.063,45.551L375.828,46.017L375.594,46.951L375.359,45.292L375.125,46.121L374.89,45.603L374.656,44.981L374.421,45.926L374.187,45.603L373.952,45.085L373.718,45.499L373.483,45.24L373.249,46.37L373.014,47.468L372.78,48.194L372.545,48.712L372.311,49.84L372.076,51.096L371.842,51.614L371.607,51.511L371.373,53.324L371.138,52.859L370.904,52.754L370.669,52.754L370.435,52.443L370.2,52.029L369.966,50.578L369.731,50.681L369.497,49.956L369.262,50.889L369.028,52.631L368.793,53.169L368.559,51.822L368.324,54.309L368.09,56.952L367.855,56.537L367.621,58.04L367.386,56.019L367.152,59.31L366.917,58.144L366.683,54.102L366.448,54.465L366.214,52.443L365.979,50.369L365.745,46.743L365.51,44.877L365.276,44.048L365.041,39.798L364.806,38.918L364.572,39.384L364.337,36.896L364.103,31.61L363.868,35.186L363.634,37.57L363.399,41.509L363.165,38.762L362.227,72.551L361.992,72.551L361.758,72.447L361.523,72.551L361.289,72.447L361.054,75.142L360.82,80.584L360.585,80.843L360.351,75.453L360.116,80.739L359.882,80.843L359.647,80.951L359.413,73.276L359.178,81.775L358.944,75.66L358.709,75.349L358.475,79.335L358.24,81.389L358.006,74.624L357.537,79.288L357.302,81.568L357.068,81.568L356.833,81.154L356.599,81.879L356.364,82.605L356.13,76.697L355.895,76.8L355.192,72.551L354.957,82.708L354.488,75.764L354.254,75.764L354.019,43.219L353.785,82.916L353.081,86.129L352.612,73.587L352.378,74.935L351.674,74.935L189.866,62.186L189.631,62.186L189.397,66.021L189.162,66.85L188.928,67.058L188.693,68.094L188.459,65.088L187.755,57.004L187.286,55.76L187.051,55.76L186.582,53.894L186.348,64.052L185.644,64.052L184.941,55.76L184.706,53.894L184.472,65.921L184.237,64.777L184.003,69.649L183.768,58.455L183.534,53.998L183.299,53.998L182.83,56.32L182.361,56.797L182.127,63.845L181.892,62.497L181.658,62.601L181.423,63.223L181.189,64.052L180.954,63.948L180.72,63.741L180.485,63.741L180.251,62.186L180.016,72.684L179.782,63.845L179.547,60.839L179.313,64.052L179.078,64.052L178.844,64.052L178.609,64.052L178.375,59.388L178.14,59.802L177.906,57.107L177.671,56.382L177.437,58.766L177.202,60.683L176.968,60.942L176.733,60.735L176.499,61.357L176.264,59.181L176.03,58.766L175.795,58.766L175.561,56.589L175.326,56.486L175.092,56.071L174.857,58.04L174.623,54.309L174.388,53.894L174.154,52.029L173.919,52.547L173.685,54.724L173.45,54.309L173.216,52.029L172.981,52.858L172.747,51.822L172.512,54.102L172.278,56.175L172.043,55.76L171.809,52.443L171.574,49.127L171.34,48.919L171.105,45.914L170.871,46.821L170.636,44.877L170.402,41.349L170.167,41.653L169.933,40.42L169.698,39.902L169.464,41.353L169.229,45.706L168.995,42.908L168.76,43.805L168.526,43.633L168.291,42.493L168.057,44.359L167.822,43.063L167.588,43.53L167.353,45.085L167.119,46.069L166.884,48.401L166.65,49.956L166.415,51.303L166.181,51.614L165.946,52.547L165.712,53.428L165.477,53.791L165.242,54.309L165.008,52.288L164.773,52.91L164.539,50.319L164.304,47.365L164.07,46.38L163.835,48.194L163.601,47.857L163.366,47.054L163.132,50.474L162.897,51.718L162.663,54.827L162.428,65.088L162.194,63.689L161.959,66.954L161.725,58.766L161.49,62.601L161.256,63.067L161.021,59.077L160.787,56.589L160.552,50.578L159.614,46.017L159.38,44.359L159.145,47.676L158.911,48.116L158.676,53.065L158.442,57.108L158.207,61.564L157.973,61.668L157.738,60.113L157.504,59.388L157.269,59.388L157.035,59.465L156.8,62.186L156.566,64.726L156.331,70.063L156.097,58.144L155.862,60.113L155.628,61.15L155.393,62.186L155.159,64.674L154.924,59.849L154.69,61.15L154.455,65.399L154.221,66.436L153.986,65.503L153.752,59.641L153.517,65.814L153.283,68.094L152.814,68.094L152.579,68.094L152.11,63.534L151.641,68.405L151.407,68.405L150.938,68.405L150.703,68.405L150.469,68.405L150,67.783L149.765,67.783L149.531,68.405L149.296,70.893L149.062,70.893L148.827,70.893L148.124,66.954L147.655,72.447L147.42,72.551L147.186,83.631L146.717,72.551L146.248,83.123L146.013,102.298L145.31,77.422L145.075,72.862L122.328,73.587L122.094,74.209L121.859,78.044L121.625,73.898L121.39,75.66L121.156,72.551L120.921,78.044L120.686,77.941L120.452,75.66L120.217,78.044L119.279,78.251L119.045,78.251L118.81,78.251L118.576,73.898L118.341,82.916L118.107,81.568L117.872,82.916L117.638,73.795L117.403,77.733L117.169,72.551L116.934,78.044L116.7,75.971L116.465,77.733L116.231,79.599L115.996,77.733L115.527,81.154L115.293,79.392L115.058,79.703L114.824,72.551L114.589,81.568L114.355,82.472L114.12,79.599L113.886,82.915L113.651,77.733L113.417,72.874L113.182,77.733L112.948,76.697L112.713,77.733L112.479,82.916L112.244,78.77L112.01,77.733L111.775,78.044L111.541,79.599L111.306,79.599L111.072,80.221L110.837,78.666L110.603,72.344L110.368,69.804L110.134,68.612L109.899,67.265L109.665,69.856L109.43,70.582L109.196,70.789L108.961,71.203L108.727,68.664L108.492,68.561L108.258,67.783L108.023,66.954L107.789,66.591L107.554,64.985L107.32,65.84L107.085,65.584L106.851,68.405L106.616,64.26L106.382,65.253L106.147,64.777L105.913,65.71L105.678,65.296L105.444,66.85L105.209,65.917L104.975,65.503L104.74,65.658L104.506,67.679L104.271,67.99L104.037,70.426L103.802,71.409L103.568,71.566L103.333,72.965L103.099,71.877L102.864,70.063L102.63,68.612L102.395,69.649L102.161,68.612L101.926,71.514L101.692,69.96L101.457,70.063L101.223,64.622L100.988,65.088L100.754,66.747L100.519,69.338L100.285,68.664L100.05,69.545L99.816,69.649L99.581,68.094L99.347,70.789L99.112,72.551L98.878,73.276L98.643,76.593L98.408,75.557L98.174,67.783L97.939,67.239L97.705,66.28L97.47,73.016L97.236,74.002L97.001,69.96L96.767,67.369L96.532,66.539L96.298,68.301L96.063,67.369L95.829,65.347L95.594,60.632L95.36,64.777L95.125,67.212L94.891,61.409L94.656,57.47L94.422,61.772L94.187,54.62L93.953,56.071L93.718,44.67L93.484,34.409L93.249,34.72L93.015,45.603L92.077,46.639L91.842,46.639L91.608,46.639L91.373,38.969L91.139,37.933L90.904,37.829L90.67,35.756L90.435,38.969L90.201,41.457L89.966,34.316L89.732,41.457L89.497,40.835L89.263,37.415L89.028,31.486L88.794,35.964L88.559,35.031L88.325,39.166L88.09,35.134L87.856,35.031L87.621,39.705L87.387,35.756L87.152,44.463L86.918,44.566L86.683,45.81L86.449,41.457L86.214,45.914L85.98,46.536L85.745,41.768L85.511,49.749L85.276,49.749L85.042,49.645L84.807,48.09L84.573,48.09L84.104,51.818L83.869,51.818L83.4,51.822L83.166,50.132L82.931,51.822L82.697,55.864L82.462,47.676L82.228,49.127L81.993,36.793L81.759,49.127L81.29,49.23L81.055,49.023L80.821,65.088L80.586,49.334L80.352,41.353L80.117,41.56L79.883,41.457L79.648,44.463L79.179,41.457L78.71,41.768L78.476,38.347L78.241,35.134L78.007,35.031L77.772,31.092L77.538,25.288L54.791,33.165L54.556,33.61L54.321,35.238L54.087,34.72L53.852,36.084L53.618,33.165L53.383,33.269L53.149,33.269L52.68,33.321L52.445,34.409L52.211,33.062L51.976,36.223L51.742,32.854L51.507,34.927L51.273,32.44L51.038,33.061L50.804,32.958L50.569,33.683L50.335,39.384L50.1,34.202L49.866,35.238L49.631,39.384L49.397,34.383L49.162,34.202L48.928,33.684L48.693,31.092L48.459,33.683L48.224,34.927L47.99,31.591L47.755,35.03L47.521,38.306L47.286,35.445L46.817,35.86L46.583,35.342L46.348,32.6L46.114,36.275L45.879,39.384L45.645,41.55L45.41,39.591L45.176,39.591L44.941,35.549L44.707,34.471L44.472,35.031L44.238,33.683L44.003,41.457L43.769,35.031L43.534,36.171L43.3,33.321L43.065,40.99L42.831,39.296L42.596,35.186L42.362,32.647L42.127,29.641L41.893,31.61L41.658,32.129L41.424,30.833L41.189,32.854L40.955,31.507L40.72,29.123L40.486,31.403L40.251,32.025L40.017,34.875L39.782,34.927L39.548,35.756L39.313,34.305L39.079,34.15L38.844,34.72L38.61,35.756L38.375,34.304L38.141,33.528L37.906,35.497L37.672,36.585L37.437,36.378L37.203,36.482L36.968,38.296L36.734,38.658L36.499,39.021L36.265,40.472L36.03,38.399L35.796,39.28L35.561,37.285L35.327,38.399L35.092,40.161L34.858,38.451L34.623,39.798L34.389,40.835L34.154,39.798L33.92,42.39L33.685,40.006L33.451,38.305L33.216,40.835L32.982,41.768L32.747,39.798L32.513,36.844L32.278,37.726L32.043,36.896L31.809,38.244L31.574,38.14L31.34,36.534L31.105,36.844L30.871,36.119L30.636,32.182L30.402,23.941L30.167,23.681L29.933,24.251L29.698,20.572L29.464,18.395L29.229,22.386L28.995,18.655L28.76,15.522L28.526,16.374L28.291,18.24L28.057,17.1L27.822,27.361L27.588,26.843L27.353,29.641L27.119,32.854L26.884,43.996L26.65,42.078L26.415,31.403L26.181,33.45L25.946,47.676L25.712,34.772L25.477,10L24.539,59.028L24.305,59.971L24.07,57.263L23.836,68.301L23.601,66.332L23.367,65.71L23.132,68.923L22.898,67.576L22.663,70.346L22.429,70.789L22.194,72.551L21.96,70.374L21.725,69.96L21.491,68.405L21.256,72.551L21.022,67.369L20.787,70.685L20.553,72.551L20.318,81.361L20.084,82.501L19.849,81.05L19.615,94.317L19.38,119.192L19.146,123.545L18.911,119.814L18.677,120.317L18.442,118.155L18.208,115.979L17.973,118.674L17.739,120.747L17.504,124.374L17.27,120.735L17.035,120.735L16.801,120.332L16.566,125.618L16.332,121.783L16.097,122.301L15.863,122.82L15.628,125.618L15.394,120.332L15.159,120.228L14.69,125.411L14.221,120.228L13.987,120.228L13.752,124.582L13.518,124.582L13.283,128.727L13.049,126.655L12.814,145L12.58,119.192L12.111,118.259L11.876,120.332L11.642,120.332L11.407,118.155L10.938,115.046L10.704,118.259L10.469,114.321L10.235,113.491L10,108.827Z" fill="rgba(88, 166, 255, .1)"/>
                    </svg>
                </div>
            </section>
        </div>
        <div xmlns="http://www.w3.org/1999/xhtml" id="metrics-end"></div>
    </foreignObject>
</svg>