<svg xmlns="http://www.w3.org/2000/svg" width="480" height="302" class="">
    <defs>
        <style/>
    </defs>
    <style>@keyframes animation-gauge{0%{stroke-dasharray:0 329}}@keyframes animation-rainbow{0%,to{color:#7f00ff;fill:#7f00ff}14%{color:#a933ff;fill:#a933ff}29%{color:#007fff;fill:#007fff}43%{color:#00ff7f;fill:#00ff7f}57%{color:#ff0;fill:#ff0}71%{color:#ff7f00;fill:#ff7f00}86%{color:red;fill:red}}svg{font-family:-apple-system,BlinkMacSystemFont,Segoe UI,Helvetica,Arial,sans-serif,Apple Color Emoji,Segoe UI Emoji;font-size:14px;color:#777}h2{margin:8px 0 2px;padding:0;color:#0366d6;font-weight:400;font-size:16px}h2 svg{fill:currentColor}section&gt;.field{margin-left:5px;margin-right:5px}.field{display:flex;align-items:center;margin-bottom:2px;white-space:nowrap}.field svg{margin:0 8px;fill:#959da5;flex-shrink:0}.row{display:flex;flex-wrap:wrap}.row section{flex:1 1 0}:root{--color-calendar-graph-day-bg:#ebedf0;--color-calendar-graph-day-border:rgba(27,31,35,0.06);--color-calendar-graph-day-L1-bg:#9be9a8;--color-calendar-graph-day-L2-bg:#40c463;--color-calendar-graph-day-L3-bg:#30a14e;--color-calendar-graph-day-L4-bg:#216e39;--color-calendar-halloween-graph-day-L1-bg:#ffee4a;--color-calendar-halloween-graph-day-L2-bg:#ffc501;--color-calendar-halloween-graph-day-L3-bg:#fe9600;--color-calendar-halloween-graph-day-L4-bg:#03001c;--color-calendar-winter-graph-day-L1-bg:#0a3069;--color-calendar-winter-graph-day-L2-bg:#0969da;--color-calendar-winter-graph-day-L3-bg:#54aeff;--color-calendar-winter-graph-day-L4-bg:#b6e3ff;--color-calendar-graph-day-L4-border:rgba(27,31,35,0.06);--color-calendar-graph-day-L3-border:rgba(27,31,35,0.06);--color-calendar-graph-day-L2-border:rgba(27,31,35,0.06);--color-calendar-graph-day-L1-border:rgba(27,31,35,0.06)}#metrics-end{width:100%}</style>
    <style/>
    <foreignObject x="0" y="0" width="100%" height="100%">
        <div xmlns="http://www.w3.org/1999/xhtml" xmlns:xlink="http://www.w3.org/1999/xlink" class="items-wrapper">
            <section>
                <h2 class="field">
                    <svg xmlns="http://www.w3.org/2000/svg" viewBox="0 0 16 16" width="16" height="16">
                        <path d="M10.75 9a.75.75 0 000 1.5h1.5a.75.75 0 000-1.5h-1.5z"/>
                        <path fill-rule="evenodd" d="M0 3.75C0 2.784.784 2 1.75 2h12.5c.966 0 1.75.784 1.75 1.75v8.5A1.75 1.75 0 0114.25 14H1.75A1.75 1.75 0 010 12.25v-8.5zm14.5 0V5h-13V3.75a.25.25 0 01.25-.25h12.5a.25.25 0 01.25.25zm0 2.75h-13v5.75c0 .138.112.25.25.25h12.5a.25.25 0 00.25-.25V6.5z"/>
                    </svg>
                    Stock prices for MS
                </h2>
                <div class="row">
                    <section>
                        <div class="field">
                            <svg xmlns="http://www.w3.org/2000/svg" viewBox="0 0 16 16" width="16" height="16">
                                <path fill-rule="evenodd" d="M1.5 14.25c0 .138.112.25.25.25H4v-1.25a.75.75 0 01.75-.75h2.5a.75.75 0 01.75.75v1.25h2.25a.25.25 0 00.25-.25V1.75a.25.25 0 00-.25-.25h-8.5a.25.25 0 00-.25.25v12.5zM1.75 16A1.75 1.75 0 010 14.25V1.75C0 .784.784 0 1.75 0h8.5C11.216 0 12 .784 12 1.75v12.5c0 .085-.006.168-.018.25h2.268a.25.25 0 00.25-.25V8.285a.25.25 0 00-.111-.208l-1.055-.703a.75.75 0 11.832-1.248l1.055.703c.487.325.779.871.779 1.456v5.965A1.75 1.75 0 0114.25 16h-3.5a.75.75 0 01-.197-.026c-.099.017-.2.026-.303.026h-3a.75.75 0 01-.75-.75V14h-1v1.25a.75.75 0 01-.75.75h-3zM3 3.75A.75.75 0 013.75 3h.5a.75.75 0 010 1.5h-.5A.75.75 0 013 3.75zM3.75 6a.75.75 0 000 1.5h.5a.75.75 0 000-1.5h-.5zM3 9.75A.75.75 0 013.75 9h.5a.75.75 0 010 1.5h-.5A.75.75 0 013 9.75zM7.75 9a.75.75 0 000 1.5h.5a.75.75 0 000-1.5h-.5zM7 6.75A.75.75 0 017.75 6h.5a.75.75 0 010 1.5h-.5A.75.75 0 017 6.75zM7.75 3a.75.75 0 000 1.5h.5a.75.75 0 000-1.5h-.5z"/>
                            </svg>
                            MS
                        </div>
                        <div class="field">
                            <svg xmlns="http://www.w3.org/2000/svg" viewBox="0 0 16 16" width="16" height="16">
                                <path fill-rule="evenodd" d="M6 2a.75.75 0 01.696.471L10 10.731l1.304-3.26A.75.75 0 0112 7h3.25a.75.75 0 010 1.5h-2.742l-1.812 4.528a.75.75 0 01-1.392 0L6 4.77 4.696 8.03A.75.75 0 014 8.5H.75a.75.75 0 010-1.5h2.742l1.812-4.529A.75.75 0 016 2z"/>
                            </svg>
                            Valued at 222.04 USD
                        </div>
                    </section>
                    <section>
                        <div class="field">
                            <svg xmlns="http://www.w3.org/2000/svg" viewBox="0 0 16 16" width="16" height="16">
                                <path fill-rule="evenodd" d="M4.75 0a.75.75 0 01.75.75V2h5V.75a.75.75 0 011.5 0V2h1.25c.966 0 1.75.784 1.75 1.75v10.5A1.75 1.75 0 0113.25 16H2.75A1.75 1.75 0 011 14.25V3.75C1 2.784 1.784 2 2.75 2H4V.75A.75.75 0 014.75 0zm0 3.5h8.5a.25.25 0 01.25.25V6h-11V3.75a.25.25 0 01.25-.25h2zm-2.25 4v6.75c0 .138.112.25.25.25h10.5a.25.25 0 00.25-.25V7.5h-11z"/>
                            </svg>
                            Last five days
                        </div>
                        <div class="field">
                            <svg xmlns="http://www.w3.org/2000/svg" viewBox="0 0 16 16" width="16" height="16">
                                <path fill-rule="evenodd" d="M13.03 8.22a.75.75 0 010 1.06l-4.25 4.25a.75.75 0 01-1.06 0L3.47 9.28a.75.75 0 011.06-1.06l2.97 2.97V3.75a.75.75 0 011.5 0v7.44l2.97-2.97a.75.75 0 011.06 0z"/>
                            </svg>
                            -0.06 USD (-0.03%)
                        </div>
                    </section>
                </div>
                <div class="stock-chart">
                    <svg xmlns="http://www.w3.org/2000/svg" width="480" height="200">
                        <g transform="translate(10,155)" fill="none" font-size="10" font-family="sans-serif" text-anchor="middle">
                            <path class="domain" stroke="rgba(127, 127, 127, .8)" d="M10.5,0.5H460.5"/>
                            <g class="tick" opacity="1" transform="translate(49.630434782608695,0)">
                                <line stroke="currentColor" y2="6" stroke-opacity="0.5"/>
                                <text fill="rgba(127, 127, 127, .8)" y="9" dy="0.71em" transform="translate(-5,5) rotate(-45)" style="text-anchor: end;">July</text>
                            </g>
                            <g class="tick" opacity="1" transform="translate(108.32608695652173,0)">
                                <line stroke="currentColor" y2="6" stroke-opacity="0.5"/>
                                <text fill="rgba(127, 127, 127, .8)" y="9" dy="0.71em" transform="translate(-5,5) rotate(-45)" style="text-anchor: end;">Thu 02</text>
                            </g>
                            <g class="tick" opacity="1" transform="translate(167.02173913043478,0)">
                                <line stroke="currentColor" y2="6" stroke-opacity="0.5"/>
                                <text fill="rgba(127, 127, 127, .8)" y="9" dy="0.71em" transform="translate(-5,5) rotate(-45)" style="text-anchor: end;">Fri 03</text>
                            </g>
                            <g class="tick" opacity="1" transform="translate(225.7173913043478,0)">
                                <line stroke="currentColor" y2="6" stroke-opacity="0.5"/>
                                <text fill="rgba(127, 127, 127, .8)" y="9" dy="0.71em" transform="translate(-5,5) rotate(-45)" style="text-anchor: end;">Sat 04</text>
                            </g>
                            <g class="tick" opacity="1" transform="translate(284.4130434782609,0)">
                                <line stroke="currentColor" y2="6" stroke-opacity="0.5"/>
                                <text fill="rgba(127, 127, 127, .8)" y="9" dy="0.71em" transform="translate(-5,5) rotate(-45)" style="text-anchor: end;">Jul 05</text>
                            </g>
                            <g class="tick" opacity="1" transform="translate(343.10869565217394,0)">
                                <line stroke="currentColor" y2="6" stroke-opacity="0.5"/>
                                <text fill="rgba(127, 127, 127, .8)" y="9" dy="0.71em" transform="translate(-5,5) rotate(-45)" style="text-anchor: end;">Mon 06</text>
                            </g>
                            <g class="tick" opacity="1" transform="translate(401.80434782608694,0)">
                                <line stroke="currentColor" y2="6" stroke-opacity="0.5"/>
                                <text fill="rgba(127, 127, 127, .8)" y="9" dy="0.71em" transform="translate(-5,5) rotate(-45)" style="text-anchor: end;">Tue 07</text>
                            </g>
                            <g class="tick" opacity="1" transform="translate(460.5,0)">
                                <line stroke="currentColor" y2="6" stroke-opacity="0.5"/>
                                <text fill="rgba(127, 127, 127, .8)" y="9" dy="0.71em" transform="translate(-5,5) rotate(-45)" style="text-anchor: end;">Wed 08</text>
                            </g>
                        </g>
                        <g transform="translate(10,10)" fill="none" font-size="10" font-family="sans-serif" text-anchor="start">
                            <g class="tick" opacity="1" transform="translate(0,10.5)">
                                <line stroke="currentColor" x2="460" stroke-opacity="0.5" stroke-dasharray="2,2"/>
                                <text fill="rgba(127, 127, 127, .8)" x="0" dy="-4">225</text>
                            </g>
                            <g class="tick" opacity="1" transform="translate(0,48)">
                                <line stroke="currentColor" x2="460" stroke-opacity="0.5" stroke-dasharray="2,2"/>
                                <text fill="rgba(127, 127, 127, .8)" x="0" dy="-4">220</text>
                            </g>
                            <g class="tick" opacity="1" transform="translate(0,85.5)">
                                <line stroke="currentColor" x2="460" stroke-opacity="0.5" stroke-dasharray="2,2"/>
                                <text fill="rgba(127, 127, 127, .8)" x="0" dy="-4">215</text>
                            </g>
                            <g class="tick" opacity="1" transform="translate(0,123.00000000000001)">
                                <line stroke="currentColor" x2="460" stroke-opacity="0.5" stroke-dasharray="2,2"/>
                                <text fill="rgba(127, 127, 127, .8)" x="0" dy="-4">210</text>
                            </g>
                        </g>
                        <path transform="translate(10,10)" d="M10,106.45L10.204,110.125L10.815,110.125L11.223,117.925L11.427,110.2L11.834,110.2L12.446,111.325L12.649,111.625L13.057,117.85L13.261,107.65L13.465,110.8L14.28,113.125L15.095,113.245L15.299,134.525L15.503,134.05L15.707,134.5L15.91,131.125L16.114,131.425L16.318,132.625L16.726,128.425L16.929,129.25L17.133,128.5L17.337,127L17.541,128.5L17.745,127L17.948,128.5L18.152,126.25L18.356,127.375L18.56,130L18.764,128.998L18.967,130.6L19.171,128.125L19.375,127.9L19.579,128.95L19.783,130L19.986,127L20.19,128.725L20.394,130L20.598,126.464L21.005,134.036L21.209,135.475L21.413,134.818L21.617,135.24L21.821,135.158L22.024,134.425L22.228,131.875L22.432,135.925L22.636,135.925L23.451,129.063L23.655,133.75L23.859,127.75L24.063,126.25L24.266,120.775L24.47,114.175L24.674,118.75L24.878,118.525L25.082,117.963L25.285,118.525L25.489,118.712L25.693,118L25.897,117.4L26.101,118.3L26.304,119.8L26.508,120.55L26.712,121.187L26.916,126.154L27.12,125.425L27.323,123.55L27.527,124.863L27.731,127.375L27.935,126.587L28.139,125.725L28.342,127.412L28.546,133.225L28.75,134.35L28.954,130.675L29.158,127.824L29.361,126.288L29.565,127.299L29.769,125.425L29.973,124.863L30.177,124.975L30.38,123.475L30.584,125.387L30.788,125.35L30.992,126.625L31.196,126.1L31.399,125.95L31.603,123.85L31.807,125.05L32.011,125.5L32.215,125.088L32.418,127.45L32.622,127.3L32.826,128.274L33.03,127.75L33.234,126.775L33.438,129.025L33.641,127.894L33.845,127.375L34.049,127.9L34.253,128.597L34.457,127.975L34.66,129.4L34.864,128.838L35.068,128.575L35.272,126.775L35.476,125.65L35.679,126.662L35.883,127.525L36.087,124.863L36.291,120.4L36.495,121.825L36.698,124.337L36.902,124.975L37.106,125.088L37.31,125.199L37.514,123.55L37.717,124.975L37.921,126.325L38.125,128.386L38.329,126.625L38.533,127.412L38.736,127.113L38.94,126.662L39.144,129.925L39.348,129.775L39.552,126.25L39.755,114.175L39.959,117.032L40.163,130.15L40.367,117.025L40.571,130.075L40.774,132.175L40.978,132.925L41.182,132.925L41.386,130L41.59,129.7L41.997,130L42.201,131.125L42.405,133.664L42.609,124.6L42.813,129.7L43.016,133.645L43.22,133.645L43.424,131.125L43.628,129.7L43.832,131.725L44.035,132.325L44.239,132.925L44.443,133.3L44.647,133.675L44.851,131.8L45.054,130.184L45.258,132.325L45.462,130L45.666,132.193L45.87,130.075L46.073,130.075L46.277,130L46.481,131.875L46.685,132.1L46.889,132.625L47.092,132.625L47.296,132.625L47.5,132.7L47.704,132.55L48.111,132.625L48.315,130L48.519,130.075L48.723,132.625L48.927,132.625L68.696,140.95L68.899,142.075L69.307,137.5L69.715,145L70.53,134.725L70.938,136.375L71.141,136.15L71.345,136L71.549,137.275L72.16,137.125L72.364,144.925L72.568,141.325L72.772,143.125L73.179,142.975L73.383,143.05L73.791,138.175L73.995,137.2L74.198,137.2L74.606,137.5L74.81,137.5L75.014,137.5L75.217,137.65L75.421,136.975L75.625,136.975L75.829,131.425L76.033,135.85L76.236,135.775L76.44,136.15L76.644,135.925L76.848,114.175L77.052,141.25L77.255,125.798L77.459,123.925L77.663,130.9L77.867,133L78.071,132.925L78.274,132.7L78.478,130.75L78.682,135.693L79.293,129.44L79.497,130L79.701,135.925L79.905,129.7L80.109,135.775L80.313,133.9L80.516,135.625L80.72,133.975L80.924,126.511L81.128,135.4L81.332,135.625L82.147,137.2L82.351,133.675L82.554,128.275L82.758,128.05L82.962,127.412L83.166,123.55L83.37,125.425L83.573,125.575L83.777,119.275L83.981,119.275L84.185,121.563L84.389,123.25L84.592,124.112L84.796,121L85,117.738L85.204,117.513L85.408,121.862L85.611,121.225L85.815,118.675L86.019,120.25L86.223,114.325L86.427,112.037L86.63,114.4L86.834,114.813L87.038,115.412L87.242,112.75L87.446,111.025L87.649,112.6L87.853,110.875L88.057,107.425L88.261,106.037L88.465,104.162L88.668,101.688L88.872,99.813L89.076,99.081L89.28,100.356L89.484,100.6L89.688,100.863L89.891,101.275L90.095,102.963L90.299,107.05L90.503,108.25L90.707,108.737L90.91,110.8L91.114,110.238L91.318,111.325L91.522,110.688L91.726,110.8L91.929,108.25L92.133,108.138L92.337,109.038L92.541,108.025L92.745,108.438L92.948,108.1L93.152,106.263L93.356,109.188L93.56,109.825L93.764,109.188L93.967,108.062L94.171,110.162L94.375,110.35L94.579,110.875L94.783,109.375L94.986,110.35L95.19,111.362L95.394,111.475L95.598,111.175L95.802,112.3L96.005,111.325L96.209,111.513L96.413,108.813L96.617,110.425L96.821,108.925L97.024,108.925L97.228,109.562L97.432,108.25L97.636,105.85L97.84,108.325L98.043,108.475L98.247,109.75L98.451,108.55L98.655,111.175L98.859,118.101L99.266,108.55L99.47,105.25L99.674,103.9L99.878,114.925L100.082,111.625L100.285,108.55L100.489,110.125L100.693,111.992L101.304,108.55L101.916,111.625L102.527,111.625L102.731,111.55L102.935,111.625L103.139,111.625L103.342,109.3L103.546,111.925L103.75,111.925L103.954,120.25L104.158,100L104.361,108.85L104.565,105.25L104.769,111.925L104.973,108.85L105.177,107.725L105.584,110.5L105.788,110.256L105.992,112L106.196,115.307L106.807,113.05L107.011,111.4L107.215,110.275L107.418,110.275L127.391,110.65L127.595,100.75L127.799,100.75L128.003,101.95L128.207,100.75L128.41,100.75L128.818,100.675L129.226,100.75L129.633,100.75L129.837,98.725L130.041,125.972L130.245,105.775L130.448,107.875L130.652,98.875L130.856,98.875L131.264,125.972L131.671,105.625L131.875,108.55L132.486,108.55L132.69,100L132.894,107.425L133.098,97.358L133.709,100.225L134.117,95.125L134.321,99.095L134.524,98.95L134.728,103.75L134.932,95.875L135.136,98.575L135.34,97.525L135.543,98.125L135.747,107.5L135.951,100.558L136.97,98.95L137.174,97.15L137.378,98.661L137.582,98.5L137.785,97.375L137.989,97.375L138.193,99.55L138.397,92.5L138.601,94.9L139.008,92.5L139.212,92.5L139.416,92.125L139.62,91.097L139.823,91.3L140.027,91.3L140.842,98.838L141.046,96.175L141.25,89.272L141.454,88.225L141.658,88.638L141.861,85.45L142.065,92.556L142.269,88.15L142.473,81.775L142.677,85.112L142.88,92.275L143.084,92.648L143.288,91.149L143.492,89.256L143.696,99.625L143.899,96.812L144.103,99.4L144.307,93.48L144.511,94.975L144.715,97.825L144.918,94.038L145.122,97.525L145.326,95.088L145.53,96.175L145.734,91.075L145.937,94.038L146.141,95.463L146.345,98.725L146.549,100.975L146.753,102.025L146.957,101.313L147.16,101.763L147.364,100.75L147.568,102.175L147.772,105.1L147.976,104.05L148.179,103.525L148.383,103L148.587,99.925L148.791,101.763L148.995,100.787L149.198,102.287L149.402,103.487L149.606,106.675L149.81,105.025L150.014,106L150.217,106.825L150.421,107.05L150.625,105.25L150.829,107.612L151.033,107.088L151.236,107.8L151.44,107.875L151.644,109.75L151.848,106.412L152.052,101.95L152.255,101.639L152.459,104.05L152.663,102.4L152.867,101.5L153.071,97.15L153.274,95.688L153.478,95.537L153.682,95.875L153.886,94.75L154.09,94.975L154.293,98.35L154.497,99.475L154.701,100.337L154.905,103.6L155.109,102.395L155.313,101.725L155.516,99.7L155.72,97.525L155.924,95.8L156.128,95.425L156.332,92.462L156.535,93.4L156.739,94.6L156.943,81.07L157.147,76L157.351,93.025L157.758,93.025L157.962,93.4L158.166,92.5L158.37,98.2L158.573,97.675L158.777,98.125L158.981,98.125L159.185,85L159.389,90.621L159.592,93.025L159.796,93.625L160,93.4L160.204,86.706L160.408,96.4L160.611,90.7L160.815,91.975L161.019,98.125L161.223,93.025L161.63,98.125L161.834,98.125L162.038,92.725L162.446,92.725L162.649,91.375L162.853,92.5L163.057,92.2L163.668,91.375L164.28,91.45L164.484,88.253L164.688,92.2L164.891,92.2L165.299,98.125L165.503,98.125L166.114,92.875L166.318,89.5L362.174,91.45L362.378,88.75L362.582,88.75L362.989,91.525L363.397,91.75L363.601,103.9L363.804,97.748L364.416,98.275L364.62,98.275L365.027,98.275L365.231,98.275L365.435,98.125L366.25,98.125L366.454,97.75L366.658,97.45L367.065,92.575L367.473,92.5L367.88,92.425L368.288,92.35L368.492,92.35L368.696,91.75L368.899,91.75L369.307,92.5L369.511,93.025L369.918,89.875L370.122,88.451L370.326,86.5L370.53,92.05L370.734,86.5L370.938,92.5L371.141,92.5L371.549,92.5L371.957,93.025L372.16,93.025L372.364,91.075L372.568,91.225L372.772,86.5L372.976,91L373.179,91L373.383,91L373.587,90.25L373.791,85L373.995,91L374.198,89.875L374.402,89.5L374.606,89.5L374.81,88.375L375.625,51.7L375.829,58.449L376.033,51.55L376.236,50.8L376.44,49.825L376.644,52.825L376.848,50.088L377.052,51.4L377.255,46.675L377.459,46.316L377.663,43.225L377.867,41.5L378.071,42.925L378.274,42.4L378.478,42.7L378.682,43.525L378.886,39.438L379.09,36.738L379.293,36.662L379.497,34.58L379.701,34.375L379.905,34.75L380.109,35.575L380.312,35.725L380.516,36.025L380.72,37.9L380.924,38.613L381.128,38.743L381.332,37.45L381.535,37.9L381.739,37.3L381.943,39.663L382.147,41.35L382.351,40.975L382.554,38.8L382.758,38.65L382.962,39.475L383.166,40.675L383.37,40.263L383.573,39.925L383.777,41.612L383.981,42.925L384.185,41.275L384.389,41.05L384.592,41.6L384.796,41.688L385,41.425L385.204,41.837L385.408,42.55L385.611,43.9L385.815,44.5L386.019,43.9L386.223,45.1L386.427,44.537L386.63,43.15L386.834,43.824L387.038,43.188L387.242,42.062L387.446,41.538L387.649,41.688L387.853,41.65L388.057,42.325L388.261,40.562L388.465,39.4L388.668,39.4L388.872,37.731L389.076,38.275L389.28,39.663L389.484,39.625L389.688,38.05L389.891,36.7L390.095,37L390.299,40.562L390.503,36.775L390.707,35.65L390.91,38.275L391.114,36.775L391.318,31.675L391.522,31.525L391.726,31.75L391.929,31.375L392.133,29.725L392.337,21.931L392.541,21.931L392.948,25.075L393.152,28.825L393.356,29.5L393.56,32.407L393.764,26.2L393.967,25.075L394.171,28.825L394.375,28.75L394.579,31.75L394.783,28.45L394.986,29.5L395.19,29.95L395.394,31.675L395.598,30.925L395.802,30.925L396.209,29.05L396.413,29.2L396.821,31.3L397.024,31.3L397.228,29.125L397.432,29.125L397.84,28.975L398.043,28.75L398.247,29.2L398.451,29.413L398.655,28.825L398.859,28.825L399.063,28.825L399.266,28.9L399.47,30.25L399.674,28.965L399.878,31.675L400.082,29.65L400.285,29.05L400.489,29.5L400.693,29.125L400.897,29.125L401.101,29.14L420.87,25.225L421.073,25.225L421.277,29.333L421.481,24.625L421.685,29.35L421.889,27.25L422.296,29.35L423.315,27.625L423.723,28.525L423.927,28.525L424.538,26.725L424.742,27.025L424.946,27.025L425.149,28.675L425.557,25L425.761,13.3L425.965,17.425L426.168,12.25L426.372,14.5L426.576,13.75L426.78,14.275L426.984,15.25L427.188,17.275L427.391,17.125L427.595,17.275L427.799,16.9L428.003,16.9L428.207,21.25L428.41,12.25L428.614,10.573L428.818,10.075L429.022,15.4L429.226,13.9L429.429,10L429.633,15.175L429.837,23.05L430.041,25L430.245,21.655L430.448,19.253L430.652,20.575L430.856,17.575L431.06,21.25L431.264,17.65L431.467,25L431.671,21.25L431.875,24.074L432.079,17.5L432.283,17.65L432.486,17.575L432.69,17.575L432.894,17.575L433.098,22.15L433.302,17.5L433.505,18.325L434.321,36.175L434.524,31.675L434.728,28.675L434.932,26.875L435.136,29.65L435.34,28.75L435.543,28.675L435.747,26.688L435.951,35.856L436.155,28.937L436.359,35.5L436.562,33.737L436.766,40.638L436.97,44.875L437.174,44.8L437.378,44.162L437.582,37.3L437.785,37.3L437.989,39.55L438.193,38.05L438.397,42.625L438.601,41.875L438.804,41.2L439.008,32.95L439.212,32.313L439.416,33.625L439.62,34.15L439.823,35.594L440.027,35.013L440.231,39.925L440.435,39.175L440.639,38.388L440.842,33.55L441.046,33.843L441.25,32.875L441.454,32.163L441.658,32.125L441.861,31L442.065,29.35L442.269,28.862L442.473,30.25L442.677,29.463L442.88,29.875L443.084,29.125L443.288,27.812L443.492,28.9L443.696,26.875L443.899,26.35L444.103,24.836L444.307,24.588L444.511,23.537L444.715,27.062L444.918,28L445.122,28.563L445.326,27.831L445.53,29.762L445.734,29.05L445.938,27.25L446.141,27.1L446.345,27.738L446.549,29.762L446.753,29.684L446.957,30.137L447.16,34.075L447.364,33.775L447.568,31.6L447.772,32.35L447.976,34.075L448.179,35.65L448.383,36.025L448.587,32.237L448.791,34.712L448.995,34.525L449.198,32.65L449.402,33.55L449.606,32.462L449.81,29.8L450.014,31.938L450.217,32.2L450.421,31.975L450.625,31.825L450.829,32.2L451.033,31.675L451.236,31.675L451.44,32.5L451.644,37.375L452.255,31.825L452.459,35.766L452.663,42.625L452.867,32.5L453.071,35.8L453.274,32.5L453.478,30.925L453.682,32.125L453.886,25L454.09,44.5L454.293,25.3L454.701,44.5L454.905,34.825L455.109,34.825L455.313,24.272L455.72,35.828L455.924,39.55L456.128,32.2L456.332,41.975L456.535,34.825L456.739,30.475L456.943,30.475L457.147,25L457.351,44.5L457.554,34.075L457.962,35.425L458.166,32.5L458.573,39.55L458.777,27.738L458.981,40.344L459.185,25.075L459.389,25.075L460,25.075" fill="transparent" stroke="#87ceeb" stroke-width="2"/>
                        <path transform="translate(10,10)" d="M10,145L10.204,145L10.815,145L11.223,145L11.427,145L11.834,145L12.446,145L12.649,145L13.057,145L13.261,145L13.465,145L14.28,145L15.095,145L15.299,145L15.503,145L15.707,145L15.91,145L16.114,145L16.318,145L16.726,145L16.929,145L17.133,145L17.337,145L17.541,145L17.745,145L17.948,145L18.152,145L18.356,145L18.56,145L18.764,145L18.967,145L19.171,145L19.375,145L19.579,145L19.783,145L19.986,145L20.19,145L20.394,145L20.598,145L21.005,145L21.209,145L21.413,145L21.617,145L21.821,145L22.024,145L22.228,145L22.432,145L22.636,145L23.451,145L23.655,145L23.859,145L24.063,145L24.266,145L24.47,145L24.674,145L24.878,145L25.082,145L25.285,145L25.489,145L25.693,145L25.897,145L26.101,145L26.304,145L26.508,145L26.712,145L26.916,145L27.12,145L27.323,145L27.527,145L27.731,145L27.935,145L28.139,145L28.342,145L28.546,145L28.75,145L28.954,145L29.158,145L29.361,145L29.565,145L29.769,145L29.973,145L30.177,145L30.38,145L30.584,145L30.788,145L30.992,145L31.196,145L31.399,145L31.603,145L31.807,145L32.011,145L32.215,145L32.418,145L32.622,145L32.826,145L33.03,145L33.234,145L33.438,145L33.641,145L33.845,145L34.049,145L34.253,145L34.457,145L34.66,145L34.864,145L35.068,145L35.272,145L35.476,145L35.679,145L35.883,145L36.087,145L36.291,145L36.495,145L36.698,145L36.902,145L37.106,145L37.31,145L37.514,145L37.717,145L37.921,145L38.125,145L38.329,145L38.533,145L38.736,145L38.94,145L39.144,145L39.348,145L39.552,145L39.755,145L39.959,145L40.163,145L40.367,145L40.571,145L40.774,145L40.978,145L41.182,145L41.386,145L41.59,145L41.997,145L42.201,145L42.405,145L42.609,145L42.813,145L43.016,145L43.22,145L43.424,145L43.628,145L43.832,145L44.035,145L44.239,145L44.443,145L44.647,145L44.851,145L45.054,145L45.258,145L45.462,145L45.666,145L45.87,145L46.073,145L46.277,145L46.481,145L46.685,145L46.889,145L47.092,145L47.296,145L47.5,145L47.704,145L48.111,145L48.315,145L48.519,145L48.723,145L48.927,145L68.696,145L68.899,145L69.307,145L69.715,145L70.53,145L70.938,145L71.141,145L71.345,145L71.549,145L72.16,145L72.364,145L72.568,145L72.772,145L73.179,145L73.383,145L73.791,145L73.995,145L74.198,145L74.606,145L74.81,145L75.014,145L75.217,145L75.421,145L75.625,145L75.829,145L76.033,145L76.236,145L76.44,145L76.644,145L76.848,145L77.052,145L77.255,145L77.459,145L77.663,145L77.867,145L78.071,145L78.274,145L78.478,145L78.682,145L79.293,145L79.497,145L79.701,145L79.905,145L80.109,145L80.313,145L80.516,145L80.72,145L80.924,145L81.128,145L81.332,145L82.147,145L82.351,145L82.554,145L82.758,145L82.962,145L83.166,145L83.37,145L83.573,145L83.777,145L83.981,145L84.185,145L84.389,145L84.592,145L84.796,145L85,145L85.204,145L85.408,145L85.611,145L85.815,145L86.019,145L86.223,145L86.427,145L86.63,145L86.834,145L87.038,145L87.242,145L87.446,145L87.649,145L87.853,145L88.057,145L88.261,145L88.465,145L88.668,145L88.872,145L89.076,145L89.28,145L89.484,145L89.688,145L89.891,145L90.095,145L90.299,145L90.503,145L90.707,145L90.91,145L91.114,145L91.318,145L91.522,145L91.726,145L91.929,145L92.133,145L92.337,145L92.541,145L92.745,145L92.948,145L93.152,145L93.356,145L93.56,145L93.764,145L93.967,145L94.171,145L94.375,145L94.579,145L94.783,145L94.986,145L95.19,145L95.394,145L95.598,145L95.802,145L96.005,145L96.209,145L96.413,145L96.617,145L96.821,145L97.024,145L97.228,145L97.432,145L97.636,145L97.84,145L98.043,145L98.247,145L98.451,145L98.655,145L98.859,145L99.266,145L99.47,145L99.674,145L99.878,145L100.082,145L100.285,145L100.489,145L100.693,145L101.304,145L101.916,145L102.527,145L102.731,145L102.935,145L103.139,145L103.342,145L103.546,145L103.75,145L103.954,145L104.158,145L104.361,145L104.565,145L104.769,145L104.973,145L105.177,145L105.584,145L105.788,145L105.992,145L106.196,145L106.807,145L107.011,145L107.215,145L107.418,145L127.391,145L127.595,145L127.799,145L128.003,145L128.207,145L128.41,145L128.818,145L129.226,145L129.633,145L129.837,145L130.041,145L130.245,145L130.448,145L130.652,145L130.856,145L131.264,145L131.671,145L131.875,145L132.486,145L132.69,145L132.894,145L133.098,145L133.709,145L134.117,145L134.321,145L134.524,145L134.728,145L134.932,145L135.136,145L135.34,145L135.543,145L135.747,145L135.951,145L136.97,145L137.174,145L137.378,145L137.582,145L137.785,145L137.989,145L138.193,145L138.397,145L138.601,145L139.008,145L139.212,145L139.416,145L139.62,145L139.823,145L140.027,145L140.842,145L141.046,145L141.25,145L141.454,145L141.658,145L141.861,145L142.065,145L142.269,145L142.473,145L142.677,145L142.88,145L143.084,145L143.288,145L143.492,145L143.696,145L143.899,145L144.103,145L144.307,145L144.511,145L144.715,145L144.918,145L145.122,145L145.326,145L145.53,145L145.734,145L145.937,145L146.141,145L146.345,145L146.549,145L146.753,145L146.957,145L147.16,145L147.364,145L147.568,145L147.772,145L147.976,145L148.179,145L148.383,145L148.587,145L148.791,145L148.995,145L149.198,145L149.402,145L149.606,145L149.81,145L150.014,145L150.217,145L150.421,145L150.625,145L150.829,145L151.033,145L151.236,145L151.44,145L151.644,145L151.848,145L152.052,145L152.255,145L152.459,145L152.663,145L152.867,145L153.071,145L153.274,145L153.478,145L153.682,145L153.886,145L154.09,145L154.293,145L154.497,145L154.701,145L154.905,145L155.109,145L155.313,145L155.516,145L155.72,145L155.924,145L156.128,145L156.332,145L156.535,145L156.739,145L156.943,145L157.147,145L157.351,145L157.758,145L157.962,145L158.166,145L158.37,145L158.573,145L158.777,145L158.981,145L159.185,145L159.389,145L159.592,145L159.796,145L160,145L160.204,145L160.408,145L160.611,145L160.815,145L161.019,145L161.223,145L161.63,145L161.834,145L162.038,145L162.446,145L162.649,145L162.853,145L163.057,145L163.668,145L164.28,145L164.484,145L164.688,145L164.891,145L165.299,145L165.503,145L166.114,145L166.318,145L362.174,145L362.378,145L362.582,145L362.989,145L363.397,145L363.601,145L363.804,145L364.416,145L364.62,145L365.027,145L365.231,145L365.435,145L366.25,145L366.454,145L366.658,145L367.065,145L367.473,145L367.88,145L368.288,145L368.492,145L368.696,145L368.899,145L369.307,145L369.511,145L369.918,145L370.122,145L370.326,145L370.53,145L370.734,145L370.938,145L371.141,145L371.549,145L371.957,145L372.16,145L372.364,145L372.568,145L372.772,145L372.976,145L373.179,145L373.383,145L373.587,145L373.791,145L373.995,145L374.198,145L374.402,145L374.606,145L374.81,145L375.625,145L375.829,145L376.033,145L376.236,145L376.44,145L376.644,145L376.848,145L377.052,145L377.255,145L377.459,145L377.663,145L377.867,145L378.071,145L378.274,145L378.478,145L378.682,145L378.886,145L379.09,145L379.293,145L379.497,145L379.701,145L379.905,145L380.109,145L380.312,145L380.516,145L380.72,145L380.924,145L381.128,145L381.332,145L381.535,145L381.739,145L381.943,145L382.147,145L382.351,145L382.554,145L382.758,145L382.962,145L383.166,145L383.37,145L383.573,145L383.777,145L383.981,145L384.185,145L384.389,145L384.592,145L384.796,145L385,145L385.204,145L385.408,145L385.611,145L385.815,145L386.019,145L386.223,145L386.427,145L386.63,145L386.834,145L387.038,145L387.242,145L387.446,145L387.649,145L387.853,145L388.057,145L388.261,145L388.465,145L388.668,145L388.872,145L389.076,145L389.28,145L389.484,145L389.688,145L389.891,145L390.095,145L390.299,145L390.503,145L390.707,145L390.91,145L391.114,145L391.318,145L391.522,145L391.726,145L391.929,145L392.133,145L392.337,145L392.541,145L392.948,145L393.152,145L393.356,145L393.56,145L393.764,145L393.967,145L394.171,145L394.375,145L394.579,145L394.783,145L394.986,145L395.19,145L395.394,145L395.598,145L395.802,145L396.209,145L396.413,145L396.821,145L397.024,145L397.228,145L397.432,145L397.84,145L398.043,145L398.247,145L398.451,145L398.655,145L398.859,145L399.063,145L399.266,145L399.47,145L399.674,145L399.878,145L400.082,145L400.285,145L400.489,145L400.693,145L400.897,145L401.101,145L420.87,145L421.073,145L421.277,145L421.481,145L421.685,145L421.889,145L422.296,145L423.315,145L423.723,145L423.927,145L424.538,145L424.742,145L424.946,145L425.149,145L425.557,145L425.761,145L425.965,145L426.168,145L426.372,145L426.576,145L426.78,145L426.984,145L427.188,145L427.391,145L427.595,145L427.799,145L428.003,145L428.207,145L428.41,145L428.614,145L428.818,145L429.022,145L429.226,145L429.429,145L429.633,145L429.837,145L430.041,145L430.245,145L430.448,145L430.652,145L430.856,145L431.06,145L431.264,145L431.467,145L431.671,145L431.875,145L432.079,145L432.283,145L432.486,145L432.69,145L432.894,145L433.098,145L433.302,145L433.505,145L434.321,145L434.524,145L434.728,145L434.932,145L435.136,145L435.34,145L435.543,145L435.747,145L435.951,145L436.155,145L436.359,145L436.562,145L436.766,145L436.97,145L437.174,145L437.378,145L437.582,145L437.785,145L437.989,145L438.193,145L438.397,145L438.601,145L438.804,145L439.008,145L439.212,145L439.416,145L439.62,145L439.823,145L440.027,145L440.231,145L440.435,145L440.639,145L440.842,145L441.046,145L441.25,145L441.454,145L441.658,145L441.861,145L442.065,145L442.269,145L442.473,145L442.677,145L442.88,145L443.084,145L443.288,145L443.492,145L443.696,145L443.899,145L444.103,145L444.307,145L444.511,145L444.715,145L444.918,145L445.122,145L445.326,145L445.53,145L445.734,145L445.938,145L446.141,145L446.345,145L446.549,145L446.753,145L446.957,145L447.16,145L447.364,145L447.568,145L447.772,145L447.976,145L448.179,145L448.383,145L448.587,145L448.791,145L448.995,145L449.198,145L449.402,145L449.606,145L449.81,145L450.014,145L450.217,145L450.421,145L450.625,145L450.829,145L451.033,145L451.236,145L451.44,145L451.644,145L452.255,145L452.459,145L452.663,145L452.867,145L453.071,145L453.274,145L453.478,145L453.682,145L453.886,145L454.09,145L454.293,145L454.701,145L454.905,145L455.109,145L455.313,145L455.72,145L455.924,145L456.128,145L456.332,145L456.535,145L456.739,145L456.943,145L457.147,145L457.351,145L457.554,145L457.962,145L458.166,145L458.573,145L458.777,145L458.981,145L459.185,145L459.389,145L460,145L460,25.075L459.389,25.075L459.185,25.075L458.981,40.344L458.777,27.738L458.573,39.55L458.166,32.5L457.962,35.425L457.554,34.075L457.351,44.5L457.147,25L456.943,30.475L456.739,30.475L456.535,34.825L456.332,41.975L456.128,32.2L455.924,39.55L455.72,35.828L455.313,24.272L455.109,34.825L454.905,34.825L454.701,44.5L454.293,25.3L454.09,44.5L453.886,25L453.682,32.125L453.478,30.925L453.274,32.5L453.071,35.8L452.867,32.5L452.663,42.625L452.459,35.766L452.255,31.825L451.644,37.375L451.44,32.5L451.236,31.675L451.033,31.675L450.829,32.2L450.625,31.825L450.421,31.975L450.217,32.2L450.014,31.938L449.81,29.8L449.606,32.462L449.402,33.55L449.198,32.65L448.995,34.525L448.791,34.712L448.587,32.237L448.383,36.025L448.179,35.65L447.976,34.075L447.772,32.35L447.568,31.6L447.364,33.775L447.16,34.075L446.957,30.137L446.753,29.684L446.549,29.762L446.345,27.738L446.141,27.1L445.938,27.25L445.734,29.05L445.53,29.762L445.326,27.831L445.122,28.563L444.918,28L444.715,27.062L444.511,23.537L444.307,24.588L444.103,24.836L443.899,26.35L443.696,26.875L443.492,28.9L443.288,27.812L443.084,29.125L442.88,29.875L442.677,29.463L442.473,30.25L442.269,28.862L442.065,29.35L441.861,31L441.658,32.125L441.454,32.163L441.25,32.875L441.046,33.843L440.842,33.55L440.639,38.388L440.435,39.175L440.231,39.925L440.027,35.013L439.823,35.594L439.62,34.15L439.416,33.625L439.212,32.313L439.008,32.95L438.804,41.2L438.601,41.875L438.397,42.625L438.193,38.05L437.989,39.55L437.785,37.3L437.582,37.3L437.378,44.162L437.174,44.8L436.97,44.875L436.766,40.638L436.562,33.737L436.359,35.5L436.155,28.937L435.951,35.856L435.747,26.688L435.543,28.675L435.34,28.75L435.136,29.65L434.932,26.875L434.728,28.675L434.524,31.675L434.321,36.175L433.505,18.325L433.302,17.5L433.098,22.15L432.894,17.575L432.69,17.575L432.486,17.575L432.283,17.65L432.079,17.5L431.875,24.074L431.671,21.25L431.467,25L431.264,17.65L431.06,21.25L430.856,17.575L430.652,20.575L430.448,19.253L430.245,21.655L430.041,25L429.837,23.05L429.633,15.175L429.429,10L429.226,13.9L429.022,15.4L428.818,10.075L428.614,10.573L428.41,12.25L428.207,21.25L428.003,16.9L427.799,16.9L427.595,17.275L427.391,17.125L427.188,17.275L426.984,15.25L426.78,14.275L426.576,13.75L426.372,14.5L426.168,12.25L425.965,17.425L425.761,13.3L425.557,25L425.149,28.675L424.946,27.025L424.742,27.025L424.538,26.725L423.927,28.525L423.723,28.525L423.315,27.625L422.296,29.35L421.889,27.25L421.685,29.35L421.481,24.625L421.277,29.333L421.073,25.225L420.87,25.225L401.101,29.14L400.897,29.125L400.693,29.125L400.489,29.5L400.285,29.05L400.082,29.65L399.878,31.675L399.674,28.965L399.47,30.25L399.266,28.9L399.063,28.825L398.859,28.825L398.655,28.825L398.451,29.413L398.247,29.2L398.043,28.75L397.84,28.975L397.432,29.125L397.228,29.125L397.024,31.3L396.821,31.3L396.413,29.2L396.209,29.05L395.802,30.925L395.598,30.925L395.394,31.675L395.19,29.95L394.986,29.5L394.783,28.45L394.579,31.75L394.375,28.75L394.171,28.825L393.967,25.075L393.764,26.2L393.56,32.407L393.356,29.5L393.152,28.825L392.948,25.075L392.541,21.931L392.337,21.931L392.133,29.725L391.929,31.375L391.726,31.75L391.522,31.525L391.318,31.675L391.114,36.775L390.91,38.275L390.707,35.65L390.503,36.775L390.299,40.562L390.095,37L389.891,36.7L389.688,38.05L389.484,39.625L389.28,39.663L389.076,38.275L388.872,37.731L388.668,39.4L388.465,39.4L388.261,40.562L388.057,42.325L387.853,41.65L387.649,41.688L387.446,41.538L387.242,42.062L387.038,43.188L386.834,43.824L386.63,43.15L386.427,44.537L386.223,45.1L386.019,43.9L385.815,44.5L385.611,43.9L385.408,42.55L385.204,41.837L385,41.425L384.796,41.688L384.592,41.6L384.389,41.05L384.185,41.275L383.981,42.925L383.777,41.612L383.573,39.925L383.37,40.263L383.166,40.675L382.962,39.475L382.758,38.65L382.554,38.8L382.351,40.975L382.147,41.35L381.943,39.663L381.739,37.3L381.535,37.9L381.332,37.45L381.128,38.743L380.924,38.613L380.72,37.9L380.516,36.025L380.312,35.725L380.109,35.575L379.905,34.75L379.701,34.375L379.497,34.58L379.293,36.662L379.09,36.738L378.886,39.438L378.682,43.525L378.478,42.7L378.274,42.4L378.071,42.925L377.867,41.5L377.663,43.225L377.459,46.316L377.255,46.675L377.052,51.4L376.848,50.088L376.644,52.825L376.44,49.825L376.236,50.8L376.033,51.55L375.829,58.449L375.625,51.7L374.81,88.375L374.606,89.5L374.402,89.5L374.198,89.875L373.995,91L373.791,85L373.587,90.25L373.383,91L373.179,91L372.976,91L372.772,86.5L372.568,91.225L372.364,91.075L372.16,93.025L371.957,93.025L371.549,92.5L371.141,92.5L370.938,92.5L370.734,86.5L370.53,92.05L370.326,86.5L370.122,88.451L369.918,89.875L369.511,93.025L369.307,92.5L368.899,91.75L368.696,91.75L368.492,92.35L368.288,92.35L367.88,92.425L367.473,92.5L367.065,92.575L366.658,97.45L366.454,97.75L366.25,98.125L365.435,98.125L365.231,98.275L365.027,98.275L364.62,98.275L364.416,98.275L363.804,97.748L363.601,103.9L363.397,91.75L362.989,91.525L362.582,88.75L362.378,88.75L362.174,91.45L166.318,89.5L166.114,92.875L165.503,98.125L165.299,98.125L164.891,92.2L164.688,92.2L164.484,88.253L164.28,91.45L163.668,91.375L163.057,92.2L162.853,92.5L162.649,91.375L162.446,92.725L162.038,92.725L161.834,98.125L161.63,98.125L161.223,93.025L161.019,98.125L160.815,91.975L160.611,90.7L160.408,96.4L160.204,86.706L160,93.4L159.796,93.625L159.592,93.025L159.389,90.621L159.185,85L158.981,98.125L158.777,98.125L158.573,97.675L158.37,98.2L158.166,92.5L157.962,93.4L157.758,93.025L157.351,93.025L157.147,76L156.943,81.07L156.739,94.6L156.535,93.4L156.332,92.462L156.128,95.425L155.924,95.8L155.72,97.525L155.516,99.7L155.313,101.725L155.109,102.395L154.905,103.6L154.701,100.337L154.497,99.475L154.293,98.35L154.09,94.975L153.886,94.75L153.682,95.875L153.478,95.537L153.274,95.688L153.071,97.15L152.867,101.5L152.663,102.4L152.459,104.05L152.255,101.639L152.052,101.95L151.848,106.412L151.644,109.75L151.44,107.875L151.236,107.8L151.033,107.088L150.829,107.612L150.625,105.25L150.421,107.05L150.217,106.825L150.014,106L149.81,105.025L149.606,106.675L149.402,103.487L149.198,102.287L148.995,100.787L148.791,101.763L148.587,99.925L148.383,103L148.179,103.525L147.976,104.05L147.772,105.1L147.568,102.175L147.364,100.75L147.16,101.763L146.957,101.313L146.753,102.025L146.549,100.975L146.345,98.725L146.141,95.463L145.937,94.038L145.734,91.075L145.53,96.175L145.326,95.088L145.122,97.525L144.918,94.038L144.715,97.825L144.511,94.975L144.307,93.48L144.103,99.4L143.899,96.812L143.696,99.625L143.492,89.256L143.288,91.149L143.084,92.648L142.88,92.275L142.677,85.112L142.473,81.775L142.269,88.15L142.065,92.556L141.861,85.45L141.658,88.638L141.454,88.225L141.25,89.272L141.046,96.175L140.842,98.838L140.027,91.3L139.823,91.3L139.62,91.097L139.416,92.125L139.212,92.5L139.008,92.5L138.601,94.9L138.397,92.5L138.193,99.55L137.989,97.375L137.785,97.375L137.582,98.5L137.378,98.661L137.174,97.15L136.97,98.95L135.951,100.558L135.747,107.5L135.543,98.125L135.34,97.525L135.136,98.575L134.932,95.875L134.728,103.75L134.524,98.95L134.321,99.095L134.117,95.125L133.709,100.225L133.098,97.358L132.894,107.425L132.69,100L132.486,108.55L131.875,108.55L131.671,105.625L131.264,125.972L130.856,98.875L130.652,98.875L130.448,107.875L130.245,105.775L130.041,125.972L129.837,98.725L129.633,100.75L129.226,100.75L128.818,100.675L128.41,100.75L128.207,100.75L128.003,101.95L127.799,100.75L127.595,100.75L127.391,110.65L107.418,110.275L107.215,110.275L107.011,111.4L106.807,113.05L106.196,115.307L105.992,112L105.788,110.256L105.584,110.5L105.177,107.725L104.973,108.85L104.769,111.925L104.565,105.25L104.361,108.85L104.158,100L103.954,120.25L103.75,111.925L103.546,111.925L103.342,109.3L103.139,111.625L102.935,111.625L102.731,111.55L102.527,111.625L101.916,111.625L101.304,108.55L100.693,111.992L100.489,110.125L100.285,108.55L100.082,111.625L99.878,114.925L99.674,103.9L99.47,105.25L99.266,108.55L98.859,118.101L98.655,111.175L98.451,108.55L98.247,109.75L98.043,108.475L97.84,108.325L97.636,105.85L97.432,108.25L97.228,109.562L97.024,108.925L96.821,108.925L96.617,110.425L96.413,108.813L96.209,111.513L96.005,111.325L95.802,112.3L95.598,111.175L95.394,111.475L95.19,111.362L94.986,110.35L94.783,109.375L94.579,110.875L94.375,110.35L94.171,110.162L93.967,108.062L93.764,109.188L93.56,109.825L93.356,109.188L93.152,106.263L92.948,108.1L92.745,108.438L92.541,108.025L92.337,109.038L92.133,108.138L91.929,108.25L91.726,110.8L91.522,110.688L91.318,111.325L91.114,110.238L90.91,110.8L90.707,108.737L90.503,108.25L90.299,107.05L90.095,102.963L89.891,101.275L89.688,100.863L89.484,100.6L89.28,100.356L89.076,99.081L88.872,99.813L88.668,101.688L88.465,104.162L88.261,106.037L88.057,107.425L87.853,110.875L87.649,112.6L87.446,111.025L87.242,112.75L87.038,115.412L86.834,114.813L86.63,114.4L86.427,112.037L86.223,114.325L86.019,120.25L85.815,118.675L85.611,121.225L85.408,121.862L85.204,117.513L85,117.738L84.796,121L84.592,124.112L84.389,123.25L84.185,121.563L83.981,119.275L83.777,119.275L83.573,125.575L83.37,125.425L83.166,123.55L82.962,127.412L82.758,128.05L82.554,128.275L82.351,133.675L82.147,137.2L81.332,135.625L81.128,135.4L80.924,126.511L80.72,133.975L80.516,135.625L80.313,133.9L80.109,135.775L79.905,129.7L79.701,135.925L79.497,130L79.293,129.44L78.682,135.693L78.478,130.75L78.274,132.7L78.071,132.925L77.867,133L77.663,130.9L77.459,123.925L77.255,125.798L77.052,141.25L76.848,114.175L76.644,135.925L76.44,136.15L76.236,135.775L76.033,135.85L75.829,131.425L75.625,136.975L75.421,136.975L75.217,137.65L75.014,137.5L74.81,137.5L74.606,137.5L74.198,137.2L73.995,137.2L73.791,138.175L73.383,143.05L73.179,142.975L72.772,143.125L72.568,141.325L72.364,144.925L72.16,137.125L71.549,137.275L71.345,136L71.141,136.15L70.938,136.375L70.53,134.725L69.715,145L69.307,137.5L68.899,142.075L68.696,140.95L48.927,132.625L48.723,132.625L48.519,130.075L48.315,130L48.111,132.625L47.704,132.55L47.5,132.7L47.296,132.625L47.092,132.625L46.889,132.625L46.685,132.1L46.481,131.875L46.277,130L46.073,130.075L45.87,130.075L45.666,132.193L45.462,130L45.258,132.325L45.054,130.184L44.851,131.8L44.647,133.675L44.443,133.3L44.239,132.925L44.035,132.325L43.832,131.725L43.628,129.7L43.424,131.125L43.22,133.645L43.016,133.645L42.813,129.7L42.609,124.6L42.405,133.664L42.201,131.125L41.997,130L41.59,129.7L41.386,130L41.182,132.925L40.978,132.925L40.774,132.175L40.571,130.075L40.367,117.025L40.163,130.15L39.959,117.032L39.755,114.175L39.552,126.25L39.348,129.775L39.144,129.925L38.94,126.662L38.736,127.113L38.533,127.412L38.329,126.625L38.125,128.386L37.921,126.325L37.717,124.975L37.514,123.55L37.31,125.199L37.106,125.088L36.902,124.975L36.698,124.337L36.495,121.825L36.291,120.4L36.087,124.863L35.883,127.525L35.679,126.662L35.476,125.65L35.272,126.775L35.068,128.575L34.864,128.838L34.66,129.4L34.457,127.975L34.253,128.597L34.049,127.9L33.845,127.375L33.641,127.894L33.438,129.025L33.234,126.775L33.03,127.75L32.826,128.274L32.622,127.3L32.418,127.45L32.215,125.088L32.011,125.5L31.807,125.05L31.603,123.85L31.399,125.95L31.196,126.1L30.992,126.625L30.788,125.35L30.584,125.387L30.38,123.475L30.177,124.975L29.973,124.863L29.769,125.425L29.565,127.299L29.361,126.288L29.158,127.824L28.954,130.675L28.75,134.35L28.546,133.225L28.342,127.412L28.139,125.725L27.935,126.587L27.731,127.375L27.527,124.863L27.323,123.55L27.12,125.425L26.916,126.154L26.712,121.187L26.508,120.55L26.304,119.8L26.101,118.3L25.897,117.4L25.693,118L25.489,118.712L25.285,118.525L25.082,117.963L24.878,118.525L24.674,118.75L24.47,114.175L24.266,120.775L24.063,126.25L23.859,127.75L23.655,133.75L23.451,129.063L22.636,135.925L22.432,135.925L22.228,131.875L22.024,134.425L21.821,135.158L21.617,135.24L21.413,134.818L21.209,135.475L21.005,134.036L20.598,126.464L20.394,130L20.19,128.725L19.986,127L19.783,130L19.579,128.95L19.375,127.9L19.171,128.125L18.967,130.6L18.764,128.998L18.56,130L18.356,127.375L18.152,126.25L17.948,128.5L17.745,127L17.541,128.5L17.337,127L17.133,128.5L16.929,129.25L16.726,128.425L16.318,132.625L16.114,131.425L15.91,131.125L15.707,134.5L15.503,134.05L15.299,134.525L15.095,113.245L14.28,113.125L13.465,110.8L13.261,107.65L13.057,117.85L12.649,111.625L12.446,111.325L11.834,110.2L11.427,110.2L11.223,117.925L10.815,110.125L10.204,110.125L10,106.45Z" fill="rgba(88, 166, 255, .1)"/>
                    </svg>
                </div>
            </section>
        </div>
        <div xmlns="http://www.w3.org/1999/xhtml" id="metrics-end"></div>
    </foreignObject>
</svg>