<svg xmlns="http://www.w3.org/2000/svg" width="480" height="302" class="">
    <defs>
        <style/>
    </defs>
    <style>@keyframes animation-gauge{0%{stroke-dasharray:0 329}}@keyframes animation-rainbow{0%,to{color:#7f00ff;fill:#7f00ff}14%{color:#a933ff;fill:#a933ff}29%{color:#007fff;fill:#007fff}43%{color:#00ff7f;fill:#00ff7f}57%{color:#ff0;fill:#ff0}71%{color:#ff7f00;fill:#ff7f00}86%{color:red;fill:red}}svg{font-family:-apple-system,BlinkMacSystemFont,Segoe UI,Helvetica,Arial,sans-serif,Apple Color Emoji,Segoe UI Emoji;font-size:14px;color:#777}h2{margin:8px 0 2px;padding:0;color:#0366d6;font-weight:400;font-size:16px}h2 svg{fill:currentColor}section&gt;.field{margin-left:5px;margin-right:5px}.field{display:flex;align-items:center;margin-bottom:2px;white-space:nowrap}.field svg{margin:0 8px;fill:#959da5;flex-shrink:0}.row{display:flex;flex-wrap:wrap}.row section{flex:1 1 0}:root{--color-calendar-graph-day-bg:#ebedf0;--color-calendar-graph-day-border:rgba(27,31,35,0.06);--color-calendar-graph-day-L1-bg:#9be9a8;--color-calendar-graph-day-L2-bg:#40c463;--color-calendar-graph-day-L3-bg:#30a14e;--color-calendar-graph-day-L4-bg:#216e39;--color-calendar-halloween-graph-day-L1-bg:#ffee4a;--color-calendar-halloween-graph-day-L2-bg:#ffc501;--color-calendar-halloween-graph-day-L3-bg:#fe9600;--color-calendar-halloween-graph-day-L4-bg:#03001c;--color-calendar-winter-graph-day-L1-bg:#0a3069;--color-calendar-winter-graph-day-L2-bg:#0969da;--color-calendar-winter-graph-day-L3-bg:#54aeff;--color-calendar-winter-graph-day-L4-bg:#b6e3ff;--color-calendar-graph-day-L4-border:rgba(27,31,35,0.06);--color-calendar-graph-day-L3-border:rgba(27,31,35,0.06);--color-calendar-graph-day-L2-border:rgba(27,31,35,0.06);--color-calendar-graph-day-L1-border:rgba(27,31,35,0.06)}#metrics-end{width:100%}</style>
    <style/>
    <foreignObject x="0" y="0" width="100%" height="100%">
        <div xmlns="http://www.w3.org/1999/xhtml" xmlns:xlink="http://www.w3.org/1999/xlink" class="items-wrapper">
            <section>
                <h2 class="field">
                    <svg xmlns="http://www.w3.org/2000/svg" viewBox="0 0 16 16" width="16" height="16">
                        <path d="M10.75 9a.75.75 0 000 1.5h1.5a.75.75 0 000-1.5h-1.5z"/>
                        <path fill-rule="evenodd" d="M0 3.75C0 2.784.784 2 1.75 2h12.5c.966 0 1.75.784 1.75 1.75v8.5A1.75 1.75 0 0114.25 14H1.75A1.75 1.75 0 010 12.25v-8.5zm14.5 0V5h-13V3.75a.25.25 0 01.25-.25h12.5a.25.25 0 01.25.25zm0 2.75h-13v5.75c0 .138.112.25.25.25h12.5a.25.25 0 00.25-.25V6.5z"/>
                    </svg>
                    Stock prices for MS
                </h2>
                <div class="row">
                    <section>
                        <div class="field">
                            <svg xmlns="http://www.w3.org/2000/svg" viewBox="0 0 16 16" width="16" height="16">
                                <path fill-rule="evenodd" d="M1.5 14.25c0 .138.112.25.25.25H4v-1.25a.75.75 0 01.75-.75h2.5a.75.75 0 01.75.75v1.25h2.25a.25.25 0 00.25-.25V1.75a.25.25 0 00-.25-.25h-8.5a.25.25 0 00-.25.25v12.5zM1.75 16A1.75 1.75 0 010 14.25V1.75C0 .784.784 0 1.75 0h8.5C11.216 0 12 .784 12 1.75v12.5c0 .085-.006.168-.018.25h2.268a.25.25 0 00.25-.25V8.285a.25.25 0 00-.111-.208l-1.055-.703a.75.75 0 11.832-1.248l1.055.703c.487.325.779.871.779 1.456v5.965A1.75 1.75 0 0114.25 16h-3.5a.75.75 0 01-.197-.026c-.099.017-.2.026-.303.026h-3a.75.75 0 01-.75-.75V14h-1v1.25a.75.75 0 01-.75.75h-3zM3 3.75A.75.75 0 013.75 3h.5a.75.75 0 010 1.5h-.5A.75.75 0 013 3.75zM3.75 6a.75.75 0 000 1.5h.5a.75.75 0 000-1.5h-.5zM3 9.75A.75.75 0 013.75 9h.5a.75.75 0 010 1.5h-.5A.75.75 0 013 9.75zM7.75 9a.75.75 0 000 1.5h.5a.75.75 0 000-1.5h-.5zM7 6.75A.75.75 0 017.75 6h.5a.75.75 0 010 1.5h-.5A.75.75 0 017 6.75zM7.75 3a.75.75 0 000 1.5h.5a.75.75 0 000-1.5h-.5z"/>
                            </svg>
                            MS
                        </div>
                        <div class="field">
                            <svg xmlns="http://www.w3.org/2000/svg" viewBox="0 0 16 16" width="16" height="16">
                                <path fill-rule="evenodd" d="M6 2a.75.75 0 01.696.471L10 10.731l1.304-3.26A.75.75 0 0112 7h3.25a.75.75 0 010 1.5h-2.742l-1.812 4.528a.75.75 0 01-1.392 0L6 4.77 4.696 8.03A.75.75 0 014 8.5H.75a.75.75 0 010-1.5h2.742l1.812-4.529A.75.75 0 016 2z"/>
                            </svg>
                            Valued at 188.82 USD
                        </div>
                    </section>
                    <section>
                        <div class="field">
                            <svg xmlns="http://www.w3.org/2000/svg" viewBox="0 0 16 16" width="16" height="16">
                                <path fill-rule="evenodd" d="M4.75 0a.75.75 0 01.75.75V2h5V.75a.75.75 0 011.5 0V2h1.25c.966 0 1.75.784 1.75 1.75v10.5A1.75 1.75 0 0113.25 16H2.75A1.75 1.75 0 011 14.25V3.75C1 2.784 1.784 2 2.75 2H4V.75A.75.75 0 014.75 0zm0 3.5h8.5a.25.25 0 01.25.25V6h-11V3.75a.25.25 0 01.25-.25h2zm-2.25 4v6.75c0 .138.112.25.25.25h10.5a.25.25 0 00.25-.25V7.5h-11z"/>
                            </svg>
                            Last five days
                        </div>
                        <div class="field">
                            <svg xmlns="http://www.w3.org/2000/svg" viewBox="0 0 16 16" width="16" height="16">
                                <path fill-rule="evenodd" d="M3.47 7.78a.75.75 0 010-1.06l4.25-4.25a.75.75 0 011.06 0l4.25 4.25a.75.75 0 01-1.06 1.06L9 4.81v7.44a.75.75 0 01-1.5 0V4.81L4.53 7.78a.75.75 0 01-1.06 0z"/>
                            </svg>
                            +1.50 USD (+0.79%)
                        </div>
                    </section>
                </div>
                <div class="stock-chart">
                    <svg xmlns="http://www.w3.org/2000/svg" width="480" height="200">
                        <g transform="translate(10,155)" fill="none" font-size="10" font-family="sans-serif" text-anchor="middle">
                            <path class="domain" stroke="rgba(127, 127, 127, .8)" d="M10.5,0.5H460.5"/>
                            <g class="tick" opacity="1" transform="translate(26.57501674480911,0)">
                                <line stroke="currentColor" y2="6" stroke-opacity="0.5"/>
                                <text fill="rgba(127, 127, 127, .8)" y="9" dy="0.71em" transform="translate(-5,5) rotate(-45)" style="text-anchor: end;">12 PM</text>
                            </g>
                            <g class="tick" opacity="1" transform="translate(74.80006697923643,0)">
                                <line stroke="currentColor" y2="6" stroke-opacity="0.5"/>
                                <text fill="rgba(127, 127, 127, .8)" y="9" dy="0.71em" transform="translate(-5,5) rotate(-45)" style="text-anchor: end;">Tue 14</text>
                            </g>
                            <g class="tick" opacity="1" transform="translate(123.02511721366376,0)">
                                <line stroke="currentColor" y2="6" stroke-opacity="0.5"/>
                                <text fill="rgba(127, 127, 127, .8)" y="9" dy="0.71em" transform="translate(-5,5) rotate(-45)" style="text-anchor: end;">12 PM</text>
                            </g>
                            <g class="tick" opacity="1" transform="translate(171.2501674480911,0)">
                                <line stroke="currentColor" y2="6" stroke-opacity="0.5"/>
                                <text fill="rgba(127, 127, 127, .8)" y="9" dy="0.71em" transform="translate(-5,5) rotate(-45)" style="text-anchor: end;">Wed 15</text>
                            </g>
                            <g class="tick" opacity="1" transform="translate(219.47521768251843,0)">
                                <line stroke="currentColor" y2="6" stroke-opacity="0.5"/>
                                <text fill="rgba(127, 127, 127, .8)" y="9" dy="0.71em" transform="translate(-5,5) rotate(-45)" style="text-anchor: end;">12 PM</text>
                            </g>
                            <g class="tick" opacity="1" transform="translate(267.70026791694573,0)">
                                <line stroke="currentColor" y2="6" stroke-opacity="0.5"/>
                                <text fill="rgba(127, 127, 127, .8)" y="9" dy="0.71em" transform="translate(-5,5) rotate(-45)" style="text-anchor: end;">Thu 16</text>
                            </g>
                            <g class="tick" opacity="1" transform="translate(315.9253181513731,0)">
                                <line stroke="currentColor" y2="6" stroke-opacity="0.5"/>
                                <text fill="rgba(127, 127, 127, .8)" y="9" dy="0.71em" transform="translate(-5,5) rotate(-45)" style="text-anchor: end;">12 PM</text>
                            </g>
                            <g class="tick" opacity="1" transform="translate(364.1503683858004,0)">
                                <line stroke="currentColor" y2="6" stroke-opacity="0.5"/>
                                <text fill="rgba(127, 127, 127, .8)" y="9" dy="0.71em" transform="translate(-5,5) rotate(-45)" style="text-anchor: end;">Fri 17</text>
                            </g>
                            <g class="tick" opacity="1" transform="translate(412.3754186202278,0)">
                                <line stroke="currentColor" y2="6" stroke-opacity="0.5"/>
                                <text fill="rgba(127, 127, 127, .8)" y="9" dy="0.71em" transform="translate(-5,5) rotate(-45)" style="text-anchor: end;">12 PM</text>
                            </g>
                        </g>
                        <g transform="translate(10,10)" fill="none" font-size="10" font-family="sans-serif" text-anchor="start">
                            <g class="tick" opacity="1" transform="translate(0,37.72946236778287)">
                                <line stroke="currentColor" x2="460" stroke-opacity="0.5" stroke-dasharray="2,2"/>
                                <text fill="rgba(127, 127, 127, .8)" x="0" dy="-4">190</text>
                            </g>
                            <g class="tick" opacity="1" transform="translate(0,71.47102079991096)">
                                <line stroke="currentColor" x2="460" stroke-opacity="0.5" stroke-dasharray="2,2"/>
                                <text fill="rgba(127, 127, 127, .8)" x="0" dy="-4">185</text>
                            </g>
                            <g class="tick" opacity="1" transform="translate(0,105.21257923203905)">
                                <line stroke="currentColor" x2="460" stroke-opacity="0.5" stroke-dasharray="2,2"/>
                                <text fill="rgba(127, 127, 127, .8)" x="0" dy="-4">180</text>
                            </g>
                            <g class="tick" opacity="1" transform="translate(0,138.95413766416715)">
                                <line stroke="currentColor" x2="460" stroke-opacity="0.5" stroke-dasharray="2,2"/>
                                <text fill="rgba(127, 127, 127, .8)" x="0" dy="-4">175</text>
                            </g>
                        </g>
                        <path transform="translate(10,10)" d="M10,137.984L11.005,137.984L11.34,131.503L12.009,131.503L13.014,131.503L13.349,131.503L14.354,131.233L15.023,131.233L16.028,131.233L17.033,124.958L17.368,122.258L18.038,130.829L18.372,130.964L18.707,131.571L19.042,128.264L19.377,130.694L20.382,130.221L20.717,130.221L22.056,128.332L22.391,128.264L22.726,130.356L23.061,131.706L23.396,129.209L23.731,134.068L24.066,141.626L24.401,143.853L24.735,142.098L25.07,144.393L25.405,138.454L25.74,144.325L26.075,138.252L26.41,141.963L26.745,144.798L27.08,139.804L27.415,145L27.749,142.503L28.084,143.853L28.419,144.528L28.754,144.528L29.089,136.396L29.424,141.626L29.759,141.153L30.094,138.859L30.429,141.018L30.764,135.147L32.103,133.73L32.438,130.93L32.773,129.614L33.108,122.461L33.443,124.834L33.778,121.516L34.113,123.743L34.447,122.359L34.782,123.507L35.117,123.203L35.452,120.099L35.787,118.209L36.122,119.761L36.457,120.571L36.792,118.614L37.127,120.031L37.461,118.985L37.796,118.817L38.131,120.436L38.466,121.921L38.801,123.372L39.136,123.068L39.471,122.967L39.806,123.675L40.141,124.586L40.476,122.798L40.81,123.405L41.145,122.866L41.48,122.866L41.815,122.191L42.15,121.246L42.485,119.694L42.82,117.264L43.155,117.636L43.49,116.459L43.825,115.24L44.159,114.093L44.494,114.498L44.829,112.659L45.164,110.921L45.499,110.617L45.834,111.258L46.169,111.022L46.504,111.933L46.839,109.976L47.173,110.601L47.508,111.427L47.843,110.786L48.178,111.123L48.513,112.979L48.848,112.743L49.183,113.148L49.518,113.283L49.853,113.215L50.188,112.608L50.522,112.102L50.857,110.28L51.192,110.246L51.527,110.145L51.862,110.719L52.197,109.875L52.532,109.74L52.867,109.504L53.202,108.357L53.537,108.222L53.871,108.053L54.206,106.602L54.541,106.062L54.876,105.455L55.211,104.814L55.546,103.565L55.881,104.308L56.216,102.452L56.551,100.36L56.885,99.921L57.22,103.7L57.555,100.934L57.89,97.559L58.225,97.02L58.56,97.964L58.895,97.964L59.23,96.142L59.565,96.21L59.9,96.952L60.234,98.302L60.569,97.289L60.904,97.29L61.239,97.964L61.574,96.615L61.909,95.94L62.244,97.02L62.579,97.694L62.914,96.952L63.248,97.02L63.583,97.289L63.918,96.277L64.253,97.289L64.588,96.007L65.258,96.075L65.593,96.075L65.928,97.222L66.263,96.615L66.597,96.007L66.932,95.94L67.267,96.075L67.602,97.357L67.937,96.203L68.272,97.492L68.607,97.694L68.942,97.964L69.277,95.94L69.612,96.142L69.946,96.277L70.281,95.94L70.616,94.59L70.951,96.615L71.286,96.547L71.621,94.59L71.956,93.951L72.291,97.964L72.626,97.694L72.96,94.253L73.295,95.602L73.63,95.13L73.965,94.05L106.45,96.952L106.785,96.885L107.12,96.277L107.79,96.21L108.125,91.459L108.459,94.118L108.794,94.253L109.464,97.964L109.799,94.32L110.134,97.964L110.469,96.48L110.804,96.48L111.139,96.48L111.474,94.32L111.808,97.154L112.143,94.32L112.478,94.523L112.813,94.523L113.148,97.964L113.483,97.964L113.818,97.964L114.153,97.964L114.488,99.786L114.823,98.909L115.492,97.964L115.827,91.505L116.162,97.02L116.497,95.467L116.832,95.467L117.167,102.081L117.502,103.768L117.837,104.645L118.171,95.872L118.506,97.964L118.841,91.553L119.176,96.952L119.511,96.952L119.846,96.952L120.181,95.737L120.516,95.67L120.851,95.872L121.186,97.289L121.52,96.075L121.855,96.952L122.19,96.277L122.525,93.635L122.86,95.197L123.195,94.928L123.53,97.319L123.865,97.829L124.2,96.21L124.534,94.658L125.204,93.51L125.539,95.94L125.874,94.253L126.209,94.151L126.544,95.94L126.879,95.805L127.214,91.216L128.553,88.044L128.888,84.873L129.223,83.995L129.558,85.345L129.893,86.222L130.228,83.253L130.563,82.038L130.898,80.992L131.232,79.879L131.567,82.308L131.902,84.468L132.237,85.48L132.572,83.894L132.907,83.118L133.242,82.409L133.577,81.026L133.912,79.271L134.246,79.474L134.581,79.811L134.916,80.351L135.251,82.781L135.586,82.477L135.921,80.554L136.256,78.664L136.591,74.075L136.926,74.75L137.261,75.796L137.595,76.91L137.93,76.842L138.265,77.922L138.6,78.393L138.935,77.922L139.27,77.787L139.605,76.775L139.94,76.37L140.275,77.551L140.61,77.888L140.944,78.63L141.279,76.37L141.614,75.492L141.949,77.382L142.284,77.854L142.619,77.517L142.954,76.499L143.289,77.314L143.624,76.707L143.958,75.897L144.293,76.505L144.628,74.851L144.963,74.986L145.298,75.087L145.633,75.29L145.968,75.83L146.303,76.505L146.638,76.167L146.973,76.775L147.307,76.842L147.642,77.719L147.977,80.014L148.312,80.014L148.647,81.498L148.982,81.363L149.317,81.937L149.652,79.271L149.987,78.09L150.322,78.033L150.656,76.91L150.991,77.314L151.326,79.137L151.661,78.765L151.996,78.259L152.331,77.517L152.666,79.271L153.001,78.394L153.336,78.394L153.67,79.075L154.005,83.894L154.34,81.701L154.675,82.173L155.01,82.241L155.345,82.646L155.68,82.173L156.015,83.118L156.35,82.991L156.685,82.486L157.019,82.443L157.354,82.646L157.689,81.774L158.024,81.431L158.359,82.443L158.694,82.212L159.029,83.663L159.364,82.173L159.699,82.106L160.033,81.093L160.703,81.093L161.038,81.093L161.373,80.731L161.708,79.744L162.043,79.899L162.378,79.744L162.713,77.179L163.048,77.112L163.382,79.744L163.717,78.259L164.052,79.339L164.387,79.744L164.722,77.922L165.057,77.922L165.392,77.922L165.727,79.676L166.062,77.922L166.397,77.922L166.731,77.379L167.066,77.37L167.401,77.645L167.736,79.339L168.071,79.744L168.741,78.664L169.076,77.382L169.745,77.719L170.08,78.057L170.415,79.406L202.9,74.345L203.235,77.382L203.57,77.922L203.905,80.486L204.24,78.394L204.91,80.419L205.244,81.836L205.579,81.836L205.914,80.486L206.584,81.093L206.919,97.897L207.254,85.952L207.589,87.302L207.924,84.603L208.259,84.603L208.593,81.768L208.928,81.768L209.598,85.142L210.268,81.768L210.603,81.836L210.938,85.277L211.273,83.455L211.608,83.118L211.942,82.781L212.277,85.277L212.612,81.836L212.947,82.098L213.282,82.098L213.617,84.468L213.952,82.106L214.287,80.756L214.622,79.002L214.956,80.419L215.291,81.826L215.626,81.498L215.961,83.928L216.296,81.093L216.631,64.898L216.966,56.26L217.301,57.204L217.636,56.462L217.971,50.726L218.305,49.511L218.64,47.352L218.975,50.726L219.31,48.027L219.645,49.039L219.98,49.309L220.315,50.726L220.65,49.579L220.985,49.291L221.319,47.487L221.654,48.364L221.989,46.272L222.324,46.677L222.659,47.959L222.994,40.772L223.329,42.536L223.664,41.922L225.003,10L225.338,26.128L225.673,34.53L226.008,25.268L226.343,23.935L226.678,30.885L227.013,32.134L227.348,24.88L227.683,22.788L228.017,20.966L228.352,21.303L228.687,14.623L229.022,15.365L229.357,14.15L229.692,13.595L230.027,15.635L230.362,18.064L230.697,15.466L231.031,16.883L231.366,19.279L231.701,18.908L232.036,19.076L232.371,24.443L232.706,27.006L233.041,27.478L233.376,27.276L233.711,28.322L234.046,28.389L234.38,27.512L234.715,28.052L235.05,27.478L235.385,29.401L235.72,30.684L236.055,30.076L236.39,28.429L236.725,29.536L237.06,31.088L237.395,29.401L237.729,30.076L238.064,29.401L238.399,28.524L238.734,29.638L239.069,28.49L239.404,27.765L239.739,29.064L240.074,28.49L240.409,29.84L240.743,28.895L241.078,28.659L241.413,28.423L241.748,27.242L242.083,27.174L242.418,27.309L242.753,26.601L243.088,25.319L243.423,25.824L243.758,26.77L244.092,26.095L244.427,25.724L244.762,25.825L245.097,26.77L245.432,26.23L245.767,26.196L246.102,24.34L246.437,23.935L246.772,22.451L247.106,24.003L247.441,24.88L247.776,23.564L248.111,24.408L248.446,24.07L248.781,22.788L249.116,24.745L249.451,26.398L249.786,29.074L250.121,30.177L250.455,25.184L250.79,27.04L251.125,26.297L251.46,30.481L251.795,25.42L252.13,26.297L252.465,25.933L252.8,26.635L253.135,29.266L253.47,29.266L253.804,30.542L254.139,29.131L254.474,27.107L254.809,24.715L255.144,26.5L255.479,26.837L256.149,26.567L256.484,28.43L256.818,26.297L257.153,24.057L257.488,26.23L257.823,25.42L258.158,23.733L258.493,25.421L258.828,25.757L259.163,25.875L259.498,29.131L259.833,26.432L260.167,25.757L260.502,29.131L260.837,25.42L261.172,24.948L261.507,25.015L261.842,24.61L262.177,26.23L262.512,24.88L262.847,27.073L263.182,25.016L263.516,25.892L263.851,25.184L264.521,25.15L264.856,25.15L265.191,25.083L265.526,26.983L265.861,26.095L266.196,26.432L266.53,25.372L266.865,25.083L299.35,19.954L299.685,23.733L300.02,26.297L300.355,26.365L300.69,28.457L301.025,30.684L301.695,30.481L302.364,32.438L302.699,30.481L303.034,30.549L303.369,30.414L303.704,35.61L304.039,45.867L304.374,35.407L304.709,35.542L305.378,35.475L305.713,27.444L306.048,35.475L306.383,34.53L306.718,39.861L307.053,37.229L307.388,36.129L307.723,37.229L308.392,37.227L308.727,37.227L309.397,34.8L309.732,34.8L310.067,35.812L310.402,35.88L310.737,35.88L311.072,30.684L311.407,33.788L311.741,33.383L312.076,30.481L312.411,33.315L312.746,32.506L313.081,32.438L313.416,26.77L313.751,29.341L314.086,26.297L314.421,26.365L314.756,28.99L315.09,26.297L315.425,26.905L315.76,23.989L316.095,27.849L316.43,30.076L316.765,30.481L317.1,25.832L317.435,30.481L317.77,28.862L318.104,26.77L318.439,28.119L318.774,28.187L319.109,28.862L319.444,33.855L319.779,33.855L320.114,33.855L321.453,33.18L321.788,26.095L322.123,25.892L322.458,32.573L322.793,39.996L323.128,39.052L323.463,43.708L323.798,40.907L324.133,43.472L324.468,47.25L324.802,45.665L325.137,42.966L325.472,46.036L325.807,47.352L326.142,47.959L326.477,46.812L326.812,47.352L327.147,49.039L327.482,51.671L327.816,51.029L328.151,46.643L328.486,47.268L328.821,47.622L329.156,52.683L329.491,53.358L329.826,51.199L330.161,50.726L330.496,49.579L330.831,47.824L331.165,48.837L331.5,48.769L331.835,48.195L332.17,48.634L332.505,46.947L332.84,45.867L333.175,45.564L333.51,49.106L333.845,49.039L334.18,50.051L334.514,48.162L334.849,48.837L335.184,48.162L335.519,49.106L335.854,50.287L336.189,50.996L336.524,50.085L336.859,49.982L337.194,49.343L337.528,47.757L337.863,47.554L338.198,46.239L338.533,46.137L338.868,46.407L339.203,47.014L339.538,46.002L339.873,46.272L340.208,45.665L340.543,45.975L340.877,45.328L341.212,48.027L341.547,46.19L341.882,46.357L342.217,45.8L342.552,46.846L342.887,47.082L343.222,47.622L343.557,48.128L343.891,48.195L344.226,49.849L344.561,49.579L344.896,49.444L345.231,48.972L345.566,47.284L345.901,48.162L346.236,48.938L346.571,50.591L346.906,54.708L347.24,55.72L347.575,55.315L347.91,55.315L348.245,54.303L348.58,54.1L348.915,54.775L349.25,57.474L349.585,54.1L349.92,53.425L350.255,54.1L350.589,50.937L350.924,54.1L351.259,57.474L351.594,55.315L351.929,57.186L352.264,56.597L352.599,50.726L352.934,55.382L353.269,55.18L353.603,56.327L354.273,54.1L354.608,55.315L354.943,54.1L355.278,52.953L355.613,54.303L355.948,50.726L356.283,54.1L356.618,51.536L356.952,57.474L357.287,56.597L357.622,57.474L357.957,51.603L358.292,54.438L358.627,54.438L358.962,54.438L360.301,54.303L360.636,52.751L360.971,54.235L361.306,54.303L361.641,50.726L361.976,52.751L362.311,51.603L362.646,54.303L362.981,51.806L363.315,51.401L395.8,50.929L396.135,53.898L397.14,70.094L397.475,57.609L398.145,50.726L398.814,57.94L399.149,50.726L399.484,50.659L400.154,47.082L401.159,49.646L401.494,49.646L401.829,49.646L402.163,48.027L402.498,47.622L402.833,47.622L403.503,48.027L403.838,48.027L404.173,48.027L404.843,48.027L405.177,48.027L405.847,44.855L406.517,47.824L406.852,47.824L407.522,47.824L407.857,46.34L408.192,42.32L408.526,46.137L408.861,46.745L409.196,46.07L409.531,43.303L409.866,42.456L410.201,45.597L410.536,43.978L410.871,43.303L411.206,42.628L411.541,41.346L411.875,49.106L412.21,45.631L412.545,43.978L412.88,42.206L413.215,42.156L413.55,42.156L413.885,42.628L414.22,43.64L414.555,43.573L414.889,40.671L415.224,38.039L415.559,34.817L415.894,34.53L416.229,32.371L416.564,33.45L417.904,36.42L418.238,40.334L418.573,41.953L418.908,44.551L419.243,44.248L419.578,41.751L419.913,47.082L420.248,44.956L420.583,45.867L420.918,39.186L421.253,37.162L421.587,36.352L421.922,34.125L422.257,34.648L422.592,34.868L422.927,33.687L423.262,34.328L423.597,36.251L423.932,37.938L424.267,37.533L424.601,38.849L424.936,38.512L425.271,38.275L425.606,37.702L425.941,37.094L426.276,36.892L426.611,36.015L426.946,35.003L427.281,33.484L427.616,32.843L427.95,31.831L428.285,31.527L428.62,32.371L428.955,31.156L429.29,31.898L429.625,32.01L429.96,31.426L430.295,33.248L430.63,30.414L430.965,29.469L431.299,29.806L431.634,30.609L431.969,30.411L432.304,32.708L432.639,33.973L432.974,33.383L433.309,35.34L433.644,35.475L433.979,37.634L434.313,39.794L434.648,40.064L434.983,38.714L435.318,37.229L435.653,37.904L435.988,37.364L436.323,38.849L436.658,39.119L436.993,37.702L437.328,37.364L437.662,38.579L437.997,38.849L438.332,41.278L438.667,39.996L439.002,40.266L439.337,40.334L439.672,41.751L440.007,41.751L440.342,42.021L440.676,43.438L441.011,43.033L441.346,43.168L441.681,42.999L442.016,41.751L442.351,40.199L442.686,40.671L443.021,42.426L443.356,42.156L443.691,45.192L444.025,45.192L444.36,45.192L444.695,45.192L445.03,43.1L445.365,45.058L445.7,50.812L446.035,43.978L446.37,44.99L446.705,44.99L447.04,45.125L447.374,45.192L447.709,44.653L448.044,44.248L448.379,44.18L448.714,45.058L449.049,40.469L449.719,40.158L450.388,38.647L450.723,38.647L451.058,41.548L451.393,48.837L451.728,45.665L452.063,46.409L452.398,38.579L452.733,39.794L453.737,45.192L454.742,45.192L455.077,38.579L455.747,39.794L456.082,39.794L456.752,40.604L457.756,45.867L458.091,47.824L458.426,47.149L458.761,47.015L459.096,46.475L459.431,43.978L459.766,46.002L460,46.002" fill="transparent" stroke="#87ceeb" stroke-width="2"/>
                        <path transform="translate(10,10)" d="M10,145L11.005,145L11.34,145L12.009,145L13.014,145L13.349,145L14.354,145L15.023,145L16.028,145L17.033,145L17.368,145L18.038,145L18.372,145L18.707,145L19.042,145L19.377,145L20.382,145L20.717,145L22.056,145L22.391,145L22.726,145L23.061,145L23.396,145L23.731,145L24.066,145L24.401,145L24.735,145L25.07,145L25.405,145L25.74,145L26.075,145L26.41,145L26.745,145L27.08,145L27.415,145L27.749,145L28.084,145L28.419,145L28.754,145L29.089,145L29.424,145L29.759,145L30.094,145L30.429,145L30.764,145L32.103,145L32.438,145L32.773,145L33.108,145L33.443,145L33.778,145L34.113,145L34.447,145L34.782,145L35.117,145L35.452,145L35.787,145L36.122,145L36.457,145L36.792,145L37.127,145L37.461,145L37.796,145L38.131,145L38.466,145L38.801,145L39.136,145L39.471,145L39.806,145L40.141,145L40.476,145L40.81,145L41.145,145L41.48,145L41.815,145L42.15,145L42.485,145L42.82,145L43.155,145L43.49,145L43.825,145L44.159,145L44.494,145L44.829,145L45.164,145L45.499,145L45.834,145L46.169,145L46.504,145L46.839,145L47.173,145L47.508,145L47.843,145L48.178,145L48.513,145L48.848,145L49.183,145L49.518,145L49.853,145L50.188,145L50.522,145L50.857,145L51.192,145L51.527,145L51.862,145L52.197,145L52.532,145L52.867,145L53.202,145L53.537,145L53.871,145L54.206,145L54.541,145L54.876,145L55.211,145L55.546,145L55.881,145L56.216,145L56.551,145L56.885,145L57.22,145L57.555,145L57.89,145L58.225,145L58.56,145L58.895,145L59.23,145L59.565,145L59.9,145L60.234,145L60.569,145L60.904,145L61.239,145L61.574,145L61.909,145L62.244,145L62.579,145L62.914,145L63.248,145L63.583,145L63.918,145L64.253,145L64.588,145L65.258,145L65.593,145L65.928,145L66.263,145L66.597,145L66.932,145L67.267,145L67.602,145L67.937,145L68.272,145L68.607,145L68.942,145L69.277,145L69.612,145L69.946,145L70.281,145L70.616,145L70.951,145L71.286,145L71.621,145L71.956,145L72.291,145L72.626,145L72.96,145L73.295,145L73.63,145L73.965,145L106.45,145L106.785,145L107.12,145L107.79,145L108.125,145L108.459,145L108.794,145L109.464,145L109.799,145L110.134,145L110.469,145L110.804,145L111.139,145L111.474,145L111.808,145L112.143,145L112.478,145L112.813,145L113.148,145L113.483,145L113.818,145L114.153,145L114.488,145L114.823,145L115.492,145L115.827,145L116.162,145L116.497,145L116.832,145L117.167,145L117.502,145L117.837,145L118.171,145L118.506,145L118.841,145L119.176,145L119.511,145L119.846,145L120.181,145L120.516,145L120.851,145L121.186,145L121.52,145L121.855,145L122.19,145L122.525,145L122.86,145L123.195,145L123.53,145L123.865,145L124.2,145L124.534,145L125.204,145L125.539,145L125.874,145L126.209,145L126.544,145L126.879,145L127.214,145L128.553,145L128.888,145L129.223,145L129.558,145L129.893,145L130.228,145L130.563,145L130.898,145L131.232,145L131.567,145L131.902,145L132.237,145L132.572,145L132.907,145L133.242,145L133.577,145L133.912,145L134.246,145L134.581,145L134.916,145L135.251,145L135.586,145L135.921,145L136.256,145L136.591,145L136.926,145L137.261,145L137.595,145L137.93,145L138.265,145L138.6,145L138.935,145L139.27,145L139.605,145L139.94,145L140.275,145L140.61,145L140.944,145L141.279,145L141.614,145L141.949,145L142.284,145L142.619,145L142.954,145L143.289,145L143.624,145L143.958,145L144.293,145L144.628,145L144.963,145L145.298,145L145.633,145L145.968,145L146.303,145L146.638,145L146.973,145L147.307,145L147.642,145L147.977,145L148.312,145L148.647,145L148.982,145L149.317,145L149.652,145L149.987,145L150.322,145L150.656,145L150.991,145L151.326,145L151.661,145L151.996,145L152.331,145L152.666,145L153.001,145L153.336,145L153.67,145L154.005,145L154.34,145L154.675,145L155.01,145L155.345,145L155.68,145L156.015,145L156.35,145L156.685,145L157.019,145L157.354,145L157.689,145L158.024,145L158.359,145L158.694,145L159.029,145L159.364,145L159.699,145L160.033,145L160.703,145L161.038,145L161.373,145L161.708,145L162.043,145L162.378,145L162.713,145L163.048,145L163.382,145L163.717,145L164.052,145L164.387,145L164.722,145L165.057,145L165.392,145L165.727,145L166.062,145L166.397,145L166.731,145L167.066,145L167.401,145L167.736,145L168.071,145L168.741,145L169.076,145L169.745,145L170.08,145L170.415,145L202.9,145L203.235,145L203.57,145L203.905,145L204.24,145L204.91,145L205.244,145L205.579,145L205.914,145L206.584,145L206.919,145L207.254,145L207.589,145L207.924,145L208.259,145L208.593,145L208.928,145L209.598,145L210.268,145L210.603,145L210.938,145L211.273,145L211.608,145L211.942,145L212.277,145L212.612,145L212.947,145L213.282,145L213.617,145L213.952,145L214.287,145L214.622,145L214.956,145L215.291,145L215.626,145L215.961,145L216.296,145L216.631,145L216.966,145L217.301,145L217.636,145L217.971,145L218.305,145L218.64,145L218.975,145L219.31,145L219.645,145L219.98,145L220.315,145L220.65,145L220.985,145L221.319,145L221.654,145L221.989,145L222.324,145L222.659,145L222.994,145L223.329,145L223.664,145L225.003,145L225.338,145L225.673,145L226.008,145L226.343,145L226.678,145L227.013,145L227.348,145L227.683,145L228.017,145L228.352,145L228.687,145L229.022,145L229.357,145L229.692,145L230.027,145L230.362,145L230.697,145L231.031,145L231.366,145L231.701,145L232.036,145L232.371,145L232.706,145L233.041,145L233.376,145L233.711,145L234.046,145L234.38,145L234.715,145L235.05,145L235.385,145L235.72,145L236.055,145L236.39,145L236.725,145L237.06,145L237.395,145L237.729,145L238.064,145L238.399,145L238.734,145L239.069,145L239.404,145L239.739,145L240.074,145L240.409,145L240.743,145L241.078,145L241.413,145L241.748,145L242.083,145L242.418,145L242.753,145L243.088,145L243.423,145L243.758,145L244.092,145L244.427,145L244.762,145L245.097,145L245.432,145L245.767,145L246.102,145L246.437,145L246.772,145L247.106,145L247.441,145L247.776,145L248.111,145L248.446,145L248.781,145L249.116,145L249.451,145L249.786,145L250.121,145L250.455,145L250.79,145L251.125,145L251.46,145L251.795,145L252.13,145L252.465,145L252.8,145L253.135,145L253.47,145L253.804,145L254.139,145L254.474,145L254.809,145L255.144,145L255.479,145L256.149,145L256.484,145L256.818,145L257.153,145L257.488,145L257.823,145L258.158,145L258.493,145L258.828,145L259.163,145L259.498,145L259.833,145L260.167,145L260.502,145L260.837,145L261.172,145L261.507,145L261.842,145L262.177,145L262.512,145L262.847,145L263.182,145L263.516,145L263.851,145L264.521,145L264.856,145L265.191,145L265.526,145L265.861,145L266.196,145L266.53,145L266.865,145L299.35,145L299.685,145L300.02,145L300.355,145L300.69,145L301.025,145L301.695,145L302.364,145L302.699,145L303.034,145L303.369,145L303.704,145L304.039,145L304.374,145L304.709,145L305.378,145L305.713,145L306.048,145L306.383,145L306.718,145L307.053,145L307.388,145L307.723,145L308.392,145L308.727,145L309.397,145L309.732,145L310.067,145L310.402,145L310.737,145L311.072,145L311.407,145L311.741,145L312.076,145L312.411,145L312.746,145L313.081,145L313.416,145L313.751,145L314.086,145L314.421,145L314.756,145L315.09,145L315.425,145L315.76,145L316.095,145L316.43,145L316.765,145L317.1,145L317.435,145L317.77,145L318.104,145L318.439,145L318.774,145L319.109,145L319.444,145L319.779,145L320.114,145L321.453,145L321.788,145L322.123,145L322.458,145L322.793,145L323.128,145L323.463,145L323.798,145L324.133,145L324.468,145L324.802,145L325.137,145L325.472,145L325.807,145L326.142,145L326.477,145L326.812,145L327.147,145L327.482,145L327.816,145L328.151,145L328.486,145L328.821,145L329.156,145L329.491,145L329.826,145L330.161,145L330.496,145L330.831,145L331.165,145L331.5,145L331.835,145L332.17,145L332.505,145L332.84,145L333.175,145L333.51,145L333.845,145L334.18,145L334.514,145L334.849,145L335.184,145L335.519,145L335.854,145L336.189,145L336.524,145L336.859,145L337.194,145L337.528,145L337.863,145L338.198,145L338.533,145L338.868,145L339.203,145L339.538,145L339.873,145L340.208,145L340.543,145L340.877,145L341.212,145L341.547,145L341.882,145L342.217,145L342.552,145L342.887,145L343.222,145L343.557,145L343.891,145L344.226,145L344.561,145L344.896,145L345.231,145L345.566,145L345.901,145L346.236,145L346.571,145L346.906,145L347.24,145L347.575,145L347.91,145L348.245,145L348.58,145L348.915,145L349.25,145L349.585,145L349.92,145L350.255,145L350.589,145L350.924,145L351.259,145L351.594,145L351.929,145L352.264,145L352.599,145L352.934,145L353.269,145L353.603,145L354.273,145L354.608,145L354.943,145L355.278,145L355.613,145L355.948,145L356.283,145L356.618,145L356.952,145L357.287,145L357.622,145L357.957,145L358.292,145L358.627,145L358.962,145L360.301,145L360.636,145L360.971,145L361.306,145L361.641,145L361.976,145L362.311,145L362.646,145L362.981,145L363.315,145L395.8,145L396.135,145L397.14,145L397.475,145L398.145,145L398.814,145L399.149,145L399.484,145L400.154,145L401.159,145L401.494,145L401.829,145L402.163,145L402.498,145L402.833,145L403.503,145L403.838,145L404.173,145L404.843,145L405.177,145L405.847,145L406.517,145L406.852,145L407.522,145L407.857,145L408.192,145L408.526,145L408.861,145L409.196,145L409.531,145L409.866,145L410.201,145L410.536,145L410.871,145L411.206,145L411.541,145L411.875,145L412.21,145L412.545,145L412.88,145L413.215,145L413.55,145L413.885,145L414.22,145L414.555,145L414.889,145L415.224,145L415.559,145L415.894,145L416.229,145L416.564,145L417.904,145L418.238,145L418.573,145L418.908,145L419.243,145L419.578,145L419.913,145L420.248,145L420.583,145L420.918,145L421.253,145L421.587,145L421.922,145L422.257,145L422.592,145L422.927,145L423.262,145L423.597,145L423.932,145L424.267,145L424.601,145L424.936,145L425.271,145L425.606,145L425.941,145L426.276,145L426.611,145L426.946,145L427.281,145L427.616,145L427.95,145L428.285,145L428.62,145L428.955,145L429.29,145L429.625,145L429.96,145L430.295,145L430.63,145L430.965,145L431.299,145L431.634,145L431.969,145L432.304,145L432.639,145L432.974,145L433.309,145L433.644,145L433.979,145L434.313,145L434.648,145L434.983,145L435.318,145L435.653,145L435.988,145L436.323,145L436.658,145L436.993,145L437.328,145L437.662,145L437.997,145L438.332,145L438.667,145L439.002,145L439.337,145L439.672,145L440.007,145L440.342,145L440.676,145L441.011,145L441.346,145L441.681,145L442.016,145L442.351,145L442.686,145L443.021,145L443.356,145L443.691,145L444.025,145L444.36,145L444.695,145L445.03,145L445.365,145L445.7,145L446.035,145L446.37,145L446.705,145L447.04,145L447.374,145L447.709,145L448.044,145L448.379,145L448.714,145L449.049,145L449.719,145L450.388,145L450.723,145L451.058,145L451.393,145L451.728,145L452.063,145L452.398,145L452.733,145L453.737,145L454.742,145L455.077,145L455.747,145L456.082,145L456.752,145L457.756,145L458.091,145L458.426,145L458.761,145L459.096,145L459.431,145L459.766,145L460,145L460,46.002L459.766,46.002L459.431,43.978L459.096,46.475L458.761,47.015L458.426,47.149L458.091,47.824L457.756,45.867L456.752,40.604L456.082,39.794L455.747,39.794L455.077,38.579L454.742,45.192L453.737,45.192L452.733,39.794L452.398,38.579L452.063,46.409L451.728,45.665L451.393,48.837L451.058,41.548L450.723,38.647L450.388,38.647L449.719,40.158L449.049,40.469L448.714,45.058L448.379,44.18L448.044,44.248L447.709,44.653L447.374,45.192L447.04,45.125L446.705,44.99L446.37,44.99L446.035,43.978L445.7,50.812L445.365,45.058L445.03,43.1L444.695,45.192L444.36,45.192L444.025,45.192L443.691,45.192L443.356,42.156L443.021,42.426L442.686,40.671L442.351,40.199L442.016,41.751L441.681,42.999L441.346,43.168L441.011,43.033L440.676,43.438L440.342,42.021L440.007,41.751L439.672,41.751L439.337,40.334L439.002,40.266L438.667,39.996L438.332,41.278L437.997,38.849L437.662,38.579L437.328,37.364L436.993,37.702L436.658,39.119L436.323,38.849L435.988,37.364L435.653,37.904L435.318,37.229L434.983,38.714L434.648,40.064L434.313,39.794L433.979,37.634L433.644,35.475L433.309,35.34L432.974,33.383L432.639,33.973L432.304,32.708L431.969,30.411L431.634,30.609L431.299,29.806L430.965,29.469L430.63,30.414L430.295,33.248L429.96,31.426L429.625,32.01L429.29,31.898L428.955,31.156L428.62,32.371L428.285,31.527L427.95,31.831L427.616,32.843L427.281,33.484L426.946,35.003L426.611,36.015L426.276,36.892L425.941,37.094L425.606,37.702L425.271,38.275L424.936,38.512L424.601,38.849L424.267,37.533L423.932,37.938L423.597,36.251L423.262,34.328L422.927,33.687L422.592,34.868L422.257,34.648L421.922,34.125L421.587,36.352L421.253,37.162L420.918,39.186L420.583,45.867L420.248,44.956L419.913,47.082L419.578,41.751L419.243,44.248L418.908,44.551L418.573,41.953L418.238,40.334L417.904,36.42L416.564,33.45L416.229,32.371L415.894,34.53L415.559,34.817L415.224,38.039L414.889,40.671L414.555,43.573L414.22,43.64L413.885,42.628L413.55,42.156L413.215,42.156L412.88,42.206L412.545,43.978L412.21,45.631L411.875,49.106L411.541,41.346L411.206,42.628L410.871,43.303L410.536,43.978L410.201,45.597L409.866,42.456L409.531,43.303L409.196,46.07L408.861,46.745L408.526,46.137L408.192,42.32L407.857,46.34L407.522,47.824L406.852,47.824L406.517,47.824L405.847,44.855L405.177,48.027L404.843,48.027L404.173,48.027L403.838,48.027L403.503,48.027L402.833,47.622L402.498,47.622L402.163,48.027L401.829,49.646L401.494,49.646L401.159,49.646L400.154,47.082L399.484,50.659L399.149,50.726L398.814,57.94L398.145,50.726L397.475,57.609L397.14,70.094L396.135,53.898L395.8,50.929L363.315,51.401L362.981,51.806L362.646,54.303L362.311,51.603L361.976,52.751L361.641,50.726L361.306,54.303L360.971,54.235L360.636,52.751L360.301,54.303L358.962,54.438L358.627,54.438L358.292,54.438L357.957,51.603L357.622,57.474L357.287,56.597L356.952,57.474L356.618,51.536L356.283,54.1L355.948,50.726L355.613,54.303L355.278,52.953L354.943,54.1L354.608,55.315L354.273,54.1L353.603,56.327L353.269,55.18L352.934,55.382L352.599,50.726L352.264,56.597L351.929,57.186L351.594,55.315L351.259,57.474L350.924,54.1L350.589,50.937L350.255,54.1L349.92,53.425L349.585,54.1L349.25,57.474L348.915,54.775L348.58,54.1L348.245,54.303L347.91,55.315L347.575,55.315L347.24,55.72L346.906,54.708L346.571,50.591L346.236,48.938L345.901,48.162L345.566,47.284L345.231,48.972L344.896,49.444L344.561,49.579L344.226,49.849L343.891,48.195L343.557,48.128L343.222,47.622L342.887,47.082L342.552,46.846L342.217,45.8L341.882,46.357L341.547,46.19L341.212,48.027L340.877,45.328L340.543,45.975L340.208,45.665L339.873,46.272L339.538,46.002L339.203,47.014L338.868,46.407L338.533,46.137L338.198,46.239L337.863,47.554L337.528,47.757L337.194,49.343L336.859,49.982L336.524,50.085L336.189,50.996L335.854,50.287L335.519,49.106L335.184,48.162L334.849,48.837L334.514,48.162L334.18,50.051L333.845,49.039L333.51,49.106L333.175,45.564L332.84,45.867L332.505,46.947L332.17,48.634L331.835,48.195L331.5,48.769L331.165,48.837L330.831,47.824L330.496,49.579L330.161,50.726L329.826,51.199L329.491,53.358L329.156,52.683L328.821,47.622L328.486,47.268L328.151,46.643L327.816,51.029L327.482,51.671L327.147,49.039L326.812,47.352L326.477,46.812L326.142,47.959L325.807,47.352L325.472,46.036L325.137,42.966L324.802,45.665L324.468,47.25L324.133,43.472L323.798,40.907L323.463,43.708L323.128,39.052L322.793,39.996L322.458,32.573L322.123,25.892L321.788,26.095L321.453,33.18L320.114,33.855L319.779,33.855L319.444,33.855L319.109,28.862L318.774,28.187L318.439,28.119L318.104,26.77L317.77,28.862L317.435,30.481L317.1,25.832L316.765,30.481L316.43,30.076L316.095,27.849L315.76,23.989L315.425,26.905L315.09,26.297L314.756,28.99L314.421,26.365L314.086,26.297L313.751,29.341L313.416,26.77L313.081,32.438L312.746,32.506L312.411,33.315L312.076,30.481L311.741,33.383L311.407,33.788L311.072,30.684L310.737,35.88L310.402,35.88L310.067,35.812L309.732,34.8L309.397,34.8L308.727,37.227L308.392,37.227L307.723,37.229L307.388,36.129L307.053,37.229L306.718,39.861L306.383,34.53L306.048,35.475L305.713,27.444L305.378,35.475L304.709,35.542L304.374,35.407L304.039,45.867L303.704,35.61L303.369,30.414L303.034,30.549L302.699,30.481L302.364,32.438L301.695,30.481L301.025,30.684L300.69,28.457L300.355,26.365L300.02,26.297L299.685,23.733L299.35,19.954L266.865,25.083L266.53,25.372L266.196,26.432L265.861,26.095L265.526,26.983L265.191,25.083L264.856,25.15L264.521,25.15L263.851,25.184L263.516,25.892L263.182,25.016L262.847,27.073L262.512,24.88L262.177,26.23L261.842,24.61L261.507,25.015L261.172,24.948L260.837,25.42L260.502,29.131L260.167,25.757L259.833,26.432L259.498,29.131L259.163,25.875L258.828,25.757L258.493,25.421L258.158,23.733L257.823,25.42L257.488,26.23L257.153,24.057L256.818,26.297L256.484,28.43L256.149,26.567L255.479,26.837L255.144,26.5L254.809,24.715L254.474,27.107L254.139,29.131L253.804,30.542L253.47,29.266L253.135,29.266L252.8,26.635L252.465,25.933L252.13,26.297L251.795,25.42L251.46,30.481L251.125,26.297L250.79,27.04L250.455,25.184L250.121,30.177L249.786,29.074L249.451,26.398L249.116,24.745L248.781,22.788L248.446,24.07L248.111,24.408L247.776,23.564L247.441,24.88L247.106,24.003L246.772,22.451L246.437,23.935L246.102,24.34L245.767,26.196L245.432,26.23L245.097,26.77L244.762,25.825L244.427,25.724L244.092,26.095L243.758,26.77L243.423,25.824L243.088,25.319L242.753,26.601L242.418,27.309L242.083,27.174L241.748,27.242L241.413,28.423L241.078,28.659L240.743,28.895L240.409,29.84L240.074,28.49L239.739,29.064L239.404,27.765L239.069,28.49L238.734,29.638L238.399,28.524L238.064,29.401L237.729,30.076L237.395,29.401L237.06,31.088L236.725,29.536L236.39,28.429L236.055,30.076L235.72,30.684L235.385,29.401L235.05,27.478L234.715,28.052L234.38,27.512L234.046,28.389L233.711,28.322L233.376,27.276L233.041,27.478L232.706,27.006L232.371,24.443L232.036,19.076L231.701,18.908L231.366,19.279L231.031,16.883L230.697,15.466L230.362,18.064L230.027,15.635L229.692,13.595L229.357,14.15L229.022,15.365L228.687,14.623L228.352,21.303L228.017,20.966L227.683,22.788L227.348,24.88L227.013,32.134L226.678,30.885L226.343,23.935L226.008,25.268L225.673,34.53L225.338,26.128L225.003,10L223.664,41.922L223.329,42.536L222.994,40.772L222.659,47.959L222.324,46.677L221.989,46.272L221.654,48.364L221.319,47.487L220.985,49.291L220.65,49.579L220.315,50.726L219.98,49.309L219.645,49.039L219.31,48.027L218.975,50.726L218.64,47.352L218.305,49.511L217.971,50.726L217.636,56.462L217.301,57.204L216.966,56.26L216.631,64.898L216.296,81.093L215.961,83.928L215.626,81.498L215.291,81.826L214.956,80.419L214.622,79.002L214.287,80.756L213.952,82.106L213.617,84.468L213.282,82.098L212.947,82.098L212.612,81.836L212.277,85.277L211.942,82.781L211.608,83.118L211.273,83.455L210.938,85.277L210.603,81.836L210.268,81.768L209.598,85.142L208.928,81.768L208.593,81.768L208.259,84.603L207.924,84.603L207.589,87.302L207.254,85.952L206.919,97.897L206.584,81.093L205.914,80.486L205.579,81.836L205.244,81.836L204.91,80.419L204.24,78.394L203.905,80.486L203.57,77.922L203.235,77.382L202.9,74.345L170.415,79.406L170.08,78.057L169.745,77.719L169.076,77.382L168.741,78.664L168.071,79.744L167.736,79.339L167.401,77.645L167.066,77.37L166.731,77.379L166.397,77.922L166.062,77.922L165.727,79.676L165.392,77.922L165.057,77.922L164.722,77.922L164.387,79.744L164.052,79.339L163.717,78.259L163.382,79.744L163.048,77.112L162.713,77.179L162.378,79.744L162.043,79.899L161.708,79.744L161.373,80.731L161.038,81.093L160.703,81.093L160.033,81.093L159.699,82.106L159.364,82.173L159.029,83.663L158.694,82.212L158.359,82.443L158.024,81.431L157.689,81.774L157.354,82.646L157.019,82.443L156.685,82.486L156.35,82.991L156.015,83.118L155.68,82.173L155.345,82.646L155.01,82.241L154.675,82.173L154.34,81.701L154.005,83.894L153.67,79.075L153.336,78.394L153.001,78.394L152.666,79.271L152.331,77.517L151.996,78.259L151.661,78.765L151.326,79.137L150.991,77.314L150.656,76.91L150.322,78.033L149.987,78.09L149.652,79.271L149.317,81.937L148.982,81.363L148.647,81.498L148.312,80.014L147.977,80.014L147.642,77.719L147.307,76.842L146.973,76.775L146.638,76.167L146.303,76.505L145.968,75.83L145.633,75.29L145.298,75.087L144.963,74.986L144.628,74.851L144.293,76.505L143.958,75.897L143.624,76.707L143.289,77.314L142.954,76.499L142.619,77.517L142.284,77.854L141.949,77.382L141.614,75.492L141.279,76.37L140.944,78.63L140.61,77.888L140.275,77.551L139.94,76.37L139.605,76.775L139.27,77.787L138.935,77.922L138.6,78.393L138.265,77.922L137.93,76.842L137.595,76.91L137.261,75.796L136.926,74.75L136.591,74.075L136.256,78.664L135.921,80.554L135.586,82.477L135.251,82.781L134.916,80.351L134.581,79.811L134.246,79.474L133.912,79.271L133.577,81.026L133.242,82.409L132.907,83.118L132.572,83.894L132.237,85.48L131.902,84.468L131.567,82.308L131.232,79.879L130.898,80.992L130.563,82.038L130.228,83.253L129.893,86.222L129.558,85.345L129.223,83.995L128.888,84.873L128.553,88.044L127.214,91.216L126.879,95.805L126.544,95.94L126.209,94.151L125.874,94.253L125.539,95.94L125.204,93.51L124.534,94.658L124.2,96.21L123.865,97.829L123.53,97.319L123.195,94.928L122.86,95.197L122.525,93.635L122.19,96.277L121.855,96.952L121.52,96.075L121.186,97.289L120.851,95.872L120.516,95.67L120.181,95.737L119.846,96.952L119.511,96.952L119.176,96.952L118.841,91.553L118.506,97.964L118.171,95.872L117.837,104.645L117.502,103.768L117.167,102.081L116.832,95.467L116.497,95.467L116.162,97.02L115.827,91.505L115.492,97.964L114.823,98.909L114.488,99.786L114.153,97.964L113.818,97.964L113.483,97.964L113.148,97.964L112.813,94.523L112.478,94.523L112.143,94.32L111.808,97.154L111.474,94.32L111.139,96.48L110.804,96.48L110.469,96.48L110.134,97.964L109.799,94.32L109.464,97.964L108.794,94.253L108.459,94.118L108.125,91.459L107.79,96.21L107.12,96.277L106.785,96.885L106.45,96.952L73.965,94.05L73.63,95.13L73.295,95.602L72.96,94.253L72.626,97.694L72.291,97.964L71.956,93.951L71.621,94.59L71.286,96.547L70.951,96.615L70.616,94.59L70.281,95.94L69.946,96.277L69.612,96.142L69.277,95.94L68.942,97.964L68.607,97.694L68.272,97.492L67.937,96.203L67.602,97.357L67.267,96.075L66.932,95.94L66.597,96.007L66.263,96.615L65.928,97.222L65.593,96.075L65.258,96.075L64.588,96.007L64.253,97.289L63.918,96.277L63.583,97.289L63.248,97.02L62.914,96.952L62.579,97.694L62.244,97.02L61.909,95.94L61.574,96.615L61.239,97.964L60.904,97.29L60.569,97.289L60.234,98.302L59.9,96.952L59.565,96.21L59.23,96.142L58.895,97.964L58.56,97.964L58.225,97.02L57.89,97.559L57.555,100.934L57.22,103.7L56.885,99.921L56.551,100.36L56.216,102.452L55.881,104.308L55.546,103.565L55.211,104.814L54.876,105.455L54.541,106.062L54.206,106.602L53.871,108.053L53.537,108.222L53.202,108.357L52.867,109.504L52.532,109.74L52.197,109.875L51.862,110.719L51.527,110.145L51.192,110.246L50.857,110.28L50.522,112.102L50.188,112.608L49.853,113.215L49.518,113.283L49.183,113.148L48.848,112.743L48.513,112.979L48.178,111.123L47.843,110.786L47.508,111.427L47.173,110.601L46.839,109.976L46.504,111.933L46.169,111.022L45.834,111.258L45.499,110.617L45.164,110.921L44.829,112.659L44.494,114.498L44.159,114.093L43.825,115.24L43.49,116.459L43.155,117.636L42.82,117.264L42.485,119.694L42.15,121.246L41.815,122.191L41.48,122.866L41.145,122.866L40.81,123.405L40.476,122.798L40.141,124.586L39.806,123.675L39.471,122.967L39.136,123.068L38.801,123.372L38.466,121.921L38.131,120.436L37.796,118.817L37.461,118.985L37.127,120.031L36.792,118.614L36.457,120.571L36.122,119.761L35.787,118.209L35.452,120.099L35.117,123.203L34.782,123.507L34.447,122.359L34.113,123.743L33.778,121.516L33.443,124.834L33.108,122.461L32.773,129.614L32.438,130.93L32.103,133.73L30.764,135.147L30.429,141.018L30.094,138.859L29.759,141.153L29.424,141.626L29.089,136.396L28.754,144.528L28.419,144.528L28.084,143.853L27.749,142.503L27.415,145L27.08,139.804L26.745,144.798L26.41,141.963L26.075,138.252L25.74,144.325L25.405,138.454L25.07,144.393L24.735,142.098L24.401,143.853L24.066,141.626L23.731,134.068L23.396,129.209L23.061,131.706L22.726,130.356L22.391,128.264L22.056,128.332L20.717,130.221L20.382,130.221L19.377,130.694L19.042,128.264L18.707,131.571L18.372,130.964L18.038,130.829L17.368,122.258L17.033,124.958L16.028,131.233L15.023,131.233L14.354,131.233L13.349,131.503L13.014,131.503L12.009,131.503L11.34,131.503L11.005,137.984L10,137.984Z" fill="rgba(88, 166, 255, .1)"/>
                    </svg>
                </div>
            </section>
        </div>
        <div xmlns="http://www.w3.org/1999/xhtml" id="metrics-end"></div>
    </foreignObject>
</svg>