<svg xmlns="http://www.w3.org/2000/svg" width="480" height="302" class="">
    <defs>
        <style/>
    </defs>
    <style>@keyframes animation-gauge{0%{stroke-dasharray:0 329}}@keyframes animation-rainbow{0%,to{color:#7f00ff;fill:#7f00ff}14%{color:#a933ff;fill:#a933ff}29%{color:#007fff;fill:#007fff}43%{color:#00ff7f;fill:#00ff7f}57%{color:#ff0;fill:#ff0}71%{color:#ff7f00;fill:#ff7f00}86%{color:red;fill:red}}svg{font-family:-apple-system,BlinkMacSystemFont,Segoe UI,Helvetica,Arial,sans-serif,Apple Color Emoji,Segoe UI Emoji;font-size:14px;color:#777}h2{margin:8px 0 2px;padding:0;color:#0366d6;font-weight:400;font-size:16px}h2 svg{fill:currentColor}section&gt;.field{margin-left:5px;margin-right:5px}.field{display:flex;align-items:center;margin-bottom:2px;white-space:nowrap}.field svg{margin:0 8px;fill:#959da5;flex-shrink:0}.row{display:flex;flex-wrap:wrap}.row section{flex:1 1 0}:root{--color-calendar-graph-day-bg:#ebedf0;--color-calendar-graph-day-border:rgba(27,31,35,0.06);--color-calendar-graph-day-L1-bg:#9be9a8;--color-calendar-graph-day-L2-bg:#40c463;--color-calendar-graph-day-L3-bg:#30a14e;--color-calendar-graph-day-L4-bg:#216e39;--color-calendar-halloween-graph-day-L1-bg:#ffee4a;--color-calendar-halloween-graph-day-L2-bg:#ffc501;--color-calendar-halloween-graph-day-L3-bg:#fe9600;--color-calendar-halloween-graph-day-L4-bg:#03001c;--color-calendar-winter-graph-day-L1-bg:#0a3069;--color-calendar-winter-graph-day-L2-bg:#0969da;--color-calendar-winter-graph-day-L3-bg:#54aeff;--color-calendar-winter-graph-day-L4-bg:#b6e3ff;--color-calendar-graph-day-L4-border:rgba(27,31,35,0.06);--color-calendar-graph-day-L3-border:rgba(27,31,35,0.06);--color-calendar-graph-day-L2-border:rgba(27,31,35,0.06);--color-calendar-graph-day-L1-border:rgba(27,31,35,0.06)}#metrics-end{width:100%}</style>
    <style/>
    <foreignObject x="0" y="0" width="100%" height="100%">
        <div xmlns="http://www.w3.org/1999/xhtml" xmlns:xlink="http://www.w3.org/1999/xlink" class="items-wrapper">
            <section>
                <h2 class="field">
                    <svg xmlns="http://www.w3.org/2000/svg" viewBox="0 0 16 16" width="16" height="16">
                        <path d="M10.75 9a.75.75 0 000 1.5h1.5a.75.75 0 000-1.5h-1.5z"/>
                        <path fill-rule="evenodd" d="M0 3.75C0 2.784.784 2 1.75 2h12.5c.966 0 1.75.784 1.75 1.75v8.5A1.75 1.75 0 0114.25 14H1.75A1.75 1.75 0 010 12.25v-8.5zm14.5 0V5h-13V3.75a.25.25 0 01.25-.25h12.5a.25.25 0 01.25.25zm0 2.75h-13v5.75c0 .138.112.25.25.25h12.5a.25.25 0 00.25-.25V6.5z"/>
                    </svg>
                    Stock prices for MS
                </h2>
                <div class="row">
                    <section>
                        <div class="field">
                            <svg xmlns="http://www.w3.org/2000/svg" viewBox="0 0 16 16" width="16" height="16">
                                <path fill-rule="evenodd" d="M1.5 14.25c0 .138.112.25.25.25H4v-1.25a.75.75 0 01.75-.75h2.5a.75.75 0 01.75.75v1.25h2.25a.25.25 0 00.25-.25V1.75a.25.25 0 00-.25-.25h-8.5a.25.25 0 00-.25.25v12.5zM1.75 16A1.75 1.75 0 010 14.25V1.75C0 .784.784 0 1.75 0h8.5C11.216 0 12 .784 12 1.75v12.5c0 .085-.006.168-.018.25h2.268a.25.25 0 00.25-.25V8.285a.25.25 0 00-.111-.208l-1.055-.703a.75.75 0 11.832-1.248l1.055.703c.487.325.779.871.779 1.456v5.965A1.75 1.75 0 0114.25 16h-3.5a.75.75 0 01-.197-.026c-.099.017-.2.026-.303.026h-3a.75.75 0 01-.75-.75V14h-1v1.25a.75.75 0 01-.75.75h-3zM3 3.75A.75.75 0 013.75 3h.5a.75.75 0 010 1.5h-.5A.75.75 0 013 3.75zM3.75 6a.75.75 0 000 1.5h.5a.75.75 0 000-1.5h-.5zM3 9.75A.75.75 0 013.75 9h.5a.75.75 0 010 1.5h-.5A.75.75 0 013 9.75zM7.75 9a.75.75 0 000 1.5h.5a.75.75 0 000-1.5h-.5zM7 6.75A.75.75 0 017.75 6h.5a.75.75 0 010 1.5h-.5A.75.75 0 017 6.75zM7.75 3a.75.75 0 000 1.5h.5a.75.75 0 000-1.5h-.5z"/>
                            </svg>
                            MS
                        </div>
                        <div class="field">
                            <svg xmlns="http://www.w3.org/2000/svg" viewBox="0 0 16 16" width="16" height="16">
                                <path fill-rule="evenodd" d="M6 2a.75.75 0 01.696.471L10 10.731l1.304-3.26A.75.75 0 0112 7h3.25a.75.75 0 010 1.5h-2.742l-1.812 4.528a.75.75 0 01-1.392 0L6 4.77 4.696 8.03A.75.75 0 014 8.5H.75a.75.75 0 010-1.5h2.742l1.812-4.529A.75.75 0 016 2z"/>
                            </svg>
                            Valued at 210.25 USD
                        </div>
                    </section>
                    <section>
                        <div class="field">
                            <svg xmlns="http://www.w3.org/2000/svg" viewBox="0 0 16 16" width="16" height="16">
                                <path fill-rule="evenodd" d="M4.75 0a.75.75 0 01.75.75V2h5V.75a.75.75 0 011.5 0V2h1.25c.966 0 1.75.784 1.75 1.75v10.5A1.75 1.75 0 0113.25 16H2.75A1.75 1.75 0 011 14.25V3.75C1 2.784 1.784 2 2.75 2H4V.75A.75.75 0 014.75 0zm0 3.5h8.5a.25.25 0 01.25.25V6h-11V3.75a.25.25 0 01.25-.25h2zm-2.25 4v6.75c0 .138.112.25.25.25h10.5a.25.25 0 00.25-.25V7.5h-11z"/>
                            </svg>
                            Last five days
                        </div>
                        <div class="field">
                            <svg xmlns="http://www.w3.org/2000/svg" viewBox="0 0 16 16" width="16" height="16">
                                <path fill-rule="evenodd" d="M13.03 8.22a.75.75 0 010 1.06l-4.25 4.25a.75.75 0 01-1.06 0L3.47 9.28a.75.75 0 011.06-1.06l2.97 2.97V3.75a.75.75 0 011.5 0v7.44l2.97-2.97a.75.75 0 011.06 0z"/>
                            </svg>
                            -1.99 USD (-0.95%)
                        </div>
                    </section>
                </div>
                <div class="stock-chart">
                    <svg xmlns="http://www.w3.org/2000/svg" width="480" height="200">
                        <g transform="translate(10,155)" fill="none" font-size="10" font-family="sans-serif" text-anchor="middle">
                            <path class="domain" stroke="rgba(127, 127, 127, .8)" d="M10.5,0.5H460.5"/>
                            <g class="tick" opacity="1" transform="translate(21.755412759260963,0)">
                                <line stroke="currentColor" y2="6" stroke-opacity="0.5"/>
                                <text fill="rgba(127, 127, 127, .8)" y="9" dy="0.71em" transform="translate(-5,5) rotate(-45)" style="text-anchor: end;">12 PM</text>
                            </g>
                            <g class="tick" opacity="1" transform="translate(55.52165103704386,0)">
                                <line stroke="currentColor" y2="6" stroke-opacity="0.5"/>
                                <text fill="rgba(127, 127, 127, .8)" y="9" dy="0.71em" transform="translate(-5,5) rotate(-45)" style="text-anchor: end;">Thu 04</text>
                            </g>
                            <g class="tick" opacity="1" transform="translate(89.28788931482674,0)">
                                <line stroke="currentColor" y2="6" stroke-opacity="0.5"/>
                                <text fill="rgba(127, 127, 127, .8)" y="9" dy="0.71em" transform="translate(-5,5) rotate(-45)" style="text-anchor: end;">12 PM</text>
                            </g>
                            <g class="tick" opacity="1" transform="translate(123.05412759260963,0)">
                                <line stroke="currentColor" y2="6" stroke-opacity="0.5"/>
                                <text fill="rgba(127, 127, 127, .8)" y="9" dy="0.71em" transform="translate(-5,5) rotate(-45)" style="text-anchor: end;">Fri 05</text>
                            </g>
                            <g class="tick" opacity="1" transform="translate(156.82036587039252,0)">
                                <line stroke="currentColor" y2="6" stroke-opacity="0.5"/>
                                <text fill="rgba(127, 127, 127, .8)" y="9" dy="0.71em" transform="translate(-5,5) rotate(-45)" style="text-anchor: end;">12 PM</text>
                            </g>
                            <g class="tick" opacity="1" transform="translate(190.58660414817544,0)">
                                <line stroke="currentColor" y2="6" stroke-opacity="0.5"/>
                                <text fill="rgba(127, 127, 127, .8)" y="9" dy="0.71em" transform="translate(-5,5) rotate(-45)" style="text-anchor: end;">Sat 06</text>
                            </g>
                            <g class="tick" opacity="1" transform="translate(224.35284242595833,0)">
                                <line stroke="currentColor" y2="6" stroke-opacity="0.5"/>
                                <text fill="rgba(127, 127, 127, .8)" y="9" dy="0.71em" transform="translate(-5,5) rotate(-45)" style="text-anchor: end;">12 PM</text>
                            </g>
                            <g class="tick" opacity="1" transform="translate(258.1190807037412,0)">
                                <line stroke="currentColor" y2="6" stroke-opacity="0.5"/>
                                <text fill="rgba(127, 127, 127, .8)" y="9" dy="0.71em" transform="translate(-5,5) rotate(-45)" style="text-anchor: end;">Jun 07</text>
                            </g>
                            <g class="tick" opacity="1" transform="translate(291.88531898152405,0)">
                                <line stroke="currentColor" y2="6" stroke-opacity="0.5"/>
                                <text fill="rgba(127, 127, 127, .8)" y="9" dy="0.71em" transform="translate(-5,5) rotate(-45)" style="text-anchor: end;">12 PM</text>
                            </g>
                            <g class="tick" opacity="1" transform="translate(325.65155725930697,0)">
                                <line stroke="currentColor" y2="6" stroke-opacity="0.5"/>
                                <text fill="rgba(127, 127, 127, .8)" y="9" dy="0.71em" transform="translate(-5,5) rotate(-45)" style="text-anchor: end;">Mon 08</text>
                            </g>
                            <g class="tick" opacity="1" transform="translate(359.4177955370899,0)">
                                <line stroke="currentColor" y2="6" stroke-opacity="0.5"/>
                                <text fill="rgba(127, 127, 127, .8)" y="9" dy="0.71em" transform="translate(-5,5) rotate(-45)" style="text-anchor: end;">12 PM</text>
                            </g>
                            <g class="tick" opacity="1" transform="translate(393.1840338148728,0)">
                                <line stroke="currentColor" y2="6" stroke-opacity="0.5"/>
                                <text fill="rgba(127, 127, 127, .8)" y="9" dy="0.71em" transform="translate(-5,5) rotate(-45)" style="text-anchor: end;">Tue 09</text>
                            </g>
                            <g class="tick" opacity="1" transform="translate(426.95027209265567,0)">
                                <line stroke="currentColor" y2="6" stroke-opacity="0.5"/>
                                <text fill="rgba(127, 127, 127, .8)" y="9" dy="0.71em" transform="translate(-5,5) rotate(-45)" style="text-anchor: end;">12 PM</text>
                            </g>
                        </g>
                        <g transform="translate(10,10)" fill="none" font-size="10" font-family="sans-serif" text-anchor="start">
                            <g class="tick" opacity="1" transform="translate(0,53.69145507976894)">
                                <line stroke="currentColor" x2="460" stroke-opacity="0.5" stroke-dasharray="2,2"/>
                                <text fill="rgba(127, 127, 127, .8)" x="0" dy="-4">215</text>
                            </g>
                            <g class="tick" opacity="1" transform="translate(0,106.88293420805817)">
                                <line stroke="currentColor" x2="460" stroke-opacity="0.5" stroke-dasharray="2,2"/>
                                <text fill="rgba(127, 127, 127, .8)" x="0" dy="-4">210</text>
                            </g>
                        </g>
                        <path transform="translate(10,10)" d="M10,78.298L10.234,80.851L10.469,79.681L10.703,79.787L10.938,93.511L11.172,92.234L11.407,91.702L11.641,94.681L11.876,94.681L12.11,87.234L12.345,94.149L12.579,79.255L12.814,85.106L13.048,85.425L13.283,85.425L13.517,92.553L13.752,82.66L13.986,89.255L14.221,93.404L14.455,94.468L14.69,98.298L14.924,98.191L15.159,100.425L15.393,99.043L15.628,100.851L15.862,100.532L16.097,100.957L16.331,106.17L16.566,106.383L16.8,105.425L17.035,105.425L17.269,106.064L17.504,100.532L17.738,105.106L17.973,105.106L18.207,97.447L18.442,102.553L18.676,100L18.911,100.213L19.145,97.872L19.38,86.808L19.614,88.191L19.848,85.638L20.083,85.213L20.317,87.66L20.552,77.34L20.786,77.021L21.021,77.66L21.255,81.915L21.49,73.794L21.724,84.043L21.959,74.468L22.193,79.787L22.428,85.106L22.662,79.787L22.897,83.5L23.131,82.34L23.366,79.787L23.6,79.787L23.835,83.83L24.069,83.83L24.304,84.362L24.538,79.787L25.476,73.638L25.711,103.617L25.945,99.042L26.18,102.766L26.414,98.723L26.649,92.34L26.883,97.128L27.118,94.427L27.352,100.851L27.587,116.702L27.821,106.33L28.056,104.787L28.29,103.723L28.525,103.936L28.759,111.702L28.994,115.851L29.228,117.128L29.462,114.362L29.697,111.543L29.931,113.511L30.166,110.585L30.4,105.957L30.635,106.223L30.869,105.213L31.104,106.489L31.338,109.894L31.573,109.894L31.807,109.894L32.042,111.915L32.276,110.106L32.511,108.191L32.745,105.106L32.98,105.266L33.214,102.128L33.449,106.17L33.683,100.957L33.918,100.319L34.152,100.213L34.387,97.606L34.621,101.064L34.856,101.064L35.09,100.106L35.325,90.16L35.559,99.149L35.794,102.021L36.028,98.405L36.263,98.723L36.497,100L36.732,98.138L36.966,96.383L37.201,99.362L37.435,98.617L37.67,94.894L37.904,95.638L38.139,93.617L38.373,94.149L38.608,92.979L38.842,93.723L39.076,95.106L39.311,93.138L39.545,94.468L39.78,93.511L40.014,92.181L40.249,93.404L40.483,93.617L40.718,92.021L40.952,92.766L41.187,92.66L41.421,94.894L41.656,92.34L41.89,93.83L42.125,95.532L42.359,100.213L42.594,101.809L42.828,101.17L43.063,98.101L43.297,100.745L43.532,104.468L43.766,104.894L44.001,105.101L44.235,108.531L44.47,105.213L44.704,105.106L44.939,105.106L45.173,105.194L45.408,83.245L45.642,92.766L45.877,95.745L46.111,106.383L46.346,106.277L46.58,105.239L46.815,105.239L47.049,88.83L47.284,109.043L47.518,105.319L47.753,87.66L47.987,108.232L48.222,106.383L48.456,106.383L48.69,109.043L48.925,109.043L49.159,88.298L49.394,88.511L49.628,90.425L49.863,86.17L50.097,105.745L50.332,86.596L50.566,86.915L50.801,87.234L51.035,87.234L51.27,95L51.504,87.872L51.739,95.213L51.973,76.596L52.208,95.745L52.677,86.489L52.911,85.106L53.146,86.702L53.38,95L53.615,94.681L53.849,94.681L54.084,97.66L54.318,96.805L54.553,96.915L54.787,95.851L77.532,103.617L77.767,97.553L78.236,99.574L78.47,99.574L78.939,91.277L79.174,87.766L79.643,87.766L79.877,99.787L80.112,98.191L80.346,91.596L80.581,91.596L80.815,91.702L81.05,88.404L81.284,85.106L81.988,88.936L82.222,88.936L82.457,95.213L82.691,95.745L83.16,92.128L83.395,92.128L83.629,88.936L83.864,88.936L84.333,88.936L85.036,88.936L85.271,84.149L85.505,84.894L85.74,84.681L85.974,101.064L86.209,92.021L86.443,82.872L86.677,93.511L86.912,87.234L87.146,89.362L87.381,89.574L87.615,93.404L87.85,93.298L88.084,89.362L88.319,87.447L88.553,87.34L88.788,92.872L89.022,87.234L89.257,87.021L89.491,89.787L89.726,85.917L89.96,85.913L90.195,85.638L90.429,90.425L90.664,83.407L90.898,82.021L91.133,90.638L91.367,74.468L91.602,95.745L91.836,74.468L92.071,74.468L93.009,83.723L93.243,81.569L93.478,68.511L93.712,60.532L93.947,60.904L94.181,60.213L94.416,57.181L94.65,54.362L94.885,56.596L95.119,52.447L95.354,41.436L95.588,52.792L95.823,52.872L96.057,51.915L96.291,51.17L96.526,51.17L96.76,49.628L96.995,43.83L97.229,38.936L97.464,37.128L97.698,35.904L97.933,31.277L98.167,25.319L98.402,19.362L98.636,19.84L98.871,20.692L99.105,26.914L99.34,27.234L99.574,27.979L99.809,25.16L100.043,24.255L100.278,22.553L100.512,22.872L100.747,20.425L100.981,17.66L101.216,15.638L101.45,16.436L101.685,14.149L101.919,13.564L102.154,11.702L102.388,11.117L102.623,10L102.857,13.511L103.092,20.957L103.326,23.298L103.561,23.829L103.795,19.681L104.03,23.245L104.264,26.489L104.499,25L104.733,25.584L104.968,23.032L105.202,22.181L105.437,19.149L105.671,21.064L105.905,23.404L106.14,22.34L106.374,22.766L106.609,19.042L106.843,22.394L107.078,20.106L107.312,20.266L107.547,20.532L107.781,17.667L108.016,15.692L108.25,13.936L108.485,15.372L108.719,15.319L108.954,18.138L109.188,16.436L109.423,14.681L109.657,13.723L109.892,15.425L110.126,17.963L110.361,20.425L110.595,15.692L110.83,20.213L111.064,18.936L111.299,18.617L111.533,18.404L111.768,18.404L112.002,18.617L112.237,22.021L112.471,18.511L112.706,18.83L112.94,19.468L113.175,19.468L113.409,19.468L113.644,19.255L113.878,19.468L114.113,19.362L114.347,21.277L114.582,18.404L114.816,19.255L115.051,20.426L115.285,19.255L115.519,32.979L115.754,19.255L116.223,21.489L116.457,18.723L116.692,18.511L116.926,18.936L117.161,11.702L117.395,12.34L117.63,12.34L117.864,22.043L118.099,12.191L118.333,13.511L118.568,12.064L118.802,19.043L119.037,11.702L119.271,12.34L119.506,13.83L119.975,13.83L120.209,18.085L120.444,18.617L120.678,16.489L120.913,16.17L121.147,20.426L121.382,21.277L121.616,20.585L121.851,16.489L122.085,20.032L122.32,17.553L145.065,18.085L145.299,18.085L145.534,18.085L145.768,17.766L146.003,47.869L146.472,17.766L146.706,18.085L146.941,13.191L147.41,13.191L147.644,18.085L148.113,18.085L148.817,17.447L149.286,20.431L149.52,15.426L149.755,15L149.989,15L150.224,15.426L150.693,15.426L150.927,13.404L151.631,15.957L151.865,15.957L152.1,17.021L152.334,15.957L152.569,16.702L152.803,15.213L153.038,16.702L153.272,21.915L153.507,23.405L153.741,20.654L153.975,17.731L154.21,20.745L154.444,21.277L154.913,21.17L155.148,21.277L155.382,19.681L155.617,19.366L156.086,20.426L156.32,23.278L156.555,24.043L157.024,24.149L157.258,23.404L157.493,21.383L157.727,53.191L157.962,22.872L158.196,22.34L158.431,21.383L158.665,20.173L158.9,21.489L159.134,21.915L159.369,26.596L159.603,21.277L160.541,45.532L160.776,67.34L161.01,75L161.245,74.043L161.479,53.005L161.714,60.904L161.948,50.745L162.183,46.489L162.417,48.67L162.652,41.808L162.886,48.972L163.121,55.426L163.355,48.83L163.589,43.723L163.824,46.596L164.058,44.362L164.293,41.223L164.527,42.553L164.762,45.213L164.996,47.766L165.231,45.798L165.465,46.277L165.7,47.979L165.934,50.638L166.169,52.872L166.403,56.17L166.638,61.17L166.872,59.574L167.107,59.787L167.341,58.989L167.576,59.043L167.81,67.127L168.045,72.234L168.279,73.404L168.514,80.771L168.748,81.596L168.983,83.085L169.217,81.17L169.452,90.213L169.686,84.574L169.921,77.766L170.155,78.085L170.39,80.957L170.624,84.574L170.859,89.255L171.093,88.67L171.328,83.83L171.562,81.915L171.797,82.34L172.031,79.255L172.266,86.17L172.5,87.713L172.735,85.532L172.969,82.021L173.203,86.809L173.438,86.436L173.672,85.425L173.907,83.351L174.141,82.445L174.376,82.766L174.61,82.447L174.845,83.298L175.079,85.319L175.314,85.851L175.548,87.66L175.783,84.468L176.017,81.117L176.252,84.149L176.486,85.957L176.721,91.383L176.955,89.894L177.19,87.766L177.424,85.957L177.659,84.681L177.893,88.511L178.128,85.585L178.362,83.298L178.597,84.681L178.831,85.851L179.066,85.851L179.3,85.851L179.535,89.362L179.769,89.468L180.004,92.085L180.238,88.83L180.473,92.234L180.707,87.447L180.942,85.851L181.176,18.404L181.411,87.872L181.645,91.915L181.88,88.723L182.114,95.745L182.349,92.872L182.583,91.277L182.817,91.489L183.052,89.574L183.286,92.365L183.521,89.362L183.755,89.894L183.99,89.787L184.224,90.532L184.459,89.468L184.693,93.617L185.162,90.106L185.397,93.191L185.631,93.191L185.866,89.894L186.1,93.617L186.335,93.191L186.569,89.468L186.804,92.553L187.038,90.425L187.273,90.213L187.507,92.553L187.742,91.489L187.976,89.894L188.211,90.106L188.445,89.362L188.68,91.489L188.914,91.489L189.383,91.489L189.618,89.468L189.852,93.617L347.662,101.702L347.897,100.851L348.131,93.085L348.366,93.085L348.835,95.745L349.069,60L349.304,98.723L350.476,61.043L351.18,83.191L351.649,84.468L351.883,84.468L352.587,84.468L352.821,65.638L353.056,68.511L353.29,68.511L353.525,59.894L353.759,60.933L354.463,63.83L354.697,68.796L354.932,67.553L355.4,69.255L355.635,69.255L356.104,63.937L356.338,82.354L356.573,60.814L356.807,61.378L357.276,71.702L357.511,70.638L357.745,70.745L357.98,64.017L358.214,64.043L358.449,69.149L358.683,68.617L358.918,71.702L359.152,68.191L359.387,65.106L359.621,64.149L359.856,64.149L360.09,67.021L360.325,65.425L360.559,71.383L360.794,60.622L361.028,69.149L361.263,74.468L361.497,66.915L361.732,74.468L361.966,61.788L362.201,74.681L363.139,58.298L363.373,66.277L363.608,54.415L363.842,50.798L364.077,50.213L364.311,58.404L364.546,53.936L364.78,53.085L365.014,51.596L365.249,51.596L365.483,58.723L365.718,59.255L365.952,56.596L366.187,52.447L366.421,57.34L366.656,57.128L366.89,51.064L367.125,45.532L367.359,51.383L367.594,50.427L367.828,52.287L368.063,53.351L368.297,52.128L368.532,56.489L368.766,57.66L369.001,55.106L369.235,52.447L369.47,51.596L369.704,48.378L369.939,52.181L370.173,51.33L370.408,51.33L370.642,50.479L370.877,48.191L371.111,48.404L371.346,48.085L371.58,49.937L371.815,53.191L372.049,52.447L372.284,51.862L372.518,51.17L372.753,52.553L372.987,57.66L373.222,57.553L373.456,61.596L373.691,63.191L373.925,62.979L374.16,60.798L374.394,67.66L374.628,66.489L374.863,65.106L375.097,63.404L375.332,65.319L375.566,67.128L375.801,63.457L376.035,63.936L376.27,67.34L376.504,65.319L376.739,65.16L376.973,67.34L377.208,68.005L377.442,70.957L377.677,70.107L377.911,69.947L378.146,69.415L378.38,72.819L378.615,71.065L378.849,75.319L379.084,77.128L379.318,78.085L379.553,80.957L379.787,82.128L380.022,84.468L380.256,85.16L380.491,86.649L380.725,86.17L380.96,84.681L381.194,82.872L381.429,82.872L381.663,75.525L381.898,82.021L382.132,80.638L382.367,82.021L382.601,81.808L382.836,83.404L383.07,83.723L383.539,84.043L383.773,84.043L384.008,84.043L384.477,80.851L384.711,82.553L384.946,81.266L385.18,81.915L385.415,82.979L385.649,83.404L385.884,83.404L386.587,80.851L387.056,80.891L387.291,83.404L387.525,81.383L387.76,85.106L387.994,85.106L388.229,85.106L388.463,84.468L388.698,81.107L388.932,81.107L390.339,52.367L390.574,79.255L390.808,79.787L391.277,79.787L391.981,80.851L392.215,80.851L392.45,80.851L415.195,63.83L415.429,58.723L416.133,59.574L416.367,24.894L416.602,69.574L417.071,63.617L417.54,64.574L417.774,63.83L418.009,73.191L418.478,54.468L418.712,55.213L419.416,55.213L420.119,55.213L420.588,55.213L421.057,68.404L422.229,68.404L422.698,62.766L422.933,62.766L423.167,62.766L423.636,73.723L424.34,73.723L424.574,73.723L424.809,73.511L425.043,68.404L425.278,73.404L425.512,73.298L425.747,65.106L425.981,71.808L426.216,65.618L426.45,64.574L426.685,64.453L426.919,64.283L427.154,64.681L427.388,64.681L427.623,64.574L427.857,64.574L428.092,64.043L428.326,68.936L428.561,64.043L428.795,65.425L429.264,67.553L429.499,63.83L429.733,63.83L430.671,61.808L430.906,70.638L431.14,68.191L431.375,65.213L431.609,65.106L431.843,58.126L432.078,63.351L432.312,56.33L432.547,70.798L432.781,81.011L433.016,68.298L433.25,72.66L433.485,77.447L433.719,86.09L433.954,93.511L434.188,116.223L434.423,102.553L434.657,94.149L434.892,100.798L435.126,100.319L435.361,106.383L435.595,118.723L435.83,123.776L436.064,136.596L436.299,133.617L436.533,130.479L436.768,125.851L437.002,127.34L437.237,125.926L437.471,134.947L437.706,128.298L437.94,129.629L438.175,132.66L438.409,137.872L438.644,129.043L438.878,127.553L439.113,127.979L439.347,144.042L439.582,141.915L439.816,141.064L440.051,145L440.285,140L440.52,130.638L440.754,125.638L440.989,127.66L441.223,122.66L441.457,117.766L441.692,118.511L441.926,113.723L442.161,108.404L442.395,105.957L442.63,106.702L442.864,100.638L443.099,102.553L443.333,101.17L443.568,99.468L443.802,106.383L444.037,105L444.271,105.159L444.506,103.617L444.74,101.809L444.975,101.809L445.209,107.872L445.444,106.596L445.678,104.516L445.913,103.83L446.147,101.597L446.382,103.191L446.616,104.894L446.851,110.053L447.085,109.894L447.32,111.117L447.554,113.404L447.789,115.319L448.023,114.681L448.258,110.957L448.492,105.319L448.727,103.936L448.961,95.851L449.196,103.723L449.43,103.617L449.665,100.638L449.899,103.936L450.134,138.298L450.368,121.275L450.603,104.255L450.837,107.447L451.071,129.903L451.306,116.915L451.54,94.149L452.009,94.149L452.244,107.979L452.478,111.702L452.713,109.255L452.947,110.106L453.182,110.532L453.416,103.723L453.651,103.723L453.885,107.979L454.12,110.532L454.354,105.452L454.589,103.83L454.823,103.723L455.058,103.83L455.292,103.83L455.761,111.702L455.996,106.383L456.699,116.915L456.934,116.915L457.637,105.319L457.872,116.454L458.106,116.454L458.575,119.447L458.81,116.663L459.279,117.021L459.513,105.319L459.982,115.851L460,115.851" fill="transparent" stroke="#87ceeb" stroke-width="2"/>
                        <path transform="translate(10,10)" d="M10,145L10.234,145L10.469,145L10.703,145L10.938,145L11.172,145L11.407,145L11.641,145L11.876,145L12.11,145L12.345,145L12.579,145L12.814,145L13.048,145L13.283,145L13.517,145L13.752,145L13.986,145L14.221,145L14.455,145L14.69,145L14.924,145L15.159,145L15.393,145L15.628,145L15.862,145L16.097,145L16.331,145L16.566,145L16.8,145L17.035,145L17.269,145L17.504,145L17.738,145L17.973,145L18.207,145L18.442,145L18.676,145L18.911,145L19.145,145L19.38,145L19.614,145L19.848,145L20.083,145L20.317,145L20.552,145L20.786,145L21.021,145L21.255,145L21.49,145L21.724,145L21.959,145L22.193,145L22.428,145L22.662,145L22.897,145L23.131,145L23.366,145L23.6,145L23.835,145L24.069,145L24.304,145L24.538,145L25.476,145L25.711,145L25.945,145L26.18,145L26.414,145L26.649,145L26.883,145L27.118,145L27.352,145L27.587,145L27.821,145L28.056,145L28.29,145L28.525,145L28.759,145L28.994,145L29.228,145L29.462,145L29.697,145L29.931,145L30.166,145L30.4,145L30.635,145L30.869,145L31.104,145L31.338,145L31.573,145L31.807,145L32.042,145L32.276,145L32.511,145L32.745,145L32.98,145L33.214,145L33.449,145L33.683,145L33.918,145L34.152,145L34.387,145L34.621,145L34.856,145L35.09,145L35.325,145L35.559,145L35.794,145L36.028,145L36.263,145L36.497,145L36.732,145L36.966,145L37.201,145L37.435,145L37.67,145L37.904,145L38.139,145L38.373,145L38.608,145L38.842,145L39.076,145L39.311,145L39.545,145L39.78,145L40.014,145L40.249,145L40.483,145L40.718,145L40.952,145L41.187,145L41.421,145L41.656,145L41.89,145L42.125,145L42.359,145L42.594,145L42.828,145L43.063,145L43.297,145L43.532,145L43.766,145L44.001,145L44.235,145L44.47,145L44.704,145L44.939,145L45.173,145L45.408,145L45.642,145L45.877,145L46.111,145L46.346,145L46.58,145L46.815,145L47.049,145L47.284,145L47.518,145L47.753,145L47.987,145L48.222,145L48.456,145L48.69,145L48.925,145L49.159,145L49.394,145L49.628,145L49.863,145L50.097,145L50.332,145L50.566,145L50.801,145L51.035,145L51.27,145L51.504,145L51.739,145L51.973,145L52.208,145L52.677,145L52.911,145L53.146,145L53.38,145L53.615,145L53.849,145L54.084,145L54.318,145L54.553,145L54.787,145L77.532,145L77.767,145L78.236,145L78.47,145L78.939,145L79.174,145L79.643,145L79.877,145L80.112,145L80.346,145L80.581,145L80.815,145L81.05,145L81.284,145L81.988,145L82.222,145L82.457,145L82.691,145L83.16,145L83.395,145L83.629,145L83.864,145L84.333,145L85.036,145L85.271,145L85.505,145L85.74,145L85.974,145L86.209,145L86.443,145L86.677,145L86.912,145L87.146,145L87.381,145L87.615,145L87.85,145L88.084,145L88.319,145L88.553,145L88.788,145L89.022,145L89.257,145L89.491,145L89.726,145L89.96,145L90.195,145L90.429,145L90.664,145L90.898,145L91.133,145L91.367,145L91.602,145L91.836,145L92.071,145L93.009,145L93.243,145L93.478,145L93.712,145L93.947,145L94.181,145L94.416,145L94.65,145L94.885,145L95.119,145L95.354,145L95.588,145L95.823,145L96.057,145L96.291,145L96.526,145L96.76,145L96.995,145L97.229,145L97.464,145L97.698,145L97.933,145L98.167,145L98.402,145L98.636,145L98.871,145L99.105,145L99.34,145L99.574,145L99.809,145L100.043,145L100.278,145L100.512,145L100.747,145L100.981,145L101.216,145L101.45,145L101.685,145L101.919,145L102.154,145L102.388,145L102.623,145L102.857,145L103.092,145L103.326,145L103.561,145L103.795,145L104.03,145L104.264,145L104.499,145L104.733,145L104.968,145L105.202,145L105.437,145L105.671,145L105.905,145L106.14,145L106.374,145L106.609,145L106.843,145L107.078,145L107.312,145L107.547,145L107.781,145L108.016,145L108.25,145L108.485,145L108.719,145L108.954,145L109.188,145L109.423,145L109.657,145L109.892,145L110.126,145L110.361,145L110.595,145L110.83,145L111.064,145L111.299,145L111.533,145L111.768,145L112.002,145L112.237,145L112.471,145L112.706,145L112.94,145L113.175,145L113.409,145L113.644,145L113.878,145L114.113,145L114.347,145L114.582,145L114.816,145L115.051,145L115.285,145L115.519,145L115.754,145L116.223,145L116.457,145L116.692,145L116.926,145L117.161,145L117.395,145L117.63,145L117.864,145L118.099,145L118.333,145L118.568,145L118.802,145L119.037,145L119.271,145L119.506,145L119.975,145L120.209,145L120.444,145L120.678,145L120.913,145L121.147,145L121.382,145L121.616,145L121.851,145L122.085,145L122.32,145L145.065,145L145.299,145L145.534,145L145.768,145L146.003,145L146.472,145L146.706,145L146.941,145L147.41,145L147.644,145L148.113,145L148.817,145L149.286,145L149.52,145L149.755,145L149.989,145L150.224,145L150.693,145L150.927,145L151.631,145L151.865,145L152.1,145L152.334,145L152.569,145L152.803,145L153.038,145L153.272,145L153.507,145L153.741,145L153.975,145L154.21,145L154.444,145L154.913,145L155.148,145L155.382,145L155.617,145L156.086,145L156.32,145L156.555,145L157.024,145L157.258,145L157.493,145L157.727,145L157.962,145L158.196,145L158.431,145L158.665,145L158.9,145L159.134,145L159.369,145L159.603,145L160.541,145L160.776,145L161.01,145L161.245,145L161.479,145L161.714,145L161.948,145L162.183,145L162.417,145L162.652,145L162.886,145L163.121,145L163.355,145L163.589,145L163.824,145L164.058,145L164.293,145L164.527,145L164.762,145L164.996,145L165.231,145L165.465,145L165.7,145L165.934,145L166.169,145L166.403,145L166.638,145L166.872,145L167.107,145L167.341,145L167.576,145L167.81,145L168.045,145L168.279,145L168.514,145L168.748,145L168.983,145L169.217,145L169.452,145L169.686,145L169.921,145L170.155,145L170.39,145L170.624,145L170.859,145L171.093,145L171.328,145L171.562,145L171.797,145L172.031,145L172.266,145L172.5,145L172.735,145L172.969,145L173.203,145L173.438,145L173.672,145L173.907,145L174.141,145L174.376,145L174.61,145L174.845,145L175.079,145L175.314,145L175.548,145L175.783,145L176.017,145L176.252,145L176.486,145L176.721,145L176.955,145L177.19,145L177.424,145L177.659,145L177.893,145L178.128,145L178.362,145L178.597,145L178.831,145L179.066,145L179.3,145L179.535,145L179.769,145L180.004,145L180.238,145L180.473,145L180.707,145L180.942,145L181.176,145L181.411,145L181.645,145L181.88,145L182.114,145L182.349,145L182.583,145L182.817,145L183.052,145L183.286,145L183.521,145L183.755,145L183.99,145L184.224,145L184.459,145L184.693,145L185.162,145L185.397,145L185.631,145L185.866,145L186.1,145L186.335,145L186.569,145L186.804,145L187.038,145L187.273,145L187.507,145L187.742,145L187.976,145L188.211,145L188.445,145L188.68,145L188.914,145L189.383,145L189.618,145L189.852,145L347.662,145L347.897,145L348.131,145L348.366,145L348.835,145L349.069,145L349.304,145L350.476,145L351.18,145L351.649,145L351.883,145L352.587,145L352.821,145L353.056,145L353.29,145L353.525,145L353.759,145L354.463,145L354.697,145L354.932,145L355.4,145L355.635,145L356.104,145L356.338,145L356.573,145L356.807,145L357.276,145L357.511,145L357.745,145L357.98,145L358.214,145L358.449,145L358.683,145L358.918,145L359.152,145L359.387,145L359.621,145L359.856,145L360.09,145L360.325,145L360.559,145L360.794,145L361.028,145L361.263,145L361.497,145L361.732,145L361.966,145L362.201,145L363.139,145L363.373,145L363.608,145L363.842,145L364.077,145L364.311,145L364.546,145L364.78,145L365.014,145L365.249,145L365.483,145L365.718,145L365.952,145L366.187,145L366.421,145L366.656,145L366.89,145L367.125,145L367.359,145L367.594,145L367.828,145L368.063,145L368.297,145L368.532,145L368.766,145L369.001,145L369.235,145L369.47,145L369.704,145L369.939,145L370.173,145L370.408,145L370.642,145L370.877,145L371.111,145L371.346,145L371.58,145L371.815,145L372.049,145L372.284,145L372.518,145L372.753,145L372.987,145L373.222,145L373.456,145L373.691,145L373.925,145L374.16,145L374.394,145L374.628,145L374.863,145L375.097,145L375.332,145L375.566,145L375.801,145L376.035,145L376.27,145L376.504,145L376.739,145L376.973,145L377.208,145L377.442,145L377.677,145L377.911,145L378.146,145L378.38,145L378.615,145L378.849,145L379.084,145L379.318,145L379.553,145L379.787,145L380.022,145L380.256,145L380.491,145L380.725,145L380.96,145L381.194,145L381.429,145L381.663,145L381.898,145L382.132,145L382.367,145L382.601,145L382.836,145L383.07,145L383.539,145L383.773,145L384.008,145L384.477,145L384.711,145L384.946,145L385.18,145L385.415,145L385.649,145L385.884,145L386.587,145L387.056,145L387.291,145L387.525,145L387.76,145L387.994,145L388.229,145L388.463,145L388.698,145L388.932,145L390.339,145L390.574,145L390.808,145L391.277,145L391.981,145L392.215,145L392.45,145L415.195,145L415.429,145L416.133,145L416.367,145L416.602,145L417.071,145L417.54,145L417.774,145L418.009,145L418.478,145L418.712,145L419.416,145L420.119,145L420.588,145L421.057,145L422.229,145L422.698,145L422.933,145L423.167,145L423.636,145L424.34,145L424.574,145L424.809,145L425.043,145L425.278,145L425.512,145L425.747,145L425.981,145L426.216,145L426.45,145L426.685,145L426.919,145L427.154,145L427.388,145L427.623,145L427.857,145L428.092,145L428.326,145L428.561,145L428.795,145L429.264,145L429.499,145L429.733,145L430.671,145L430.906,145L431.14,145L431.375,145L431.609,145L431.843,145L432.078,145L432.312,145L432.547,145L432.781,145L433.016,145L433.25,145L433.485,145L433.719,145L433.954,145L434.188,145L434.423,145L434.657,145L434.892,145L435.126,145L435.361,145L435.595,145L435.83,145L436.064,145L436.299,145L436.533,145L436.768,145L437.002,145L437.237,145L437.471,145L437.706,145L437.94,145L438.175,145L438.409,145L438.644,145L438.878,145L439.113,145L439.347,145L439.582,145L439.816,145L440.051,145L440.285,145L440.52,145L440.754,145L440.989,145L441.223,145L441.457,145L441.692,145L441.926,145L442.161,145L442.395,145L442.63,145L442.864,145L443.099,145L443.333,145L443.568,145L443.802,145L444.037,145L444.271,145L444.506,145L444.74,145L444.975,145L445.209,145L445.444,145L445.678,145L445.913,145L446.147,145L446.382,145L446.616,145L446.851,145L447.085,145L447.32,145L447.554,145L447.789,145L448.023,145L448.258,145L448.492,145L448.727,145L448.961,145L449.196,145L449.43,145L449.665,145L449.899,145L450.134,145L450.368,145L450.603,145L450.837,145L451.071,145L451.306,145L451.54,145L452.009,145L452.244,145L452.478,145L452.713,145L452.947,145L453.182,145L453.416,145L453.651,145L453.885,145L454.12,145L454.354,145L454.589,145L454.823,145L455.058,145L455.292,145L455.761,145L455.996,145L456.699,145L456.934,145L457.637,145L457.872,145L458.106,145L458.575,145L458.81,145L459.279,145L459.513,145L459.982,145L460,145L460,115.851L459.982,115.851L459.513,105.319L459.279,117.021L458.81,116.663L458.575,119.447L458.106,116.454L457.872,116.454L457.637,105.319L456.934,116.915L456.699,116.915L455.996,106.383L455.761,111.702L455.292,103.83L455.058,103.83L454.823,103.723L454.589,103.83L454.354,105.452L454.12,110.532L453.885,107.979L453.651,103.723L453.416,103.723L453.182,110.532L452.947,110.106L452.713,109.255L452.478,111.702L452.244,107.979L452.009,94.149L451.54,94.149L451.306,116.915L451.071,129.903L450.837,107.447L450.603,104.255L450.368,121.275L450.134,138.298L449.899,103.936L449.665,100.638L449.43,103.617L449.196,103.723L448.961,95.851L448.727,103.936L448.492,105.319L448.258,110.957L448.023,114.681L447.789,115.319L447.554,113.404L447.32,111.117L447.085,109.894L446.851,110.053L446.616,104.894L446.382,103.191L446.147,101.597L445.913,103.83L445.678,104.516L445.444,106.596L445.209,107.872L444.975,101.809L444.74,101.809L444.506,103.617L444.271,105.159L444.037,105L443.802,106.383L443.568,99.468L443.333,101.17L443.099,102.553L442.864,100.638L442.63,106.702L442.395,105.957L442.161,108.404L441.926,113.723L441.692,118.511L441.457,117.766L441.223,122.66L440.989,127.66L440.754,125.638L440.52,130.638L440.285,140L440.051,145L439.816,141.064L439.582,141.915L439.347,144.042L439.113,127.979L438.878,127.553L438.644,129.043L438.409,137.872L438.175,132.66L437.94,129.629L437.706,128.298L437.471,134.947L437.237,125.926L437.002,127.34L436.768,125.851L436.533,130.479L436.299,133.617L436.064,136.596L435.83,123.776L435.595,118.723L435.361,106.383L435.126,100.319L434.892,100.798L434.657,94.149L434.423,102.553L434.188,116.223L433.954,93.511L433.719,86.09L433.485,77.447L433.25,72.66L433.016,68.298L432.781,81.011L432.547,70.798L432.312,56.33L432.078,63.351L431.843,58.126L431.609,65.106L431.375,65.213L431.14,68.191L430.906,70.638L430.671,61.808L429.733,63.83L429.499,63.83L429.264,67.553L428.795,65.425L428.561,64.043L428.326,68.936L428.092,64.043L427.857,64.574L427.623,64.574L427.388,64.681L427.154,64.681L426.919,64.283L426.685,64.453L426.45,64.574L426.216,65.618L425.981,71.808L425.747,65.106L425.512,73.298L425.278,73.404L425.043,68.404L424.809,73.511L424.574,73.723L424.34,73.723L423.636,73.723L423.167,62.766L422.933,62.766L422.698,62.766L422.229,68.404L421.057,68.404L420.588,55.213L420.119,55.213L419.416,55.213L418.712,55.213L418.478,54.468L418.009,73.191L417.774,63.83L417.54,64.574L417.071,63.617L416.602,69.574L416.367,24.894L416.133,59.574L415.429,58.723L415.195,63.83L392.45,80.851L392.215,80.851L391.981,80.851L391.277,79.787L390.808,79.787L390.574,79.255L390.339,52.367L388.932,81.107L388.698,81.107L388.463,84.468L388.229,85.106L387.994,85.106L387.76,85.106L387.525,81.383L387.291,83.404L387.056,80.891L386.587,80.851L385.884,83.404L385.649,83.404L385.415,82.979L385.18,81.915L384.946,81.266L384.711,82.553L384.477,80.851L384.008,84.043L383.773,84.043L383.539,84.043L383.07,83.723L382.836,83.404L382.601,81.808L382.367,82.021L382.132,80.638L381.898,82.021L381.663,75.525L381.429,82.872L381.194,82.872L380.96,84.681L380.725,86.17L380.491,86.649L380.256,85.16L380.022,84.468L379.787,82.128L379.553,80.957L379.318,78.085L379.084,77.128L378.849,75.319L378.615,71.065L378.38,72.819L378.146,69.415L377.911,69.947L377.677,70.107L377.442,70.957L377.208,68.005L376.973,67.34L376.739,65.16L376.504,65.319L376.27,67.34L376.035,63.936L375.801,63.457L375.566,67.128L375.332,65.319L375.097,63.404L374.863,65.106L374.628,66.489L374.394,67.66L374.16,60.798L373.925,62.979L373.691,63.191L373.456,61.596L373.222,57.553L372.987,57.66L372.753,52.553L372.518,51.17L372.284,51.862L372.049,52.447L371.815,53.191L371.58,49.937L371.346,48.085L371.111,48.404L370.877,48.191L370.642,50.479L370.408,51.33L370.173,51.33L369.939,52.181L369.704,48.378L369.47,51.596L369.235,52.447L369.001,55.106L368.766,57.66L368.532,56.489L368.297,52.128L368.063,53.351L367.828,52.287L367.594,50.427L367.359,51.383L367.125,45.532L366.89,51.064L366.656,57.128L366.421,57.34L366.187,52.447L365.952,56.596L365.718,59.255L365.483,58.723L365.249,51.596L365.014,51.596L364.78,53.085L364.546,53.936L364.311,58.404L364.077,50.213L363.842,50.798L363.608,54.415L363.373,66.277L363.139,58.298L362.201,74.681L361.966,61.788L361.732,74.468L361.497,66.915L361.263,74.468L361.028,69.149L360.794,60.622L360.559,71.383L360.325,65.425L360.09,67.021L359.856,64.149L359.621,64.149L359.387,65.106L359.152,68.191L358.918,71.702L358.683,68.617L358.449,69.149L358.214,64.043L357.98,64.017L357.745,70.745L357.511,70.638L357.276,71.702L356.807,61.378L356.573,60.814L356.338,82.354L356.104,63.937L355.635,69.255L355.4,69.255L354.932,67.553L354.697,68.796L354.463,63.83L353.759,60.933L353.525,59.894L353.29,68.511L353.056,68.511L352.821,65.638L352.587,84.468L351.883,84.468L351.649,84.468L351.18,83.191L350.476,61.043L349.304,98.723L349.069,60L348.835,95.745L348.366,93.085L348.131,93.085L347.897,100.851L347.662,101.702L189.852,93.617L189.618,89.468L189.383,91.489L188.914,91.489L188.68,91.489L188.445,89.362L188.211,90.106L187.976,89.894L187.742,91.489L187.507,92.553L187.273,90.213L187.038,90.425L186.804,92.553L186.569,89.468L186.335,93.191L186.1,93.617L185.866,89.894L185.631,93.191L185.397,93.191L185.162,90.106L184.693,93.617L184.459,89.468L184.224,90.532L183.99,89.787L183.755,89.894L183.521,89.362L183.286,92.365L183.052,89.574L182.817,91.489L182.583,91.277L182.349,92.872L182.114,95.745L181.88,88.723L181.645,91.915L181.411,87.872L181.176,18.404L180.942,85.851L180.707,87.447L180.473,92.234L180.238,88.83L180.004,92.085L179.769,89.468L179.535,89.362L179.3,85.851L179.066,85.851L178.831,85.851L178.597,84.681L178.362,83.298L178.128,85.585L177.893,88.511L177.659,84.681L177.424,85.957L177.19,87.766L176.955,89.894L176.721,91.383L176.486,85.957L176.252,84.149L176.017,81.117L175.783,84.468L175.548,87.66L175.314,85.851L175.079,85.319L174.845,83.298L174.61,82.447L174.376,82.766L174.141,82.445L173.907,83.351L173.672,85.425L173.438,86.436L173.203,86.809L172.969,82.021L172.735,85.532L172.5,87.713L172.266,86.17L172.031,79.255L171.797,82.34L171.562,81.915L171.328,83.83L171.093,88.67L170.859,89.255L170.624,84.574L170.39,80.957L170.155,78.085L169.921,77.766L169.686,84.574L169.452,90.213L169.217,81.17L168.983,83.085L168.748,81.596L168.514,80.771L168.279,73.404L168.045,72.234L167.81,67.127L167.576,59.043L167.341,58.989L167.107,59.787L166.872,59.574L166.638,61.17L166.403,56.17L166.169,52.872L165.934,50.638L165.7,47.979L165.465,46.277L165.231,45.798L164.996,47.766L164.762,45.213L164.527,42.553L164.293,41.223L164.058,44.362L163.824,46.596L163.589,43.723L163.355,48.83L163.121,55.426L162.886,48.972L162.652,41.808L162.417,48.67L162.183,46.489L161.948,50.745L161.714,60.904L161.479,53.005L161.245,74.043L161.01,75L160.776,67.34L160.541,45.532L159.603,21.277L159.369,26.596L159.134,21.915L158.9,21.489L158.665,20.173L158.431,21.383L158.196,22.34L157.962,22.872L157.727,53.191L157.493,21.383L157.258,23.404L157.024,24.149L156.555,24.043L156.32,23.278L156.086,20.426L155.617,19.366L155.382,19.681L155.148,21.277L154.913,21.17L154.444,21.277L154.21,20.745L153.975,17.731L153.741,20.654L153.507,23.405L153.272,21.915L153.038,16.702L152.803,15.213L152.569,16.702L152.334,15.957L152.1,17.021L151.865,15.957L151.631,15.957L150.927,13.404L150.693,15.426L150.224,15.426L149.989,15L149.755,15L149.52,15.426L149.286,20.431L148.817,17.447L148.113,18.085L147.644,18.085L147.41,13.191L146.941,13.191L146.706,18.085L146.472,17.766L146.003,47.869L145.768,17.766L145.534,18.085L145.299,18.085L145.065,18.085L122.32,17.553L122.085,20.032L121.851,16.489L121.616,20.585L121.382,21.277L121.147,20.426L120.913,16.17L120.678,16.489L120.444,18.617L120.209,18.085L119.975,13.83L119.506,13.83L119.271,12.34L119.037,11.702L118.802,19.043L118.568,12.064L118.333,13.511L118.099,12.191L117.864,22.043L117.63,12.34L117.395,12.34L117.161,11.702L116.926,18.936L116.692,18.511L116.457,18.723L116.223,21.489L115.754,19.255L115.519,32.979L115.285,19.255L115.051,20.426L114.816,19.255L114.582,18.404L114.347,21.277L114.113,19.362L113.878,19.468L113.644,19.255L113.409,19.468L113.175,19.468L112.94,19.468L112.706,18.83L112.471,18.511L112.237,22.021L112.002,18.617L111.768,18.404L111.533,18.404L111.299,18.617L111.064,18.936L110.83,20.213L110.595,15.692L110.361,20.425L110.126,17.963L109.892,15.425L109.657,13.723L109.423,14.681L109.188,16.436L108.954,18.138L108.719,15.319L108.485,15.372L108.25,13.936L108.016,15.692L107.781,17.667L107.547,20.532L107.312,20.266L107.078,20.106L106.843,22.394L106.609,19.042L106.374,22.766L106.14,22.34L105.905,23.404L105.671,21.064L105.437,19.149L105.202,22.181L104.968,23.032L104.733,25.584L104.499,25L104.264,26.489L104.03,23.245L103.795,19.681L103.561,23.829L103.326,23.298L103.092,20.957L102.857,13.511L102.623,10L102.388,11.117L102.154,11.702L101.919,13.564L101.685,14.149L101.45,16.436L101.216,15.638L100.981,17.66L100.747,20.425L100.512,22.872L100.278,22.553L100.043,24.255L99.809,25.16L99.574,27.979L99.34,27.234L99.105,26.914L98.871,20.692L98.636,19.84L98.402,19.362L98.167,25.319L97.933,31.277L97.698,35.904L97.464,37.128L97.229,38.936L96.995,43.83L96.76,49.628L96.526,51.17L96.291,51.17L96.057,51.915L95.823,52.872L95.588,52.792L95.354,41.436L95.119,52.447L94.885,56.596L94.65,54.362L94.416,57.181L94.181,60.213L93.947,60.904L93.712,60.532L93.478,68.511L93.243,81.569L93.009,83.723L92.071,74.468L91.836,74.468L91.602,95.745L91.367,74.468L91.133,90.638L90.898,82.021L90.664,83.407L90.429,90.425L90.195,85.638L89.96,85.913L89.726,85.917L89.491,89.787L89.257,87.021L89.022,87.234L88.788,92.872L88.553,87.34L88.319,87.447L88.084,89.362L87.85,93.298L87.615,93.404L87.381,89.574L87.146,89.362L86.912,87.234L86.677,93.511L86.443,82.872L86.209,92.021L85.974,101.064L85.74,84.681L85.505,84.894L85.271,84.149L85.036,88.936L84.333,88.936L83.864,88.936L83.629,88.936L83.395,92.128L83.16,92.128L82.691,95.745L82.457,95.213L82.222,88.936L81.988,88.936L81.284,85.106L81.05,88.404L80.815,91.702L80.581,91.596L80.346,91.596L80.112,98.191L79.877,99.787L79.643,87.766L79.174,87.766L78.939,91.277L78.47,99.574L78.236,99.574L77.767,97.553L77.532,103.617L54.787,95.851L54.553,96.915L54.318,96.805L54.084,97.66L53.849,94.681L53.615,94.681L53.38,95L53.146,86.702L52.911,85.106L52.677,86.489L52.208,95.745L51.973,76.596L51.739,95.213L51.504,87.872L51.27,95L51.035,87.234L50.801,87.234L50.566,86.915L50.332,86.596L50.097,105.745L49.863,86.17L49.628,90.425L49.394,88.511L49.159,88.298L48.925,109.043L48.69,109.043L48.456,106.383L48.222,106.383L47.987,108.232L47.753,87.66L47.518,105.319L47.284,109.043L47.049,88.83L46.815,105.239L46.58,105.239L46.346,106.277L46.111,106.383L45.877,95.745L45.642,92.766L45.408,83.245L45.173,105.194L44.939,105.106L44.704,105.106L44.47,105.213L44.235,108.531L44.001,105.101L43.766,104.894L43.532,104.468L43.297,100.745L43.063,98.101L42.828,101.17L42.594,101.809L42.359,100.213L42.125,95.532L41.89,93.83L41.656,92.34L41.421,94.894L41.187,92.66L40.952,92.766L40.718,92.021L40.483,93.617L40.249,93.404L40.014,92.181L39.78,93.511L39.545,94.468L39.311,93.138L39.076,95.106L38.842,93.723L38.608,92.979L38.373,94.149L38.139,93.617L37.904,95.638L37.67,94.894L37.435,98.617L37.201,99.362L36.966,96.383L36.732,98.138L36.497,100L36.263,98.723L36.028,98.405L35.794,102.021L35.559,99.149L35.325,90.16L35.09,100.106L34.856,101.064L34.621,101.064L34.387,97.606L34.152,100.213L33.918,100.319L33.683,100.957L33.449,106.17L33.214,102.128L32.98,105.266L32.745,105.106L32.511,108.191L32.276,110.106L32.042,111.915L31.807,109.894L31.573,109.894L31.338,109.894L31.104,106.489L30.869,105.213L30.635,106.223L30.4,105.957L30.166,110.585L29.931,113.511L29.697,111.543L29.462,114.362L29.228,117.128L28.994,115.851L28.759,111.702L28.525,103.936L28.29,103.723L28.056,104.787L27.821,106.33L27.587,116.702L27.352,100.851L27.118,94.427L26.883,97.128L26.649,92.34L26.414,98.723L26.18,102.766L25.945,99.042L25.711,103.617L25.476,73.638L24.538,79.787L24.304,84.362L24.069,83.83L23.835,83.83L23.6,79.787L23.366,79.787L23.131,82.34L22.897,83.5L22.662,79.787L22.428,85.106L22.193,79.787L21.959,74.468L21.724,84.043L21.49,73.794L21.255,81.915L21.021,77.66L20.786,77.021L20.552,77.34L20.317,87.66L20.083,85.213L19.848,85.638L19.614,88.191L19.38,86.808L19.145,97.872L18.911,100.213L18.676,100L18.442,102.553L18.207,97.447L17.973,105.106L17.738,105.106L17.504,100.532L17.269,106.064L17.035,105.425L16.8,105.425L16.566,106.383L16.331,106.17L16.097,100.957L15.862,100.532L15.628,100.851L15.393,99.043L15.159,100.425L14.924,98.191L14.69,98.298L14.455,94.468L14.221,93.404L13.986,89.255L13.752,82.66L13.517,92.553L13.283,85.425L13.048,85.425L12.814,85.106L12.579,79.255L12.345,94.149L12.11,87.234L11.876,94.681L11.641,94.681L11.407,91.702L11.172,92.234L10.938,93.511L10.703,79.787L10.469,79.681L10.234,80.851L10,78.298Z" fill="rgba(88, 166, 255, .1)"/>
                    </svg>
                </div>
            </section>
        </div>
        <div xmlns="http://www.w3.org/1999/xhtml" id="metrics-end"></div>
    </foreignObject>
</svg>