<svg xmlns="http://www.w3.org/2000/svg" width="480" height="302" class="">
    <defs>
        <style/>
    </defs>
    <style>@keyframes animation-gauge{0%{stroke-dasharray:0 329}}@keyframes animation-rainbow{0%,to{color:#7f00ff;fill:#7f00ff}14%{color:#a933ff;fill:#a933ff}29%{color:#007fff;fill:#007fff}43%{color:#00ff7f;fill:#00ff7f}57%{color:#ff0;fill:#ff0}71%{color:#ff7f00;fill:#ff7f00}86%{color:red;fill:red}}svg{font-family:-apple-system,BlinkMacSystemFont,Segoe UI,Helvetica,Arial,sans-serif,Apple Color Emoji,Segoe UI Emoji;font-size:14px;color:#777}h2{margin:8px 0 2px;padding:0;color:#0366d6;font-weight:400;font-size:16px}h2 svg{fill:currentColor}section&gt;.field{margin-left:5px;margin-right:5px}.field{display:flex;align-items:center;margin-bottom:2px;white-space:nowrap}.field svg{margin:0 8px;fill:#959da5;flex-shrink:0}.row{display:flex;flex-wrap:wrap}.row section{flex:1 1 0}:root{--color-calendar-graph-day-bg:#ebedf0;--color-calendar-graph-day-border:rgba(27,31,35,0.06);--color-calendar-graph-day-L1-bg:#9be9a8;--color-calendar-graph-day-L2-bg:#40c463;--color-calendar-graph-day-L3-bg:#30a14e;--color-calendar-graph-day-L4-bg:#216e39;--color-calendar-halloween-graph-day-L1-bg:#ffee4a;--color-calendar-halloween-graph-day-L2-bg:#ffc501;--color-calendar-halloween-graph-day-L3-bg:#fe9600;--color-calendar-halloween-graph-day-L4-bg:#03001c;--color-calendar-winter-graph-day-L1-bg:#0a3069;--color-calendar-winter-graph-day-L2-bg:#0969da;--color-calendar-winter-graph-day-L3-bg:#54aeff;--color-calendar-winter-graph-day-L4-bg:#b6e3ff;--color-calendar-graph-day-L4-border:rgba(27,31,35,0.06);--color-calendar-graph-day-L3-border:rgba(27,31,35,0.06);--color-calendar-graph-day-L2-border:rgba(27,31,35,0.06);--color-calendar-graph-day-L1-border:rgba(27,31,35,0.06)}#metrics-end{width:100%}</style>
    <style/>
    <foreignObject x="0" y="0" width="100%" height="100%">
        <div xmlns="http://www.w3.org/1999/xhtml" xmlns:xlink="http://www.w3.org/1999/xlink" class="items-wrapper">
            <section>
                <h2 class="field">
                    <svg xmlns="http://www.w3.org/2000/svg" viewBox="0 0 16 16" width="16" height="16">
                        <path d="M10.75 9a.75.75 0 000 1.5h1.5a.75.75 0 000-1.5h-1.5z"/>
                        <path fill-rule="evenodd" d="M0 3.75C0 2.784.784 2 1.75 2h12.5c.966 0 1.75.784 1.75 1.75v8.5A1.75 1.75 0 0114.25 14H1.75A1.75 1.75 0 010 12.25v-8.5zm14.5 0V5h-13V3.75a.25.25 0 01.25-.25h12.5a.25.25 0 01.25.25zm0 2.75h-13v5.75c0 .138.112.25.25.25h12.5a.25.25 0 00.25-.25V6.5z"/>
                    </svg>
                    Stock prices for MS
                </h2>
                <div class="row">
                    <section>
                        <div class="field">
                            <svg xmlns="http://www.w3.org/2000/svg" viewBox="0 0 16 16" width="16" height="16">
                                <path fill-rule="evenodd" d="M1.5 14.25c0 .138.112.25.25.25H4v-1.25a.75.75 0 01.75-.75h2.5a.75.75 0 01.75.75v1.25h2.25a.25.25 0 00.25-.25V1.75a.25.25 0 00-.25-.25h-8.5a.25.25 0 00-.25.25v12.5zM1.75 16A1.75 1.75 0 010 14.25V1.75C0 .784.784 0 1.75 0h8.5C11.216 0 12 .784 12 1.75v12.5c0 .085-.006.168-.018.25h2.268a.25.25 0 00.25-.25V8.285a.25.25 0 00-.111-.208l-1.055-.703a.75.75 0 11.832-1.248l1.055.703c.487.325.779.871.779 1.456v5.965A1.75 1.75 0 0114.25 16h-3.5a.75.75 0 01-.197-.026c-.099.017-.2.026-.303.026h-3a.75.75 0 01-.75-.75V14h-1v1.25a.75.75 0 01-.75.75h-3zM3 3.75A.75.75 0 013.75 3h.5a.75.75 0 010 1.5h-.5A.75.75 0 013 3.75zM3.75 6a.75.75 0 000 1.5h.5a.75.75 0 000-1.5h-.5zM3 9.75A.75.75 0 013.75 9h.5a.75.75 0 010 1.5h-.5A.75.75 0 013 9.75zM7.75 9a.75.75 0 000 1.5h.5a.75.75 0 000-1.5h-.5zM7 6.75A.75.75 0 017.75 6h.5a.75.75 0 010 1.5h-.5A.75.75 0 017 6.75zM7.75 3a.75.75 0 000 1.5h.5a.75.75 0 000-1.5h-.5z"/>
                            </svg>
                            MS
                        </div>
                        <div class="field">
                            <svg xmlns="http://www.w3.org/2000/svg" viewBox="0 0 16 16" width="16" height="16">
                                <path fill-rule="evenodd" d="M6 2a.75.75 0 01.696.471L10 10.731l1.304-3.26A.75.75 0 0112 7h3.25a.75.75 0 010 1.5h-2.742l-1.812 4.528a.75.75 0 01-1.392 0L6 4.77 4.696 8.03A.75.75 0 014 8.5H.75a.75.75 0 010-1.5h2.742l1.812-4.529A.75.75 0 016 2z"/>
                            </svg>
                            Valued at 162.55 USD
                        </div>
                    </section>
                    <section>
                        <div class="field">
                            <svg xmlns="http://www.w3.org/2000/svg" viewBox="0 0 16 16" width="16" height="16">
                                <path fill-rule="evenodd" d="M4.75 0a.75.75 0 01.75.75V2h5V.75a.75.75 0 011.5 0V2h1.25c.966 0 1.75.784 1.75 1.75v10.5A1.75 1.75 0 0113.25 16H2.75A1.75 1.75 0 011 14.25V3.75C1 2.784 1.784 2 2.75 2H4V.75A.75.75 0 014.75 0zm0 3.5h8.5a.25.25 0 01.25.25V6h-11V3.75a.25.25 0 01.25-.25h2zm-2.25 4v6.75c0 .138.112.25.25.25h10.5a.25.25 0 00.25-.25V7.5h-11z"/>
                            </svg>
                            Last five days
                        </div>
                        <div class="field">
                            <svg xmlns="http://www.w3.org/2000/svg" viewBox="0 0 16 16" width="16" height="16">
                                <path fill-rule="evenodd" d="M13.03 8.22a.75.75 0 010 1.06l-4.25 4.25a.75.75 0 01-1.06 0L3.47 9.28a.75.75 0 011.06-1.06l2.97 2.97V3.75a.75.75 0 011.5 0v7.44l2.97-2.97a.75.75 0 011.06 0z"/>
                            </svg>
                            -5.03 USD (-3.09%)
                        </div>
                    </section>
                </div>
                <div class="stock-chart">
                    <svg xmlns="http://www.w3.org/2000/svg" width="480" height="200">
                        <g transform="translate(10,155)" fill="none" font-size="10" font-family="sans-serif" text-anchor="middle">
                            <path class="domain" stroke="rgba(127, 127, 127, .8)" d="M10.5,0.5H460.5"/>
                            <g class="tick" opacity="1" transform="translate(18.94028412149841,0)">
                                <line stroke="currentColor" y2="6" stroke-opacity="0.5"/>
                                <text fill="rgba(127, 127, 127, .8)" y="9" dy="0.71em" transform="translate(-5,5) rotate(-45)" style="text-anchor: end;">12 PM</text>
                            </g>
                            <g class="tick" opacity="1" transform="translate(52.701420607492054,0)">
                                <line stroke="currentColor" y2="6" stroke-opacity="0.5"/>
                                <text fill="rgba(127, 127, 127, .8)" y="9" dy="0.71em" transform="translate(-5,5) rotate(-45)" style="text-anchor: end;">Sat 28</text>
                            </g>
                            <g class="tick" opacity="1" transform="translate(86.4625570934857,0)">
                                <line stroke="currentColor" y2="6" stroke-opacity="0.5"/>
                                <text fill="rgba(127, 127, 127, .8)" y="9" dy="0.71em" transform="translate(-5,5) rotate(-45)" style="text-anchor: end;">12 PM</text>
                            </g>
                            <g class="tick" opacity="1" transform="translate(120.22369357947935,0)">
                                <line stroke="currentColor" y2="6" stroke-opacity="0.5"/>
                                <text fill="rgba(127, 127, 127, .8)" y="9" dy="0.71em" transform="translate(-5,5) rotate(-45)" style="text-anchor: end;">March</text>
                            </g>
                            <g class="tick" opacity="1" transform="translate(153.98483006547298,0)">
                                <line stroke="currentColor" y2="6" stroke-opacity="0.5"/>
                                <text fill="rgba(127, 127, 127, .8)" y="9" dy="0.71em" transform="translate(-5,5) rotate(-45)" style="text-anchor: end;">12 PM</text>
                            </g>
                            <g class="tick" opacity="1" transform="translate(187.74596655146664,0)">
                                <line stroke="currentColor" y2="6" stroke-opacity="0.5"/>
                                <text fill="rgba(127, 127, 127, .8)" y="9" dy="0.71em" transform="translate(-5,5) rotate(-45)" style="text-anchor: end;">Mon 02</text>
                            </g>
                            <g class="tick" opacity="1" transform="translate(221.50710303746027,0)">
                                <line stroke="currentColor" y2="6" stroke-opacity="0.5"/>
                                <text fill="rgba(127, 127, 127, .8)" y="9" dy="0.71em" transform="translate(-5,5) rotate(-45)" style="text-anchor: end;">12 PM</text>
                            </g>
                            <g class="tick" opacity="1" transform="translate(255.26823952345393,0)">
                                <line stroke="currentColor" y2="6" stroke-opacity="0.5"/>
                                <text fill="rgba(127, 127, 127, .8)" y="9" dy="0.71em" transform="translate(-5,5) rotate(-45)" style="text-anchor: end;">Tue 03</text>
                            </g>
                            <g class="tick" opacity="1" transform="translate(289.0293760094475,0)">
                                <line stroke="currentColor" y2="6" stroke-opacity="0.5"/>
                                <text fill="rgba(127, 127, 127, .8)" y="9" dy="0.71em" transform="translate(-5,5) rotate(-45)" style="text-anchor: end;">12 PM</text>
                            </g>
                            <g class="tick" opacity="1" transform="translate(322.79051249544125,0)">
                                <line stroke="currentColor" y2="6" stroke-opacity="0.5"/>
                                <text fill="rgba(127, 127, 127, .8)" y="9" dy="0.71em" transform="translate(-5,5) rotate(-45)" style="text-anchor: end;">Wed 04</text>
                            </g>
                            <g class="tick" opacity="1" transform="translate(356.5516489814349,0)">
                                <line stroke="currentColor" y2="6" stroke-opacity="0.5"/>
                                <text fill="rgba(127, 127, 127, .8)" y="9" dy="0.71em" transform="translate(-5,5) rotate(-45)" style="text-anchor: end;">12 PM</text>
                            </g>
                            <g class="tick" opacity="1" transform="translate(390.3127854674285,0)">
                                <line stroke="currentColor" y2="6" stroke-opacity="0.5"/>
                                <text fill="rgba(127, 127, 127, .8)" y="9" dy="0.71em" transform="translate(-5,5) rotate(-45)" style="text-anchor: end;">Thu 05</text>
                            </g>
                            <g class="tick" opacity="1" transform="translate(424.07392195342214,0)">
                                <line stroke="currentColor" y2="6" stroke-opacity="0.5"/>
                                <text fill="rgba(127, 127, 127, .8)" y="9" dy="0.71em" transform="translate(-5,5) rotate(-45)" style="text-anchor: end;">12 PM</text>
                            </g>
                            <g class="tick" opacity="1" transform="translate(457.8350584394158,0)">
                                <line stroke="currentColor" y2="6" stroke-opacity="0.5"/>
                                <text fill="rgba(127, 127, 127, .8)" y="9" dy="0.71em" transform="translate(-5,5) rotate(-45)" style="text-anchor: end;">Fri 06</text>
                            </g>
                        </g>
                        <g transform="translate(10,10)" fill="none" font-size="10" font-family="sans-serif" text-anchor="start">
                            <g class="tick" opacity="1" transform="translate(0,26.16713964874033)">
                                <line stroke="currentColor" x2="460" stroke-opacity="0.5" stroke-dasharray="2,2"/>
                                <text fill="rgba(127, 127, 127, .8)" x="0" dy="-4">175</text>
                            </g>
                            <g class="tick" opacity="1" transform="translate(0,57.8819972372835)">
                                <line stroke="currentColor" x2="460" stroke-opacity="0.5" stroke-dasharray="2,2"/>
                                <text fill="rgba(127, 127, 127, .8)" x="0" dy="-4">170</text>
                            </g>
                            <g class="tick" opacity="1" transform="translate(0,89.5968548258267)">
                                <line stroke="currentColor" x2="460" stroke-opacity="0.5" stroke-dasharray="2,2"/>
                                <text fill="rgba(127, 127, 127, .8)" x="0" dy="-4">165</text>
                            </g>
                            <g class="tick" opacity="1" transform="translate(0,121.31171241436988)">
                                <line stroke="currentColor" x2="460" stroke-opacity="0.5" stroke-dasharray="2,2"/>
                                <text fill="rgba(127, 127, 127, .8)" x="0" dy="-4">160</text>
                            </g>
                        </g>
                        <path transform="translate(10,10)" d="M10,13.362L10.234,10.825L10.469,10.825L10.938,10.825L11.407,10.825L11.876,10.825L12.813,10L13.048,13.679L13.282,15.201L14.689,12.918L15.158,12.918L15.861,12.918L17.034,16.66L17.268,16.66L17.971,16.66L18.44,19.578L18.675,19.578L18.909,19.578L19.144,18.246L19.847,22.115L20.081,21.734L20.316,21.734L20.55,21.734L21.019,21.861L21.254,21.544L21.488,21.861L21.723,23.891L21.957,26.111L22.192,20.529L22.426,25.667L22.66,28.521L22.895,30.742L23.129,36.133L23.364,30.805L23.598,32.01L24.067,37.719L24.302,34.42L24.536,33.976L25.474,34.183L25.708,53.798L25.943,65.945L26.177,59.539L26.412,63.154L26.646,59.475L26.881,60.998L27.115,49.707L27.349,52.688L27.584,64.867L27.818,68.863L28.053,68.657L28.287,65.374L28.522,62.583L28.756,60.871L28.991,66.421L29.225,64.93L29.46,62.9L29.694,62.837L29.928,64.169L30.163,64.676L30.397,67.784L30.632,64.169L30.866,64.867L31.101,63.281L31.335,65.977L31.57,72.605L31.804,76.633L32.039,77.679L32.273,79.075L32.507,76.474L32.742,81.327L32.976,83.071L33.211,86.274L33.445,87.828L33.68,92.757L33.914,85.481L34.149,89.097L34.383,87.194L34.617,88.589L34.852,87.162L35.086,84.149L35.321,82.881L35.555,84.593L35.79,85.122L36.024,85.386L36.259,86.845L36.493,87.701L36.728,88.019L36.962,88.463L37.196,86.274L37.431,83.769L37.665,79.051L37.9,80.217L38.134,81.443L38.369,82.881L38.603,82.31L38.838,80.851L39.072,81.612L39.307,83.642L39.541,83.293L39.775,83.071L40.01,82.627L40.244,84.34L40.479,84.149L40.713,86.496L40.948,83.61L41.182,83.388L41.417,79.963L41.651,82.817L41.886,80.946L42.12,82.437L42.354,79.646L42.589,83.198L42.823,80.407L43.058,82.468L43.292,82.247L43.527,79.773L43.761,79.202L43.996,78.948L44.23,82.754L44.464,82.183L44.699,81.485L44.933,81.485L45.168,80.851L45.402,81.168L45.637,79.519L45.871,82.373L46.106,78.527L46.34,80.217L46.575,82.056L46.809,82.056L47.043,80.217L47.278,80.28L47.512,79.582L47.747,81.993L47.981,82.08L48.216,82.437L48.45,80.28L48.685,80.217L48.919,80.344L49.154,80.344L49.388,81.041L49.622,81.485L49.857,82.437L50.091,80.217L50.326,79.646L50.56,79.582L50.795,79.646L51.029,81.549L51.264,79.519L51.498,79.582L51.733,81.612L51.967,80.025L212.567,108.379L212.801,108.126L213.036,100.704L213.27,100.704L213.505,106.223L213.974,100.704L214.208,100.704L214.442,105.842L214.677,110.473L215.146,106.413L215.38,106.223L215.615,105.715L215.849,106.857L216.084,108.887L216.318,107.238L216.553,109.585L216.787,106.984L217.021,108.126L217.256,108.379L217.49,108.189L217.725,109.648L218.194,109.394L218.428,109.838L218.663,110.029L218.897,112.566L219.131,109.712L219.366,109.394L219.6,108.823L219.835,108.126L220.304,101.783L220.538,107.111L220.773,106.857L221.007,105.335L221.242,106.54L221.476,106.857L221.71,107.809L221.945,105.018L222.179,106.35L222.414,104.383L222.648,105.589L222.883,105.906L223.117,101.846L223.352,102.163L223.821,104.32L224.055,103.686L224.289,100.641L224.524,100.514L224.758,98.611L224.993,97.977L225.227,98.167L225.462,100.514L225.696,104.32L225.931,103.369L226.165,101.719L226.4,100.704L226.634,103.432L226.868,102.607L227.103,104.637L228.041,87.257L228.275,85.989L228.51,77.87L228.744,75.733L228.978,77.457L229.213,74.825L229.447,71.971L229.682,72.003L229.916,66.199L230.151,64.201L230.385,65.596L230.62,66.421L230.854,71.495L231.089,72.776L231.323,73.683L231.557,73.874L231.792,71.4L232.026,68.863L232.261,64.708L232.495,66.421L232.73,65.469L232.964,65.913L233.199,63.852L233.433,68.609L233.668,67.404L233.902,65.945L234.136,63.598L234.371,62.012L234.605,64.55L234.84,67.15L235.074,66.04L235.309,65.818L235.543,63.535L235.778,61.568L236.012,62.33L236.247,66.389L236.481,66.04L236.715,65.755L236.95,66.865L237.184,69.117L237.419,69.117L237.653,68.926L237.888,67.023L238.122,69.878L238.357,70.449L238.591,69.941L238.825,71.527L239.06,71.21L239.294,70.068L239.529,71.844L239.763,71.59L239.998,71.114L240.232,69.941L240.467,69.883L240.701,70.223L240.936,70.131L241.17,68.324L241.404,68.165L241.639,67.464L241.873,68.038L242.108,68.926L242.342,69.814L242.577,69.878L242.811,71.256L243.046,70.449L243.28,70.48L243.515,71.59L243.749,74.127L243.983,76.791L244.218,75.65L244.452,75.777L244.687,76.728L244.921,75.491L245.156,75.65L245.39,75.65L245.625,75.967L245.859,78.282L246.094,76.506L246.328,75.777L246.562,77.426L246.797,79.582L247.031,77.109L247.266,79.773L247.735,76.411L247.969,79.503L248.204,76.474L248.438,145L248.672,76.412L248.907,76.411L249.141,145L249.376,78.948L249.61,80.678L249.845,76.918L250.548,76.918L251.017,80.407L251.251,76.474L251.486,145L251.72,76.585L251.955,77.109L252.189,77.109L252.424,80.153L252.658,77.109L253.127,77.933L253.596,78.631L253.83,76.411L254.065,82.69L254.299,82.627L254.534,82.69L280.089,95.44L280.324,98.611L280.558,95.947L280.792,96.011L281.027,96.074L281.261,95.947L281.73,95.947L282.199,96.074L282.434,101.466L282.903,98.231L283.137,101.783L283.606,101.783L284.544,106.159L284.778,106.159L285.013,101.149L285.247,101.402L285.716,101.466L285.95,101.466L286.419,104.193L286.654,101.783L286.888,104.066L287.123,99.499L287.357,99.88L287.592,97.343L287.826,96.391L288.06,96.391L288.295,98.421L288.529,92.649L288.764,97.85L288.998,95.503L289.233,95.186L289.467,95.82L289.702,94.679L289.936,94.171L290.171,89.731L290.405,90.429L290.639,89.351L290.874,93.854L291.108,93.474L291.343,94.742L291.577,94.806L291.812,95.342L292.046,92.269L292.281,93.347L292.515,95.44L292.75,98.611L292.984,102.417L293.218,104.32L293.453,104.068L293.687,104.891L293.922,99.372L294.156,104.574L294.391,102.747L294.625,105.335L295.563,108.633L295.797,108.031L296.032,114.976L296.266,113.39L296.501,114.469L296.735,110.917L296.97,111.075L297.204,112.946L297.439,110.79L297.673,113.739L297.907,118.084L298.142,117.767L298.376,111.392L298.611,110.726L298.845,110.187L299.08,111.17L299.314,113.01L299.549,110.536L299.783,110.79L300.018,106.413L300.252,103.495L300.486,104.003L300.721,99.991L300.955,100.324L301.19,100.292L301.424,100.498L301.659,98.706L301.893,95.313L302.128,92.712L302.362,92.141L302.597,91.824L302.831,91.412L303.065,93.759L303.3,93.442L303.534,91.507L303.769,92.141L304.003,92.839L304.238,92.839L304.472,90.717L304.707,89.795L304.941,91.095L305.175,89.541L305.41,87.828L305.644,86.56L305.879,87.987L306.113,87.575L306.348,81.929L306.582,82.024L306.817,79.963L307.051,78.124L307.286,81.707L307.52,83.705L307.754,81.073L307.989,82.31L308.223,82.151L308.458,84.529L308.692,84.118L308.927,82.342L309.161,82.468L309.396,83.261L309.63,85.037L309.865,81.2L310.099,79.265L310.333,74.381L310.568,75.967L310.802,78.25L311.037,77.997L311.271,78.314L311.506,79.138L311.74,80.597L311.975,79.582L312.209,78.06L312.444,79.646L312.678,81.2L312.912,81.995L313.147,82.437L313.381,83.705L313.616,83.134L313.85,83.071L314.085,90.302L314.319,87.955L314.554,86.433L314.788,83.846L315.022,83.071L315.257,83.072L315.491,83.072L315.96,84.974L316.195,83.071L316.429,83.071L316.898,83.071L317.601,85.925L317.836,84.72L318.305,85.925L318.774,83.705L319.477,88.759L319.946,83.071L320.415,83.388L321.118,104.409L321.822,85.925L322.056,84.403L347.611,93.474L347.846,93.474L348.08,83.515L348.549,83.515L349.253,88.209L349.956,80.724L350.425,81.485L350.659,81.485L350.894,82.373L351.128,83.261L351.363,83.261L351.597,79.646L351.832,82.056L352.066,80.534L352.769,80.534L353.238,79.582L353.473,79.582L353.942,78.694L354.176,78.694L354.41,78.694L354.879,79.329L355.114,79.582L355.348,79.582L355.583,80.851L356.052,78.758L356.286,80.026L356.755,80.026L356.989,79.582L357.224,83.325L357.458,84.276L357.693,82.754L358.396,83.388L358.631,83.959L358.865,88.463L359.1,78.441L359.334,76.665L359.568,74.508L359.803,79.646L360.037,78.694L360.506,78.694L360.741,77.997L361.21,74.889L361.444,76.347L361.679,75.586L361.913,76.094L362.147,76.221L363.085,72.7L363.32,72.859L363.554,76.411L363.789,77.87L364.023,73.303L364.257,68.355L364.492,70.005L364.726,67.816L364.961,66.96L365.195,67.15L365.43,66.643L365.664,65.564L365.899,67.911L366.133,69.751L366.368,68.07L366.602,67.467L366.836,68.672L367.071,67.404L367.305,67.214L367.54,68.609L367.774,71.305L368.009,69.973L368.243,70.195L368.478,67.721L368.712,67.214L368.947,68.038L369.181,65.184L369.415,66.326L369.65,66.896L369.884,68.07L370.119,66.896L370.353,66.421L370.588,67.721L370.822,68.292L371.057,69.243L371.291,70.068L371.526,69.37L371.76,69.434L371.994,71.241L372.229,70.711L372.463,70.861L372.698,71.21L372.932,71.527L373.167,69.814L373.401,71.844L373.636,72.922L373.87,73.81L374.104,72.764L374.339,71.59L374.573,72.478L374.808,72.51L375.042,72.922L375.277,72.922L375.511,72.351L375.746,71.463L375.98,70.544L376.215,71.971L376.449,72.161L376.683,71.781L376.918,72.732L377.152,72.732L377.387,73.303L377.621,72.225L377.856,70.258L378.09,70.639L378.325,71.21L378.559,71.178L378.794,72.098L379.028,71.781L379.262,72.542L379.497,73.905L379.731,73.969L379.966,73.128L380.2,73.493L380.435,73.747L380.669,72.447L380.904,73.62L381.138,73.176L381.373,72.732L381.607,72.732L381.841,72.732L382.076,72.732L382.31,70.068L382.545,69.97L382.779,70.341L383.014,75.504L383.248,72.732L383.717,76.236L383.951,69.434L384.186,72.605L384.42,69.584L384.655,74.191L384.889,74.127L385.124,72.732L385.358,72.732L385.827,72.922L386.296,73.176L386.53,74.318L386.765,72.732L386.999,76.411L387.234,73.239L387.937,74.254L388.406,76.236L388.641,76.119L388.875,74.254L389.109,74.318L389.344,69.434L389.578,73.176L415.368,75.142L415.603,75.142L415.837,72.922L416.071,80.597L416.306,73.747L416.775,80.597L417.009,80.597L417.478,76.474L418.416,76.474L419.119,76.411L419.354,81.295L419.823,81.295L420.057,82.881L420.292,83.198L420.526,83.198L420.76,81.676L420.995,80.851L421.229,80.851L421.464,81.549L421.698,83.452L421.933,83.896L422.402,83.896L422.636,83.388L422.871,82.754L423.574,84.466L423.808,82.12L424.043,84.149L424.277,83.452L424.512,84.53L424.746,82.31L424.981,82.627L425.215,84.53L425.45,82.754L425.684,83.261L425.918,84.91L426.153,85.228L426.387,83.578L426.622,84.403L426.856,84.657L427.091,85.291L427.325,83.547L427.56,84.657L427.794,84.276L428.029,85.925L428.263,85.862L428.497,85.355L428.732,85.291L428.966,86.179L429.201,90.048L429.435,90.651L429.67,87.321L430.607,73.937L430.842,72.795L431.076,78.028L431.311,83.674L431.545,81.802L431.78,75.65L432.014,85.101L432.249,85.386L432.483,82.468L432.718,84.847L432.952,88.336L433.186,88.288L433.421,91.016L433.655,91.634L433.89,92.11L434.124,90.873L434.359,88.589L434.593,89.097L434.828,92.459L435.062,94.71L435.297,95.82L435.531,98.167L435.765,99.372L436,99.69L436.234,98.104L436.469,95.833L436.703,97.755L436.938,98.928L437.172,97.216L437.407,101.402L437.641,97.977L437.876,99.69L438.11,100.26L438.344,102.1L438.579,100.958L438.813,102.909L439.048,104.51L439.282,100.229L439.517,103.178L439.751,103.622L439.986,104.003L440.22,105.145L440.454,105.462L440.689,104.986L440.923,103.369L441.158,106.762L441.392,108.316L441.627,108.506L441.861,107.365L442.096,106.001L442.33,105.113L442.565,107.555L442.799,108.555L443.033,108.529L443.268,108.919L443.502,110.409L443.737,110.473L443.971,110.41L444.206,110.219L444.44,112.946L444.675,114.025L444.909,111.297L445.144,112.502L445.378,113.834L445.612,116.054L445.847,115.896L446.081,114.152L446.316,112.693L446.55,109.489L446.785,107.555L447.019,106.572L447.254,108.824L447.488,109.141L447.723,107.777L447.957,105.906L448.191,104.701L448.426,102.924L448.66,104.701L448.895,104.637L449.129,106.984L449.364,104.637L449.598,104.637L449.833,105.081L450.067,105.018L450.301,105.906L450.536,104.716L450.77,106.667L451.005,104.701L451.239,104.829L451.474,106.223L451.708,104.764L451.943,105.145L452.177,105.652L452.412,106.477L452.646,107.72L452.88,107.287L453.115,104.637L453.349,104.764L453.584,105L453.818,105.145L454.053,105.271L454.287,105.271L454.756,107.511L454.991,105.155L455.225,107.682L455.459,105.715L455.694,105.081L455.928,106.857L456.163,105.081L456.397,103.051L456.632,103.051L456.866,102.925L457.101,104.574L457.335,102.925L457.57,102.544L457.804,102.481L458.038,89.858L458.273,102.925L458.507,89.858L458.742,89.858L459.211,102.481L459.445,102.544L459.68,102.481L459.914,102.481L460,102.481" fill="transparent" stroke="#87ceeb" stroke-width="2"/>
                        <path transform="translate(10,10)" d="M10,145L10.234,145L10.469,145L10.938,145L11.407,145L11.876,145L12.813,145L13.048,145L13.282,145L14.689,145L15.158,145L15.861,145L17.034,145L17.268,145L17.971,145L18.44,145L18.675,145L18.909,145L19.144,145L19.847,145L20.081,145L20.316,145L20.55,145L21.019,145L21.254,145L21.488,145L21.723,145L21.957,145L22.192,145L22.426,145L22.66,145L22.895,145L23.129,145L23.364,145L23.598,145L24.067,145L24.302,145L24.536,145L25.474,145L25.708,145L25.943,145L26.177,145L26.412,145L26.646,145L26.881,145L27.115,145L27.349,145L27.584,145L27.818,145L28.053,145L28.287,145L28.522,145L28.756,145L28.991,145L29.225,145L29.46,145L29.694,145L29.928,145L30.163,145L30.397,145L30.632,145L30.866,145L31.101,145L31.335,145L31.57,145L31.804,145L32.039,145L32.273,145L32.507,145L32.742,145L32.976,145L33.211,145L33.445,145L33.68,145L33.914,145L34.149,145L34.383,145L34.617,145L34.852,145L35.086,145L35.321,145L35.555,145L35.79,145L36.024,145L36.259,145L36.493,145L36.728,145L36.962,145L37.196,145L37.431,145L37.665,145L37.9,145L38.134,145L38.369,145L38.603,145L38.838,145L39.072,145L39.307,145L39.541,145L39.775,145L40.01,145L40.244,145L40.479,145L40.713,145L40.948,145L41.182,145L41.417,145L41.651,145L41.886,145L42.12,145L42.354,145L42.589,145L42.823,145L43.058,145L43.292,145L43.527,145L43.761,145L43.996,145L44.23,145L44.464,145L44.699,145L44.933,145L45.168,145L45.402,145L45.637,145L45.871,145L46.106,145L46.34,145L46.575,145L46.809,145L47.043,145L47.278,145L47.512,145L47.747,145L47.981,145L48.216,145L48.45,145L48.685,145L48.919,145L49.154,145L49.388,145L49.622,145L49.857,145L50.091,145L50.326,145L50.56,145L50.795,145L51.029,145L51.264,145L51.498,145L51.733,145L51.967,145L212.567,145L212.801,145L213.036,145L213.27,145L213.505,145L213.974,145L214.208,145L214.442,145L214.677,145L215.146,145L215.38,145L215.615,145L215.849,145L216.084,145L216.318,145L216.553,145L216.787,145L217.021,145L217.256,145L217.49,145L217.725,145L218.194,145L218.428,145L218.663,145L218.897,145L219.131,145L219.366,145L219.6,145L219.835,145L220.304,145L220.538,145L220.773,145L221.007,145L221.242,145L221.476,145L221.71,145L221.945,145L222.179,145L222.414,145L222.648,145L222.883,145L223.117,145L223.352,145L223.821,145L224.055,145L224.289,145L224.524,145L224.758,145L224.993,145L225.227,145L225.462,145L225.696,145L225.931,145L226.165,145L226.4,145L226.634,145L226.868,145L227.103,145L228.041,145L228.275,145L228.51,145L228.744,145L228.978,145L229.213,145L229.447,145L229.682,145L229.916,145L230.151,145L230.385,145L230.62,145L230.854,145L231.089,145L231.323,145L231.557,145L231.792,145L232.026,145L232.261,145L232.495,145L232.73,145L232.964,145L233.199,145L233.433,145L233.668,145L233.902,145L234.136,145L234.371,145L234.605,145L234.84,145L235.074,145L235.309,145L235.543,145L235.778,145L236.012,145L236.247,145L236.481,145L236.715,145L236.95,145L237.184,145L237.419,145L237.653,145L237.888,145L238.122,145L238.357,145L238.591,145L238.825,145L239.06,145L239.294,145L239.529,145L239.763,145L239.998,145L240.232,145L240.467,145L240.701,145L240.936,145L241.17,145L241.404,145L241.639,145L241.873,145L242.108,145L242.342,145L242.577,145L242.811,145L243.046,145L243.28,145L243.515,145L243.749,145L243.983,145L244.218,145L244.452,145L244.687,145L244.921,145L245.156,145L245.39,145L245.625,145L245.859,145L246.094,145L246.328,145L246.562,145L246.797,145L247.031,145L247.266,145L247.735,145L247.969,145L248.204,145L248.438,145L248.672,145L248.907,145L249.141,145L249.376,145L249.61,145L249.845,145L250.548,145L251.017,145L251.251,145L251.486,145L251.72,145L251.955,145L252.189,145L252.424,145L252.658,145L253.127,145L253.596,145L253.83,145L254.065,145L254.299,145L254.534,145L280.089,145L280.324,145L280.558,145L280.792,145L281.027,145L281.261,145L281.73,145L282.199,145L282.434,145L282.903,145L283.137,145L283.606,145L284.544,145L284.778,145L285.013,145L285.247,145L285.716,145L285.95,145L286.419,145L286.654,145L286.888,145L287.123,145L287.357,145L287.592,145L287.826,145L288.06,145L288.295,145L288.529,145L288.764,145L288.998,145L289.233,145L289.467,145L289.702,145L289.936,145L290.171,145L290.405,145L290.639,145L290.874,145L291.108,145L291.343,145L291.577,145L291.812,145L292.046,145L292.281,145L292.515,145L292.75,145L292.984,145L293.218,145L293.453,145L293.687,145L293.922,145L294.156,145L294.391,145L294.625,145L295.563,145L295.797,145L296.032,145L296.266,145L296.501,145L296.735,145L296.97,145L297.204,145L297.439,145L297.673,145L297.907,145L298.142,145L298.376,145L298.611,145L298.845,145L299.08,145L299.314,145L299.549,145L299.783,145L300.018,145L300.252,145L300.486,145L300.721,145L300.955,145L301.19,145L301.424,145L301.659,145L301.893,145L302.128,145L302.362,145L302.597,145L302.831,145L303.065,145L303.3,145L303.534,145L303.769,145L304.003,145L304.238,145L304.472,145L304.707,145L304.941,145L305.175,145L305.41,145L305.644,145L305.879,145L306.113,145L306.348,145L306.582,145L306.817,145L307.051,145L307.286,145L307.52,145L307.754,145L307.989,145L308.223,145L308.458,145L308.692,145L308.927,145L309.161,145L309.396,145L309.63,145L309.865,145L310.099,145L310.333,145L310.568,145L310.802,145L311.037,145L311.271,145L311.506,145L311.74,145L311.975,145L312.209,145L312.444,145L312.678,145L312.912,145L313.147,145L313.381,145L313.616,145L313.85,145L314.085,145L314.319,145L314.554,145L314.788,145L315.022,145L315.257,145L315.491,145L315.96,145L316.195,145L316.429,145L316.898,145L317.601,145L317.836,145L318.305,145L318.774,145L319.477,145L319.946,145L320.415,145L321.118,145L321.822,145L322.056,145L347.611,145L347.846,145L348.08,145L348.549,145L349.253,145L349.956,145L350.425,145L350.659,145L350.894,145L351.128,145L351.363,145L351.597,145L351.832,145L352.066,145L352.769,145L353.238,145L353.473,145L353.942,145L354.176,145L354.41,145L354.879,145L355.114,145L355.348,145L355.583,145L356.052,145L356.286,145L356.755,145L356.989,145L357.224,145L357.458,145L357.693,145L358.396,145L358.631,145L358.865,145L359.1,145L359.334,145L359.568,145L359.803,145L360.037,145L360.506,145L360.741,145L361.21,145L361.444,145L361.679,145L361.913,145L362.147,145L363.085,145L363.32,145L363.554,145L363.789,145L364.023,145L364.257,145L364.492,145L364.726,145L364.961,145L365.195,145L365.43,145L365.664,145L365.899,145L366.133,145L366.368,145L366.602,145L366.836,145L367.071,145L367.305,145L367.54,145L367.774,145L368.009,145L368.243,145L368.478,145L368.712,145L368.947,145L369.181,145L369.415,145L369.65,145L369.884,145L370.119,145L370.353,145L370.588,145L370.822,145L371.057,145L371.291,145L371.526,145L371.76,145L371.994,145L372.229,145L372.463,145L372.698,145L372.932,145L373.167,145L373.401,145L373.636,145L373.87,145L374.104,145L374.339,145L374.573,145L374.808,145L375.042,145L375.277,145L375.511,145L375.746,145L375.98,145L376.215,145L376.449,145L376.683,145L376.918,145L377.152,145L377.387,145L377.621,145L377.856,145L378.09,145L378.325,145L378.559,145L378.794,145L379.028,145L379.262,145L379.497,145L379.731,145L379.966,145L380.2,145L380.435,145L380.669,145L380.904,145L381.138,145L381.373,145L381.607,145L381.841,145L382.076,145L382.31,145L382.545,145L382.779,145L383.014,145L383.248,145L383.717,145L383.951,145L384.186,145L384.42,145L384.655,145L384.889,145L385.124,145L385.358,145L385.827,145L386.296,145L386.53,145L386.765,145L386.999,145L387.234,145L387.937,145L388.406,145L388.641,145L388.875,145L389.109,145L389.344,145L389.578,145L415.368,145L415.603,145L415.837,145L416.071,145L416.306,145L416.775,145L417.009,145L417.478,145L418.416,145L419.119,145L419.354,145L419.823,145L420.057,145L420.292,145L420.526,145L420.76,145L420.995,145L421.229,145L421.464,145L421.698,145L421.933,145L422.402,145L422.636,145L422.871,145L423.574,145L423.808,145L424.043,145L424.277,145L424.512,145L424.746,145L424.981,145L425.215,145L425.45,145L425.684,145L425.918,145L426.153,145L426.387,145L426.622,145L426.856,145L427.091,145L427.325,145L427.56,145L427.794,145L428.029,145L428.263,145L428.497,145L428.732,145L428.966,145L429.201,145L429.435,145L429.67,145L430.607,145L430.842,145L431.076,145L431.311,145L431.545,145L431.78,145L432.014,145L432.249,145L432.483,145L432.718,145L432.952,145L433.186,145L433.421,145L433.655,145L433.89,145L434.124,145L434.359,145L434.593,145L434.828,145L435.062,145L435.297,145L435.531,145L435.765,145L436,145L436.234,145L436.469,145L436.703,145L436.938,145L437.172,145L437.407,145L437.641,145L437.876,145L438.11,145L438.344,145L438.579,145L438.813,145L439.048,145L439.282,145L439.517,145L439.751,145L439.986,145L440.22,145L440.454,145L440.689,145L440.923,145L441.158,145L441.392,145L441.627,145L441.861,145L442.096,145L442.33,145L442.565,145L442.799,145L443.033,145L443.268,145L443.502,145L443.737,145L443.971,145L444.206,145L444.44,145L444.675,145L444.909,145L445.144,145L445.378,145L445.612,145L445.847,145L446.081,145L446.316,145L446.55,145L446.785,145L447.019,145L447.254,145L447.488,145L447.723,145L447.957,145L448.191,145L448.426,145L448.66,145L448.895,145L449.129,145L449.364,145L449.598,145L449.833,145L450.067,145L450.301,145L450.536,145L450.77,145L451.005,145L451.239,145L451.474,145L451.708,145L451.943,145L452.177,145L452.412,145L452.646,145L452.88,145L453.115,145L453.349,145L453.584,145L453.818,145L454.053,145L454.287,145L454.756,145L454.991,145L455.225,145L455.459,145L455.694,145L455.928,145L456.163,145L456.397,145L456.632,145L456.866,145L457.101,145L457.335,145L457.57,145L457.804,145L458.038,145L458.273,145L458.507,145L458.742,145L459.211,145L459.445,145L459.68,145L459.914,145L460,145L460,102.481L459.914,102.481L459.68,102.481L459.445,102.544L459.211,102.481L458.742,89.858L458.507,89.858L458.273,102.925L458.038,89.858L457.804,102.481L457.57,102.544L457.335,102.925L457.101,104.574L456.866,102.925L456.632,103.051L456.397,103.051L456.163,105.081L455.928,106.857L455.694,105.081L455.459,105.715L455.225,107.682L454.991,105.155L454.756,107.511L454.287,105.271L454.053,105.271L453.818,105.145L453.584,105L453.349,104.764L453.115,104.637L452.88,107.287L452.646,107.72L452.412,106.477L452.177,105.652L451.943,105.145L451.708,104.764L451.474,106.223L451.239,104.829L451.005,104.701L450.77,106.667L450.536,104.716L450.301,105.906L450.067,105.018L449.833,105.081L449.598,104.637L449.364,104.637L449.129,106.984L448.895,104.637L448.66,104.701L448.426,102.924L448.191,104.701L447.957,105.906L447.723,107.777L447.488,109.141L447.254,108.824L447.019,106.572L446.785,107.555L446.55,109.489L446.316,112.693L446.081,114.152L445.847,115.896L445.612,116.054L445.378,113.834L445.144,112.502L444.909,111.297L444.675,114.025L444.44,112.946L444.206,110.219L443.971,110.41L443.737,110.473L443.502,110.409L443.268,108.919L443.033,108.529L442.799,108.555L442.565,107.555L442.33,105.113L442.096,106.001L441.861,107.365L441.627,108.506L441.392,108.316L441.158,106.762L440.923,103.369L440.689,104.986L440.454,105.462L440.22,105.145L439.986,104.003L439.751,103.622L439.517,103.178L439.282,100.229L439.048,104.51L438.813,102.909L438.579,100.958L438.344,102.1L438.11,100.26L437.876,99.69L437.641,97.977L437.407,101.402L437.172,97.216L436.938,98.928L436.703,97.755L436.469,95.833L436.234,98.104L436,99.69L435.765,99.372L435.531,98.167L435.297,95.82L435.062,94.71L434.828,92.459L434.593,89.097L434.359,88.589L434.124,90.873L433.89,92.11L433.655,91.634L433.421,91.016L433.186,88.288L432.952,88.336L432.718,84.847L432.483,82.468L432.249,85.386L432.014,85.101L431.78,75.65L431.545,81.802L431.311,83.674L431.076,78.028L430.842,72.795L430.607,73.937L429.67,87.321L429.435,90.651L429.201,90.048L428.966,86.179L428.732,85.291L428.497,85.355L428.263,85.862L428.029,85.925L427.794,84.276L427.56,84.657L427.325,83.547L427.091,85.291L426.856,84.657L426.622,84.403L426.387,83.578L426.153,85.228L425.918,84.91L425.684,83.261L425.45,82.754L425.215,84.53L424.981,82.627L424.746,82.31L424.512,84.53L424.277,83.452L424.043,84.149L423.808,82.12L423.574,84.466L422.871,82.754L422.636,83.388L422.402,83.896L421.933,83.896L421.698,83.452L421.464,81.549L421.229,80.851L420.995,80.851L420.76,81.676L420.526,83.198L420.292,83.198L420.057,82.881L419.823,81.295L419.354,81.295L419.119,76.411L418.416,76.474L417.478,76.474L417.009,80.597L416.775,80.597L416.306,73.747L416.071,80.597L415.837,72.922L415.603,75.142L415.368,75.142L389.578,73.176L389.344,69.434L389.109,74.318L388.875,74.254L388.641,76.119L388.406,76.236L387.937,74.254L387.234,73.239L386.999,76.411L386.765,72.732L386.53,74.318L386.296,73.176L385.827,72.922L385.358,72.732L385.124,72.732L384.889,74.127L384.655,74.191L384.42,69.584L384.186,72.605L383.951,69.434L383.717,76.236L383.248,72.732L383.014,75.504L382.779,70.341L382.545,69.97L382.31,70.068L382.076,72.732L381.841,72.732L381.607,72.732L381.373,72.732L381.138,73.176L380.904,73.62L380.669,72.447L380.435,73.747L380.2,73.493L379.966,73.128L379.731,73.969L379.497,73.905L379.262,72.542L379.028,71.781L378.794,72.098L378.559,71.178L378.325,71.21L378.09,70.639L377.856,70.258L377.621,72.225L377.387,73.303L377.152,72.732L376.918,72.732L376.683,71.781L376.449,72.161L376.215,71.971L375.98,70.544L375.746,71.463L375.511,72.351L375.277,72.922L375.042,72.922L374.808,72.51L374.573,72.478L374.339,71.59L374.104,72.764L373.87,73.81L373.636,72.922L373.401,71.844L373.167,69.814L372.932,71.527L372.698,71.21L372.463,70.861L372.229,70.711L371.994,71.241L371.76,69.434L371.526,69.37L371.291,70.068L371.057,69.243L370.822,68.292L370.588,67.721L370.353,66.421L370.119,66.896L369.884,68.07L369.65,66.896L369.415,66.326L369.181,65.184L368.947,68.038L368.712,67.214L368.478,67.721L368.243,70.195L368.009,69.973L367.774,71.305L367.54,68.609L367.305,67.214L367.071,67.404L366.836,68.672L366.602,67.467L366.368,68.07L366.133,69.751L365.899,67.911L365.664,65.564L365.43,66.643L365.195,67.15L364.961,66.96L364.726,67.816L364.492,70.005L364.257,68.355L364.023,73.303L363.789,77.87L363.554,76.411L363.32,72.859L363.085,72.7L362.147,76.221L361.913,76.094L361.679,75.586L361.444,76.347L361.21,74.889L360.741,77.997L360.506,78.694L360.037,78.694L359.803,79.646L359.568,74.508L359.334,76.665L359.1,78.441L358.865,88.463L358.631,83.959L358.396,83.388L357.693,82.754L357.458,84.276L357.224,83.325L356.989,79.582L356.755,80.026L356.286,80.026L356.052,78.758L355.583,80.851L355.348,79.582L355.114,79.582L354.879,79.329L354.41,78.694L354.176,78.694L353.942,78.694L353.473,79.582L353.238,79.582L352.769,80.534L352.066,80.534L351.832,82.056L351.597,79.646L351.363,83.261L351.128,83.261L350.894,82.373L350.659,81.485L350.425,81.485L349.956,80.724L349.253,88.209L348.549,83.515L348.08,83.515L347.846,93.474L347.611,93.474L322.056,84.403L321.822,85.925L321.118,104.409L320.415,83.388L319.946,83.071L319.477,88.759L318.774,83.705L318.305,85.925L317.836,84.72L317.601,85.925L316.898,83.071L316.429,83.071L316.195,83.071L315.96,84.974L315.491,83.072L315.257,83.072L315.022,83.071L314.788,83.846L314.554,86.433L314.319,87.955L314.085,90.302L313.85,83.071L313.616,83.134L313.381,83.705L313.147,82.437L312.912,81.995L312.678,81.2L312.444,79.646L312.209,78.06L311.975,79.582L311.74,80.597L311.506,79.138L311.271,78.314L311.037,77.997L310.802,78.25L310.568,75.967L310.333,74.381L310.099,79.265L309.865,81.2L309.63,85.037L309.396,83.261L309.161,82.468L308.927,82.342L308.692,84.118L308.458,84.529L308.223,82.151L307.989,82.31L307.754,81.073L307.52,83.705L307.286,81.707L307.051,78.124L306.817,79.963L306.582,82.024L306.348,81.929L306.113,87.575L305.879,87.987L305.644,86.56L305.41,87.828L305.175,89.541L304.941,91.095L304.707,89.795L304.472,90.717L304.238,92.839L304.003,92.839L303.769,92.141L303.534,91.507L303.3,93.442L303.065,93.759L302.831,91.412L302.597,91.824L302.362,92.141L302.128,92.712L301.893,95.313L301.659,98.706L301.424,100.498L301.19,100.292L300.955,100.324L300.721,99.991L300.486,104.003L300.252,103.495L300.018,106.413L299.783,110.79L299.549,110.536L299.314,113.01L299.08,111.17L298.845,110.187L298.611,110.726L298.376,111.392L298.142,117.767L297.907,118.084L297.673,113.739L297.439,110.79L297.204,112.946L296.97,111.075L296.735,110.917L296.501,114.469L296.266,113.39L296.032,114.976L295.797,108.031L295.563,108.633L294.625,105.335L294.391,102.747L294.156,104.574L293.922,99.372L293.687,104.891L293.453,104.068L293.218,104.32L292.984,102.417L292.75,98.611L292.515,95.44L292.281,93.347L292.046,92.269L291.812,95.342L291.577,94.806L291.343,94.742L291.108,93.474L290.874,93.854L290.639,89.351L290.405,90.429L290.171,89.731L289.936,94.171L289.702,94.679L289.467,95.82L289.233,95.186L288.998,95.503L288.764,97.85L288.529,92.649L288.295,98.421L288.06,96.391L287.826,96.391L287.592,97.343L287.357,99.88L287.123,99.499L286.888,104.066L286.654,101.783L286.419,104.193L285.95,101.466L285.716,101.466L285.247,101.402L285.013,101.149L284.778,106.159L284.544,106.159L283.606,101.783L283.137,101.783L282.903,98.231L282.434,101.466L282.199,96.074L281.73,95.947L281.261,95.947L281.027,96.074L280.792,96.011L280.558,95.947L280.324,98.611L280.089,95.44L254.534,82.69L254.299,82.627L254.065,82.69L253.83,76.411L253.596,78.631L253.127,77.933L252.658,77.109L252.424,80.153L252.189,77.109L251.955,77.109L251.72,76.585L251.486,145L251.251,76.474L251.017,80.407L250.548,76.918L249.845,76.918L249.61,80.678L249.376,78.948L249.141,145L248.907,76.411L248.672,76.412L248.438,145L248.204,76.474L247.969,79.503L247.735,76.411L247.266,79.773L247.031,77.109L246.797,79.582L246.562,77.426L246.328,75.777L246.094,76.506L245.859,78.282L245.625,75.967L245.39,75.65L245.156,75.65L244.921,75.491L244.687,76.728L244.452,75.777L244.218,75.65L243.983,76.791L243.749,74.127L243.515,71.59L243.28,70.48L243.046,70.449L242.811,71.256L242.577,69.878L242.342,69.814L242.108,68.926L241.873,68.038L241.639,67.464L241.404,68.165L241.17,68.324L240.936,70.131L240.701,70.223L240.467,69.883L240.232,69.941L239.998,71.114L239.763,71.59L239.529,71.844L239.294,70.068L239.06,71.21L238.825,71.527L238.591,69.941L238.357,70.449L238.122,69.878L237.888,67.023L237.653,68.926L237.419,69.117L237.184,69.117L236.95,66.865L236.715,65.755L236.481,66.04L236.247,66.389L236.012,62.33L235.778,61.568L235.543,63.535L235.309,65.818L235.074,66.04L234.84,67.15L234.605,64.55L234.371,62.012L234.136,63.598L233.902,65.945L233.668,67.404L233.433,68.609L233.199,63.852L232.964,65.913L232.73,65.469L232.495,66.421L232.261,64.708L232.026,68.863L231.792,71.4L231.557,73.874L231.323,73.683L231.089,72.776L230.854,71.495L230.62,66.421L230.385,65.596L230.151,64.201L229.916,66.199L229.682,72.003L229.447,71.971L229.213,74.825L228.978,77.457L228.744,75.733L228.51,77.87L228.275,85.989L228.041,87.257L227.103,104.637L226.868,102.607L226.634,103.432L226.4,100.704L226.165,101.719L225.931,103.369L225.696,104.32L225.462,100.514L225.227,98.167L224.993,97.977L224.758,98.611L224.524,100.514L224.289,100.641L224.055,103.686L223.821,104.32L223.352,102.163L223.117,101.846L222.883,105.906L222.648,105.589L222.414,104.383L222.179,106.35L221.945,105.018L221.71,107.809L221.476,106.857L221.242,106.54L221.007,105.335L220.773,106.857L220.538,107.111L220.304,101.783L219.835,108.126L219.6,108.823L219.366,109.394L219.131,109.712L218.897,112.566L218.663,110.029L218.428,109.838L218.194,109.394L217.725,109.648L217.49,108.189L217.256,108.379L217.021,108.126L216.787,106.984L216.553,109.585L216.318,107.238L216.084,108.887L215.849,106.857L215.615,105.715L215.38,106.223L215.146,106.413L214.677,110.473L214.442,105.842L214.208,100.704L213.974,100.704L213.505,106.223L213.27,100.704L213.036,100.704L212.801,108.126L212.567,108.379L51.967,80.025L51.733,81.612L51.498,79.582L51.264,79.519L51.029,81.549L50.795,79.646L50.56,79.582L50.326,79.646L50.091,80.217L49.857,82.437L49.622,81.485L49.388,81.041L49.154,80.344L48.919,80.344L48.685,80.217L48.45,80.28L48.216,82.437L47.981,82.08L47.747,81.993L47.512,79.582L47.278,80.28L47.043,80.217L46.809,82.056L46.575,82.056L46.34,80.217L46.106,78.527L45.871,82.373L45.637,79.519L45.402,81.168L45.168,80.851L44.933,81.485L44.699,81.485L44.464,82.183L44.23,82.754L43.996,78.948L43.761,79.202L43.527,79.773L43.292,82.247L43.058,82.468L42.823,80.407L42.589,83.198L42.354,79.646L42.12,82.437L41.886,80.946L41.651,82.817L41.417,79.963L41.182,83.388L40.948,83.61L40.713,86.496L40.479,84.149L40.244,84.34L40.01,82.627L39.775,83.071L39.541,83.293L39.307,83.642L39.072,81.612L38.838,80.851L38.603,82.31L38.369,82.881L38.134,81.443L37.9,80.217L37.665,79.051L37.431,83.769L37.196,86.274L36.962,88.463L36.728,88.019L36.493,87.701L36.259,86.845L36.024,85.386L35.79,85.122L35.555,84.593L35.321,82.881L35.086,84.149L34.852,87.162L34.617,88.589L34.383,87.194L34.149,89.097L33.914,85.481L33.68,92.757L33.445,87.828L33.211,86.274L32.976,83.071L32.742,81.327L32.507,76.474L32.273,79.075L32.039,77.679L31.804,76.633L31.57,72.605L31.335,65.977L31.101,63.281L30.866,64.867L30.632,64.169L30.397,67.784L30.163,64.676L29.928,64.169L29.694,62.837L29.46,62.9L29.225,64.93L28.991,66.421L28.756,60.871L28.522,62.583L28.287,65.374L28.053,68.657L27.818,68.863L27.584,64.867L27.349,52.688L27.115,49.707L26.881,60.998L26.646,59.475L26.412,63.154L26.177,59.539L25.943,65.945L25.708,53.798L25.474,34.183L24.536,33.976L24.302,34.42L24.067,37.719L23.598,32.01L23.364,30.805L23.129,36.133L22.895,30.742L22.66,28.521L22.426,25.667L22.192,20.529L21.957,26.111L21.723,23.891L21.488,21.861L21.254,21.544L21.019,21.861L20.55,21.734L20.316,21.734L20.081,21.734L19.847,22.115L19.144,18.246L18.909,19.578L18.675,19.578L18.44,19.578L17.971,16.66L17.268,16.66L17.034,16.66L15.861,12.918L15.158,12.918L14.689,12.918L13.282,15.201L13.048,13.679L12.813,10L11.876,10.825L11.407,10.825L10.938,10.825L10.469,10.825L10.234,10.825L10,13.362Z" fill="rgba(88, 166, 255, .1)"/>
                    </svg>
                </div>
            </section>
        </div>
        <div xmlns="http://www.w3.org/1999/xhtml" id="metrics-end"></div>
    </foreignObject>
</svg>