<svg xmlns="http://www.w3.org/2000/svg" width="480" height="302" class="">
    <defs>
        <style/>
    </defs>
    <style>@keyframes animation-gauge{0%{stroke-dasharray:0 329}}@keyframes animation-rainbow{0%,to{color:#7f00ff;fill:#7f00ff}14%{color:#a933ff;fill:#a933ff}29%{color:#007fff;fill:#007fff}43%{color:#00ff7f;fill:#00ff7f}57%{color:#ff0;fill:#ff0}71%{color:#ff7f00;fill:#ff7f00}86%{color:red;fill:red}}svg{font-family:-apple-system,BlinkMacSystemFont,Segoe UI,Helvetica,Arial,sans-serif,Apple Color Emoji,Segoe UI Emoji;font-size:14px;color:#777}h2{margin:8px 0 2px;padding:0;color:#0366d6;font-weight:400;font-size:16px}h2 svg{fill:currentColor}section&gt;.field{margin-left:5px;margin-right:5px}.field{display:flex;align-items:center;margin-bottom:2px;white-space:nowrap}.field svg{margin:0 8px;fill:#959da5;flex-shrink:0}.row{display:flex;flex-wrap:wrap}.row section{flex:1 1 0}:root{--color-calendar-graph-day-bg:#ebedf0;--color-calendar-graph-day-border:rgba(27,31,35,0.06);--color-calendar-graph-day-L1-bg:#9be9a8;--color-calendar-graph-day-L2-bg:#40c463;--color-calendar-graph-day-L3-bg:#30a14e;--color-calendar-graph-day-L4-bg:#216e39;--color-calendar-halloween-graph-day-L1-bg:#ffee4a;--color-calendar-halloween-graph-day-L2-bg:#ffc501;--color-calendar-halloween-graph-day-L3-bg:#fe9600;--color-calendar-halloween-graph-day-L4-bg:#03001c;--color-calendar-winter-graph-day-L1-bg:#0a3069;--color-calendar-winter-graph-day-L2-bg:#0969da;--color-calendar-winter-graph-day-L3-bg:#54aeff;--color-calendar-winter-graph-day-L4-bg:#b6e3ff;--color-calendar-graph-day-L4-border:rgba(27,31,35,0.06);--color-calendar-graph-day-L3-border:rgba(27,31,35,0.06);--color-calendar-graph-day-L2-border:rgba(27,31,35,0.06);--color-calendar-graph-day-L1-border:rgba(27,31,35,0.06)}#metrics-end{width:100%}</style>
    <style/>
    <foreignObject x="0" y="0" width="100%" height="100%">
        <div xmlns="http://www.w3.org/1999/xhtml" xmlns:xlink="http://www.w3.org/1999/xlink" class="items-wrapper">
            <section>
                <h2 class="field">
                    <svg xmlns="http://www.w3.org/2000/svg" viewBox="0 0 16 16" width="16" height="16">
                        <path d="M10.75 9a.75.75 0 000 1.5h1.5a.75.75 0 000-1.5h-1.5z"/>
                        <path fill-rule="evenodd" d="M0 3.75C0 2.784.784 2 1.75 2h12.5c.966 0 1.75.784 1.75 1.75v8.5A1.75 1.75 0 0114.25 14H1.75A1.75 1.75 0 010 12.25v-8.5zm14.5 0V5h-13V3.75a.25.25 0 01.25-.25h12.5a.25.25 0 01.25.25zm0 2.75h-13v5.75c0 .138.112.25.25.25h12.5a.25.25 0 00.25-.25V6.5z"/>
                    </svg>
                    Stock prices for MS
                </h2>
                <div class="row">
                    <section>
                        <div class="field">
                            <svg xmlns="http://www.w3.org/2000/svg" viewBox="0 0 16 16" width="16" height="16">
                                <path fill-rule="evenodd" d="M1.5 14.25c0 .138.112.25.25.25H4v-1.25a.75.75 0 01.75-.75h2.5a.75.75 0 01.75.75v1.25h2.25a.25.25 0 00.25-.25V1.75a.25.25 0 00-.25-.25h-8.5a.25.25 0 00-.25.25v12.5zM1.75 16A1.75 1.75 0 010 14.25V1.75C0 .784.784 0 1.75 0h8.5C11.216 0 12 .784 12 1.75v12.5c0 .085-.006.168-.018.25h2.268a.25.25 0 00.25-.25V8.285a.25.25 0 00-.111-.208l-1.055-.703a.75.75 0 11.832-1.248l1.055.703c.487.325.779.871.779 1.456v5.965A1.75 1.75 0 0114.25 16h-3.5a.75.75 0 01-.197-.026c-.099.017-.2.026-.303.026h-3a.75.75 0 01-.75-.75V14h-1v1.25a.75.75 0 01-.75.75h-3zM3 3.75A.75.75 0 013.75 3h.5a.75.75 0 010 1.5h-.5A.75.75 0 013 3.75zM3.75 6a.75.75 0 000 1.5h.5a.75.75 0 000-1.5h-.5zM3 9.75A.75.75 0 013.75 9h.5a.75.75 0 010 1.5h-.5A.75.75 0 013 9.75zM7.75 9a.75.75 0 000 1.5h.5a.75.75 0 000-1.5h-.5zM7 6.75A.75.75 0 017.75 6h.5a.75.75 0 010 1.5h-.5A.75.75 0 017 6.75zM7.75 3a.75.75 0 000 1.5h.5a.75.75 0 000-1.5h-.5z"/>
                            </svg>
                            MS
                        </div>
                        <div class="field">
                            <svg xmlns="http://www.w3.org/2000/svg" viewBox="0 0 16 16" width="16" height="16">
                                <path fill-rule="evenodd" d="M6 2a.75.75 0 01.696.471L10 10.731l1.304-3.26A.75.75 0 0112 7h3.25a.75.75 0 010 1.5h-2.742l-1.812 4.528a.75.75 0 01-1.392 0L6 4.77 4.696 8.03A.75.75 0 014 8.5H.75a.75.75 0 010-1.5h2.742l1.812-4.529A.75.75 0 016 2z"/>
                            </svg>
                            Valued at 190.59 USD
                        </div>
                    </section>
                    <section>
                        <div class="field">
                            <svg xmlns="http://www.w3.org/2000/svg" viewBox="0 0 16 16" width="16" height="16">
                                <path fill-rule="evenodd" d="M4.75 0a.75.75 0 01.75.75V2h5V.75a.75.75 0 011.5 0V2h1.25c.966 0 1.75.784 1.75 1.75v10.5A1.75 1.75 0 0113.25 16H2.75A1.75 1.75 0 011 14.25V3.75C1 2.784 1.784 2 2.75 2H4V.75A.75.75 0 014.75 0zm0 3.5h8.5a.25.25 0 01.25.25V6h-11V3.75a.25.25 0 01.25-.25h2zm-2.25 4v6.75c0 .138.112.25.25.25h10.5a.25.25 0 00.25-.25V7.5h-11z"/>
                            </svg>
                            Last five days
                        </div>
                        <div class="field">
                            <svg xmlns="http://www.w3.org/2000/svg" viewBox="0 0 16 16" width="16" height="16">
                                <path fill-rule="evenodd" d="M3.47 7.78a.75.75 0 010-1.06l4.25-4.25a.75.75 0 011.06 0l4.25 4.25a.75.75 0 01-1.06 1.06L9 4.81v7.44a.75.75 0 01-1.5 0V4.81L4.53 7.78a.75.75 0 01-1.06 0z"/>
                            </svg>
                            +4.51 USD (+2.37%)
                        </div>
                    </section>
                </div>
                <div class="stock-chart">
                    <svg xmlns="http://www.w3.org/2000/svg" width="480" height="200">
                        <g transform="translate(10,155)" fill="none" font-size="10" font-family="sans-serif" text-anchor="middle">
                            <path class="domain" stroke="rgba(127, 127, 127, .8)" d="M10.5,0.5H460.5"/>
                            <g class="tick" opacity="1" transform="translate(21.750117188720715,0)">
                                <line stroke="currentColor" y2="6" stroke-opacity="0.5"/>
                                <text fill="rgba(127, 127, 127, .8)" y="9" dy="0.71em" transform="translate(-5,5) rotate(-45)" style="text-anchor: end;">12 PM</text>
                            </g>
                            <g class="tick" opacity="1" transform="translate(55.50046875488286,0)">
                                <line stroke="currentColor" y2="6" stroke-opacity="0.5"/>
                                <text fill="rgba(127, 127, 127, .8)" y="9" dy="0.71em" transform="translate(-5,5) rotate(-45)" style="text-anchor: end;">Sat 25</text>
                            </g>
                            <g class="tick" opacity="1" transform="translate(89.25082032104501,0)">
                                <line stroke="currentColor" y2="6" stroke-opacity="0.5"/>
                                <text fill="rgba(127, 127, 127, .8)" y="9" dy="0.71em" transform="translate(-5,5) rotate(-45)" style="text-anchor: end;">12 PM</text>
                            </g>
                            <g class="tick" opacity="1" transform="translate(123.00117188720715,0)">
                                <line stroke="currentColor" y2="6" stroke-opacity="0.5"/>
                                <text fill="rgba(127, 127, 127, .8)" y="9" dy="0.71em" transform="translate(-5,5) rotate(-45)" style="text-anchor: end;">Apr 26</text>
                            </g>
                            <g class="tick" opacity="1" transform="translate(156.7515234533693,0)">
                                <line stroke="currentColor" y2="6" stroke-opacity="0.5"/>
                                <text fill="rgba(127, 127, 127, .8)" y="9" dy="0.71em" transform="translate(-5,5) rotate(-45)" style="text-anchor: end;">12 PM</text>
                            </g>
                            <g class="tick" opacity="1" transform="translate(190.50187501953144,0)">
                                <line stroke="currentColor" y2="6" stroke-opacity="0.5"/>
                                <text fill="rgba(127, 127, 127, .8)" y="9" dy="0.71em" transform="translate(-5,5) rotate(-45)" style="text-anchor: end;">Mon 27</text>
                            </g>
                            <g class="tick" opacity="1" transform="translate(224.25222658569362,0)">
                                <line stroke="currentColor" y2="6" stroke-opacity="0.5"/>
                                <text fill="rgba(127, 127, 127, .8)" y="9" dy="0.71em" transform="translate(-5,5) rotate(-45)" style="text-anchor: end;">12 PM</text>
                            </g>
                            <g class="tick" opacity="1" transform="translate(258.00257815185574,0)">
                                <line stroke="currentColor" y2="6" stroke-opacity="0.5"/>
                                <text fill="rgba(127, 127, 127, .8)" y="9" dy="0.71em" transform="translate(-5,5) rotate(-45)" style="text-anchor: end;">Tue 28</text>
                            </g>
                            <g class="tick" opacity="1" transform="translate(291.75292971801787,0)">
                                <line stroke="currentColor" y2="6" stroke-opacity="0.5"/>
                                <text fill="rgba(127, 127, 127, .8)" y="9" dy="0.71em" transform="translate(-5,5) rotate(-45)" style="text-anchor: end;">12 PM</text>
                            </g>
                            <g class="tick" opacity="1" transform="translate(325.50328128418005,0)">
                                <line stroke="currentColor" y2="6" stroke-opacity="0.5"/>
                                <text fill="rgba(127, 127, 127, .8)" y="9" dy="0.71em" transform="translate(-5,5) rotate(-45)" style="text-anchor: end;">Wed 29</text>
                            </g>
                            <g class="tick" opacity="1" transform="translate(359.2536328503422,0)">
                                <line stroke="currentColor" y2="6" stroke-opacity="0.5"/>
                                <text fill="rgba(127, 127, 127, .8)" y="9" dy="0.71em" transform="translate(-5,5) rotate(-45)" style="text-anchor: end;">12 PM</text>
                            </g>
                            <g class="tick" opacity="1" transform="translate(393.00398441650435,0)">
                                <line stroke="currentColor" y2="6" stroke-opacity="0.5"/>
                                <text fill="rgba(127, 127, 127, .8)" y="9" dy="0.71em" transform="translate(-5,5) rotate(-45)" style="text-anchor: end;">Thu 30</text>
                            </g>
                            <g class="tick" opacity="1" transform="translate(426.75433598266653,0)">
                                <line stroke="currentColor" y2="6" stroke-opacity="0.5"/>
                                <text fill="rgba(127, 127, 127, .8)" y="9" dy="0.71em" transform="translate(-5,5) rotate(-45)" style="text-anchor: end;">12 PM</text>
                            </g>
                        </g>
                        <g transform="translate(10,10)" fill="none" font-size="10" font-family="sans-serif" text-anchor="start">
                            <g class="tick" opacity="1" transform="translate(0,44.160477453580846)">
                                <line stroke="currentColor" x2="460" stroke-opacity="0.5" stroke-dasharray="2,2"/>
                                <text fill="rgba(127, 127, 127, .8)" x="0" dy="-4">190</text>
                            </g>
                            <g class="tick" opacity="1" transform="translate(0,79.96949602122015)">
                                <line stroke="currentColor" x2="460" stroke-opacity="0.5" stroke-dasharray="2,2"/>
                                <text fill="rgba(127, 127, 127, .8)" x="0" dy="-4">188</text>
                            </g>
                            <g class="tick" opacity="1" transform="translate(0,115.77851458885945)">
                                <line stroke="currentColor" x2="460" stroke-opacity="0.5" stroke-dasharray="2,2"/>
                                <text fill="rgba(127, 127, 127, .8)" x="0" dy="-4">186</text>
                            </g>
                        </g>
                        <path transform="translate(10,10)" d="M10,78.821L10.234,62.997L10.469,83.05L10.703,83.05L10.938,79.469L11.172,90.928L11.406,87.527L11.641,87.527L11.875,88.78L12.109,88.78L12.344,91.107L12.813,91.107L13.047,91.107L13.281,81.26L13.516,92.991L13.75,93.793L13.984,86.631L14.453,10L14.688,86.631L14.922,79.649L15.156,79.649L15.391,79.29L15.625,92.361L15.859,92.003L16.094,79.469L16.328,90.033L16.563,90.033L17.031,81.976L17.266,70.517L17.734,70.517L17.969,88.243L18.203,75.531L18.438,74.993L18.672,61.923L18.906,79.462L19.141,78.932L19.375,62.997L19.609,68.906L19.844,69.085L20.078,61.923L20.313,68.906L20.547,76.025L20.781,74.456L21.016,79.469L21.25,73.919L21.484,67.832L21.719,48.273L21.953,74.277L22.422,48.273L22.656,70.517L22.891,61.744L23.36,75.889L23.594,79.469L23.828,70.517L24.297,77.584L24.531,68.011L25.469,90.391L25.703,81.081L25.938,71.054L26.172,74.993L26.406,75.53L26.641,76.963L26.875,77.321L27.11,84.304L27.344,81.081L27.578,78.923L27.813,83.946L28.047,86.273L28.281,85.288L28.516,81.976L28.75,82.871L28.985,89.406L29.219,83.784L29.453,81.439L29.688,79.828L29.922,79.648L30.156,83.409L30.391,83.23L30.625,78.664L30.86,82.871L31.094,83.767L31.328,83.409L31.563,74.098L31.797,68.546L32.031,62.192L32.266,63.356L32.5,64.759L32.735,67.876L32.969,67.295L33.203,71.771L33.438,72.92L33.672,75.799L33.906,75.172L34.141,79.828L34.375,79.648L34.61,78.037L34.844,77.5L35.078,74.993L35.313,74.904L35.547,76.068L35.782,77.142L36.016,74.993L36.25,76.426L36.485,77.858L36.719,80.991L36.953,80.544L37.188,76.784L37.422,79.648L37.657,75.172L37.891,76.515L38.125,79.828L38.36,77.858L38.594,74.456L38.828,72.934L39.063,76.784L39.297,79.111L39.532,79.291L39.766,80.186L40,86.452L40.235,85.109L40.469,86.273L40.703,82.155L40.938,84.483L41.172,87.168L41.407,91.644L41.641,91.107L41.875,88.78L42.11,81.079L42.344,84.485L42.578,79.917L42.813,78.932L43.047,78.037L43.282,76.963L43.516,78.574L43.75,79.111L43.985,92.003L44.219,79.649L44.453,78.216L44.688,78.216L44.922,78.216L45.157,88.243L45.625,78.216L45.86,88.243L46.094,88.243L46.329,79.649L46.563,72.308L46.797,84.841L47.032,78.216L47.266,92.898L47.5,83.05L47.735,79.649L47.969,86.631L48.204,86.631L48.438,91.466L48.672,86.452L48.907,81.081L49.141,80.186L49.375,75.889L49.844,83.373L50.313,83.05L50.782,81.536L51.016,79.469L51.485,82.871L51.719,83.05L51.954,82.871L52.188,83.05L52.657,86.631L52.891,82.871L53.125,82.871L53.36,83.05L53.594,83.05L53.829,85.736L54.297,83.05L54.766,80.186L212.502,92.361L212.736,88.422L212.971,92.182L213.205,91.286L213.674,84.125L213.908,124.231L214.377,88.243L214.612,80.902L214.846,86.989L215.315,86.989L215.549,86.989L216.252,88.601L216.487,86.989L217.19,76.426L217.658,86.989L218.127,88.243L218.362,88.422L218.596,88.422L219.299,80.723L219.533,80.902L219.768,87.168L220.237,87.168L220.471,94.688L220.94,82.155L221.174,84.662L221.408,84.841L221.643,85.02L221.877,80.186L222.346,74.098L222.58,78.216L222.815,79.649L223.049,79.649L223.283,78.216L223.518,78.216L223.752,80.186L223.987,86.16L224.221,82.334L224.455,82.334L224.69,87.752L224.924,81.439L225.158,81.439L225.393,87.706L225.627,74.456L225.862,79.088L226.33,81.439L226.565,79.469L226.799,85.804L227.034,88.176L227.971,53.15L228.205,43.839L228.44,56.731L228.674,76.784L228.909,63.893L229.143,67.295L229.377,67.474L229.612,69.622L229.846,69.085L230.08,67.115L230.315,59.774L230.549,62.46L230.784,62.997L231.018,59.595L231.252,57.357L231.487,58.342L231.721,60.67L231.955,64.251L232.19,73.024L232.424,75.854L232.659,72.487L232.893,73.74L233.127,73.651L233.362,69.264L233.596,70.498L233.83,70.338L234.065,67.115L234.299,68.637L234.534,65.594L234.768,64.967L235.002,60.849L235.237,60.133L235.471,55.119L235.705,55.119L235.94,57.984L236.174,57.626L236.409,57.089L236.643,55.835L236.877,57.984L237.112,56.552L237.346,57.137L237.58,57.268L237.815,59.506L238.049,62.639L238.284,62.818L238.518,62.102L238.752,59.594L238.987,57.716L239.221,53.329L239.456,54.314L239.69,54.493L239.924,57.089L240.159,57.536L240.393,56.552L240.627,58.342L240.862,59.597L241.096,57.447L241.331,55.388L241.565,56.194L241.799,56.194L242.034,53.508L242.268,51.539L242.502,53.418L242.737,48.674L242.971,45.682L243.206,45.272L243.44,45.451L243.674,44.377L243.909,42.138L244.143,39.99L244.377,35.872L244.612,35.962L244.846,37.394L245.081,37.752L245.315,38.11L245.549,37.931L245.784,36.051L246.018,40.438L246.252,40.438L246.487,40.438L246.721,42.228L246.956,40.438L247.19,34.619L247.424,40.08L247.659,40.08L247.893,41.87L248.127,40.438L248.362,43.302L248.596,43.66L249.065,40.438L249.534,40.259L249.768,41.154L250.003,40.438L250.237,40.08L250.471,40.08L250.706,38.826L250.94,39.184L251.174,43.66L251.643,42.228L251.878,34.708L252.112,35.066L252.346,33.276L252.581,40.438L252.815,38.558L253.049,38.647L253.284,43.66L253.518,25.756L253.987,33.097L254.456,32.381L254.69,38.289L255.159,31.664L255.393,32.381L255.862,40.438L256.096,31.127L256.331,34.708L256.565,48.137L256.799,42.586L257.034,43.481L257.268,34.708L280.003,40.617L280.237,40.617L280.472,53.15L280.706,30.59L281.175,27.188L281.409,27.188L281.643,19.989L282.112,19.989L282.581,25.935L282.815,25.219L283.05,25.04L283.284,25.04L283.518,23.786L283.753,23.966L283.987,20.027L284.222,20.206L284.456,19.489L284.69,20.206L284.925,21.817L285.159,20.206L285.393,22.175L285.628,25.756L286.097,25.577L286.565,25.398L286.8,22.354L287.034,25.756L287.269,22.354L287.503,35.82L287.737,25.935L287.972,35.424L288.206,25.756L288.44,23.249L288.675,23.607L288.909,26.114L289.144,26.114L289.378,31.485L289.612,34.529L290.081,33.634L290.315,31.127L290.55,34.193L290.784,30.948L291.019,30.411L291.253,36.499L291.487,70.875L291.722,36.499L291.956,29.994L292.19,31.127L292.425,23.966L292.659,37.752L292.894,36.141L293.128,36.456L293.362,35.066L293.597,27.188L293.831,26.114L294.065,22.533L294.3,23.428L294.534,22.354L295.472,21.011L295.706,12.05L295.94,13.491L296.175,19.669L296.409,25.756L296.644,39.543L296.878,44.019L297.112,37.752L297.347,48.853L297.581,51.001L297.815,47.358L298.05,56.373L298.284,58.432L298.519,65.504L298.753,64.072L298.987,62.46L299.222,59.595L299.456,53.329L299.691,49.838L299.925,49.927L300.159,45.809L300.394,48.316L300.628,50.822L300.862,50.733L301.097,51.18L301.331,52.076L301.566,55.478L301.8,56.104L302.034,53.508L302.269,53.866L302.503,52.255L302.737,52.881L302.972,50.554L303.206,52.792L303.441,52.434L303.675,54.224L303.909,54.224L304.144,54.734L304.378,54.851L304.612,54.582L304.847,53.508L305.081,50.106L305.316,50.375L305.55,49.569L305.784,48.137L306.019,51.539L306.253,51.18L306.487,47.331L306.722,42.944L306.956,42.944L307.191,40.08L307.425,41.243L307.659,42.049L307.894,43.66L308.128,42.944L308.362,37.84L308.597,39.363L308.831,35.604L309.066,38.468L309.3,38.826L309.534,40.438L309.769,39.9L310.003,38.826L310.238,38.289L310.472,34.798L310.706,37.931L310.941,42.049L311.175,40.975L311.409,42.049L311.644,40.259L311.878,42.407L312.113,43.123L312.347,46.794L312.581,46.883L312.816,43.123L313.05,43.839L313.284,41.422L313.519,36.857L313.753,37.215L313.988,37.215L314.222,36.32L314.456,38.289L314.691,38.289L314.925,38.289L315.159,38.289L315.863,38.289L316.566,43.66L316.8,39.901L317.034,32.023L317.269,26.651L317.503,26.651L317.738,26.114L318.206,39.721L318.441,39.901L318.675,39.901L318.909,39.901L319.613,36.499L319.847,40.08L320.081,40.078L320.316,40.078L320.55,35.782L320.784,40.08L321.019,40.08L321.253,35.782L321.722,38.647L321.956,35.782L322.191,29.792L322.425,29.792L323.128,28.8L323.831,20.385L324.3,38.468L324.535,38.468L347.504,34.708L347.738,34.708L348.441,34.708L348.675,58.306L348.91,58.306L349.144,40.08L349.847,40.08L350.082,40.08L350.316,40.08L350.55,40.08L350.785,39.901L351.019,40.08L351.254,39.901L351.488,39.901L351.957,40.08L352.425,40.08L352.66,40.08L352.894,40.08L353.129,39.363L353.363,39.363L353.832,39.363L354.066,39.363L354.3,31.844L354.769,31.844L355.472,37.394L355.941,37.215L356.175,35.782L356.41,40.08L356.644,40.08L356.879,39.901L357.113,37.036L357.347,25.756L357.582,37.931L357.816,35.782L358.051,42.228L358.285,43.302L358.519,43.302L358.754,43.302L358.988,42.944L359.222,43.123L359.457,43.302L359.691,24.861L359.926,24.503L360.16,48.316L360.394,20.564L360.629,26.433L360.863,31.127L361.097,31.127L361.332,35.782L361.566,35.603L361.801,35.603L362.035,27.009L362.972,74.367L363.207,88.78L363.441,111.966L363.676,101.313L363.91,102.029L364.144,91.107L364.379,80.007L364.613,74.635L364.847,82.961L365.082,83.498L365.316,75.262L365.551,78.574L365.785,76.426L366.019,78.037L366.254,80.454L366.488,78.306L366.722,74.456L366.957,76.157L367.191,77.142L367.426,82.871L367.66,85.482L367.894,84.304L368.129,87.885L368.363,91.036L368.597,93.435L368.832,95.046L369.066,93.166L369.301,91.107L369.535,114.652L369.769,115.189L370.004,110.534L370.238,110.981L370.473,115.905L370.707,110.265L370.941,115.816L371.176,120.65L371.41,123.873L371.644,121.903L371.879,120.695L372.113,118.322L372.348,122.619L372.582,119.576L372.816,113.399L373.051,110.622L373.285,109.907L373.519,107.759L373.754,110.802L373.988,111.877L374.223,109.28L374.457,115.457L374.691,114.741L374.926,110.981L375.16,109.191L375.394,106.774L375.629,115.279L375.863,117.427L376.098,120.739L376.332,114.741L376.566,109.012L376.801,111.071L377.035,113.219L377.269,112.862L377.504,117.069L377.738,109.37L377.973,108.296L378.207,102.477L378.441,100.776L378.676,97.374L378.91,91.465L379.144,92.54L379.379,93.256L379.613,92.898L379.848,93.793L380.082,91.018L380.316,91.913L380.551,93.077L380.785,94.599L381.019,95.583L381.254,85.915L381.488,86.094L381.723,96.121L381.957,94.482L382.191,95.584L382.426,85.915L382.66,85.915L382.895,92.719L383.129,86.452L383.363,96.3L383.598,96.479L383.832,97.374L384.066,89.43L384.301,105.73L384.535,99.881L384.77,105.073L385.004,105.252L385.238,105.073L385.473,106.147L385.707,104.536L385.941,104.536L386.176,101.274L386.41,104.357L386.645,105.968L386.879,106.147L387.113,106.326L387.348,110.086L387.582,114.92L387.816,113.184L388.051,108.296L388.285,108.296L388.52,113.667L388.754,113.13L388.988,99.164L389.223,114.025L389.457,114.204L389.926,113.667L390.16,101.392L390.395,104.357L390.629,113.144L390.863,113.959L391.098,114.025L391.332,107.58L391.566,106.505L391.801,114.025L392.035,111.34L392.27,109.907L415.004,129.244L415.239,130.497L415.473,145L415.707,130.855L415.942,132.109L416.176,132.109L416.41,129.602L416.645,133.183L417.582,133.183L418.286,139.271L418.989,139.271L419.692,139.271L420.395,137.301L420.629,131.93L421.098,131.93L421.567,133.183L421.801,133.183L422.036,124.41L422.27,130.139L422.504,133.183L422.739,134.078L422.973,132.109L423.207,129.602L423.442,117.606L423.676,117.964L423.911,120.65L424.145,122.798L424.379,121.724L424.614,114.562L424.848,119.218L425.082,118.68L425.317,121.187L425.786,118.322L426.02,118.322L426.254,115.816L426.489,117.069L426.723,114.92L426.957,115.279L427.192,115.637L427.426,117.069L427.661,125.126L427.895,126.379L428.129,123.156L428.364,113.488L428.598,121.903L428.832,121.903L429.067,121.724L429.301,126.673L429.536,118.501L430.473,112.77L430.708,114.025L430.942,96.121L431.176,95.942L431.411,92.182L431.645,87.348L431.879,97.374L432.114,88.511L432.348,87.706L432.583,76.426L432.817,79.291L433.051,79.469L433.286,70.025L433.52,70.338L433.754,72.173L433.989,66.578L434.223,61.207L434.458,60.356L434.692,62.818L434.926,59.417L435.161,62.102L435.395,63.534L435.629,60.401L435.864,60.133L436.098,64.519L436.333,65.681L436.567,67.742L436.801,68.906L437.036,62.46L437.27,61.207L437.504,61.744L437.739,57.805L437.973,57.716L438.208,59.954L438.442,57.626L438.676,54.761L438.911,56.91L439.145,56.373L439.379,54.045L439.614,54.94L439.848,55.119L440.083,55.298L440.317,55.433L440.551,55.03L440.786,57.447L441.02,56.015L441.254,55.119L441.489,47.421L441.723,45.809L441.958,47.152L442.192,45.093L442.426,44.735L442.661,47.51L442.895,45.809L443.13,45.361L443.364,47.599L443.598,49.211L443.833,50.106L444.067,49.479L444.301,41.87L444.536,45.272L444.77,38.45L445.005,35.066L445.239,37.752L445.473,41.154L445.708,42.101L445.942,36.515L446.176,41.333L446.411,39.9L446.645,37.931L446.88,37.573L447.114,33.276L447.348,37.038L447.583,40.08L447.817,42.049L448.051,35.962L448.286,34.708L448.52,33.813L448.755,33.097L448.989,33.097L449.223,43.481L449.458,34.708L449.692,35.603L449.926,35.603L450.161,35.603L450.395,36.499L450.63,36.141L450.864,38.11L451.098,33.097L451.333,33.097L451.567,33.276L451.801,35.603L452.036,33.097L452.739,33.276L452.973,33.276L453.442,33.276L454.145,36.678L454.38,38.773L454.614,29.695L454.848,29.695L455.083,36.678L455.317,42.586L455.552,43.481L455.786,43.66L456.02,43.66L456.255,43.66L456.489,43.481L456.958,33.813L457.192,33.813L457.661,33.813L458.13,33.097L458.364,33.097L458.833,36.329L459.77,36.493L460,36.493" fill="transparent" stroke="#87ceeb" stroke-width="2"/>
                        <path transform="translate(10,10)" d="M10,145L10.234,145L10.469,145L10.703,145L10.938,145L11.172,145L11.406,145L11.641,145L11.875,145L12.109,145L12.344,145L12.813,145L13.047,145L13.281,145L13.516,145L13.75,145L13.984,145L14.453,145L14.688,145L14.922,145L15.156,145L15.391,145L15.625,145L15.859,145L16.094,145L16.328,145L16.563,145L17.031,145L17.266,145L17.734,145L17.969,145L18.203,145L18.438,145L18.672,145L18.906,145L19.141,145L19.375,145L19.609,145L19.844,145L20.078,145L20.313,145L20.547,145L20.781,145L21.016,145L21.25,145L21.484,145L21.719,145L21.953,145L22.422,145L22.656,145L22.891,145L23.36,145L23.594,145L23.828,145L24.297,145L24.531,145L25.469,145L25.703,145L25.938,145L26.172,145L26.406,145L26.641,145L26.875,145L27.11,145L27.344,145L27.578,145L27.813,145L28.047,145L28.281,145L28.516,145L28.75,145L28.985,145L29.219,145L29.453,145L29.688,145L29.922,145L30.156,145L30.391,145L30.625,145L30.86,145L31.094,145L31.328,145L31.563,145L31.797,145L32.031,145L32.266,145L32.5,145L32.735,145L32.969,145L33.203,145L33.438,145L33.672,145L33.906,145L34.141,145L34.375,145L34.61,145L34.844,145L35.078,145L35.313,145L35.547,145L35.782,145L36.016,145L36.25,145L36.485,145L36.719,145L36.953,145L37.188,145L37.422,145L37.657,145L37.891,145L38.125,145L38.36,145L38.594,145L38.828,145L39.063,145L39.297,145L39.532,145L39.766,145L40,145L40.235,145L40.469,145L40.703,145L40.938,145L41.172,145L41.407,145L41.641,145L41.875,145L42.11,145L42.344,145L42.578,145L42.813,145L43.047,145L43.282,145L43.516,145L43.75,145L43.985,145L44.219,145L44.453,145L44.688,145L44.922,145L45.157,145L45.625,145L45.86,145L46.094,145L46.329,145L46.563,145L46.797,145L47.032,145L47.266,145L47.5,145L47.735,145L47.969,145L48.204,145L48.438,145L48.672,145L48.907,145L49.141,145L49.375,145L49.844,145L50.313,145L50.782,145L51.016,145L51.485,145L51.719,145L51.954,145L52.188,145L52.657,145L52.891,145L53.125,145L53.36,145L53.594,145L53.829,145L54.297,145L54.766,145L212.502,145L212.736,145L212.971,145L213.205,145L213.674,145L213.908,145L214.377,145L214.612,145L214.846,145L215.315,145L215.549,145L216.252,145L216.487,145L217.19,145L217.658,145L218.127,145L218.362,145L218.596,145L219.299,145L219.533,145L219.768,145L220.237,145L220.471,145L220.94,145L221.174,145L221.408,145L221.643,145L221.877,145L222.346,145L222.58,145L222.815,145L223.049,145L223.283,145L223.518,145L223.752,145L223.987,145L224.221,145L224.455,145L224.69,145L224.924,145L225.158,145L225.393,145L225.627,145L225.862,145L226.33,145L226.565,145L226.799,145L227.034,145L227.971,145L228.205,145L228.44,145L228.674,145L228.909,145L229.143,145L229.377,145L229.612,145L229.846,145L230.08,145L230.315,145L230.549,145L230.784,145L231.018,145L231.252,145L231.487,145L231.721,145L231.955,145L232.19,145L232.424,145L232.659,145L232.893,145L233.127,145L233.362,145L233.596,145L233.83,145L234.065,145L234.299,145L234.534,145L234.768,145L235.002,145L235.237,145L235.471,145L235.705,145L235.94,145L236.174,145L236.409,145L236.643,145L236.877,145L237.112,145L237.346,145L237.58,145L237.815,145L238.049,145L238.284,145L238.518,145L238.752,145L238.987,145L239.221,145L239.456,145L239.69,145L239.924,145L240.159,145L240.393,145L240.627,145L240.862,145L241.096,145L241.331,145L241.565,145L241.799,145L242.034,145L242.268,145L242.502,145L242.737,145L242.971,145L243.206,145L243.44,145L243.674,145L243.909,145L244.143,145L244.377,145L244.612,145L244.846,145L245.081,145L245.315,145L245.549,145L245.784,145L246.018,145L246.252,145L246.487,145L246.721,145L246.956,145L247.19,145L247.424,145L247.659,145L247.893,145L248.127,145L248.362,145L248.596,145L249.065,145L249.534,145L249.768,145L250.003,145L250.237,145L250.471,145L250.706,145L250.94,145L251.174,145L251.643,145L251.878,145L252.112,145L252.346,145L252.581,145L252.815,145L253.049,145L253.284,145L253.518,145L253.987,145L254.456,145L254.69,145L255.159,145L255.393,145L255.862,145L256.096,145L256.331,145L256.565,145L256.799,145L257.034,145L257.268,145L280.003,145L280.237,145L280.472,145L280.706,145L281.175,145L281.409,145L281.643,145L282.112,145L282.581,145L282.815,145L283.05,145L283.284,145L283.518,145L283.753,145L283.987,145L284.222,145L284.456,145L284.69,145L284.925,145L285.159,145L285.393,145L285.628,145L286.097,145L286.565,145L286.8,145L287.034,145L287.269,145L287.503,145L287.737,145L287.972,145L288.206,145L288.44,145L288.675,145L288.909,145L289.144,145L289.378,145L289.612,145L290.081,145L290.315,145L290.55,145L290.784,145L291.019,145L291.253,145L291.487,145L291.722,145L291.956,145L292.19,145L292.425,145L292.659,145L292.894,145L293.128,145L293.362,145L293.597,145L293.831,145L294.065,145L294.3,145L294.534,145L295.472,145L295.706,145L295.94,145L296.175,145L296.409,145L296.644,145L296.878,145L297.112,145L297.347,145L297.581,145L297.815,145L298.05,145L298.284,145L298.519,145L298.753,145L298.987,145L299.222,145L299.456,145L299.691,145L299.925,145L300.159,145L300.394,145L300.628,145L300.862,145L301.097,145L301.331,145L301.566,145L301.8,145L302.034,145L302.269,145L302.503,145L302.737,145L302.972,145L303.206,145L303.441,145L303.675,145L303.909,145L304.144,145L304.378,145L304.612,145L304.847,145L305.081,145L305.316,145L305.55,145L305.784,145L306.019,145L306.253,145L306.487,145L306.722,145L306.956,145L307.191,145L307.425,145L307.659,145L307.894,145L308.128,145L308.362,145L308.597,145L308.831,145L309.066,145L309.3,145L309.534,145L309.769,145L310.003,145L310.238,145L310.472,145L310.706,145L310.941,145L311.175,145L311.409,145L311.644,145L311.878,145L312.113,145L312.347,145L312.581,145L312.816,145L313.05,145L313.284,145L313.519,145L313.753,145L313.988,145L314.222,145L314.456,145L314.691,145L314.925,145L315.159,145L315.863,145L316.566,145L316.8,145L317.034,145L317.269,145L317.503,145L317.738,145L318.206,145L318.441,145L318.675,145L318.909,145L319.613,145L319.847,145L320.081,145L320.316,145L320.55,145L320.784,145L321.019,145L321.253,145L321.722,145L321.956,145L322.191,145L322.425,145L323.128,145L323.831,145L324.3,145L324.535,145L347.504,145L347.738,145L348.441,145L348.675,145L348.91,145L349.144,145L349.847,145L350.082,145L350.316,145L350.55,145L350.785,145L351.019,145L351.254,145L351.488,145L351.957,145L352.425,145L352.66,145L352.894,145L353.129,145L353.363,145L353.832,145L354.066,145L354.3,145L354.769,145L355.472,145L355.941,145L356.175,145L356.41,145L356.644,145L356.879,145L357.113,145L357.347,145L357.582,145L357.816,145L358.051,145L358.285,145L358.519,145L358.754,145L358.988,145L359.222,145L359.457,145L359.691,145L359.926,145L360.16,145L360.394,145L360.629,145L360.863,145L361.097,145L361.332,145L361.566,145L361.801,145L362.035,145L362.972,145L363.207,145L363.441,145L363.676,145L363.91,145L364.144,145L364.379,145L364.613,145L364.847,145L365.082,145L365.316,145L365.551,145L365.785,145L366.019,145L366.254,145L366.488,145L366.722,145L366.957,145L367.191,145L367.426,145L367.66,145L367.894,145L368.129,145L368.363,145L368.597,145L368.832,145L369.066,145L369.301,145L369.535,145L369.769,145L370.004,145L370.238,145L370.473,145L370.707,145L370.941,145L371.176,145L371.41,145L371.644,145L371.879,145L372.113,145L372.348,145L372.582,145L372.816,145L373.051,145L373.285,145L373.519,145L373.754,145L373.988,145L374.223,145L374.457,145L374.691,145L374.926,145L375.16,145L375.394,145L375.629,145L375.863,145L376.098,145L376.332,145L376.566,145L376.801,145L377.035,145L377.269,145L377.504,145L377.738,145L377.973,145L378.207,145L378.441,145L378.676,145L378.91,145L379.144,145L379.379,145L379.613,145L379.848,145L380.082,145L380.316,145L380.551,145L380.785,145L381.019,145L381.254,145L381.488,145L381.723,145L381.957,145L382.191,145L382.426,145L382.66,145L382.895,145L383.129,145L383.363,145L383.598,145L383.832,145L384.066,145L384.301,145L384.535,145L384.77,145L385.004,145L385.238,145L385.473,145L385.707,145L385.941,145L386.176,145L386.41,145L386.645,145L386.879,145L387.113,145L387.348,145L387.582,145L387.816,145L388.051,145L388.285,145L388.52,145L388.754,145L388.988,145L389.223,145L389.457,145L389.926,145L390.16,145L390.395,145L390.629,145L390.863,145L391.098,145L391.332,145L391.566,145L391.801,145L392.035,145L392.27,145L415.004,145L415.239,145L415.473,145L415.707,145L415.942,145L416.176,145L416.41,145L416.645,145L417.582,145L418.286,145L418.989,145L419.692,145L420.395,145L420.629,145L421.098,145L421.567,145L421.801,145L422.036,145L422.27,145L422.504,145L422.739,145L422.973,145L423.207,145L423.442,145L423.676,145L423.911,145L424.145,145L424.379,145L424.614,145L424.848,145L425.082,145L425.317,145L425.786,145L426.02,145L426.254,145L426.489,145L426.723,145L426.957,145L427.192,145L427.426,145L427.661,145L427.895,145L428.129,145L428.364,145L428.598,145L428.832,145L429.067,145L429.301,145L429.536,145L430.473,145L430.708,145L430.942,145L431.176,145L431.411,145L431.645,145L431.879,145L432.114,145L432.348,145L432.583,145L432.817,145L433.051,145L433.286,145L433.52,145L433.754,145L433.989,145L434.223,145L434.458,145L434.692,145L434.926,145L435.161,145L435.395,145L435.629,145L435.864,145L436.098,145L436.333,145L436.567,145L436.801,145L437.036,145L437.27,145L437.504,145L437.739,145L437.973,145L438.208,145L438.442,145L438.676,145L438.911,145L439.145,145L439.379,145L439.614,145L439.848,145L440.083,145L440.317,145L440.551,145L440.786,145L441.02,145L441.254,145L441.489,145L441.723,145L441.958,145L442.192,145L442.426,145L442.661,145L442.895,145L443.13,145L443.364,145L443.598,145L443.833,145L444.067,145L444.301,145L444.536,145L444.77,145L445.005,145L445.239,145L445.473,145L445.708,145L445.942,145L446.176,145L446.411,145L446.645,145L446.88,145L447.114,145L447.348,145L447.583,145L447.817,145L448.051,145L448.286,145L448.52,145L448.755,145L448.989,145L449.223,145L449.458,145L449.692,145L449.926,145L450.161,145L450.395,145L450.63,145L450.864,145L451.098,145L451.333,145L451.567,145L451.801,145L452.036,145L452.739,145L452.973,145L453.442,145L454.145,145L454.38,145L454.614,145L454.848,145L455.083,145L455.317,145L455.552,145L455.786,145L456.02,145L456.255,145L456.489,145L456.958,145L457.192,145L457.661,145L458.13,145L458.364,145L458.833,145L459.77,145L460,145L460,36.493L459.77,36.493L458.833,36.329L458.364,33.097L458.13,33.097L457.661,33.813L457.192,33.813L456.958,33.813L456.489,43.481L456.255,43.66L456.02,43.66L455.786,43.66L455.552,43.481L455.317,42.586L455.083,36.678L454.848,29.695L454.614,29.695L454.38,38.773L454.145,36.678L453.442,33.276L452.973,33.276L452.739,33.276L452.036,33.097L451.801,35.603L451.567,33.276L451.333,33.097L451.098,33.097L450.864,38.11L450.63,36.141L450.395,36.499L450.161,35.603L449.926,35.603L449.692,35.603L449.458,34.708L449.223,43.481L448.989,33.097L448.755,33.097L448.52,33.813L448.286,34.708L448.051,35.962L447.817,42.049L447.583,40.08L447.348,37.038L447.114,33.276L446.88,37.573L446.645,37.931L446.411,39.9L446.176,41.333L445.942,36.515L445.708,42.101L445.473,41.154L445.239,37.752L445.005,35.066L444.77,38.45L444.536,45.272L444.301,41.87L444.067,49.479L443.833,50.106L443.598,49.211L443.364,47.599L443.13,45.361L442.895,45.809L442.661,47.51L442.426,44.735L442.192,45.093L441.958,47.152L441.723,45.809L441.489,47.421L441.254,55.119L441.02,56.015L440.786,57.447L440.551,55.03L440.317,55.433L440.083,55.298L439.848,55.119L439.614,54.94L439.379,54.045L439.145,56.373L438.911,56.91L438.676,54.761L438.442,57.626L438.208,59.954L437.973,57.716L437.739,57.805L437.504,61.744L437.27,61.207L437.036,62.46L436.801,68.906L436.567,67.742L436.333,65.681L436.098,64.519L435.864,60.133L435.629,60.401L435.395,63.534L435.161,62.102L434.926,59.417L434.692,62.818L434.458,60.356L434.223,61.207L433.989,66.578L433.754,72.173L433.52,70.338L433.286,70.025L433.051,79.469L432.817,79.291L432.583,76.426L432.348,87.706L432.114,88.511L431.879,97.374L431.645,87.348L431.411,92.182L431.176,95.942L430.942,96.121L430.708,114.025L430.473,112.77L429.536,118.501L429.301,126.673L429.067,121.724L428.832,121.903L428.598,121.903L428.364,113.488L428.129,123.156L427.895,126.379L427.661,125.126L427.426,117.069L427.192,115.637L426.957,115.279L426.723,114.92L426.489,117.069L426.254,115.816L426.02,118.322L425.786,118.322L425.317,121.187L425.082,118.68L424.848,119.218L424.614,114.562L424.379,121.724L424.145,122.798L423.911,120.65L423.676,117.964L423.442,117.606L423.207,129.602L422.973,132.109L422.739,134.078L422.504,133.183L422.27,130.139L422.036,124.41L421.801,133.183L421.567,133.183L421.098,131.93L420.629,131.93L420.395,137.301L419.692,139.271L418.989,139.271L418.286,139.271L417.582,133.183L416.645,133.183L416.41,129.602L416.176,132.109L415.942,132.109L415.707,130.855L415.473,145L415.239,130.497L415.004,129.244L392.27,109.907L392.035,111.34L391.801,114.025L391.566,106.505L391.332,107.58L391.098,114.025L390.863,113.959L390.629,113.144L390.395,104.357L390.16,101.392L389.926,113.667L389.457,114.204L389.223,114.025L388.988,99.164L388.754,113.13L388.52,113.667L388.285,108.296L388.051,108.296L387.816,113.184L387.582,114.92L387.348,110.086L387.113,106.326L386.879,106.147L386.645,105.968L386.41,104.357L386.176,101.274L385.941,104.536L385.707,104.536L385.473,106.147L385.238,105.073L385.004,105.252L384.77,105.073L384.535,99.881L384.301,105.73L384.066,89.43L383.832,97.374L383.598,96.479L383.363,96.3L383.129,86.452L382.895,92.719L382.66,85.915L382.426,85.915L382.191,95.584L381.957,94.482L381.723,96.121L381.488,86.094L381.254,85.915L381.019,95.583L380.785,94.599L380.551,93.077L380.316,91.913L380.082,91.018L379.848,93.793L379.613,92.898L379.379,93.256L379.144,92.54L378.91,91.465L378.676,97.374L378.441,100.776L378.207,102.477L377.973,108.296L377.738,109.37L377.504,117.069L377.269,112.862L377.035,113.219L376.801,111.071L376.566,109.012L376.332,114.741L376.098,120.739L375.863,117.427L375.629,115.279L375.394,106.774L375.16,109.191L374.926,110.981L374.691,114.741L374.457,115.457L374.223,109.28L373.988,111.877L373.754,110.802L373.519,107.759L373.285,109.907L373.051,110.622L372.816,113.399L372.582,119.576L372.348,122.619L372.113,118.322L371.879,120.695L371.644,121.903L371.41,123.873L371.176,120.65L370.941,115.816L370.707,110.265L370.473,115.905L370.238,110.981L370.004,110.534L369.769,115.189L369.535,114.652L369.301,91.107L369.066,93.166L368.832,95.046L368.597,93.435L368.363,91.036L368.129,87.885L367.894,84.304L367.66,85.482L367.426,82.871L367.191,77.142L366.957,76.157L366.722,74.456L366.488,78.306L366.254,80.454L366.019,78.037L365.785,76.426L365.551,78.574L365.316,75.262L365.082,83.498L364.847,82.961L364.613,74.635L364.379,80.007L364.144,91.107L363.91,102.029L363.676,101.313L363.441,111.966L363.207,88.78L362.972,74.367L362.035,27.009L361.801,35.603L361.566,35.603L361.332,35.782L361.097,31.127L360.863,31.127L360.629,26.433L360.394,20.564L360.16,48.316L359.926,24.503L359.691,24.861L359.457,43.302L359.222,43.123L358.988,42.944L358.754,43.302L358.519,43.302L358.285,43.302L358.051,42.228L357.816,35.782L357.582,37.931L357.347,25.756L357.113,37.036L356.879,39.901L356.644,40.08L356.41,40.08L356.175,35.782L355.941,37.215L355.472,37.394L354.769,31.844L354.3,31.844L354.066,39.363L353.832,39.363L353.363,39.363L353.129,39.363L352.894,40.08L352.66,40.08L352.425,40.08L351.957,40.08L351.488,39.901L351.254,39.901L351.019,40.08L350.785,39.901L350.55,40.08L350.316,40.08L350.082,40.08L349.847,40.08L349.144,40.08L348.91,58.306L348.675,58.306L348.441,34.708L347.738,34.708L347.504,34.708L324.535,38.468L324.3,38.468L323.831,20.385L323.128,28.8L322.425,29.792L322.191,29.792L321.956,35.782L321.722,38.647L321.253,35.782L321.019,40.08L320.784,40.08L320.55,35.782L320.316,40.078L320.081,40.078L319.847,40.08L319.613,36.499L318.909,39.901L318.675,39.901L318.441,39.901L318.206,39.721L317.738,26.114L317.503,26.651L317.269,26.651L317.034,32.023L316.8,39.901L316.566,43.66L315.863,38.289L315.159,38.289L314.925,38.289L314.691,38.289L314.456,38.289L314.222,36.32L313.988,37.215L313.753,37.215L313.519,36.857L313.284,41.422L313.05,43.839L312.816,43.123L312.581,46.883L312.347,46.794L312.113,43.123L311.878,42.407L311.644,40.259L311.409,42.049L311.175,40.975L310.941,42.049L310.706,37.931L310.472,34.798L310.238,38.289L310.003,38.826L309.769,39.9L309.534,40.438L309.3,38.826L309.066,38.468L308.831,35.604L308.597,39.363L308.362,37.84L308.128,42.944L307.894,43.66L307.659,42.049L307.425,41.243L307.191,40.08L306.956,42.944L306.722,42.944L306.487,47.331L306.253,51.18L306.019,51.539L305.784,48.137L305.55,49.569L305.316,50.375L305.081,50.106L304.847,53.508L304.612,54.582L304.378,54.851L304.144,54.734L303.909,54.224L303.675,54.224L303.441,52.434L303.206,52.792L302.972,50.554L302.737,52.881L302.503,52.255L302.269,53.866L302.034,53.508L301.8,56.104L301.566,55.478L301.331,52.076L301.097,51.18L300.862,50.733L300.628,50.822L300.394,48.316L300.159,45.809L299.925,49.927L299.691,49.838L299.456,53.329L299.222,59.595L298.987,62.46L298.753,64.072L298.519,65.504L298.284,58.432L298.05,56.373L297.815,47.358L297.581,51.001L297.347,48.853L297.112,37.752L296.878,44.019L296.644,39.543L296.409,25.756L296.175,19.669L295.94,13.491L295.706,12.05L295.472,21.011L294.534,22.354L294.3,23.428L294.065,22.533L293.831,26.114L293.597,27.188L293.362,35.066L293.128,36.456L292.894,36.141L292.659,37.752L292.425,23.966L292.19,31.127L291.956,29.994L291.722,36.499L291.487,70.875L291.253,36.499L291.019,30.411L290.784,30.948L290.55,34.193L290.315,31.127L290.081,33.634L289.612,34.529L289.378,31.485L289.144,26.114L288.909,26.114L288.675,23.607L288.44,23.249L288.206,25.756L287.972,35.424L287.737,25.935L287.503,35.82L287.269,22.354L287.034,25.756L286.8,22.354L286.565,25.398L286.097,25.577L285.628,25.756L285.393,22.175L285.159,20.206L284.925,21.817L284.69,20.206L284.456,19.489L284.222,20.206L283.987,20.027L283.753,23.966L283.518,23.786L283.284,25.04L283.05,25.04L282.815,25.219L282.581,25.935L282.112,19.989L281.643,19.989L281.409,27.188L281.175,27.188L280.706,30.59L280.472,53.15L280.237,40.617L280.003,40.617L257.268,34.708L257.034,43.481L256.799,42.586L256.565,48.137L256.331,34.708L256.096,31.127L255.862,40.438L255.393,32.381L255.159,31.664L254.69,38.289L254.456,32.381L253.987,33.097L253.518,25.756L253.284,43.66L253.049,38.647L252.815,38.558L252.581,40.438L252.346,33.276L252.112,35.066L251.878,34.708L251.643,42.228L251.174,43.66L250.94,39.184L250.706,38.826L250.471,40.08L250.237,40.08L250.003,40.438L249.768,41.154L249.534,40.259L249.065,40.438L248.596,43.66L248.362,43.302L248.127,40.438L247.893,41.87L247.659,40.08L247.424,40.08L247.19,34.619L246.956,40.438L246.721,42.228L246.487,40.438L246.252,40.438L246.018,40.438L245.784,36.051L245.549,37.931L245.315,38.11L245.081,37.752L244.846,37.394L244.612,35.962L244.377,35.872L244.143,39.99L243.909,42.138L243.674,44.377L243.44,45.451L243.206,45.272L242.971,45.682L242.737,48.674L242.502,53.418L242.268,51.539L242.034,53.508L241.799,56.194L241.565,56.194L241.331,55.388L241.096,57.447L240.862,59.597L240.627,58.342L240.393,56.552L240.159,57.536L239.924,57.089L239.69,54.493L239.456,54.314L239.221,53.329L238.987,57.716L238.752,59.594L238.518,62.102L238.284,62.818L238.049,62.639L237.815,59.506L237.58,57.268L237.346,57.137L237.112,56.552L236.877,57.984L236.643,55.835L236.409,57.089L236.174,57.626L235.94,57.984L235.705,55.119L235.471,55.119L235.237,60.133L235.002,60.849L234.768,64.967L234.534,65.594L234.299,68.637L234.065,67.115L233.83,70.338L233.596,70.498L233.362,69.264L233.127,73.651L232.893,73.74L232.659,72.487L232.424,75.854L232.19,73.024L231.955,64.251L231.721,60.67L231.487,58.342L231.252,57.357L231.018,59.595L230.784,62.997L230.549,62.46L230.315,59.774L230.08,67.115L229.846,69.085L229.612,69.622L229.377,67.474L229.143,67.295L228.909,63.893L228.674,76.784L228.44,56.731L228.205,43.839L227.971,53.15L227.034,88.176L226.799,85.804L226.565,79.469L226.33,81.439L225.862,79.088L225.627,74.456L225.393,87.706L225.158,81.439L224.924,81.439L224.69,87.752L224.455,82.334L224.221,82.334L223.987,86.16L223.752,80.186L223.518,78.216L223.283,78.216L223.049,79.649L222.815,79.649L222.58,78.216L222.346,74.098L221.877,80.186L221.643,85.02L221.408,84.841L221.174,84.662L220.94,82.155L220.471,94.688L220.237,87.168L219.768,87.168L219.533,80.902L219.299,80.723L218.596,88.422L218.362,88.422L218.127,88.243L217.658,86.989L217.19,76.426L216.487,86.989L216.252,88.601L215.549,86.989L215.315,86.989L214.846,86.989L214.612,80.902L214.377,88.243L213.908,124.231L213.674,84.125L213.205,91.286L212.971,92.182L212.736,88.422L212.502,92.361L54.766,80.186L54.297,83.05L53.829,85.736L53.594,83.05L53.36,83.05L53.125,82.871L52.891,82.871L52.657,86.631L52.188,83.05L51.954,82.871L51.719,83.05L51.485,82.871L51.016,79.469L50.782,81.536L50.313,83.05L49.844,83.373L49.375,75.889L49.141,80.186L48.907,81.081L48.672,86.452L48.438,91.466L48.204,86.631L47.969,86.631L47.735,79.649L47.5,83.05L47.266,92.898L47.032,78.216L46.797,84.841L46.563,72.308L46.329,79.649L46.094,88.243L45.86,88.243L45.625,78.216L45.157,88.243L44.922,78.216L44.688,78.216L44.453,78.216L44.219,79.649L43.985,92.003L43.75,79.111L43.516,78.574L43.282,76.963L43.047,78.037L42.813,78.932L42.578,79.917L42.344,84.485L42.11,81.079L41.875,88.78L41.641,91.107L41.407,91.644L41.172,87.168L40.938,84.483L40.703,82.155L40.469,86.273L40.235,85.109L40,86.452L39.766,80.186L39.532,79.291L39.297,79.111L39.063,76.784L38.828,72.934L38.594,74.456L38.36,77.858L38.125,79.828L37.891,76.515L37.657,75.172L37.422,79.648L37.188,76.784L36.953,80.544L36.719,80.991L36.485,77.858L36.25,76.426L36.016,74.993L35.782,77.142L35.547,76.068L35.313,74.904L35.078,74.993L34.844,77.5L34.61,78.037L34.375,79.648L34.141,79.828L33.906,75.172L33.672,75.799L33.438,72.92L33.203,71.771L32.969,67.295L32.735,67.876L32.5,64.759L32.266,63.356L32.031,62.192L31.797,68.546L31.563,74.098L31.328,83.409L31.094,83.767L30.86,82.871L30.625,78.664L30.391,83.23L30.156,83.409L29.922,79.648L29.688,79.828L29.453,81.439L29.219,83.784L28.985,89.406L28.75,82.871L28.516,81.976L28.281,85.288L28.047,86.273L27.813,83.946L27.578,78.923L27.344,81.081L27.11,84.304L26.875,77.321L26.641,76.963L26.406,75.53L26.172,74.993L25.938,71.054L25.703,81.081L25.469,90.391L24.531,68.011L24.297,77.584L23.828,70.517L23.594,79.469L23.36,75.889L22.891,61.744L22.656,70.517L22.422,48.273L21.953,74.277L21.719,48.273L21.484,67.832L21.25,73.919L21.016,79.469L20.781,74.456L20.547,76.025L20.313,68.906L20.078,61.923L19.844,69.085L19.609,68.906L19.375,62.997L19.141,78.932L18.906,79.462L18.672,61.923L18.438,74.993L18.203,75.531L17.969,88.243L17.734,70.517L17.266,70.517L17.031,81.976L16.563,90.033L16.328,90.033L16.094,79.469L15.859,92.003L15.625,92.361L15.391,79.29L15.156,79.649L14.922,79.649L14.688,86.631L14.453,10L13.984,86.631L13.75,93.793L13.516,92.991L13.281,81.26L13.047,91.107L12.813,91.107L12.344,91.107L12.109,88.78L11.875,88.78L11.641,87.527L11.406,87.527L11.172,90.928L10.938,79.469L10.703,83.05L10.469,83.05L10.234,62.997L10,78.821Z" fill="rgba(88, 166, 255, .1)"/>
                    </svg>
                </div>
            </section>
        </div>
        <div xmlns="http://www.w3.org/1999/xhtml" id="metrics-end"></div>
    </foreignObject>
</svg>