<svg xmlns="http://www.w3.org/2000/svg" width="480" height="302" class="">
    <defs>
        <style/>
    </defs>
    <style>@keyframes animation-gauge{0%{stroke-dasharray:0 329}}@keyframes animation-rainbow{0%,to{color:#7f00ff;fill:#7f00ff}14%{color:#a933ff;fill:#a933ff}29%{color:#007fff;fill:#007fff}43%{color:#00ff7f;fill:#00ff7f}57%{color:#ff0;fill:#ff0}71%{color:#ff7f00;fill:#ff7f00}86%{color:red;fill:red}}svg{font-family:-apple-system,BlinkMacSystemFont,Segoe UI,Helvetica,Arial,sans-serif,Apple Color Emoji,Segoe UI Emoji;font-size:14px;color:#777}h2{margin:8px 0 2px;padding:0;color:#0366d6;font-weight:400;font-size:16px}h2 svg{fill:currentColor}section&gt;.field{margin-left:5px;margin-right:5px}.field{display:flex;align-items:center;margin-bottom:2px;white-space:nowrap}.field svg{margin:0 8px;fill:#959da5;flex-shrink:0}.row{display:flex;flex-wrap:wrap}.row section{flex:1 1 0}:root{--color-calendar-graph-day-bg:#ebedf0;--color-calendar-graph-day-border:rgba(27,31,35,0.06);--color-calendar-graph-day-L1-bg:#9be9a8;--color-calendar-graph-day-L2-bg:#40c463;--color-calendar-graph-day-L3-bg:#30a14e;--color-calendar-graph-day-L4-bg:#216e39;--color-calendar-halloween-graph-day-L1-bg:#ffee4a;--color-calendar-halloween-graph-day-L2-bg:#ffc501;--color-calendar-halloween-graph-day-L3-bg:#fe9600;--color-calendar-halloween-graph-day-L4-bg:#03001c;--color-calendar-winter-graph-day-L1-bg:#0a3069;--color-calendar-winter-graph-day-L2-bg:#0969da;--color-calendar-winter-graph-day-L3-bg:#54aeff;--color-calendar-winter-graph-day-L4-bg:#b6e3ff;--color-calendar-graph-day-L4-border:rgba(27,31,35,0.06);--color-calendar-graph-day-L3-border:rgba(27,31,35,0.06);--color-calendar-graph-day-L2-border:rgba(27,31,35,0.06);--color-calendar-graph-day-L1-border:rgba(27,31,35,0.06)}#metrics-end{width:100%}</style>
    <style/>
    <foreignObject x="0" y="0" width="100%" height="100%">
        <div xmlns="http://www.w3.org/1999/xhtml" xmlns:xlink="http://www.w3.org/1999/xlink" class="items-wrapper">
            <section>
                <h2 class="field">
                    <svg xmlns="http://www.w3.org/2000/svg" viewBox="0 0 16 16" width="16" height="16">
                        <path d="M10.75 9a.75.75 0 000 1.5h1.5a.75.75 0 000-1.5h-1.5z"/>
                        <path fill-rule="evenodd" d="M0 3.75C0 2.784.784 2 1.75 2h12.5c.966 0 1.75.784 1.75 1.75v8.5A1.75 1.75 0 0114.25 14H1.75A1.75 1.75 0 010 12.25v-8.5zm14.5 0V5h-13V3.75a.25.25 0 01.25-.25h12.5a.25.25 0 01.25.25zm0 2.75h-13v5.75c0 .138.112.25.25.25h12.5a.25.25 0 00.25-.25V6.5z"/>
                    </svg>
                    Stock prices for MS
                </h2>
                <div class="row">
                    <section>
                        <div class="field">
                            <svg xmlns="http://www.w3.org/2000/svg" viewBox="0 0 16 16" width="16" height="16">
                                <path fill-rule="evenodd" d="M1.5 14.25c0 .138.112.25.25.25H4v-1.25a.75.75 0 01.75-.75h2.5a.75.75 0 01.75.75v1.25h2.25a.25.25 0 00.25-.25V1.75a.25.25 0 00-.25-.25h-8.5a.25.25 0 00-.25.25v12.5zM1.75 16A1.75 1.75 0 010 14.25V1.75C0 .784.784 0 1.75 0h8.5C11.216 0 12 .784 12 1.75v12.5c0 .085-.006.168-.018.25h2.268a.25.25 0 00.25-.25V8.285a.25.25 0 00-.111-.208l-1.055-.703a.75.75 0 11.832-1.248l1.055.703c.487.325.779.871.779 1.456v5.965A1.75 1.75 0 0114.25 16h-3.5a.75.75 0 01-.197-.026c-.099.017-.2.026-.303.026h-3a.75.75 0 01-.75-.75V14h-1v1.25a.75.75 0 01-.75.75h-3zM3 3.75A.75.75 0 013.75 3h.5a.75.75 0 010 1.5h-.5A.75.75 0 013 3.75zM3.75 6a.75.75 0 000 1.5h.5a.75.75 0 000-1.5h-.5zM3 9.75A.75.75 0 013.75 9h.5a.75.75 0 010 1.5h-.5A.75.75 0 013 9.75zM7.75 9a.75.75 0 000 1.5h.5a.75.75 0 000-1.5h-.5zM7 6.75A.75.75 0 017.75 6h.5a.75.75 0 010 1.5h-.5A.75.75 0 017 6.75zM7.75 3a.75.75 0 000 1.5h.5a.75.75 0 000-1.5h-.5z"/>
                            </svg>
                            MS
                        </div>
                        <div class="field">
                            <svg xmlns="http://www.w3.org/2000/svg" viewBox="0 0 16 16" width="16" height="16">
                                <path fill-rule="evenodd" d="M6 2a.75.75 0 01.696.471L10 10.731l1.304-3.26A.75.75 0 0112 7h3.25a.75.75 0 010 1.5h-2.742l-1.812 4.528a.75.75 0 01-1.392 0L6 4.77 4.696 8.03A.75.75 0 014 8.5H.75a.75.75 0 010-1.5h2.742l1.812-4.529A.75.75 0 016 2z"/>
                            </svg>
                            Valued at 208.00 USD
                        </div>
                    </section>
                    <section>
                        <div class="field">
                            <svg xmlns="http://www.w3.org/2000/svg" viewBox="0 0 16 16" width="16" height="16">
                                <path fill-rule="evenodd" d="M4.75 0a.75.75 0 01.75.75V2h5V.75a.75.75 0 011.5 0V2h1.25c.966 0 1.75.784 1.75 1.75v10.5A1.75 1.75 0 0113.25 16H2.75A1.75 1.75 0 011 14.25V3.75C1 2.784 1.784 2 2.75 2H4V.75A.75.75 0 014.75 0zm0 3.5h8.5a.25.25 0 01.25.25V6h-11V3.75a.25.25 0 01.25-.25h2zm-2.25 4v6.75c0 .138.112.25.25.25h10.5a.25.25 0 00.25-.25V7.5h-11z"/>
                            </svg>
                            Last five days
                        </div>
                        <div class="field">
                            <svg xmlns="http://www.w3.org/2000/svg" viewBox="0 0 16 16" width="16" height="16">
                                <path fill-rule="evenodd" d="M3.47 7.78a.75.75 0 010-1.06l4.25-4.25a.75.75 0 011.06 0l4.25 4.25a.75.75 0 01-1.06 1.06L9 4.81v7.44a.75.75 0 01-1.5 0V4.81L4.53 7.78a.75.75 0 01-1.06 0z"/>
                            </svg>
                            +4.21 USD (+2.02%)
                        </div>
                    </section>
                </div>
                <div class="stock-chart">
                    <svg xmlns="http://www.w3.org/2000/svg" width="480" height="200">
                        <g transform="translate(10,155)" fill="none" font-size="10" font-family="sans-serif" text-anchor="middle">
                            <path class="domain" stroke="rgba(127, 127, 127, .8)" d="M10.5,0.5H460.5"/>
                            <g class="tick" opacity="1" transform="translate(49.63321144465262,0)">
                                <line stroke="currentColor" y2="6" stroke-opacity="0.5"/>
                                <text fill="rgba(127, 127, 127, .8)" y="9" dy="0.71em" transform="translate(-5,5) rotate(-45)" style="text-anchor: end;">Sat 23</text>
                            </g>
                            <g class="tick" opacity="1" transform="translate(108.33302861163156,0)">
                                <line stroke="currentColor" y2="6" stroke-opacity="0.5"/>
                                <text fill="rgba(127, 127, 127, .8)" y="9" dy="0.71em" transform="translate(-5,5) rotate(-45)" style="text-anchor: end;">May 24</text>
                            </g>
                            <g class="tick" opacity="1" transform="translate(167.0328457786105,0)">
                                <line stroke="currentColor" y2="6" stroke-opacity="0.5"/>
                                <text fill="rgba(127, 127, 127, .8)" y="9" dy="0.71em" transform="translate(-5,5) rotate(-45)" style="text-anchor: end;">Mon 25</text>
                            </g>
                            <g class="tick" opacity="1" transform="translate(225.73266294558945,0)">
                                <line stroke="currentColor" y2="6" stroke-opacity="0.5"/>
                                <text fill="rgba(127, 127, 127, .8)" y="9" dy="0.71em" transform="translate(-5,5) rotate(-45)" style="text-anchor: end;">Tue 26</text>
                            </g>
                            <g class="tick" opacity="1" transform="translate(284.4324801125684,0)">
                                <line stroke="currentColor" y2="6" stroke-opacity="0.5"/>
                                <text fill="rgba(127, 127, 127, .8)" y="9" dy="0.71em" transform="translate(-5,5) rotate(-45)" style="text-anchor: end;">Wed 27</text>
                            </g>
                            <g class="tick" opacity="1" transform="translate(343.13229727954734,0)">
                                <line stroke="currentColor" y2="6" stroke-opacity="0.5"/>
                                <text fill="rgba(127, 127, 127, .8)" y="9" dy="0.71em" transform="translate(-5,5) rotate(-45)" style="text-anchor: end;">Thu 28</text>
                            </g>
                            <g class="tick" opacity="1" transform="translate(401.83211444652625,0)">
                                <line stroke="currentColor" y2="6" stroke-opacity="0.5"/>
                                <text fill="rgba(127, 127, 127, .8)" y="9" dy="0.71em" transform="translate(-5,5) rotate(-45)" style="text-anchor: end;">Fri 29</text>
                            </g>
                        </g>
                        <g transform="translate(10,10)" fill="none" font-size="10" font-family="sans-serif" text-anchor="start">
                            <g class="tick" opacity="1" transform="translate(0,20.67316062737676)">
                                <line stroke="currentColor" x2="460" stroke-opacity="0.5" stroke-dasharray="2,2"/>
                                <text fill="rgba(127, 127, 127, .8)" x="0" dy="-4">208</text>
                            </g>
                            <g class="tick" opacity="1" transform="translate(0,44.048989274842015)">
                                <line stroke="currentColor" x2="460" stroke-opacity="0.5" stroke-dasharray="2,2"/>
                                <text fill="rgba(127, 127, 127, .8)" x="0" dy="-4">206</text>
                            </g>
                            <g class="tick" opacity="1" transform="translate(0,67.42481792230727)">
                                <line stroke="currentColor" x2="460" stroke-opacity="0.5" stroke-dasharray="2,2"/>
                                <text fill="rgba(127, 127, 127, .8)" x="0" dy="-4">204</text>
                            </g>
                            <g class="tick" opacity="1" transform="translate(0,90.80064656977254)">
                                <line stroke="currentColor" x2="460" stroke-opacity="0.5" stroke-dasharray="2,2"/>
                                <text fill="rgba(127, 127, 127, .8)" x="0" dy="-4">202</text>
                            </g>
                            <g class="tick" opacity="1" transform="translate(0,114.1764752172378)">
                                <line stroke="currentColor" x2="460" stroke-opacity="0.5" stroke-dasharray="2,2"/>
                                <text fill="rgba(127, 127, 127, .8)" x="0" dy="-4">200</text>
                            </g>
                            <g class="tick" opacity="1" transform="translate(0,137.55230386470305)">
                                <line stroke="currentColor" x2="460" stroke-opacity="0.5" stroke-dasharray="2,2"/>
                                <text fill="rgba(127, 127, 127, .8)" x="0" dy="-4">198</text>
                            </g>
                        </g>
                        <path transform="translate(10,10)" d="M10,95.21L10.408,95.21L10.815,91.469L11.019,95.21L11.223,100.469L11.427,99.768L11.631,91.586L11.834,101.054L12.038,101.054L12.242,100.937L12.446,100.586L12.853,100.586L13.465,90.418L13.669,100.82L13.873,98.833L14.076,90.301L14.28,90.301L14.484,93.106L14.892,99.856L15.299,99.885L15.503,99.885L15.707,98.482L15.911,98.482L16.318,99.067L16.522,99.067L16.93,90.301L17.134,93.223L17.337,96.145L17.541,96.145L17.745,92.638L17.949,101.054L18.357,101.989L18.56,100.703L18.764,104.209L18.968,98.482L19.172,97.43L19.376,97.43L19.579,97.43L19.783,98.95L19.987,101.404L20.191,92.638L20.395,90.418L20.599,93.223L20.802,96.145L21.006,96.145L21.21,85.041L21.414,100.82L21.618,94.538L21.821,94.275L22.025,90.885L22.229,87.379L22.433,89.278L22.637,88.314L23.452,92.638L23.656,101.696L23.86,95.21L24.063,93.924L24.267,92.521L24.471,90.768L24.675,86.882L24.879,87.028L25.083,92.93L25.286,91.002L25.49,94.741L25.694,92.171L25.898,93.223L26.102,88.84L26.306,87.612L26.509,91.762L26.713,92.697L26.917,90.885L27.121,91.236L27.325,91.47L27.528,91.353L27.732,89.482L27.936,88.08L28.14,86.21L28.344,88.548L28.548,89.599L28.751,88.758L28.955,87.262L29.159,87.028L29.363,89.307L29.567,89.249L29.77,89.716L29.974,88.664L30.178,87.963L30.382,87.495L30.586,85.626L30.79,83.522L30.993,82.119L31.197,81.944L31.401,82.353L31.605,81.944L31.809,85.918L32.012,83.468L32.216,82.353L32.42,85.509L32.624,88.898L32.828,87.729L33.032,78.028L33.235,83.054L33.439,83.638L33.643,84.457L33.847,85.684L34.051,87.028L34.254,84.281L34.458,84.457L34.662,86.677L34.866,88.314L35.07,86.327L35.274,85.275L35.477,87.963L35.681,86.151L35.885,86.794L36.089,87.737L36.293,86.97L36.496,84.105L36.7,87.145L36.904,91.294L37.108,90.183L37.312,90.71L37.516,92.288L37.719,94.976L37.923,95.677L38.127,96.729L38.331,98.365L38.535,98.495L38.738,100.586L38.942,99.651L39.146,101.404L39.35,101.638L39.554,101.404L39.758,101.638L39.961,101.638L40.165,99.417L40.369,97.664L40.573,78.613L40.777,78.613L41.184,99.417L41.592,101.638L41.796,101.638L42,101.638L42.203,96.145L42.407,100.469L42.611,98.599L42.815,101.638L43.019,98.295L43.222,98.248L43.426,103.742L43.63,103.742L43.834,102.573L44.038,100.352L44.242,96.963L44.445,95.56L44.853,93.912L45.057,90.301L45.261,99.417L45.464,99.067L45.872,99.067L46.076,96.495L46.484,99.067L46.687,97.021L47.095,101.989L47.299,99.067L47.503,99.3L47.706,97.021L47.91,101.994L48.114,103.859L48.318,103.859L48.726,102.047L48.929,96.261L244.799,80.717L245.207,80.717L245.411,77.795L245.615,77.911L245.818,77.911L246.022,74.756L246.43,75.691L247.041,78.028L247.245,76.041L247.449,80.366L247.653,69.728L247.857,69.262L248.264,78.613L248.468,89.661L248.876,79.782L249.079,80.95L249.283,71.132L249.487,71.132L249.895,78.73L250.099,78.73L250.302,79.08L250.506,81.418L250.71,79.314L250.914,79.431L251.321,90.301L251.525,84.574L251.933,82.236L252.137,78.496L252.341,86.561L252.544,80.95L252.748,81.652L252.952,82.119L253.156,77.911L253.36,77.444L253.563,79.782L253.767,76.422L253.971,81.768L254.175,78.262L254.379,78.379L254.583,77.678L254.786,76.158L254.99,76.158L255.194,76.158L255.398,84.057L255.805,68.444L256.009,77.444L256.213,72.418L256.417,72.535L256.621,75.925L256.825,72.535L257.028,78.613L257.232,78.73L257.436,78.028L258.251,74.054L258.455,71.775L258.659,74.931L258.863,76.275L259.067,82.645L259.27,87.379L259.474,91.119L259.678,94.508L259.882,105.144L260.086,111.222L260.289,107.833L260.493,110.17L260.697,109.001L260.901,103.216L261.105,109.235L261.309,102.924L261.512,104.326L261.716,101.404L261.92,104.326L262.124,104.326L262.328,105.144L262.532,102.69L262.735,104.735L262.939,106.897L263.143,107.599L263.347,106.43L263.551,104.443L263.754,104.326L263.958,105.846L264.162,104.794L264.366,105.378L264.57,105.24L264.774,106.664L264.977,104.911L265.181,104.794L265.385,106.897L265.589,109.469L265.793,108.884L265.996,110.988L266.2,112.449L266.404,110.286L266.608,112.685L266.812,112.508L267.016,111.806L267.219,109.586L267.423,109.586L267.627,108.066L267.831,109.703L268.035,107.833L268.238,108.884L268.442,108.358L268.646,112.099L268.85,113.676L269.054,113.326L269.258,113.56L269.461,112.917L269.665,109.586L269.869,107.54L270.073,107.248L270.277,107.833L270.48,106.547L270.684,106.664L270.888,106.196L271.092,104.56L271.296,103.713L271.5,103.859L271.703,102.281L271.907,101.521L272.111,102.105L272.315,100.703L272.519,100.586L272.722,101.054L272.926,97.313L273.13,94.684L273.334,95.326L273.538,96.265L273.742,92.404L273.945,93.515L274.149,93.106L274.353,92.638L274.557,93.106L274.761,96.145L274.964,99.768L275.168,99.067L275.372,95.56L275.576,95.56L275.78,98.535L275.984,97.781L276.187,98.482L276.391,97.313L276.595,96.786L276.799,98.599L277.003,97.898L277.206,98.949L277.614,97.323L277.818,98.922L278.429,97.541L278.633,98.923L278.837,97.541L279.041,98.924L279.448,98.95L279.652,99.067L280.468,98.916L280.671,98.916L280.875,98.19L281.079,97.313L281.283,97.892L281.487,97.313L281.894,97.313L282.302,97.313L282.71,96.729L282.913,96.729L283.117,94.391L283.321,94.041L283.525,93.924L283.729,93.924L303.499,86.677L303.703,85.158L303.907,85.158L304.111,88.898L304.314,82.236L304.518,81.885L304.722,78.613L305.13,82.236L305.333,81.768L305.537,78.613L305.945,72.418L306.353,72.418L307.779,82.236L307.983,81.067L308.595,71.951L308.798,77.678L309.002,78.496L309.206,78.262L309.41,78.262L309.614,77.678L309.817,77.678L310.021,77.678L310.633,77.678L310.837,89.366L311.04,82.236L311.244,82.236L311.448,84.457L311.652,81.535L311.856,78.846L312.059,78.846L312.467,89.015L312.671,89.015L312.875,75.691L313.079,81.535L313.282,83.872L313.486,89.132L313.69,86.911L313.894,87.846L314.098,79.782L314.301,82.82L314.505,78.73L314.709,79.548L314.913,81.301L315.117,89.132L315.321,81.067L315.524,79.665L315.728,83.872L315.932,81.301L316.136,87.612L316.951,101.872L317.155,118.819L317.359,135.883L317.563,145L317.766,127.877L317.97,137.52L318.174,138.163L318.378,129.105L318.582,115.897L318.785,111.865L318.989,116.832L319.193,113.326L319.397,110.112L319.601,103.508L319.805,106.781L320.008,107.014L320.212,105.846L320.416,105.144L320.62,105.203L320.824,106.021L321.028,112.391L321.231,116.774L321.435,116.248L321.639,122.092L321.843,117.884L322.047,122.384L322.25,118.235L322.454,118.235L322.658,117.124L322.862,111.982L323.066,114.612L323.27,112.449L323.473,111.865L323.677,109.644L323.881,108.125L324.085,108.3L324.289,104.56L324.492,107.19L324.696,104.677L324.9,106.547L325.104,104.56L325.308,107.219L325.512,106.43L325.715,106.781L325.919,107.599L326.123,104.602L326.327,101.696L326.531,101.929L326.734,100.469L326.938,101.872L327.142,102.105L327.346,103.859L327.55,100.06L327.754,99.768L327.957,104.034L328.161,104.209L328.365,105.086L328.569,102.807L328.773,102.807L328.976,101.813L329.18,100.819L329.384,100.235L329.588,94.508L329.792,92.054L329.996,90.301L330.199,90.301L330.403,90.534L330.607,90.417L330.811,91.119L331.015,91.703L331.218,90.009L331.422,94.391L331.626,92.288L331.83,94.625L332.034,95.268L332.238,96.846L332.441,93.223L332.645,94.684L332.849,94.859L333.053,94.859L333.257,94.859L333.46,94.976L333.664,94.859L334.072,87.457L334.276,90.301L334.48,90.067L334.683,90.184L334.887,94.859L335.091,87.028L335.295,86.444L335.702,84.665L336.11,85.275L336.314,86.21L336.518,94.859L336.722,86.21L337.129,85.258L337.537,86.327L337.741,86.327L337.944,89.366L338.352,84.457L338.556,85.201L338.76,86.327L338.964,90.301L339.371,90.301L339.575,94.859L339.779,101.989L339.983,127.234L340.186,94.859L340.594,98.716L340.798,90.418L341.002,92.026L341.206,92.026L341.613,98.482L342.021,90.418L342.225,106.664L342.428,125.364L362.199,99.534L362.403,117.237L362.607,117.237L363.014,117.307L363.422,97.898L364.441,97.898L365.256,97.898L367.091,97.664L367.498,97.664L368.11,97.898L368.925,97.898L369.536,94.859L369.74,95.56L369.944,97.898L370.148,101.989L370.759,113.653L370.963,113.56L371.371,110.871L371.575,110.754L371.778,110.754L371.982,110.754L372.186,111.456L372.39,102.456L372.797,110.053L373.001,110.053L373.205,99.183L373.409,117.524L373.613,118.936L373.817,101.989L374.02,109.235L374.224,109.235L374.428,101.989L374.632,115.897L374.836,116.11L375.651,99.067L375.855,87.729L376.059,87.379L376.262,86.794L376.466,85.976L376.67,86.911L376.874,86.736L377.078,90.827L377.281,77.006L377.485,79.782L377.689,81.535L377.893,83.872L378.097,90.564L378.301,91.586L378.504,85.976L378.708,79.84L378.912,79.139L379.116,78.145L379.32,74.873L379.524,75.808L379.727,78.379L379.931,78.788L380.135,78.613L380.339,75.407L380.543,77.911L380.746,76.45L380.95,75.515L381.154,78.145L381.358,73.412L381.562,75.632L381.766,75.165L381.969,73.704L382.173,73.821L382.377,77.093L382.581,74.639L382.785,76.158L382.988,74.171L383.192,74.288L383.396,73.178L383.6,64.821L383.804,64.003L384.008,65.522L384.211,65.756L384.415,66.224L384.619,66.691L384.823,66.925L385.027,66.457L385.23,65.99L385.434,66.808L385.638,66.75L385.842,69.847L386.046,70.431L386.25,70.431L386.453,71.483L386.657,72.652L386.861,73.236L387.065,74.054L387.269,74.755L387.472,71.6L387.676,72.477L387.88,73.704L388.084,72.816L388.288,74.288L388.492,73.003L388.695,73.938L388.899,74.347L389.103,69.847L389.307,67.042L389.511,69.029L389.714,66.925L389.918,67.392L390.122,66.165L390.326,64.353L390.53,62.659L390.734,65.639L390.937,66.691L391.141,65.873L391.345,69.029L391.549,69.379L391.753,67.042L391.956,69.379L392.16,69.379L392.364,69.379L392.568,73.442L392.772,69.262L392.976,61.851L393.179,61.851L393.383,68.094L393.791,68.094L394.198,64.353L394.402,69.262L394.606,66.925L394.81,73.442L395.014,69.262L395.421,69.379L395.829,69.847L396.033,69.262L396.237,69.262L396.44,64.587L396.644,67.509L396.848,65.522L397.052,64.587L397.256,68.444L397.46,68.444L397.663,65.756L397.867,65.405L398.071,64.587L398.275,68.327L398.479,64.587L398.682,68.327L399.294,64.268L399.498,68.327L399.702,67.977L399.905,68.327L400.313,64.587L400.517,66.925L400.721,68.094L400.924,67.557L401.128,64.003L420.899,69.146L421.306,68.678L421.51,68.678L421.714,55.938L421.918,56.213L422.122,56.289L422.529,56.523L422.733,59.678L422.937,65.055L423.345,67.275L423.548,89.442L423.752,67.509L423.956,67.509L424.16,66.691L424.364,66.925L424.771,66.925L425.179,66.808L425.587,55.938L425.79,60.964L425.994,67.509L426.402,58.668L426.606,61.548L427.013,58.743L427.217,64.704L427.421,87.57L427.625,67.392L428.032,55.938L428.236,62.6L428.44,74.522L428.644,62.25L428.848,62.25L429.051,75.282L429.255,64.003L429.459,63.418L429.663,66.925L429.867,63.418L430.071,64.12L430.274,67.509L430.478,64.704L430.682,66.925L430.886,74.262L431.09,65.756L431.293,65.756L431.497,65.522L431.701,65.522L431.905,64.237L432.109,63.302L432.313,63.535L432.516,59.328L432.72,63.418L432.924,63.418L433.128,62.951L433.332,62.367L433.535,65.639L434.351,56.639L434.555,45.068L434.758,40.861L434.962,38.815L435.166,38.874L435.37,45.594L435.574,49.744L435.777,55.997L435.981,53.075L436.185,51.847L436.389,51.263L436.593,51.614L436.797,48.692L437,47.348L437.204,45.01L437.408,45.536L437.612,35.25L437.816,37.588L438.02,28.939L438.223,30.926L438.427,23.095L438.631,23.095L438.835,23.563L439.039,21.342L439.242,24.848L439.446,25.666L439.65,26.485L439.854,29.056L440.058,25.082L440.262,22.803L440.465,23.563L440.669,22.628L440.873,21.576L441.077,25.316L441.281,24.03L441.484,25.403L441.688,24.673L441.892,23.738L442.096,21.868L442.3,23.738L442.504,24.848L442.707,28.939L442.911,29.348L443.115,28.735L443.319,31.627L443.523,26.952L443.726,31.16L443.93,30.926L444.134,32.095L444.338,30.634L444.542,32.329L444.746,31.51L444.949,31.277L445.153,32.329L445.357,29.874L445.561,28.238L445.765,31.744L445.968,31.16L446.172,31.627L446.376,30.517L446.58,28.705L446.784,27.42L446.988,28.998L447.191,29.933L447.395,31.861L447.599,30.751L447.803,30.108L448.007,29.757L448.21,30.692L448.414,29.581L448.618,28.764L448.822,25.491L449.026,24.439L449.23,24.965L449.433,24.848L449.637,25.141L449.841,20.641L450.045,20.173L450.249,20.173L450.452,20.173L450.656,10L450.86,20.173L451.064,20.258L451.268,20.174L451.472,20.462L451.675,20.758L451.879,24.147L452.083,25.316L452.287,22.588L452.491,20.29L452.694,17.522L452.898,20.173L453.102,20.29L453.306,19.939L453.51,20.29L453.714,20.874L453.917,20.874L454.121,20.874L454.325,20.173L454.529,20.177L454.733,20.67L454.936,26.251L455.14,23.563L455.344,27.77L455.752,20.173L455.956,20.874L456.159,20.407L456.363,20.874L456.567,25.9L456.975,20.874L457.178,21.108L457.382,25.9L457.79,21.342L457.994,21.342L458.198,24.264L458.401,23.747L458.809,20.991L459.013,23.446L459.217,21.926L459.42,20.991L459.828,20.874L460,20.874" fill="transparent" stroke="#87ceeb" stroke-width="2"/>
                        <path transform="translate(10,10)" d="M10,145L10.408,145L10.815,145L11.019,145L11.223,145L11.427,145L11.631,145L11.834,145L12.038,145L12.242,145L12.446,145L12.853,145L13.465,145L13.669,145L13.873,145L14.076,145L14.28,145L14.484,145L14.892,145L15.299,145L15.503,145L15.707,145L15.911,145L16.318,145L16.522,145L16.93,145L17.134,145L17.337,145L17.541,145L17.745,145L17.949,145L18.357,145L18.56,145L18.764,145L18.968,145L19.172,145L19.376,145L19.579,145L19.783,145L19.987,145L20.191,145L20.395,145L20.599,145L20.802,145L21.006,145L21.21,145L21.414,145L21.618,145L21.821,145L22.025,145L22.229,145L22.433,145L22.637,145L23.452,145L23.656,145L23.86,145L24.063,145L24.267,145L24.471,145L24.675,145L24.879,145L25.083,145L25.286,145L25.49,145L25.694,145L25.898,145L26.102,145L26.306,145L26.509,145L26.713,145L26.917,145L27.121,145L27.325,145L27.528,145L27.732,145L27.936,145L28.14,145L28.344,145L28.548,145L28.751,145L28.955,145L29.159,145L29.363,145L29.567,145L29.77,145L29.974,145L30.178,145L30.382,145L30.586,145L30.79,145L30.993,145L31.197,145L31.401,145L31.605,145L31.809,145L32.012,145L32.216,145L32.42,145L32.624,145L32.828,145L33.032,145L33.235,145L33.439,145L33.643,145L33.847,145L34.051,145L34.254,145L34.458,145L34.662,145L34.866,145L35.07,145L35.274,145L35.477,145L35.681,145L35.885,145L36.089,145L36.293,145L36.496,145L36.7,145L36.904,145L37.108,145L37.312,145L37.516,145L37.719,145L37.923,145L38.127,145L38.331,145L38.535,145L38.738,145L38.942,145L39.146,145L39.35,145L39.554,145L39.758,145L39.961,145L40.165,145L40.369,145L40.573,145L40.777,145L41.184,145L41.592,145L41.796,145L42,145L42.203,145L42.407,145L42.611,145L42.815,145L43.019,145L43.222,145L43.426,145L43.63,145L43.834,145L44.038,145L44.242,145L44.445,145L44.853,145L45.057,145L45.261,145L45.464,145L45.872,145L46.076,145L46.484,145L46.687,145L47.095,145L47.299,145L47.503,145L47.706,145L47.91,145L48.114,145L48.318,145L48.726,145L48.929,145L244.799,145L245.207,145L245.411,145L245.615,145L245.818,145L246.022,145L246.43,145L247.041,145L247.245,145L247.449,145L247.653,145L247.857,145L248.264,145L248.468,145L248.876,145L249.079,145L249.283,145L249.487,145L249.895,145L250.099,145L250.302,145L250.506,145L250.71,145L250.914,145L251.321,145L251.525,145L251.933,145L252.137,145L252.341,145L252.544,145L252.748,145L252.952,145L253.156,145L253.36,145L253.563,145L253.767,145L253.971,145L254.175,145L254.379,145L254.583,145L254.786,145L254.99,145L255.194,145L255.398,145L255.805,145L256.009,145L256.213,145L256.417,145L256.621,145L256.825,145L257.028,145L257.232,145L257.436,145L258.251,145L258.455,145L258.659,145L258.863,145L259.067,145L259.27,145L259.474,145L259.678,145L259.882,145L260.086,145L260.289,145L260.493,145L260.697,145L260.901,145L261.105,145L261.309,145L261.512,145L261.716,145L261.92,145L262.124,145L262.328,145L262.532,145L262.735,145L262.939,145L263.143,145L263.347,145L263.551,145L263.754,145L263.958,145L264.162,145L264.366,145L264.57,145L264.774,145L264.977,145L265.181,145L265.385,145L265.589,145L265.793,145L265.996,145L266.2,145L266.404,145L266.608,145L266.812,145L267.016,145L267.219,145L267.423,145L267.627,145L267.831,145L268.035,145L268.238,145L268.442,145L268.646,145L268.85,145L269.054,145L269.258,145L269.461,145L269.665,145L269.869,145L270.073,145L270.277,145L270.48,145L270.684,145L270.888,145L271.092,145L271.296,145L271.5,145L271.703,145L271.907,145L272.111,145L272.315,145L272.519,145L272.722,145L272.926,145L273.13,145L273.334,145L273.538,145L273.742,145L273.945,145L274.149,145L274.353,145L274.557,145L274.761,145L274.964,145L275.168,145L275.372,145L275.576,145L275.78,145L275.984,145L276.187,145L276.391,145L276.595,145L276.799,145L277.003,145L277.206,145L277.614,145L277.818,145L278.429,145L278.633,145L278.837,145L279.041,145L279.448,145L279.652,145L280.468,145L280.671,145L280.875,145L281.079,145L281.283,145L281.487,145L281.894,145L282.302,145L282.71,145L282.913,145L283.117,145L283.321,145L283.525,145L283.729,145L303.499,145L303.703,145L303.907,145L304.111,145L304.314,145L304.518,145L304.722,145L305.13,145L305.333,145L305.537,145L305.945,145L306.353,145L307.779,145L307.983,145L308.595,145L308.798,145L309.002,145L309.206,145L309.41,145L309.614,145L309.817,145L310.021,145L310.633,145L310.837,145L311.04,145L311.244,145L311.448,145L311.652,145L311.856,145L312.059,145L312.467,145L312.671,145L312.875,145L313.079,145L313.282,145L313.486,145L313.69,145L313.894,145L314.098,145L314.301,145L314.505,145L314.709,145L314.913,145L315.117,145L315.321,145L315.524,145L315.728,145L315.932,145L316.136,145L316.951,145L317.155,145L317.359,145L317.563,145L317.766,145L317.97,145L318.174,145L318.378,145L318.582,145L318.785,145L318.989,145L319.193,145L319.397,145L319.601,145L319.805,145L320.008,145L320.212,145L320.416,145L320.62,145L320.824,145L321.028,145L321.231,145L321.435,145L321.639,145L321.843,145L322.047,145L322.25,145L322.454,145L322.658,145L322.862,145L323.066,145L323.27,145L323.473,145L323.677,145L323.881,145L324.085,145L324.289,145L324.492,145L324.696,145L324.9,145L325.104,145L325.308,145L325.512,145L325.715,145L325.919,145L326.123,145L326.327,145L326.531,145L326.734,145L326.938,145L327.142,145L327.346,145L327.55,145L327.754,145L327.957,145L328.161,145L328.365,145L328.569,145L328.773,145L328.976,145L329.18,145L329.384,145L329.588,145L329.792,145L329.996,145L330.199,145L330.403,145L330.607,145L330.811,145L331.015,145L331.218,145L331.422,145L331.626,145L331.83,145L332.034,145L332.238,145L332.441,145L332.645,145L332.849,145L333.053,145L333.257,145L333.46,145L333.664,145L334.072,145L334.276,145L334.48,145L334.683,145L334.887,145L335.091,145L335.295,145L335.702,145L336.11,145L336.314,145L336.518,145L336.722,145L337.129,145L337.537,145L337.741,145L337.944,145L338.352,145L338.556,145L338.76,145L338.964,145L339.371,145L339.575,145L339.779,145L339.983,145L340.186,145L340.594,145L340.798,145L341.002,145L341.206,145L341.613,145L342.021,145L342.225,145L342.428,145L362.199,145L362.403,145L362.607,145L363.014,145L363.422,145L364.441,145L365.256,145L367.091,145L367.498,145L368.11,145L368.925,145L369.536,145L369.74,145L369.944,145L370.148,145L370.759,145L370.963,145L371.371,145L371.575,145L371.778,145L371.982,145L372.186,145L372.39,145L372.797,145L373.001,145L373.205,145L373.409,145L373.613,145L373.817,145L374.02,145L374.224,145L374.428,145L374.632,145L374.836,145L375.651,145L375.855,145L376.059,145L376.262,145L376.466,145L376.67,145L376.874,145L377.078,145L377.281,145L377.485,145L377.689,145L377.893,145L378.097,145L378.301,145L378.504,145L378.708,145L378.912,145L379.116,145L379.32,145L379.524,145L379.727,145L379.931,145L380.135,145L380.339,145L380.543,145L380.746,145L380.95,145L381.154,145L381.358,145L381.562,145L381.766,145L381.969,145L382.173,145L382.377,145L382.581,145L382.785,145L382.988,145L383.192,145L383.396,145L383.6,145L383.804,145L384.008,145L384.211,145L384.415,145L384.619,145L384.823,145L385.027,145L385.23,145L385.434,145L385.638,145L385.842,145L386.046,145L386.25,145L386.453,145L386.657,145L386.861,145L387.065,145L387.269,145L387.472,145L387.676,145L387.88,145L388.084,145L388.288,145L388.492,145L388.695,145L388.899,145L389.103,145L389.307,145L389.511,145L389.714,145L389.918,145L390.122,145L390.326,145L390.53,145L390.734,145L390.937,145L391.141,145L391.345,145L391.549,145L391.753,145L391.956,145L392.16,145L392.364,145L392.568,145L392.772,145L392.976,145L393.179,145L393.383,145L393.791,145L394.198,145L394.402,145L394.606,145L394.81,145L395.014,145L395.421,145L395.829,145L396.033,145L396.237,145L396.44,145L396.644,145L396.848,145L397.052,145L397.256,145L397.46,145L397.663,145L397.867,145L398.071,145L398.275,145L398.479,145L398.682,145L399.294,145L399.498,145L399.702,145L399.905,145L400.313,145L400.517,145L400.721,145L400.924,145L401.128,145L420.899,145L421.306,145L421.51,145L421.714,145L421.918,145L422.122,145L422.529,145L422.733,145L422.937,145L423.345,145L423.548,145L423.752,145L423.956,145L424.16,145L424.364,145L424.771,145L425.179,145L425.587,145L425.79,145L425.994,145L426.402,145L426.606,145L427.013,145L427.217,145L427.421,145L427.625,145L428.032,145L428.236,145L428.44,145L428.644,145L428.848,145L429.051,145L429.255,145L429.459,145L429.663,145L429.867,145L430.071,145L430.274,145L430.478,145L430.682,145L430.886,145L431.09,145L431.293,145L431.497,145L431.701,145L431.905,145L432.109,145L432.313,145L432.516,145L432.72,145L432.924,145L433.128,145L433.332,145L433.535,145L434.351,145L434.555,145L434.758,145L434.962,145L435.166,145L435.37,145L435.574,145L435.777,145L435.981,145L436.185,145L436.389,145L436.593,145L436.797,145L437,145L437.204,145L437.408,145L437.612,145L437.816,145L438.02,145L438.223,145L438.427,145L438.631,145L438.835,145L439.039,145L439.242,145L439.446,145L439.65,145L439.854,145L440.058,145L440.262,145L440.465,145L440.669,145L440.873,145L441.077,145L441.281,145L441.484,145L441.688,145L441.892,145L442.096,145L442.3,145L442.504,145L442.707,145L442.911,145L443.115,145L443.319,145L443.523,145L443.726,145L443.93,145L444.134,145L444.338,145L444.542,145L444.746,145L444.949,145L445.153,145L445.357,145L445.561,145L445.765,145L445.968,145L446.172,145L446.376,145L446.58,145L446.784,145L446.988,145L447.191,145L447.395,145L447.599,145L447.803,145L448.007,145L448.21,145L448.414,145L448.618,145L448.822,145L449.026,145L449.23,145L449.433,145L449.637,145L449.841,145L450.045,145L450.249,145L450.452,145L450.656,145L450.86,145L451.064,145L451.268,145L451.472,145L451.675,145L451.879,145L452.083,145L452.287,145L452.491,145L452.694,145L452.898,145L453.102,145L453.306,145L453.51,145L453.714,145L453.917,145L454.121,145L454.325,145L454.529,145L454.733,145L454.936,145L455.14,145L455.344,145L455.752,145L455.956,145L456.159,145L456.363,145L456.567,145L456.975,145L457.178,145L457.382,145L457.79,145L457.994,145L458.198,145L458.401,145L458.809,145L459.013,145L459.217,145L459.42,145L459.828,145L460,145L460,20.874L459.828,20.874L459.42,20.991L459.217,21.926L459.013,23.446L458.809,20.991L458.401,23.747L458.198,24.264L457.994,21.342L457.79,21.342L457.382,25.9L457.178,21.108L456.975,20.874L456.567,25.9L456.363,20.874L456.159,20.407L455.956,20.874L455.752,20.173L455.344,27.77L455.14,23.563L454.936,26.251L454.733,20.67L454.529,20.177L454.325,20.173L454.121,20.874L453.917,20.874L453.714,20.874L453.51,20.29L453.306,19.939L453.102,20.29L452.898,20.173L452.694,17.522L452.491,20.29L452.287,22.588L452.083,25.316L451.879,24.147L451.675,20.758L451.472,20.462L451.268,20.174L451.064,20.258L450.86,20.173L450.656,10L450.452,20.173L450.249,20.173L450.045,20.173L449.841,20.641L449.637,25.141L449.433,24.848L449.23,24.965L449.026,24.439L448.822,25.491L448.618,28.764L448.414,29.581L448.21,30.692L448.007,29.757L447.803,30.108L447.599,30.751L447.395,31.861L447.191,29.933L446.988,28.998L446.784,27.42L446.58,28.705L446.376,30.517L446.172,31.627L445.968,31.16L445.765,31.744L445.561,28.238L445.357,29.874L445.153,32.329L444.949,31.277L444.746,31.51L444.542,32.329L444.338,30.634L444.134,32.095L443.93,30.926L443.726,31.16L443.523,26.952L443.319,31.627L443.115,28.735L442.911,29.348L442.707,28.939L442.504,24.848L442.3,23.738L442.096,21.868L441.892,23.738L441.688,24.673L441.484,25.403L441.281,24.03L441.077,25.316L440.873,21.576L440.669,22.628L440.465,23.563L440.262,22.803L440.058,25.082L439.854,29.056L439.65,26.485L439.446,25.666L439.242,24.848L439.039,21.342L438.835,23.563L438.631,23.095L438.427,23.095L438.223,30.926L438.02,28.939L437.816,37.588L437.612,35.25L437.408,45.536L437.204,45.01L437,47.348L436.797,48.692L436.593,51.614L436.389,51.263L436.185,51.847L435.981,53.075L435.777,55.997L435.574,49.744L435.37,45.594L435.166,38.874L434.962,38.815L434.758,40.861L434.555,45.068L434.351,56.639L433.535,65.639L433.332,62.367L433.128,62.951L432.924,63.418L432.72,63.418L432.516,59.328L432.313,63.535L432.109,63.302L431.905,64.237L431.701,65.522L431.497,65.522L431.293,65.756L431.09,65.756L430.886,74.262L430.682,66.925L430.478,64.704L430.274,67.509L430.071,64.12L429.867,63.418L429.663,66.925L429.459,63.418L429.255,64.003L429.051,75.282L428.848,62.25L428.644,62.25L428.44,74.522L428.236,62.6L428.032,55.938L427.625,67.392L427.421,87.57L427.217,64.704L427.013,58.743L426.606,61.548L426.402,58.668L425.994,67.509L425.79,60.964L425.587,55.938L425.179,66.808L424.771,66.925L424.364,66.925L424.16,66.691L423.956,67.509L423.752,67.509L423.548,89.442L423.345,67.275L422.937,65.055L422.733,59.678L422.529,56.523L422.122,56.289L421.918,56.213L421.714,55.938L421.51,68.678L421.306,68.678L420.899,69.146L401.128,64.003L400.924,67.557L400.721,68.094L400.517,66.925L400.313,64.587L399.905,68.327L399.702,67.977L399.498,68.327L399.294,64.268L398.682,68.327L398.479,64.587L398.275,68.327L398.071,64.587L397.867,65.405L397.663,65.756L397.46,68.444L397.256,68.444L397.052,64.587L396.848,65.522L396.644,67.509L396.44,64.587L396.237,69.262L396.033,69.262L395.829,69.847L395.421,69.379L395.014,69.262L394.81,73.442L394.606,66.925L394.402,69.262L394.198,64.353L393.791,68.094L393.383,68.094L393.179,61.851L392.976,61.851L392.772,69.262L392.568,73.442L392.364,69.379L392.16,69.379L391.956,69.379L391.753,67.042L391.549,69.379L391.345,69.029L391.141,65.873L390.937,66.691L390.734,65.639L390.53,62.659L390.326,64.353L390.122,66.165L389.918,67.392L389.714,66.925L389.511,69.029L389.307,67.042L389.103,69.847L388.899,74.347L388.695,73.938L388.492,73.003L388.288,74.288L388.084,72.816L387.88,73.704L387.676,72.477L387.472,71.6L387.269,74.755L387.065,74.054L386.861,73.236L386.657,72.652L386.453,71.483L386.25,70.431L386.046,70.431L385.842,69.847L385.638,66.75L385.434,66.808L385.23,65.99L385.027,66.457L384.823,66.925L384.619,66.691L384.415,66.224L384.211,65.756L384.008,65.522L383.804,64.003L383.6,64.821L383.396,73.178L383.192,74.288L382.988,74.171L382.785,76.158L382.581,74.639L382.377,77.093L382.173,73.821L381.969,73.704L381.766,75.165L381.562,75.632L381.358,73.412L381.154,78.145L380.95,75.515L380.746,76.45L380.543,77.911L380.339,75.407L380.135,78.613L379.931,78.788L379.727,78.379L379.524,75.808L379.32,74.873L379.116,78.145L378.912,79.139L378.708,79.84L378.504,85.976L378.301,91.586L378.097,90.564L377.893,83.872L377.689,81.535L377.485,79.782L377.281,77.006L377.078,90.827L376.874,86.736L376.67,86.911L376.466,85.976L376.262,86.794L376.059,87.379L375.855,87.729L375.651,99.067L374.836,116.11L374.632,115.897L374.428,101.989L374.224,109.235L374.02,109.235L373.817,101.989L373.613,118.936L373.409,117.524L373.205,99.183L373.001,110.053L372.797,110.053L372.39,102.456L372.186,111.456L371.982,110.754L371.778,110.754L371.575,110.754L371.371,110.871L370.963,113.56L370.759,113.653L370.148,101.989L369.944,97.898L369.74,95.56L369.536,94.859L368.925,97.898L368.11,97.898L367.498,97.664L367.091,97.664L365.256,97.898L364.441,97.898L363.422,97.898L363.014,117.307L362.607,117.237L362.403,117.237L362.199,99.534L342.428,125.364L342.225,106.664L342.021,90.418L341.613,98.482L341.206,92.026L341.002,92.026L340.798,90.418L340.594,98.716L340.186,94.859L339.983,127.234L339.779,101.989L339.575,94.859L339.371,90.301L338.964,90.301L338.76,86.327L338.556,85.201L338.352,84.457L337.944,89.366L337.741,86.327L337.537,86.327L337.129,85.258L336.722,86.21L336.518,94.859L336.314,86.21L336.11,85.275L335.702,84.665L335.295,86.444L335.091,87.028L334.887,94.859L334.683,90.184L334.48,90.067L334.276,90.301L334.072,87.457L333.664,94.859L333.46,94.976L333.257,94.859L333.053,94.859L332.849,94.859L332.645,94.684L332.441,93.223L332.238,96.846L332.034,95.268L331.83,94.625L331.626,92.288L331.422,94.391L331.218,90.009L331.015,91.703L330.811,91.119L330.607,90.417L330.403,90.534L330.199,90.301L329.996,90.301L329.792,92.054L329.588,94.508L329.384,100.235L329.18,100.819L328.976,101.813L328.773,102.807L328.569,102.807L328.365,105.086L328.161,104.209L327.957,104.034L327.754,99.768L327.55,100.06L327.346,103.859L327.142,102.105L326.938,101.872L326.734,100.469L326.531,101.929L326.327,101.696L326.123,104.602L325.919,107.599L325.715,106.781L325.512,106.43L325.308,107.219L325.104,104.56L324.9,106.547L324.696,104.677L324.492,107.19L324.289,104.56L324.085,108.3L323.881,108.125L323.677,109.644L323.473,111.865L323.27,112.449L323.066,114.612L322.862,111.982L322.658,117.124L322.454,118.235L322.25,118.235L322.047,122.384L321.843,117.884L321.639,122.092L321.435,116.248L321.231,116.774L321.028,112.391L320.824,106.021L320.62,105.203L320.416,105.144L320.212,105.846L320.008,107.014L319.805,106.781L319.601,103.508L319.397,110.112L319.193,113.326L318.989,116.832L318.785,111.865L318.582,115.897L318.378,129.105L318.174,138.163L317.97,137.52L317.766,127.877L317.563,145L317.359,135.883L317.155,118.819L316.951,101.872L316.136,87.612L315.932,81.301L315.728,83.872L315.524,79.665L315.321,81.067L315.117,89.132L314.913,81.301L314.709,79.548L314.505,78.73L314.301,82.82L314.098,79.782L313.894,87.846L313.69,86.911L313.486,89.132L313.282,83.872L313.079,81.535L312.875,75.691L312.671,89.015L312.467,89.015L312.059,78.846L311.856,78.846L311.652,81.535L311.448,84.457L311.244,82.236L311.04,82.236L310.837,89.366L310.633,77.678L310.021,77.678L309.817,77.678L309.614,77.678L309.41,78.262L309.206,78.262L309.002,78.496L308.798,77.678L308.595,71.951L307.983,81.067L307.779,82.236L306.353,72.418L305.945,72.418L305.537,78.613L305.333,81.768L305.13,82.236L304.722,78.613L304.518,81.885L304.314,82.236L304.111,88.898L303.907,85.158L303.703,85.158L303.499,86.677L283.729,93.924L283.525,93.924L283.321,94.041L283.117,94.391L282.913,96.729L282.71,96.729L282.302,97.313L281.894,97.313L281.487,97.313L281.283,97.892L281.079,97.313L280.875,98.19L280.671,98.916L280.468,98.916L279.652,99.067L279.448,98.95L279.041,98.924L278.837,97.541L278.633,98.923L278.429,97.541L277.818,98.922L277.614,97.323L277.206,98.949L277.003,97.898L276.799,98.599L276.595,96.786L276.391,97.313L276.187,98.482L275.984,97.781L275.78,98.535L275.576,95.56L275.372,95.56L275.168,99.067L274.964,99.768L274.761,96.145L274.557,93.106L274.353,92.638L274.149,93.106L273.945,93.515L273.742,92.404L273.538,96.265L273.334,95.326L273.13,94.684L272.926,97.313L272.722,101.054L272.519,100.586L272.315,100.703L272.111,102.105L271.907,101.521L271.703,102.281L271.5,103.859L271.296,103.713L271.092,104.56L270.888,106.196L270.684,106.664L270.48,106.547L270.277,107.833L270.073,107.248L269.869,107.54L269.665,109.586L269.461,112.917L269.258,113.56L269.054,113.326L268.85,113.676L268.646,112.099L268.442,108.358L268.238,108.884L268.035,107.833L267.831,109.703L267.627,108.066L267.423,109.586L267.219,109.586L267.016,111.806L266.812,112.508L266.608,112.685L266.404,110.286L266.2,112.449L265.996,110.988L265.793,108.884L265.589,109.469L265.385,106.897L265.181,104.794L264.977,104.911L264.774,106.664L264.57,105.24L264.366,105.378L264.162,104.794L263.958,105.846L263.754,104.326L263.551,104.443L263.347,106.43L263.143,107.599L262.939,106.897L262.735,104.735L262.532,102.69L262.328,105.144L262.124,104.326L261.92,104.326L261.716,101.404L261.512,104.326L261.309,102.924L261.105,109.235L260.901,103.216L260.697,109.001L260.493,110.17L260.289,107.833L260.086,111.222L259.882,105.144L259.678,94.508L259.474,91.119L259.27,87.379L259.067,82.645L258.863,76.275L258.659,74.931L258.455,71.775L258.251,74.054L257.436,78.028L257.232,78.73L257.028,78.613L256.825,72.535L256.621,75.925L256.417,72.535L256.213,72.418L256.009,77.444L255.805,68.444L255.398,84.057L255.194,76.158L254.99,76.158L254.786,76.158L254.583,77.678L254.379,78.379L254.175,78.262L253.971,81.768L253.767,76.422L253.563,79.782L253.36,77.444L253.156,77.911L252.952,82.119L252.748,81.652L252.544,80.95L252.341,86.561L252.137,78.496L251.933,82.236L251.525,84.574L251.321,90.301L250.914,79.431L250.71,79.314L250.506,81.418L250.302,79.08L250.099,78.73L249.895,78.73L249.487,71.132L249.283,71.132L249.079,80.95L248.876,79.782L248.468,89.661L248.264,78.613L247.857,69.262L247.653,69.728L247.449,80.366L247.245,76.041L247.041,78.028L246.43,75.691L246.022,74.756L245.818,77.911L245.615,77.911L245.411,77.795L245.207,80.717L244.799,80.717L48.929,96.261L48.726,102.047L48.318,103.859L48.114,103.859L47.91,101.994L47.706,97.021L47.503,99.3L47.299,99.067L47.095,101.989L46.687,97.021L46.484,99.067L46.076,96.495L45.872,99.067L45.464,99.067L45.261,99.417L45.057,90.301L44.853,93.912L44.445,95.56L44.242,96.963L44.038,100.352L43.834,102.573L43.63,103.742L43.426,103.742L43.222,98.248L43.019,98.295L42.815,101.638L42.611,98.599L42.407,100.469L42.203,96.145L42,101.638L41.796,101.638L41.592,101.638L41.184,99.417L40.777,78.613L40.573,78.613L40.369,97.664L40.165,99.417L39.961,101.638L39.758,101.638L39.554,101.404L39.35,101.638L39.146,101.404L38.942,99.651L38.738,100.586L38.535,98.495L38.331,98.365L38.127,96.729L37.923,95.677L37.719,94.976L37.516,92.288L37.312,90.71L37.108,90.183L36.904,91.294L36.7,87.145L36.496,84.105L36.293,86.97L36.089,87.737L35.885,86.794L35.681,86.151L35.477,87.963L35.274,85.275L35.07,86.327L34.866,88.314L34.662,86.677L34.458,84.457L34.254,84.281L34.051,87.028L33.847,85.684L33.643,84.457L33.439,83.638L33.235,83.054L33.032,78.028L32.828,87.729L32.624,88.898L32.42,85.509L32.216,82.353L32.012,83.468L31.809,85.918L31.605,81.944L31.401,82.353L31.197,81.944L30.993,82.119L30.79,83.522L30.586,85.626L30.382,87.495L30.178,87.963L29.974,88.664L29.77,89.716L29.567,89.249L29.363,89.307L29.159,87.028L28.955,87.262L28.751,88.758L28.548,89.599L28.344,88.548L28.14,86.21L27.936,88.08L27.732,89.482L27.528,91.353L27.325,91.47L27.121,91.236L26.917,90.885L26.713,92.697L26.509,91.762L26.306,87.612L26.102,88.84L25.898,93.223L25.694,92.171L25.49,94.741L25.286,91.002L25.083,92.93L24.879,87.028L24.675,86.882L24.471,90.768L24.267,92.521L24.063,93.924L23.86,95.21L23.656,101.696L23.452,92.638L22.637,88.314L22.433,89.278L22.229,87.379L22.025,90.885L21.821,94.275L21.618,94.538L21.414,100.82L21.21,85.041L21.006,96.145L20.802,96.145L20.599,93.223L20.395,90.418L20.191,92.638L19.987,101.404L19.783,98.95L19.579,97.43L19.376,97.43L19.172,97.43L18.968,98.482L18.764,104.209L18.56,100.703L18.357,101.989L17.949,101.054L17.745,92.638L17.541,96.145L17.337,96.145L17.134,93.223L16.93,90.301L16.522,99.067L16.318,99.067L15.911,98.482L15.707,98.482L15.503,99.885L15.299,99.885L14.892,99.856L14.484,93.106L14.28,90.301L14.076,90.301L13.873,98.833L13.669,100.82L13.465,90.418L12.853,100.586L12.446,100.586L12.242,100.937L12.038,101.054L11.834,101.054L11.631,91.586L11.427,99.768L11.223,100.469L11.019,95.21L10.815,91.469L10.408,95.21L10,95.21Z" fill="rgba(88, 166, 255, .1)"/>
                    </svg>
                </div>
            </section>
        </div>
        <div xmlns="http://www.w3.org/1999/xhtml" id="metrics-end"></div>
    </foreignObject>
</svg>