<svg xmlns="http://www.w3.org/2000/svg" width="440" height="132" viewBox="0 0 440 132" role="img" aria-label="futu_tick_downloader repository">
<title>futu_tick_downloader repository</title>
<style>
text{font-family:-apple-system,BlinkMacSystemFont,'Segoe UI','Noto Sans',Helvetica,Arial,sans-serif;fill:#1f2328}
.mono{font-family:ui-monospace,SFMono-Regular,'SF Mono',Menlo,Consolas,'Liberation Mono',monospace}
.muted{fill:#656d76}
.accent{fill:#b7791f}
.up{fill:#1a7f37}
.down{fill:#cf222e}
.link{fill:#0969da}
.fade{animation:fade .6s ease-out backwards}
@keyframes fade{from{opacity:0;transform:translateY(4px)}to{opacity:1;transform:none}}
@keyframes blink{50%{opacity:.25}}
.live{animation:blink 1.6s ease-in-out infinite}
@media (prefers-reduced-motion:reduce){.fade,.live{animation:none}}
</style>
<rect x=".5" y=".5" width="439" height="131" rx="10" fill="#ffffff" stroke="#d0d7de"/>
<path transform="translate(22,17) scale(1)" fill="#656d76" d="M2 2.5A2.5 2.5 0 0 1 4.5 0h8.75a.75.75 0 0 1 .75.75v12.5a.75.75 0 0 1-.75.75h-2.5a.75.75 0 0 1 0-1.5h1.75v-2h-8a1 1 0 0 0-.714 1.7.75.75 0 1 1-1.072 1.05A2.495 2.495 0 0 1 2 11.5Zm10.5-1h-8a1 1 0 0 0-1 1v6.708A2.486 2.486 0 0 1 4.5 9h8ZM5 12.25a.25.25 0 0 1 .25-.25h3.5a.25.25 0 0 1 .25.25v3.25a.25.25 0 0 1-.4.2l-1.45-1.087a.249.249 0 0 0-.3 0L5.4 15.7a.25.25 0 0 1-.4-.2Z"/><text x="46" y="30" font-size="14.5" font-weight="600" class="link">futu_tick_downloader</text><text x="22" y="58" font-size="12.5" class="muted">富途牛牛港股实时分笔数据自动存储解决方案（支持服务器配置</text><text x="22" y="77" font-size="12.5" class="muted">24/7运行）</text><circle cx="28" cy="108" r="6" fill="#3572A5"/><text x="39" y="112" font-size="12">Python</text><text x="89.44" y="112" font-size="12" class="mono">★ 13</text><text x="153.44" y="112" font-size="12" class="mono">⑂ 3</text><text x="418" y="112" font-size="11" class="muted" text-anchor="end">updated today</text>
</svg>
